G04 #@! TF.GenerationSoftware,KiCad,Pcbnew,(5.1.5)-3*
G04 #@! TF.CreationDate,2020-01-25T15:55:35+03:00*
G04 #@! TF.ProjectId,CASIO PB-1000 YM2413 Soundcard,43415349-4f20-4504-922d-313030302059,rev?*
G04 #@! TF.SameCoordinates,Original*
G04 #@! TF.FileFunction,Legend,Top*
G04 #@! TF.FilePolarity,Positive*
%FSLAX46Y46*%
G04 Gerber Fmt 4.6, Leading zero omitted, Abs format (unit mm)*
G04 Created by KiCad (PCBNEW (5.1.5)-3) date 2020-01-25 15:55:35*
%MOMM*%
%LPD*%
G04 APERTURE LIST*
%ADD10C,0.250000*%
%ADD11C,0.150000*%
%ADD12C,0.300000*%
%ADD13C,0.010000*%
%ADD14C,0.120000*%
%ADD15C,0.100000*%
%ADD16C,0.152400*%
G04 APERTURE END LIST*
D10*
X128976666Y-129357380D02*
X128976666Y-128357380D01*
X128976666Y-128833571D02*
X129548095Y-128833571D01*
X129548095Y-129357380D02*
X129548095Y-128357380D01*
X129929047Y-128357380D02*
X130167142Y-129357380D01*
X130357619Y-128643095D01*
X130548095Y-129357380D01*
X130786190Y-128357380D01*
X131738571Y-129357380D02*
X131405238Y-128881190D01*
X131167142Y-129357380D02*
X131167142Y-128357380D01*
X131548095Y-128357380D01*
X131643333Y-128405000D01*
X131690952Y-128452619D01*
X131738571Y-128547857D01*
X131738571Y-128690714D01*
X131690952Y-128785952D01*
X131643333Y-128833571D01*
X131548095Y-128881190D01*
X131167142Y-128881190D01*
X132357619Y-128357380D02*
X132452857Y-128357380D01*
X132548095Y-128405000D01*
X132595714Y-128452619D01*
X132643333Y-128547857D01*
X132690952Y-128738333D01*
X132690952Y-128976428D01*
X132643333Y-129166904D01*
X132595714Y-129262142D01*
X132548095Y-129309761D01*
X132452857Y-129357380D01*
X132357619Y-129357380D01*
X132262380Y-129309761D01*
X132214761Y-129262142D01*
X132167142Y-129166904D01*
X132119523Y-128976428D01*
X132119523Y-128738333D01*
X132167142Y-128547857D01*
X132214761Y-128452619D01*
X132262380Y-128405000D01*
X132357619Y-128357380D01*
D11*
X134049523Y-128690714D02*
X133287619Y-128976428D01*
X134049523Y-129262142D01*
X134906666Y-129309761D02*
X134811428Y-129357380D01*
X134620952Y-129357380D01*
X134525714Y-129309761D01*
X134478095Y-129214523D01*
X134478095Y-128833571D01*
X134525714Y-128738333D01*
X134620952Y-128690714D01*
X134811428Y-128690714D01*
X134906666Y-128738333D01*
X134954285Y-128833571D01*
X134954285Y-128928809D01*
X134478095Y-129024047D01*
X135287619Y-128690714D02*
X135525714Y-129357380D01*
X135763809Y-128690714D01*
X136144761Y-129357380D02*
X136144761Y-128690714D01*
X136144761Y-128357380D02*
X136097142Y-128405000D01*
X136144761Y-128452619D01*
X136192380Y-128405000D01*
X136144761Y-128357380D01*
X136144761Y-128452619D01*
X136763809Y-129357380D02*
X136668571Y-129309761D01*
X136620952Y-129214523D01*
X136620952Y-128357380D01*
X137144761Y-129357380D02*
X137144761Y-128357380D01*
X137573333Y-129357380D02*
X137573333Y-128833571D01*
X137525714Y-128738333D01*
X137430476Y-128690714D01*
X137287619Y-128690714D01*
X137192380Y-128738333D01*
X137144761Y-128785952D01*
X138478095Y-129357380D02*
X138478095Y-128833571D01*
X138430476Y-128738333D01*
X138335238Y-128690714D01*
X138144761Y-128690714D01*
X138049523Y-128738333D01*
X138478095Y-129309761D02*
X138382857Y-129357380D01*
X138144761Y-129357380D01*
X138049523Y-129309761D01*
X138001904Y-129214523D01*
X138001904Y-129119285D01*
X138049523Y-129024047D01*
X138144761Y-128976428D01*
X138382857Y-128976428D01*
X138478095Y-128928809D01*
X138954285Y-129357380D02*
X138954285Y-128690714D01*
X138954285Y-128881190D02*
X139001904Y-128785952D01*
X139049523Y-128738333D01*
X139144761Y-128690714D01*
X139240000Y-128690714D01*
X140001904Y-129357380D02*
X140001904Y-128357380D01*
X140001904Y-129309761D02*
X139906666Y-129357380D01*
X139716190Y-129357380D01*
X139620952Y-129309761D01*
X139573333Y-129262142D01*
X139525714Y-129166904D01*
X139525714Y-128881190D01*
X139573333Y-128785952D01*
X139620952Y-128738333D01*
X139716190Y-128690714D01*
X139906666Y-128690714D01*
X140001904Y-128738333D01*
X140382857Y-128690714D02*
X140573333Y-129357380D01*
X140763809Y-128881190D01*
X140954285Y-129357380D01*
X141144761Y-128690714D01*
X141954285Y-129357380D02*
X141954285Y-128833571D01*
X141906666Y-128738333D01*
X141811428Y-128690714D01*
X141620952Y-128690714D01*
X141525714Y-128738333D01*
X141954285Y-129309761D02*
X141859047Y-129357380D01*
X141620952Y-129357380D01*
X141525714Y-129309761D01*
X141478095Y-129214523D01*
X141478095Y-129119285D01*
X141525714Y-129024047D01*
X141620952Y-128976428D01*
X141859047Y-128976428D01*
X141954285Y-128928809D01*
X142430476Y-129357380D02*
X142430476Y-128690714D01*
X142430476Y-128881190D02*
X142478095Y-128785952D01*
X142525714Y-128738333D01*
X142620952Y-128690714D01*
X142716190Y-128690714D01*
X143430476Y-129309761D02*
X143335238Y-129357380D01*
X143144761Y-129357380D01*
X143049523Y-129309761D01*
X143001904Y-129214523D01*
X143001904Y-128833571D01*
X143049523Y-128738333D01*
X143144761Y-128690714D01*
X143335238Y-128690714D01*
X143430476Y-128738333D01*
X143478095Y-128833571D01*
X143478095Y-128928809D01*
X143001904Y-129024047D01*
X144525714Y-128881190D02*
X144478095Y-128833571D01*
X144382857Y-128785952D01*
X144287619Y-128785952D01*
X144192380Y-128833571D01*
X144144761Y-128881190D01*
X144097142Y-128976428D01*
X144097142Y-129071666D01*
X144144761Y-129166904D01*
X144192380Y-129214523D01*
X144287619Y-129262142D01*
X144382857Y-129262142D01*
X144478095Y-129214523D01*
X144525714Y-129166904D01*
X144525714Y-128785952D02*
X144525714Y-129166904D01*
X144573333Y-129214523D01*
X144620952Y-129214523D01*
X144716190Y-129166904D01*
X144763809Y-129071666D01*
X144763809Y-128833571D01*
X144668571Y-128690714D01*
X144525714Y-128595476D01*
X144335238Y-128547857D01*
X144144761Y-128595476D01*
X144001904Y-128690714D01*
X143906666Y-128833571D01*
X143859047Y-129024047D01*
X143906666Y-129214523D01*
X144001904Y-129357380D01*
X144144761Y-129452619D01*
X144335238Y-129500238D01*
X144525714Y-129452619D01*
X144668571Y-129357380D01*
X145192380Y-129357380D02*
X145192380Y-128690714D01*
X145192380Y-128785952D02*
X145240000Y-128738333D01*
X145335238Y-128690714D01*
X145478095Y-128690714D01*
X145573333Y-128738333D01*
X145620952Y-128833571D01*
X145620952Y-129357380D01*
X145620952Y-128833571D02*
X145668571Y-128738333D01*
X145763809Y-128690714D01*
X145906666Y-128690714D01*
X146001904Y-128738333D01*
X146049523Y-128833571D01*
X146049523Y-129357380D01*
X146954285Y-129357380D02*
X146954285Y-128833571D01*
X146906666Y-128738333D01*
X146811428Y-128690714D01*
X146620952Y-128690714D01*
X146525714Y-128738333D01*
X146954285Y-129309761D02*
X146859047Y-129357380D01*
X146620952Y-129357380D01*
X146525714Y-129309761D01*
X146478095Y-129214523D01*
X146478095Y-129119285D01*
X146525714Y-129024047D01*
X146620952Y-128976428D01*
X146859047Y-128976428D01*
X146954285Y-128928809D01*
X147430476Y-129357380D02*
X147430476Y-128690714D01*
X147430476Y-128357380D02*
X147382857Y-128405000D01*
X147430476Y-128452619D01*
X147478095Y-128405000D01*
X147430476Y-128357380D01*
X147430476Y-128452619D01*
X148049523Y-129357380D02*
X147954285Y-129309761D01*
X147906666Y-129214523D01*
X147906666Y-128357380D01*
X148430476Y-129262142D02*
X148478095Y-129309761D01*
X148430476Y-129357380D01*
X148382857Y-129309761D01*
X148430476Y-129262142D01*
X148430476Y-129357380D01*
X148906666Y-129357380D02*
X148906666Y-128690714D01*
X148906666Y-128881190D02*
X148954285Y-128785952D01*
X149001904Y-128738333D01*
X149097142Y-128690714D01*
X149192380Y-128690714D01*
X149954285Y-128690714D02*
X149954285Y-129357380D01*
X149525714Y-128690714D02*
X149525714Y-129214523D01*
X149573333Y-129309761D01*
X149668571Y-129357380D01*
X149811428Y-129357380D01*
X149906666Y-129309761D01*
X149954285Y-129262142D01*
X150430476Y-128690714D02*
X151192380Y-128976428D01*
X150430476Y-129262142D01*
D12*
X113837285Y-91033285D02*
X113775380Y-91095190D01*
X113589666Y-91157095D01*
X113465857Y-91157095D01*
X113280142Y-91095190D01*
X113156333Y-90971380D01*
X113094428Y-90847571D01*
X113032523Y-90599952D01*
X113032523Y-90414238D01*
X113094428Y-90166619D01*
X113156333Y-90042809D01*
X113280142Y-89919000D01*
X113465857Y-89857095D01*
X113589666Y-89857095D01*
X113775380Y-89919000D01*
X113837285Y-89980904D01*
X114951571Y-91157095D02*
X114951571Y-90476142D01*
X114889666Y-90352333D01*
X114765857Y-90290428D01*
X114518238Y-90290428D01*
X114394428Y-90352333D01*
X114951571Y-91095190D02*
X114827761Y-91157095D01*
X114518238Y-91157095D01*
X114394428Y-91095190D01*
X114332523Y-90971380D01*
X114332523Y-90847571D01*
X114394428Y-90723761D01*
X114518238Y-90661857D01*
X114827761Y-90661857D01*
X114951571Y-90599952D01*
X115508714Y-91095190D02*
X115632523Y-91157095D01*
X115880142Y-91157095D01*
X116003952Y-91095190D01*
X116065857Y-90971380D01*
X116065857Y-90909476D01*
X116003952Y-90785666D01*
X115880142Y-90723761D01*
X115694428Y-90723761D01*
X115570619Y-90661857D01*
X115508714Y-90538047D01*
X115508714Y-90476142D01*
X115570619Y-90352333D01*
X115694428Y-90290428D01*
X115880142Y-90290428D01*
X116003952Y-90352333D01*
X116623000Y-91157095D02*
X116623000Y-90290428D01*
X116623000Y-89857095D02*
X116561095Y-89919000D01*
X116623000Y-89980904D01*
X116684904Y-89919000D01*
X116623000Y-89857095D01*
X116623000Y-89980904D01*
X117427761Y-91157095D02*
X117303952Y-91095190D01*
X117242047Y-91033285D01*
X117180142Y-90909476D01*
X117180142Y-90538047D01*
X117242047Y-90414238D01*
X117303952Y-90352333D01*
X117427761Y-90290428D01*
X117613476Y-90290428D01*
X117737285Y-90352333D01*
X117799190Y-90414238D01*
X117861095Y-90538047D01*
X117861095Y-90909476D01*
X117799190Y-91033285D01*
X117737285Y-91095190D01*
X117613476Y-91157095D01*
X117427761Y-91157095D01*
X119408714Y-91157095D02*
X119408714Y-89857095D01*
X119903952Y-89857095D01*
X120027761Y-89919000D01*
X120089666Y-89980904D01*
X120151571Y-90104714D01*
X120151571Y-90290428D01*
X120089666Y-90414238D01*
X120027761Y-90476142D01*
X119903952Y-90538047D01*
X119408714Y-90538047D01*
X121142047Y-90476142D02*
X121327761Y-90538047D01*
X121389666Y-90599952D01*
X121451571Y-90723761D01*
X121451571Y-90909476D01*
X121389666Y-91033285D01*
X121327761Y-91095190D01*
X121203952Y-91157095D01*
X120708714Y-91157095D01*
X120708714Y-89857095D01*
X121142047Y-89857095D01*
X121265857Y-89919000D01*
X121327761Y-89980904D01*
X121389666Y-90104714D01*
X121389666Y-90228523D01*
X121327761Y-90352333D01*
X121265857Y-90414238D01*
X121142047Y-90476142D01*
X120708714Y-90476142D01*
X122008714Y-90661857D02*
X122999190Y-90661857D01*
X124299190Y-91157095D02*
X123556333Y-91157095D01*
X123927761Y-91157095D02*
X123927761Y-89857095D01*
X123803952Y-90042809D01*
X123680142Y-90166619D01*
X123556333Y-90228523D01*
X125103952Y-89857095D02*
X125227761Y-89857095D01*
X125351571Y-89919000D01*
X125413476Y-89980904D01*
X125475380Y-90104714D01*
X125537285Y-90352333D01*
X125537285Y-90661857D01*
X125475380Y-90909476D01*
X125413476Y-91033285D01*
X125351571Y-91095190D01*
X125227761Y-91157095D01*
X125103952Y-91157095D01*
X124980142Y-91095190D01*
X124918238Y-91033285D01*
X124856333Y-90909476D01*
X124794428Y-90661857D01*
X124794428Y-90352333D01*
X124856333Y-90104714D01*
X124918238Y-89980904D01*
X124980142Y-89919000D01*
X125103952Y-89857095D01*
X126342047Y-89857095D02*
X126465857Y-89857095D01*
X126589666Y-89919000D01*
X126651571Y-89980904D01*
X126713476Y-90104714D01*
X126775380Y-90352333D01*
X126775380Y-90661857D01*
X126713476Y-90909476D01*
X126651571Y-91033285D01*
X126589666Y-91095190D01*
X126465857Y-91157095D01*
X126342047Y-91157095D01*
X126218238Y-91095190D01*
X126156333Y-91033285D01*
X126094428Y-90909476D01*
X126032523Y-90661857D01*
X126032523Y-90352333D01*
X126094428Y-90104714D01*
X126156333Y-89980904D01*
X126218238Y-89919000D01*
X126342047Y-89857095D01*
X127580142Y-89857095D02*
X127703952Y-89857095D01*
X127827761Y-89919000D01*
X127889666Y-89980904D01*
X127951571Y-90104714D01*
X128013476Y-90352333D01*
X128013476Y-90661857D01*
X127951571Y-90909476D01*
X127889666Y-91033285D01*
X127827761Y-91095190D01*
X127703952Y-91157095D01*
X127580142Y-91157095D01*
X127456333Y-91095190D01*
X127394428Y-91033285D01*
X127332523Y-90909476D01*
X127270619Y-90661857D01*
X127270619Y-90352333D01*
X127332523Y-90104714D01*
X127394428Y-89980904D01*
X127456333Y-89919000D01*
X127580142Y-89857095D01*
X113125380Y-93345190D02*
X113311095Y-93407095D01*
X113620619Y-93407095D01*
X113744428Y-93345190D01*
X113806333Y-93283285D01*
X113868238Y-93159476D01*
X113868238Y-93035666D01*
X113806333Y-92911857D01*
X113744428Y-92849952D01*
X113620619Y-92788047D01*
X113373000Y-92726142D01*
X113249190Y-92664238D01*
X113187285Y-92602333D01*
X113125380Y-92478523D01*
X113125380Y-92354714D01*
X113187285Y-92230904D01*
X113249190Y-92169000D01*
X113373000Y-92107095D01*
X113682523Y-92107095D01*
X113868238Y-92169000D01*
X114611095Y-93407095D02*
X114487285Y-93345190D01*
X114425380Y-93283285D01*
X114363476Y-93159476D01*
X114363476Y-92788047D01*
X114425380Y-92664238D01*
X114487285Y-92602333D01*
X114611095Y-92540428D01*
X114796809Y-92540428D01*
X114920619Y-92602333D01*
X114982523Y-92664238D01*
X115044428Y-92788047D01*
X115044428Y-93159476D01*
X114982523Y-93283285D01*
X114920619Y-93345190D01*
X114796809Y-93407095D01*
X114611095Y-93407095D01*
X116158714Y-92540428D02*
X116158714Y-93407095D01*
X115601571Y-92540428D02*
X115601571Y-93221380D01*
X115663476Y-93345190D01*
X115787285Y-93407095D01*
X115973000Y-93407095D01*
X116096809Y-93345190D01*
X116158714Y-93283285D01*
X116777761Y-92540428D02*
X116777761Y-93407095D01*
X116777761Y-92664238D02*
X116839666Y-92602333D01*
X116963476Y-92540428D01*
X117149190Y-92540428D01*
X117273000Y-92602333D01*
X117334904Y-92726142D01*
X117334904Y-93407095D01*
X118511095Y-93407095D02*
X118511095Y-92107095D01*
X118511095Y-93345190D02*
X118387285Y-93407095D01*
X118139666Y-93407095D01*
X118015857Y-93345190D01*
X117953952Y-93283285D01*
X117892047Y-93159476D01*
X117892047Y-92788047D01*
X117953952Y-92664238D01*
X118015857Y-92602333D01*
X118139666Y-92540428D01*
X118387285Y-92540428D01*
X118511095Y-92602333D01*
X119687285Y-93345190D02*
X119563476Y-93407095D01*
X119315857Y-93407095D01*
X119192047Y-93345190D01*
X119130142Y-93283285D01*
X119068238Y-93159476D01*
X119068238Y-92788047D01*
X119130142Y-92664238D01*
X119192047Y-92602333D01*
X119315857Y-92540428D01*
X119563476Y-92540428D01*
X119687285Y-92602333D01*
X120801571Y-93407095D02*
X120801571Y-92726142D01*
X120739666Y-92602333D01*
X120615857Y-92540428D01*
X120368238Y-92540428D01*
X120244428Y-92602333D01*
X120801571Y-93345190D02*
X120677761Y-93407095D01*
X120368238Y-93407095D01*
X120244428Y-93345190D01*
X120182523Y-93221380D01*
X120182523Y-93097571D01*
X120244428Y-92973761D01*
X120368238Y-92911857D01*
X120677761Y-92911857D01*
X120801571Y-92849952D01*
X121420619Y-93407095D02*
X121420619Y-92540428D01*
X121420619Y-92788047D02*
X121482523Y-92664238D01*
X121544428Y-92602333D01*
X121668238Y-92540428D01*
X121792047Y-92540428D01*
X122782523Y-93407095D02*
X122782523Y-92107095D01*
X122782523Y-93345190D02*
X122658714Y-93407095D01*
X122411095Y-93407095D01*
X122287285Y-93345190D01*
X122225380Y-93283285D01*
X122163476Y-93159476D01*
X122163476Y-92788047D01*
X122225380Y-92664238D01*
X122287285Y-92602333D01*
X122411095Y-92540428D01*
X122658714Y-92540428D01*
X122782523Y-92602333D01*
X124268238Y-92540428D02*
X124577761Y-93407095D01*
X124887285Y-92540428D01*
X126063476Y-93407095D02*
X125320619Y-93407095D01*
X125692047Y-93407095D02*
X125692047Y-92107095D01*
X125568238Y-92292809D01*
X125444428Y-92416619D01*
X125320619Y-92478523D01*
X126620619Y-93283285D02*
X126682523Y-93345190D01*
X126620619Y-93407095D01*
X126558714Y-93345190D01*
X126620619Y-93283285D01*
X126620619Y-93407095D01*
X127487285Y-92107095D02*
X127611095Y-92107095D01*
X127734904Y-92169000D01*
X127796809Y-92230904D01*
X127858714Y-92354714D01*
X127920619Y-92602333D01*
X127920619Y-92911857D01*
X127858714Y-93159476D01*
X127796809Y-93283285D01*
X127734904Y-93345190D01*
X127611095Y-93407095D01*
X127487285Y-93407095D01*
X127363476Y-93345190D01*
X127301571Y-93283285D01*
X127239666Y-93159476D01*
X127177761Y-92911857D01*
X127177761Y-92602333D01*
X127239666Y-92354714D01*
X127301571Y-92230904D01*
X127363476Y-92169000D01*
X127487285Y-92107095D01*
D13*
G36*
X137128836Y-112667810D02*
G01*
X137164191Y-112668763D01*
X137188897Y-112670302D01*
X137202162Y-112672383D01*
X137204302Y-112673834D01*
X137210076Y-112677232D01*
X137225110Y-112679530D01*
X137241732Y-112680186D01*
X137265182Y-112681246D01*
X137278290Y-112684769D01*
X137282818Y-112689713D01*
X137286242Y-112693475D01*
X137294367Y-112696132D01*
X137309006Y-112697857D01*
X137331976Y-112698825D01*
X137365088Y-112699211D01*
X137381947Y-112699241D01*
X137420827Y-112699651D01*
X137450404Y-112700833D01*
X137469594Y-112702716D01*
X137477316Y-112705227D01*
X137477420Y-112705592D01*
X137483004Y-112709790D01*
X137496734Y-112711889D01*
X137499651Y-112711944D01*
X137516093Y-112714010D01*
X137521841Y-112720603D01*
X137521882Y-112721471D01*
X137526077Y-112728096D01*
X137539984Y-112730826D01*
X137547288Y-112730999D01*
X137564954Y-112732572D01*
X137572233Y-112737787D01*
X137572694Y-112740526D01*
X137574793Y-112744969D01*
X137582483Y-112747821D01*
X137597853Y-112749396D01*
X137622992Y-112750008D01*
X137636210Y-112750053D01*
X137665717Y-112750657D01*
X137687049Y-112752347D01*
X137698378Y-112754939D01*
X137699726Y-112756405D01*
X137705162Y-112761180D01*
X137715605Y-112762756D01*
X137728376Y-112766069D01*
X137731484Y-112772284D01*
X137735679Y-112778909D01*
X137749586Y-112781638D01*
X137756890Y-112781811D01*
X137772800Y-112783220D01*
X137781649Y-112786739D01*
X137782297Y-112788163D01*
X137788208Y-112791363D01*
X137804208Y-112793594D01*
X137827700Y-112794508D01*
X137829934Y-112794514D01*
X137853937Y-112795303D01*
X137870667Y-112797436D01*
X137877526Y-112800568D01*
X137877571Y-112800866D01*
X137882899Y-112806000D01*
X137890473Y-112807218D01*
X137902687Y-112811356D01*
X137907032Y-112816745D01*
X137912321Y-112821969D01*
X137924760Y-112824971D01*
X137946670Y-112826187D01*
X137957645Y-112826272D01*
X137981395Y-112827071D01*
X137997919Y-112829228D01*
X138004574Y-112832387D01*
X138004602Y-112832624D01*
X138009931Y-112837758D01*
X138017505Y-112838976D01*
X138029718Y-112843114D01*
X138034063Y-112848503D01*
X138042590Y-112856002D01*
X138052389Y-112858030D01*
X138064826Y-112860865D01*
X138069544Y-112865485D01*
X138077634Y-112869912D01*
X138097885Y-112871633D01*
X138114566Y-112871398D01*
X138138563Y-112871170D01*
X138152665Y-112872979D01*
X138159583Y-112877318D01*
X138160927Y-112879822D01*
X138168834Y-112888534D01*
X138173599Y-112889788D01*
X138181426Y-112894887D01*
X138182447Y-112899316D01*
X138187267Y-112906362D01*
X138202653Y-112908826D01*
X138204677Y-112908843D01*
X138219371Y-112910438D01*
X138226716Y-112914361D01*
X138226908Y-112915195D01*
X138232678Y-112918596D01*
X138247687Y-112920896D01*
X138264128Y-112921546D01*
X138286206Y-112922287D01*
X138299785Y-112925407D01*
X138309025Y-112932249D01*
X138313272Y-112937425D01*
X138326387Y-112949205D01*
X138344671Y-112953217D01*
X138349096Y-112953304D01*
X138366188Y-112955085D01*
X138372779Y-112960894D01*
X138372994Y-112962832D01*
X138378516Y-112970494D01*
X138388873Y-112972359D01*
X138400810Y-112974533D01*
X138404752Y-112978710D01*
X138410188Y-112983485D01*
X138420631Y-112985062D01*
X138433402Y-112988375D01*
X138436510Y-112994589D01*
X138440706Y-113001214D01*
X138454612Y-113003944D01*
X138461917Y-113004117D01*
X138477826Y-113005526D01*
X138486675Y-113009045D01*
X138487323Y-113010468D01*
X138492643Y-113015629D01*
X138500026Y-113016820D01*
X138510372Y-113020791D01*
X138512729Y-113026347D01*
X138518251Y-113034010D01*
X138528608Y-113035875D01*
X138540545Y-113038049D01*
X138544487Y-113042226D01*
X138550042Y-113046580D01*
X138563573Y-113048661D01*
X138565130Y-113048688D01*
X138588488Y-113054853D01*
X138600730Y-113064567D01*
X138620916Y-113077862D01*
X138637252Y-113080336D01*
X138653428Y-113082536D01*
X138658808Y-113089486D01*
X138658816Y-113089863D01*
X138664337Y-113097526D01*
X138674695Y-113099391D01*
X138686631Y-113101565D01*
X138690574Y-113105742D01*
X138695718Y-113111377D01*
X138700101Y-113112094D01*
X138708522Y-113117178D01*
X138709629Y-113121621D01*
X138714449Y-113128668D01*
X138729834Y-113131131D01*
X138731859Y-113131149D01*
X138746553Y-113132744D01*
X138753898Y-113136667D01*
X138754090Y-113137500D01*
X138759422Y-113142620D01*
X138767096Y-113143852D01*
X138780228Y-113148302D01*
X138794203Y-113159078D01*
X138794819Y-113159731D01*
X138814969Y-113173227D01*
X138829449Y-113175610D01*
X138844947Y-113178204D01*
X138849363Y-113185137D01*
X138854448Y-113193558D01*
X138858891Y-113194664D01*
X138867343Y-113198094D01*
X138868418Y-113201016D01*
X138873670Y-113206376D01*
X138879710Y-113207368D01*
X138895254Y-113213175D01*
X138906669Y-113228971D01*
X138912458Y-113252316D01*
X138912879Y-113261429D01*
X138914132Y-113280241D01*
X138918391Y-113288794D01*
X138922407Y-113289938D01*
X138930827Y-113295023D01*
X138931934Y-113299466D01*
X138935364Y-113307918D01*
X138938286Y-113308993D01*
X138942484Y-113314577D01*
X138944582Y-113328306D01*
X138944637Y-113331224D01*
X138946703Y-113347666D01*
X138953297Y-113353414D01*
X138954165Y-113353454D01*
X138958813Y-113355682D01*
X138961708Y-113363812D01*
X138963212Y-113380016D01*
X138963687Y-113406464D01*
X138963692Y-113410618D01*
X138964063Y-113438507D01*
X138965418Y-113455878D01*
X138968119Y-113464903D01*
X138972527Y-113467753D01*
X138973219Y-113467783D01*
X138980882Y-113473304D01*
X138982747Y-113483662D01*
X138984921Y-113495598D01*
X138989098Y-113499541D01*
X138991094Y-113505820D01*
X138992733Y-113524377D01*
X138993999Y-113554790D01*
X138994879Y-113596640D01*
X138995359Y-113649505D01*
X138995450Y-113690088D01*
X138995241Y-113749971D01*
X138994622Y-113799115D01*
X138993608Y-113837099D01*
X138992213Y-113863504D01*
X138990451Y-113877908D01*
X138989098Y-113880636D01*
X138984345Y-113886078D01*
X138982747Y-113896714D01*
X138979383Y-113910241D01*
X138973219Y-113916449D01*
X138968275Y-113921311D01*
X138965305Y-113932768D01*
X138963922Y-113953095D01*
X138963692Y-113972734D01*
X138963155Y-114000252D01*
X138961288Y-114017379D01*
X138957704Y-114026392D01*
X138954165Y-114029019D01*
X138946959Y-114038209D01*
X138944637Y-114055105D01*
X138943055Y-114069878D01*
X138939161Y-114077322D01*
X138938286Y-114077535D01*
X138934035Y-114083106D01*
X138931971Y-114096752D01*
X138931934Y-114099086D01*
X138929138Y-114116434D01*
X138922407Y-114124293D01*
X138914561Y-114132909D01*
X138912879Y-114140852D01*
X138910256Y-114151281D01*
X138906528Y-114153754D01*
X138900893Y-114158899D01*
X138900176Y-114163282D01*
X138895092Y-114171702D01*
X138890649Y-114172809D01*
X138882228Y-114167725D01*
X138881121Y-114163282D01*
X138877692Y-114154829D01*
X138874770Y-114153754D01*
X138871569Y-114147843D01*
X138869339Y-114131843D01*
X138868424Y-114108351D01*
X138868418Y-114106117D01*
X138867919Y-114080990D01*
X138866116Y-114066241D01*
X138862548Y-114059572D01*
X138858891Y-114058480D01*
X138850470Y-114053396D01*
X138849363Y-114048953D01*
X138845934Y-114040501D01*
X138843012Y-114039426D01*
X138837377Y-114044570D01*
X138836660Y-114048953D01*
X138831576Y-114057374D01*
X138827133Y-114058480D01*
X138821141Y-114061880D01*
X138818215Y-114073651D01*
X138817606Y-114090238D01*
X138816463Y-114108354D01*
X138813542Y-114119853D01*
X138811254Y-114121996D01*
X138806403Y-114127410D01*
X138804902Y-114137196D01*
X138801355Y-114150368D01*
X138795375Y-114156051D01*
X138789582Y-114162330D01*
X138786582Y-114177013D01*
X138785848Y-114198016D01*
X138784888Y-114218397D01*
X138782378Y-114232223D01*
X138779496Y-114236325D01*
X138774721Y-114241760D01*
X138773144Y-114252204D01*
X138769832Y-114264975D01*
X138763617Y-114268083D01*
X138755954Y-114273604D01*
X138754090Y-114283962D01*
X138751915Y-114295898D01*
X138747738Y-114299841D01*
X138744115Y-114305553D01*
X138741815Y-114320159D01*
X138741386Y-114331599D01*
X138740367Y-114351570D01*
X138736835Y-114361324D01*
X138731859Y-114363357D01*
X138724196Y-114368878D01*
X138722332Y-114379236D01*
X138720157Y-114391172D01*
X138715980Y-114395115D01*
X138711205Y-114400550D01*
X138709629Y-114410994D01*
X138706316Y-114423765D01*
X138700101Y-114426873D01*
X138693120Y-114431591D01*
X138690606Y-114446747D01*
X138690574Y-114449557D01*
X138687068Y-114470147D01*
X138677946Y-114484900D01*
X138665621Y-114490388D01*
X138661554Y-114496191D01*
X138659167Y-114511485D01*
X138658816Y-114522146D01*
X138657673Y-114540262D01*
X138654752Y-114551761D01*
X138652464Y-114553904D01*
X138647690Y-114559340D01*
X138646113Y-114569783D01*
X138642800Y-114582554D01*
X138636585Y-114585662D01*
X138628165Y-114590746D01*
X138627058Y-114595190D01*
X138623628Y-114603642D01*
X138620706Y-114604717D01*
X138616264Y-114610241D01*
X138614356Y-114623569D01*
X138614355Y-114623971D01*
X138611375Y-114639549D01*
X138604827Y-114646881D01*
X138596386Y-114654878D01*
X138595300Y-114659385D01*
X138590201Y-114667212D01*
X138585773Y-114668233D01*
X138578110Y-114673754D01*
X138576245Y-114684112D01*
X138574071Y-114696048D01*
X138569894Y-114699991D01*
X138565643Y-114705562D01*
X138563579Y-114719207D01*
X138563542Y-114721542D01*
X138560746Y-114738890D01*
X138554015Y-114746749D01*
X138546764Y-114755208D01*
X138544487Y-114766483D01*
X138542338Y-114778515D01*
X138538136Y-114782561D01*
X138532975Y-114787881D01*
X138531784Y-114795265D01*
X138527813Y-114805610D01*
X138522257Y-114807968D01*
X138513941Y-114813086D01*
X138512729Y-114817937D01*
X138507985Y-114825478D01*
X138498438Y-114825876D01*
X138492231Y-114824361D01*
X138488062Y-114820416D01*
X138485439Y-114811796D01*
X138483870Y-114796254D01*
X138482864Y-114771543D01*
X138482351Y-114752391D01*
X138481360Y-114721159D01*
X138480004Y-114700514D01*
X138477902Y-114688340D01*
X138474671Y-114682522D01*
X138469932Y-114680943D01*
X138469472Y-114680936D01*
X138455739Y-114686352D01*
X138443480Y-114699414D01*
X138436818Y-114715346D01*
X138436510Y-114719118D01*
X138432522Y-114729406D01*
X138426983Y-114731749D01*
X138419320Y-114737270D01*
X138417455Y-114747628D01*
X138415281Y-114759564D01*
X138411104Y-114763507D01*
X138406854Y-114769078D01*
X138404790Y-114782723D01*
X138404752Y-114785058D01*
X138401956Y-114802406D01*
X138395225Y-114810265D01*
X138388019Y-114819454D01*
X138385698Y-114836351D01*
X138384115Y-114851123D01*
X138380221Y-114858567D01*
X138379346Y-114858780D01*
X138374571Y-114864216D01*
X138372994Y-114874659D01*
X138369682Y-114887431D01*
X138363467Y-114890538D01*
X138356842Y-114894734D01*
X138354113Y-114908641D01*
X138353940Y-114915945D01*
X138352531Y-114931854D01*
X138349012Y-114940703D01*
X138347588Y-114941351D01*
X138342454Y-114946680D01*
X138341236Y-114954254D01*
X138337098Y-114966467D01*
X138331709Y-114970812D01*
X138324306Y-114979313D01*
X138322182Y-114989668D01*
X138319919Y-115001275D01*
X138315830Y-115004867D01*
X138311632Y-115010451D01*
X138309533Y-115024180D01*
X138309478Y-115027098D01*
X138307412Y-115043540D01*
X138300819Y-115049288D01*
X138299951Y-115049328D01*
X138291530Y-115054412D01*
X138290424Y-115058856D01*
X138286994Y-115067308D01*
X138284072Y-115068383D01*
X138279630Y-115073907D01*
X138277722Y-115087235D01*
X138277721Y-115087637D01*
X138274741Y-115103215D01*
X138268193Y-115110547D01*
X138260226Y-115119193D01*
X138258666Y-115126530D01*
X138254234Y-115139158D01*
X138243498Y-115152902D01*
X138242787Y-115153573D01*
X138229290Y-115173724D01*
X138226908Y-115188204D01*
X138225141Y-115201950D01*
X138220859Y-115208095D01*
X138220556Y-115208118D01*
X138214921Y-115213262D01*
X138214205Y-115217645D01*
X138209120Y-115226066D01*
X138204677Y-115227173D01*
X138197015Y-115232694D01*
X138195150Y-115243052D01*
X138192976Y-115254988D01*
X138188798Y-115258931D01*
X138184024Y-115264366D01*
X138182447Y-115274810D01*
X138179134Y-115287581D01*
X138172919Y-115290688D01*
X138165257Y-115296210D01*
X138163392Y-115306567D01*
X138161218Y-115318504D01*
X138157040Y-115322446D01*
X138152266Y-115327882D01*
X138150689Y-115338325D01*
X138148539Y-115350262D01*
X138144410Y-115354204D01*
X138132625Y-115359166D01*
X138120586Y-115370659D01*
X138113177Y-115383596D01*
X138112579Y-115387374D01*
X138109625Y-115396903D01*
X138106228Y-115398665D01*
X138101195Y-115404026D01*
X138099876Y-115412352D01*
X138095362Y-115424558D01*
X138083642Y-115440603D01*
X138074470Y-115450207D01*
X138060234Y-115465990D01*
X138051014Y-115480511D01*
X138049063Y-115487333D01*
X138046450Y-115497792D01*
X138042712Y-115500291D01*
X138037937Y-115505726D01*
X138036360Y-115516170D01*
X138034032Y-115528104D01*
X138029555Y-115532049D01*
X138018012Y-115537253D01*
X138008092Y-115549136D01*
X138004602Y-115560481D01*
X138000227Y-115571606D01*
X137989607Y-115584646D01*
X137988723Y-115585481D01*
X137977711Y-115599501D01*
X137972856Y-115613232D01*
X137972844Y-115613760D01*
X137969070Y-115624775D01*
X137963317Y-115627323D01*
X137955604Y-115632755D01*
X137953790Y-115641694D01*
X137948950Y-115655643D01*
X137937911Y-115667990D01*
X137926599Y-115680028D01*
X137922032Y-115691728D01*
X137919194Y-115701556D01*
X137915680Y-115703542D01*
X137910045Y-115708686D01*
X137909328Y-115713069D01*
X137904244Y-115721490D01*
X137899801Y-115722596D01*
X137892088Y-115728028D01*
X137890274Y-115736968D01*
X137885434Y-115750917D01*
X137874395Y-115763264D01*
X137863071Y-115775456D01*
X137858516Y-115787456D01*
X137854117Y-115801893D01*
X137843836Y-115813768D01*
X137833563Y-115817870D01*
X137828153Y-115823221D01*
X137826758Y-115831411D01*
X137822337Y-115843661D01*
X137811152Y-115859053D01*
X137804527Y-115865919D01*
X137791273Y-115881025D01*
X137783319Y-115895121D01*
X137782297Y-115900014D01*
X137778424Y-115910694D01*
X137772769Y-115913144D01*
X137764349Y-115918228D01*
X137763242Y-115922671D01*
X137758158Y-115931092D01*
X137753715Y-115932199D01*
X137745966Y-115937538D01*
X137744187Y-115945356D01*
X137739867Y-115960354D01*
X137729666Y-115972482D01*
X137719235Y-115976660D01*
X137713200Y-115981797D01*
X137712429Y-115986187D01*
X137709000Y-115994640D01*
X137706078Y-115995715D01*
X137701303Y-116001150D01*
X137699726Y-116011594D01*
X137697398Y-116023528D01*
X137692921Y-116027473D01*
X137683165Y-116031554D01*
X137677042Y-116036546D01*
X137669475Y-116047174D01*
X137667968Y-116052425D01*
X137662535Y-116057540D01*
X137652089Y-116059231D01*
X137639318Y-116055918D01*
X137636210Y-116049703D01*
X137632541Y-116041255D01*
X137629405Y-116040176D01*
X137619649Y-116036095D01*
X137613526Y-116031102D01*
X137605959Y-116020475D01*
X137604452Y-116015223D01*
X137599572Y-116008697D01*
X137597647Y-116008418D01*
X137587891Y-116004337D01*
X137581768Y-115999344D01*
X137574202Y-115988717D01*
X137572694Y-115983465D01*
X137567815Y-115976939D01*
X137565889Y-115976660D01*
X137556133Y-115972579D01*
X137550010Y-115967586D01*
X137542444Y-115956959D01*
X137540936Y-115951707D01*
X137535799Y-115945673D01*
X137531409Y-115944902D01*
X137522956Y-115941472D01*
X137521882Y-115938550D01*
X137516446Y-115933776D01*
X137506003Y-115932199D01*
X137494069Y-115929871D01*
X137490124Y-115925394D01*
X137485313Y-115914619D01*
X137474753Y-115904385D01*
X137465171Y-115900441D01*
X137459136Y-115895304D01*
X137458366Y-115890914D01*
X137452994Y-115883175D01*
X137444825Y-115881386D01*
X137432575Y-115876965D01*
X137417183Y-115865780D01*
X137410317Y-115859156D01*
X137396156Y-115846012D01*
X137384155Y-115838034D01*
X137380287Y-115836925D01*
X137370352Y-115832237D01*
X137359298Y-115821046D01*
X137346082Y-115809477D01*
X137332803Y-115805167D01*
X137319889Y-115801475D01*
X137314576Y-115795640D01*
X137306075Y-115788236D01*
X137295721Y-115786112D01*
X137284116Y-115783690D01*
X137280521Y-115779307D01*
X137274784Y-115766724D01*
X137259858Y-115757709D01*
X137239690Y-115754354D01*
X137224818Y-115752677D01*
X137217249Y-115748543D01*
X137217005Y-115747549D01*
X137211268Y-115734966D01*
X137196343Y-115725951D01*
X137176174Y-115722596D01*
X137159553Y-115720615D01*
X137153565Y-115714249D01*
X137153489Y-115713069D01*
X137149294Y-115706444D01*
X137135387Y-115703715D01*
X137128083Y-115703542D01*
X137112174Y-115702133D01*
X137103325Y-115698614D01*
X137102677Y-115697190D01*
X137097093Y-115692992D01*
X137083364Y-115690893D01*
X137080446Y-115690839D01*
X137064004Y-115688773D01*
X137058256Y-115682179D01*
X137058216Y-115681311D01*
X137052694Y-115673648D01*
X137042337Y-115671784D01*
X137033536Y-115670977D01*
X137028785Y-115666567D01*
X137026840Y-115655573D01*
X137026458Y-115635010D01*
X137026458Y-115633674D01*
X137025494Y-115613375D01*
X137022975Y-115599613D01*
X137020106Y-115595565D01*
X137015923Y-115589978D01*
X137013815Y-115576224D01*
X137013755Y-115573135D01*
X137011026Y-115555123D01*
X137004227Y-115547049D01*
X136996824Y-115538548D01*
X136994700Y-115528193D01*
X136991263Y-115515933D01*
X136985172Y-115512994D01*
X136978126Y-115508173D01*
X136975662Y-115492788D01*
X136975645Y-115490763D01*
X136974050Y-115476070D01*
X136970127Y-115468725D01*
X136969293Y-115468533D01*
X136964443Y-115463119D01*
X136962942Y-115453334D01*
X136959394Y-115440161D01*
X136953414Y-115434478D01*
X136946164Y-115426019D01*
X136943887Y-115414744D01*
X136941737Y-115402712D01*
X136937536Y-115398665D01*
X136932761Y-115393230D01*
X136931184Y-115382786D01*
X136928817Y-115370853D01*
X136924266Y-115366908D01*
X136916508Y-115362651D01*
X136903236Y-115351572D01*
X136889569Y-115338325D01*
X136867829Y-115318733D01*
X136851532Y-115310157D01*
X136840899Y-115312625D01*
X136836154Y-115326163D01*
X136835910Y-115331974D01*
X136837505Y-115346668D01*
X136841428Y-115354012D01*
X136842262Y-115354204D01*
X136844534Y-115360441D01*
X136846336Y-115378704D01*
X136847637Y-115408326D01*
X136848404Y-115448639D01*
X136848613Y-115490763D01*
X136848323Y-115539628D01*
X136847474Y-115578371D01*
X136846096Y-115606322D01*
X136844221Y-115622814D01*
X136842262Y-115627323D01*
X136838063Y-115632906D01*
X136835965Y-115646636D01*
X136835910Y-115649553D01*
X136833844Y-115665995D01*
X136827250Y-115671744D01*
X136826383Y-115671784D01*
X136818720Y-115677305D01*
X136816855Y-115687663D01*
X136814681Y-115699599D01*
X136810504Y-115703542D01*
X136806526Y-115709177D01*
X136804314Y-115723253D01*
X136804152Y-115728948D01*
X136802643Y-115744856D01*
X136798873Y-115753706D01*
X136797347Y-115754354D01*
X136785691Y-115759617D01*
X136775833Y-115771732D01*
X136772394Y-115783466D01*
X136768037Y-115793733D01*
X136756843Y-115808361D01*
X136746988Y-115818599D01*
X136732823Y-115833824D01*
X136723600Y-115847095D01*
X136721582Y-115853003D01*
X136716168Y-115867636D01*
X136703460Y-115878655D01*
X136693150Y-115881386D01*
X136682024Y-115885761D01*
X136668984Y-115896381D01*
X136668149Y-115897265D01*
X136654129Y-115908277D01*
X136640399Y-115913133D01*
X136639870Y-115913144D01*
X136628856Y-115916919D01*
X136626308Y-115922671D01*
X136622908Y-115928663D01*
X136611137Y-115931589D01*
X136594550Y-115932199D01*
X136576434Y-115933341D01*
X136564935Y-115936263D01*
X136562792Y-115938550D01*
X136557378Y-115943401D01*
X136547592Y-115944902D01*
X136534420Y-115948450D01*
X136528737Y-115954429D01*
X136524689Y-115958758D01*
X136515125Y-115961599D01*
X136497970Y-115963222D01*
X136471152Y-115963893D01*
X136455014Y-115963957D01*
X136423428Y-115964507D01*
X136400304Y-115966062D01*
X136387262Y-115968473D01*
X136384947Y-115970308D01*
X136378748Y-115972760D01*
X136360740Y-115974659D01*
X136331806Y-115975955D01*
X136292832Y-115976597D01*
X136273795Y-115976660D01*
X136230889Y-115976306D01*
X136197655Y-115975277D01*
X136174976Y-115973623D01*
X136163738Y-115971396D01*
X136162642Y-115970308D01*
X136156527Y-115967557D01*
X136139101Y-115965511D01*
X136111742Y-115964280D01*
X136083247Y-115963957D01*
X136049615Y-115963732D01*
X136026770Y-115962904D01*
X136012801Y-115961245D01*
X136005799Y-115958524D01*
X136003853Y-115954514D01*
X136003852Y-115954429D01*
X135999657Y-115947805D01*
X135985750Y-115945075D01*
X135978446Y-115944902D01*
X135962536Y-115943493D01*
X135953687Y-115939974D01*
X135953039Y-115938550D01*
X135946875Y-115935962D01*
X135929104Y-115933993D01*
X135900815Y-115932717D01*
X135863091Y-115932205D01*
X135857766Y-115932199D01*
X135820477Y-115932026D01*
X135794123Y-115931390D01*
X135776937Y-115930114D01*
X135767155Y-115928021D01*
X135763009Y-115924936D01*
X135762492Y-115922671D01*
X135759736Y-115917327D01*
X135749887Y-115914357D01*
X135730576Y-115913214D01*
X135721206Y-115913144D01*
X135699632Y-115912247D01*
X135684862Y-115909869D01*
X135679921Y-115906793D01*
X135674136Y-115903409D01*
X135659022Y-115901116D01*
X135641812Y-115900441D01*
X135619683Y-115899709D01*
X135607802Y-115897115D01*
X135603777Y-115892061D01*
X135603702Y-115890914D01*
X135602191Y-115887731D01*
X135596660Y-115885329D01*
X135585611Y-115883605D01*
X135567545Y-115882454D01*
X135540965Y-115881770D01*
X135504371Y-115881450D01*
X135467143Y-115881386D01*
X135418278Y-115881096D01*
X135379536Y-115880247D01*
X135351584Y-115878869D01*
X135335092Y-115876994D01*
X135330584Y-115875035D01*
X135324397Y-115872531D01*
X135306474Y-115870605D01*
X135277772Y-115869315D01*
X135239248Y-115868718D01*
X135225783Y-115868683D01*
X135186438Y-115868532D01*
X135158102Y-115867976D01*
X135139083Y-115866861D01*
X135127688Y-115865034D01*
X135122225Y-115862341D01*
X135120981Y-115859156D01*
X135116161Y-115852109D01*
X135100775Y-115849645D01*
X135098751Y-115849628D01*
X135082309Y-115851694D01*
X135076560Y-115858288D01*
X135076520Y-115859156D01*
X135070999Y-115866818D01*
X135060641Y-115868683D01*
X135048705Y-115870857D01*
X135044762Y-115875035D01*
X135039082Y-115878806D01*
X135024693Y-115881082D01*
X135015877Y-115881386D01*
X134994355Y-115883318D01*
X134979515Y-115890477D01*
X134972275Y-115897265D01*
X134958255Y-115908277D01*
X134944525Y-115913133D01*
X134943996Y-115913144D01*
X134932982Y-115916919D01*
X134930434Y-115922671D01*
X134926238Y-115929296D01*
X134912332Y-115932026D01*
X134905027Y-115932199D01*
X134887362Y-115930626D01*
X134880082Y-115925411D01*
X134879621Y-115922671D01*
X134876191Y-115914219D01*
X134873269Y-115913144D01*
X134869071Y-115907561D01*
X134866973Y-115893831D01*
X134866918Y-115890914D01*
X134864852Y-115874471D01*
X134858258Y-115868723D01*
X134857390Y-115868683D01*
X134851320Y-115863199D01*
X134847953Y-115849635D01*
X134847291Y-115832325D01*
X134849331Y-115815599D01*
X134854076Y-115803791D01*
X134857390Y-115801112D01*
X134865326Y-115792474D01*
X134866918Y-115784979D01*
X134872425Y-115767923D01*
X134887910Y-115757359D01*
X134907749Y-115754354D01*
X134924370Y-115752373D01*
X134930358Y-115746007D01*
X134930434Y-115744827D01*
X134935955Y-115737164D01*
X134946313Y-115735300D01*
X134958249Y-115733125D01*
X134962192Y-115728948D01*
X134967627Y-115724173D01*
X134978071Y-115722596D01*
X134990842Y-115719284D01*
X134993950Y-115713069D01*
X134995498Y-115709783D01*
X135001176Y-115707332D01*
X135012532Y-115705603D01*
X135031118Y-115704477D01*
X135058481Y-115703839D01*
X135096171Y-115703572D01*
X135120981Y-115703542D01*
X135167683Y-115703230D01*
X135204415Y-115702321D01*
X135230438Y-115700851D01*
X135245015Y-115698857D01*
X135248013Y-115697190D01*
X135254274Y-115695061D01*
X135272703Y-115693343D01*
X135302774Y-115692055D01*
X135343957Y-115691218D01*
X135395725Y-115690853D01*
X135409979Y-115690839D01*
X135464262Y-115691084D01*
X135508090Y-115691807D01*
X135540935Y-115692986D01*
X135562269Y-115694601D01*
X135571563Y-115696631D01*
X135571944Y-115697190D01*
X135578272Y-115698624D01*
X135597165Y-115699879D01*
X135628484Y-115700953D01*
X135672094Y-115701844D01*
X135727856Y-115702550D01*
X135795632Y-115703069D01*
X135875286Y-115703399D01*
X135966680Y-115703537D01*
X135987973Y-115703542D01*
X136081888Y-115703445D01*
X136164092Y-115703157D01*
X136234448Y-115702678D01*
X136292820Y-115702013D01*
X136339069Y-115701161D01*
X136373057Y-115700127D01*
X136394649Y-115698911D01*
X136403705Y-115697515D01*
X136404002Y-115697190D01*
X136409438Y-115692415D01*
X136419881Y-115690839D01*
X136432652Y-115687526D01*
X136435760Y-115681311D01*
X136438687Y-115675779D01*
X136449062Y-115672809D01*
X136469278Y-115671803D01*
X136473870Y-115671784D01*
X136494169Y-115670820D01*
X136507931Y-115668301D01*
X136511979Y-115665432D01*
X136517415Y-115660658D01*
X136527858Y-115659081D01*
X136539945Y-115656457D01*
X136543670Y-115646128D01*
X136543737Y-115643202D01*
X136547050Y-115630431D01*
X136553264Y-115627323D01*
X136561685Y-115622238D01*
X136562792Y-115617795D01*
X136566221Y-115609343D01*
X136569143Y-115608268D01*
X136574277Y-115602939D01*
X136575495Y-115595365D01*
X136579634Y-115583152D01*
X136585022Y-115578807D01*
X136589573Y-115574483D01*
X136592470Y-115564279D01*
X136594023Y-115546033D01*
X136594542Y-115517586D01*
X136594550Y-115512315D01*
X136594230Y-115482877D01*
X136593057Y-115464034D01*
X136590714Y-115453687D01*
X136586883Y-115449738D01*
X136585022Y-115449478D01*
X136578398Y-115445283D01*
X136575668Y-115431376D01*
X136575495Y-115424072D01*
X136574086Y-115408162D01*
X136570567Y-115399313D01*
X136569143Y-115398665D01*
X136564010Y-115393337D01*
X136562792Y-115385763D01*
X136558653Y-115373549D01*
X136553264Y-115369204D01*
X136547399Y-115362788D01*
X136544407Y-115347799D01*
X136543737Y-115328118D01*
X136543737Y-115290688D01*
X136569143Y-115290688D01*
X136585512Y-115291555D01*
X136592788Y-115295643D01*
X136594541Y-115305185D01*
X136594550Y-115306567D01*
X136597173Y-115318655D01*
X136607502Y-115322379D01*
X136610429Y-115322446D01*
X136622740Y-115325289D01*
X136626304Y-115335529D01*
X136626308Y-115336037D01*
X136631993Y-115351969D01*
X136646595Y-115363188D01*
X136662829Y-115366706D01*
X136673076Y-115364501D01*
X136676828Y-115355072D01*
X136677120Y-115347653D01*
X136674141Y-115332076D01*
X136667593Y-115324743D01*
X136660190Y-115316243D01*
X136658066Y-115305888D01*
X136655803Y-115294280D01*
X136651714Y-115290688D01*
X136646580Y-115285360D01*
X136645362Y-115277786D01*
X136641224Y-115265572D01*
X136635835Y-115261227D01*
X136627394Y-115253230D01*
X136626308Y-115248724D01*
X136622396Y-115240721D01*
X136619502Y-115239876D01*
X136608728Y-115235065D01*
X136598494Y-115224505D01*
X136594550Y-115214923D01*
X136589670Y-115208397D01*
X136587744Y-115208118D01*
X136576970Y-115203307D01*
X136566736Y-115192747D01*
X136562792Y-115183165D01*
X136557912Y-115176639D01*
X136555987Y-115176360D01*
X136545212Y-115171549D01*
X136534978Y-115160989D01*
X136531034Y-115151407D01*
X136526154Y-115144881D01*
X136524229Y-115144602D01*
X136513919Y-115140054D01*
X136503665Y-115130124D01*
X136499276Y-115120723D01*
X136494273Y-115113878D01*
X136483397Y-115106492D01*
X136471793Y-115097584D01*
X136467518Y-115089540D01*
X136463451Y-115081805D01*
X136460713Y-115081086D01*
X136449938Y-115076275D01*
X136439705Y-115065715D01*
X136435760Y-115056133D01*
X136430880Y-115049607D01*
X136428955Y-115049328D01*
X136418180Y-115044517D01*
X136407947Y-115033957D01*
X136404002Y-115024375D01*
X136398569Y-115019261D01*
X136388123Y-115017570D01*
X136376187Y-115015396D01*
X136372244Y-115011219D01*
X136367100Y-115005584D01*
X136362717Y-115004867D01*
X136354296Y-114999783D01*
X136353189Y-114995340D01*
X136347853Y-114987590D01*
X136340060Y-114985812D01*
X136328070Y-114981399D01*
X136312842Y-114970234D01*
X136305964Y-114963582D01*
X136291457Y-114950397D01*
X136278690Y-114942428D01*
X136274433Y-114941351D01*
X136263243Y-114936367D01*
X136260213Y-114931824D01*
X136251679Y-114924296D01*
X136242037Y-114922296D01*
X136229143Y-114918592D01*
X136223861Y-114912769D01*
X136215245Y-114904923D01*
X136207302Y-114903242D01*
X136196873Y-114900619D01*
X136194400Y-114896890D01*
X136188964Y-114892115D01*
X136178521Y-114890538D01*
X136165750Y-114887226D01*
X136162642Y-114881011D01*
X136157120Y-114873348D01*
X136146763Y-114871484D01*
X136134826Y-114869309D01*
X136130884Y-114865132D01*
X136125171Y-114861509D01*
X136110566Y-114859209D01*
X136099126Y-114858780D01*
X136079155Y-114857761D01*
X136069400Y-114854229D01*
X136067368Y-114849253D01*
X136064612Y-114843909D01*
X136054763Y-114840939D01*
X136035452Y-114839795D01*
X136026083Y-114839726D01*
X136002925Y-114840362D01*
X135990054Y-114842635D01*
X135985100Y-114847091D01*
X135984797Y-114849253D01*
X135979977Y-114856300D01*
X135964591Y-114858763D01*
X135962567Y-114858780D01*
X135947873Y-114860376D01*
X135940528Y-114864299D01*
X135940336Y-114865132D01*
X135945170Y-114871299D01*
X135946688Y-114871484D01*
X135952323Y-114876628D01*
X135953039Y-114881011D01*
X135955643Y-114886174D01*
X135965011Y-114889136D01*
X135983475Y-114890393D01*
X135997766Y-114890538D01*
X136024019Y-114891367D01*
X136041134Y-114894341D01*
X136052600Y-114900193D01*
X136055507Y-114902663D01*
X136066481Y-114917388D01*
X136065397Y-114929091D01*
X136052698Y-114937000D01*
X136033965Y-114940111D01*
X136016389Y-114942378D01*
X136005540Y-114945965D01*
X136003852Y-114948051D01*
X135998216Y-114951810D01*
X135984138Y-114953901D01*
X135978446Y-114954054D01*
X135960780Y-114955628D01*
X135953500Y-114960843D01*
X135953039Y-114963582D01*
X135947518Y-114971244D01*
X135937160Y-114973109D01*
X135925224Y-114975283D01*
X135921281Y-114979461D01*
X135915755Y-114983893D01*
X135902411Y-114985810D01*
X135901923Y-114985812D01*
X135879936Y-114991913D01*
X135867849Y-115001691D01*
X135853829Y-115012703D01*
X135840099Y-115017559D01*
X135839570Y-115017570D01*
X135828794Y-115020255D01*
X135826008Y-115024375D01*
X135821196Y-115035150D01*
X135810637Y-115045384D01*
X135801055Y-115049328D01*
X135795020Y-115054465D01*
X135794250Y-115058856D01*
X135791574Y-115067318D01*
X135789314Y-115068383D01*
X135779375Y-115073123D01*
X135766315Y-115084721D01*
X135753714Y-115099241D01*
X135745150Y-115112746D01*
X135743437Y-115118838D01*
X135740843Y-115129352D01*
X135737085Y-115131899D01*
X135732311Y-115137334D01*
X135730734Y-115147778D01*
X135728406Y-115159712D01*
X135723929Y-115163657D01*
X135712057Y-115169032D01*
X135702332Y-115181629D01*
X135698976Y-115194281D01*
X135694705Y-115206312D01*
X135689448Y-115210415D01*
X135681603Y-115219031D01*
X135679921Y-115226973D01*
X135677298Y-115237402D01*
X135673570Y-115239876D01*
X135667935Y-115245020D01*
X135667218Y-115249403D01*
X135663788Y-115257856D01*
X135660866Y-115258931D01*
X135655732Y-115264259D01*
X135654515Y-115271833D01*
X135650376Y-115284047D01*
X135644987Y-115288392D01*
X135637020Y-115297037D01*
X135635460Y-115304374D01*
X135631029Y-115317003D01*
X135620292Y-115330747D01*
X135619581Y-115331418D01*
X135608680Y-115344185D01*
X135603729Y-115355245D01*
X135603702Y-115355841D01*
X135598564Y-115366422D01*
X135594175Y-115369204D01*
X135586329Y-115377820D01*
X135584647Y-115385763D01*
X135582024Y-115396192D01*
X135578296Y-115398665D01*
X135572661Y-115403810D01*
X135571944Y-115408193D01*
X135566860Y-115416614D01*
X135562417Y-115417720D01*
X135554667Y-115423056D01*
X135552889Y-115430838D01*
X135548253Y-115442471D01*
X135536260Y-115458754D01*
X135519790Y-115476810D01*
X135501719Y-115493762D01*
X135484924Y-115506733D01*
X135472283Y-115512844D01*
X135470733Y-115512994D01*
X135460192Y-115515761D01*
X135457616Y-115519799D01*
X135451878Y-115532382D01*
X135436953Y-115541398D01*
X135416784Y-115544752D01*
X135400163Y-115546734D01*
X135394175Y-115553099D01*
X135394100Y-115554279D01*
X135388578Y-115561942D01*
X135378221Y-115563807D01*
X135366284Y-115565981D01*
X135362342Y-115570158D01*
X135356369Y-115573248D01*
X135339935Y-115575438D01*
X135315267Y-115576465D01*
X135308154Y-115576510D01*
X135280225Y-115577019D01*
X135262707Y-115578793D01*
X135253338Y-115582206D01*
X135250310Y-115586037D01*
X135245491Y-115590951D01*
X135234135Y-115593918D01*
X135213974Y-115595316D01*
X135193345Y-115595565D01*
X135167292Y-115596275D01*
X135148872Y-115598227D01*
X135140355Y-115601150D01*
X135140036Y-115601916D01*
X135133831Y-115604343D01*
X135115784Y-115606229D01*
X135086745Y-115607527D01*
X135047567Y-115608190D01*
X135025708Y-115608268D01*
X134982022Y-115607923D01*
X134948072Y-115606921D01*
X134924711Y-115605307D01*
X134912789Y-115603131D01*
X134911379Y-115601916D01*
X134905795Y-115597718D01*
X134892066Y-115595620D01*
X134889148Y-115595565D01*
X134874455Y-115597160D01*
X134867110Y-115601083D01*
X134866918Y-115601916D01*
X134861482Y-115606691D01*
X134851039Y-115608268D01*
X134838268Y-115611581D01*
X134835160Y-115617795D01*
X134829677Y-115625481D01*
X134819960Y-115627323D01*
X134806788Y-115630870D01*
X134801105Y-115636850D01*
X134792489Y-115644696D01*
X134784547Y-115646377D01*
X134774118Y-115649000D01*
X134771644Y-115652729D01*
X134766500Y-115658364D01*
X134762117Y-115659081D01*
X134753664Y-115662510D01*
X134752589Y-115665432D01*
X134748077Y-115671510D01*
X134736760Y-115670810D01*
X134721965Y-115664216D01*
X134708070Y-115653629D01*
X134694751Y-115637605D01*
X134689559Y-115619941D01*
X134689073Y-115608714D01*
X134685857Y-115585876D01*
X134677209Y-115570007D01*
X134664633Y-115563815D01*
X134664121Y-115563807D01*
X134660054Y-115558004D01*
X134657667Y-115542710D01*
X134657315Y-115532049D01*
X134656173Y-115513933D01*
X134653252Y-115502434D01*
X134650964Y-115500291D01*
X134646189Y-115494855D01*
X134644612Y-115484412D01*
X134641299Y-115471641D01*
X134635085Y-115468533D01*
X134627400Y-115463050D01*
X134625558Y-115453334D01*
X134621875Y-115440104D01*
X134615679Y-115434344D01*
X134609473Y-115428226D01*
X134607311Y-115414448D01*
X134607740Y-115400318D01*
X134609679Y-115370083D01*
X134649376Y-115368192D01*
X134671010Y-115367421D01*
X134682886Y-115368429D01*
X134687927Y-115372269D01*
X134689059Y-115379992D01*
X134689073Y-115382483D01*
X134690062Y-115392083D01*
X134695198Y-115396872D01*
X134707733Y-115398508D01*
X134720831Y-115398665D01*
X134738947Y-115397523D01*
X134750446Y-115394602D01*
X134752589Y-115392314D01*
X134757734Y-115386679D01*
X134762117Y-115385962D01*
X134769876Y-115380670D01*
X134771644Y-115373284D01*
X134775968Y-115366206D01*
X134788080Y-115351585D01*
X134806686Y-115330740D01*
X134830494Y-115304995D01*
X134858212Y-115275670D01*
X134888546Y-115244087D01*
X134920204Y-115211567D01*
X134951893Y-115179433D01*
X134982322Y-115149005D01*
X135010197Y-115121605D01*
X135034225Y-115098555D01*
X135053114Y-115081176D01*
X135065572Y-115070790D01*
X135069871Y-115068383D01*
X135074869Y-115062949D01*
X135076520Y-115052504D01*
X135078694Y-115040567D01*
X135082872Y-115036625D01*
X135087920Y-115031270D01*
X135089223Y-115023062D01*
X135093689Y-115009518D01*
X135104496Y-114995355D01*
X135105102Y-114994783D01*
X135118546Y-114974794D01*
X135120981Y-114960510D01*
X135123936Y-114944695D01*
X135130509Y-114937296D01*
X135138195Y-114928721D01*
X135140036Y-114919949D01*
X135144849Y-114906539D01*
X135155915Y-114894332D01*
X135166647Y-114883224D01*
X135171177Y-114868227D01*
X135171794Y-114854715D01*
X135173094Y-114837980D01*
X135176371Y-114828130D01*
X135178146Y-114827023D01*
X135184046Y-114822904D01*
X135182038Y-114813167D01*
X135175424Y-114804338D01*
X135164273Y-114797736D01*
X135151430Y-114795411D01*
X135141973Y-114797754D01*
X135140036Y-114801616D01*
X135134726Y-114806806D01*
X135127552Y-114807968D01*
X135115967Y-114812174D01*
X135101168Y-114822464D01*
X135087181Y-114835348D01*
X135078032Y-114847334D01*
X135076520Y-114852215D01*
X135070929Y-114856519D01*
X135057147Y-114858710D01*
X135053836Y-114858780D01*
X135033245Y-114862287D01*
X135018493Y-114871408D01*
X135013004Y-114883733D01*
X135007371Y-114887994D01*
X134993297Y-114890365D01*
X134987598Y-114890538D01*
X134971689Y-114891947D01*
X134962840Y-114895466D01*
X134962192Y-114896890D01*
X134956605Y-114901073D01*
X134942851Y-114903181D01*
X134939762Y-114903242D01*
X134921750Y-114905970D01*
X134913676Y-114912769D01*
X134905175Y-114920172D01*
X134894820Y-114922296D01*
X134882560Y-114925734D01*
X134879621Y-114931824D01*
X134876221Y-114937815D01*
X134864450Y-114940741D01*
X134847863Y-114941351D01*
X134829747Y-114942494D01*
X134818248Y-114945415D01*
X134816105Y-114947703D01*
X134810777Y-114952837D01*
X134803203Y-114954054D01*
X134790989Y-114958193D01*
X134786644Y-114963582D01*
X134778143Y-114970985D01*
X134767789Y-114973109D01*
X134756181Y-114975372D01*
X134752589Y-114979461D01*
X134747154Y-114984235D01*
X134736710Y-114985812D01*
X134723939Y-114989125D01*
X134720831Y-114995340D01*
X134715399Y-115003052D01*
X134706460Y-115004867D01*
X134692511Y-115009707D01*
X134680164Y-115020746D01*
X134668126Y-115032058D01*
X134656426Y-115036625D01*
X134646598Y-115039463D01*
X134644612Y-115042977D01*
X134639468Y-115048612D01*
X134635085Y-115049328D01*
X134626664Y-115054412D01*
X134625558Y-115058856D01*
X134623330Y-115063504D01*
X134615199Y-115066399D01*
X134598996Y-115067903D01*
X134572547Y-115068378D01*
X134568393Y-115068383D01*
X134539046Y-115067832D01*
X134520861Y-115066039D01*
X134512340Y-115062793D01*
X134511229Y-115060363D01*
X134506570Y-115051203D01*
X134495365Y-115040430D01*
X134495350Y-115040419D01*
X134487326Y-115033318D01*
X134482575Y-115024748D01*
X134480252Y-115011409D01*
X134479512Y-114990000D01*
X134479471Y-114978372D01*
X134480059Y-114951520D01*
X134482095Y-114935030D01*
X134485987Y-114926601D01*
X134488998Y-114924593D01*
X134497440Y-114916596D01*
X134498526Y-114912089D01*
X134502183Y-114904083D01*
X134504877Y-114903242D01*
X134509652Y-114897806D01*
X134511229Y-114887363D01*
X134513557Y-114875429D01*
X134518034Y-114871484D01*
X134528809Y-114866673D01*
X134539042Y-114856113D01*
X134542987Y-114846531D01*
X134547867Y-114840005D01*
X134549792Y-114839726D01*
X134561747Y-114834306D01*
X134571414Y-114821508D01*
X134574745Y-114808421D01*
X134578611Y-114797721D01*
X134584272Y-114795265D01*
X134592721Y-114791595D01*
X134593800Y-114788459D01*
X134598611Y-114777684D01*
X134609171Y-114767451D01*
X134618752Y-114763507D01*
X134624787Y-114758369D01*
X134625558Y-114753979D01*
X134629227Y-114745531D01*
X134632363Y-114744452D01*
X134643138Y-114739641D01*
X134653371Y-114729081D01*
X134657315Y-114719499D01*
X134662195Y-114712973D01*
X134664121Y-114712694D01*
X134674896Y-114707883D01*
X134685129Y-114697323D01*
X134689073Y-114687741D01*
X134693953Y-114681215D01*
X134695879Y-114680936D01*
X134706654Y-114676125D01*
X134716887Y-114665565D01*
X134720831Y-114655983D01*
X134725711Y-114649457D01*
X134727637Y-114649178D01*
X134738411Y-114644367D01*
X134748645Y-114633807D01*
X134752589Y-114624225D01*
X134757469Y-114617699D01*
X134759395Y-114617420D01*
X134770169Y-114612609D01*
X134780403Y-114602049D01*
X134784347Y-114592467D01*
X134789659Y-114586929D01*
X134796974Y-114585662D01*
X134807156Y-114581322D01*
X134823035Y-114569739D01*
X134841765Y-114553066D01*
X134847357Y-114547553D01*
X134867603Y-114528685D01*
X134884996Y-114515392D01*
X134897022Y-114509558D01*
X134898246Y-114509443D01*
X134908928Y-114505572D01*
X134911379Y-114499916D01*
X134915685Y-114491478D01*
X134919399Y-114490388D01*
X134928559Y-114485729D01*
X134939332Y-114474525D01*
X134939343Y-114474509D01*
X134950418Y-114463275D01*
X134960209Y-114458630D01*
X134970355Y-114454292D01*
X134982923Y-114443749D01*
X134983866Y-114442751D01*
X134996761Y-114431839D01*
X135008094Y-114426898D01*
X135008690Y-114426873D01*
X135017481Y-114422617D01*
X135031816Y-114411633D01*
X135048870Y-114396591D01*
X135065822Y-114380164D01*
X135079847Y-114365023D01*
X135088122Y-114353841D01*
X135089223Y-114350655D01*
X135094659Y-114345879D01*
X135105102Y-114344302D01*
X135117039Y-114342128D01*
X135120981Y-114337950D01*
X135126417Y-114333176D01*
X135136860Y-114331599D01*
X135149631Y-114328286D01*
X135152739Y-114322071D01*
X135157824Y-114313651D01*
X135162267Y-114312544D01*
X135170719Y-114309114D01*
X135171794Y-114306192D01*
X135176985Y-114300670D01*
X135182022Y-114299841D01*
X135192303Y-114295279D01*
X135207023Y-114283715D01*
X135223027Y-114268332D01*
X135237161Y-114252312D01*
X135246271Y-114238838D01*
X135248013Y-114233250D01*
X135253156Y-114222381D01*
X135257541Y-114219567D01*
X135266096Y-114212977D01*
X135264890Y-114206548D01*
X135257541Y-114204567D01*
X135249878Y-114199045D01*
X135248013Y-114188688D01*
X135245839Y-114176751D01*
X135241662Y-114172809D01*
X135236027Y-114167664D01*
X135235310Y-114163282D01*
X135229788Y-114155619D01*
X135219431Y-114153754D01*
X135207494Y-114151580D01*
X135203552Y-114147403D01*
X135198407Y-114141768D01*
X135194025Y-114141051D01*
X135185604Y-114135967D01*
X135184497Y-114131524D01*
X135181068Y-114123071D01*
X135178146Y-114121996D01*
X135173371Y-114116561D01*
X135171794Y-114106117D01*
X135169466Y-114094183D01*
X135164989Y-114090238D01*
X135153011Y-114084807D01*
X135143360Y-114071950D01*
X135140036Y-114058735D01*
X135136029Y-114046328D01*
X135130509Y-114041723D01*
X135123105Y-114033222D01*
X135122483Y-114030189D01*
X135425858Y-114030189D01*
X135429151Y-114050552D01*
X135440657Y-114065100D01*
X135441737Y-114065967D01*
X135452967Y-114078148D01*
X135457616Y-114089810D01*
X135462365Y-114101455D01*
X135473494Y-114113087D01*
X135484891Y-114126025D01*
X135489373Y-114139383D01*
X135492975Y-114151017D01*
X135498901Y-114153754D01*
X135507350Y-114157424D01*
X135508428Y-114160560D01*
X135513239Y-114171334D01*
X135523799Y-114181568D01*
X135533381Y-114185512D01*
X135539416Y-114190649D01*
X135540186Y-114195040D01*
X135545708Y-114202702D01*
X135556065Y-114204567D01*
X135568002Y-114206741D01*
X135571944Y-114210919D01*
X135577915Y-114214012D01*
X135594337Y-114216202D01*
X135618974Y-114217227D01*
X135625933Y-114217270D01*
X135652076Y-114217416D01*
X135668032Y-114218346D01*
X135676315Y-114220801D01*
X135679439Y-114225521D01*
X135679921Y-114233149D01*
X135678260Y-114243887D01*
X135670786Y-114248283D01*
X135657691Y-114249028D01*
X135641248Y-114251094D01*
X135635500Y-114257688D01*
X135635460Y-114258555D01*
X135630087Y-114266293D01*
X135621897Y-114268083D01*
X135608353Y-114272549D01*
X135594190Y-114283356D01*
X135593618Y-114283962D01*
X135573764Y-114297359D01*
X135559544Y-114299841D01*
X135546035Y-114301654D01*
X135540192Y-114306032D01*
X135540186Y-114306192D01*
X135535042Y-114311827D01*
X135530659Y-114312544D01*
X135523678Y-114317262D01*
X135521163Y-114332419D01*
X135521131Y-114335228D01*
X135517213Y-114357256D01*
X135506568Y-114371642D01*
X135493003Y-114376060D01*
X135481370Y-114380280D01*
X135470319Y-114388763D01*
X135457616Y-114401466D01*
X135470319Y-114414169D01*
X135483869Y-114423492D01*
X135497233Y-114426576D01*
X135506483Y-114423094D01*
X135508428Y-114417345D01*
X135510527Y-114412902D01*
X135518217Y-114410050D01*
X135533587Y-114408475D01*
X135558726Y-114407863D01*
X135571944Y-114407818D01*
X135600839Y-114407649D01*
X135619335Y-114406832D01*
X135629734Y-114404898D01*
X135634339Y-114401381D01*
X135635452Y-114395811D01*
X135635460Y-114394915D01*
X135631321Y-114382702D01*
X135625933Y-114378357D01*
X135618738Y-114369271D01*
X135616405Y-114353150D01*
X135616405Y-114331599D01*
X135664042Y-114331599D01*
X135688045Y-114332387D01*
X135704775Y-114334520D01*
X135711634Y-114337652D01*
X135711679Y-114337950D01*
X135717471Y-114341325D01*
X135732633Y-114343616D01*
X135750215Y-114344302D01*
X135772472Y-114343684D01*
X135786909Y-114340616D01*
X135798394Y-114333281D01*
X135809717Y-114322071D01*
X135824782Y-114309287D01*
X135839826Y-114301415D01*
X135851787Y-114299468D01*
X135857606Y-114304456D01*
X135857766Y-114306192D01*
X135862910Y-114311827D01*
X135867293Y-114312544D01*
X135875714Y-114317628D01*
X135876820Y-114322071D01*
X135880506Y-114328307D01*
X135893076Y-114331179D01*
X135905856Y-114331599D01*
X135930148Y-114334670D01*
X135946601Y-114343111D01*
X135953021Y-114355761D01*
X135953039Y-114356551D01*
X135958382Y-114361989D01*
X135966376Y-114363357D01*
X135976672Y-114368158D01*
X135994756Y-114382333D01*
X136020232Y-114405538D01*
X136052704Y-114437432D01*
X136057964Y-114442751D01*
X136083555Y-114468488D01*
X136106114Y-114490745D01*
X136124127Y-114508062D01*
X136136082Y-114518983D01*
X136140355Y-114522146D01*
X136148921Y-114526822D01*
X136158083Y-114536960D01*
X136162629Y-114546724D01*
X136162642Y-114547099D01*
X136167522Y-114553625D01*
X136169447Y-114553904D01*
X136180222Y-114558715D01*
X136190455Y-114569275D01*
X136194400Y-114578857D01*
X136199537Y-114584892D01*
X136203927Y-114585662D01*
X136212177Y-114590801D01*
X136213454Y-114595911D01*
X136216566Y-114602862D01*
X136227824Y-114603925D01*
X136233098Y-114603276D01*
X136249745Y-114603656D01*
X136256008Y-114608906D01*
X136264435Y-114614839D01*
X136281727Y-114617393D01*
X136284002Y-114617420D01*
X136301410Y-114619082D01*
X136308387Y-114624552D01*
X136308728Y-114626948D01*
X136310289Y-114630269D01*
X136316017Y-114632735D01*
X136327479Y-114634466D01*
X136346240Y-114635582D01*
X136373867Y-114636205D01*
X136411928Y-114636453D01*
X136432784Y-114636475D01*
X136476370Y-114636341D01*
X136508858Y-114635860D01*
X136531854Y-114634912D01*
X136546959Y-114633378D01*
X136555779Y-114631137D01*
X136559917Y-114628071D01*
X136560495Y-114626948D01*
X136569029Y-114619420D01*
X136578671Y-114617420D01*
X136591632Y-114613554D01*
X136597001Y-114607490D01*
X136603458Y-114601033D01*
X136607573Y-114601739D01*
X136614654Y-114599321D01*
X136628009Y-114589357D01*
X136645339Y-114573677D01*
X136655002Y-114564032D01*
X136673220Y-114545675D01*
X136688132Y-114531408D01*
X136697563Y-114523274D01*
X136699552Y-114522146D01*
X136708551Y-114517139D01*
X136717395Y-114505959D01*
X136721575Y-114494366D01*
X136721582Y-114494002D01*
X136725841Y-114485312D01*
X136737248Y-114470433D01*
X136753745Y-114451930D01*
X136762867Y-114442516D01*
X136783904Y-114420377D01*
X136796726Y-114404018D01*
X136802914Y-114391128D01*
X136804152Y-114382192D01*
X136806012Y-114368908D01*
X136810485Y-114363357D01*
X136810504Y-114363357D01*
X136816139Y-114358212D01*
X136816855Y-114353829D01*
X136821940Y-114345409D01*
X136826383Y-114344302D01*
X136834045Y-114338780D01*
X136835910Y-114328423D01*
X136838084Y-114316486D01*
X136842262Y-114312544D01*
X136845212Y-114306505D01*
X136847346Y-114289609D01*
X136848478Y-114263686D01*
X136848613Y-114249028D01*
X136848928Y-114219409D01*
X136850082Y-114200393D01*
X136852387Y-114189891D01*
X136856158Y-114185813D01*
X136858141Y-114185512D01*
X136865187Y-114180692D01*
X136867651Y-114165306D01*
X136867668Y-114163282D01*
X136865602Y-114146840D01*
X136859008Y-114141091D01*
X136858141Y-114141051D01*
X136849720Y-114135967D01*
X136848613Y-114131524D01*
X136843793Y-114124477D01*
X136828407Y-114122014D01*
X136826383Y-114121996D01*
X136811061Y-114123417D01*
X136804879Y-114128965D01*
X136804152Y-114134699D01*
X136799266Y-114152904D01*
X136784249Y-114165087D01*
X136758565Y-114171542D01*
X136734285Y-114172809D01*
X136709532Y-114171886D01*
X136694175Y-114169297D01*
X136689824Y-114166004D01*
X136685012Y-114155229D01*
X136674453Y-114144996D01*
X136664871Y-114141051D01*
X136658345Y-114136171D01*
X136658066Y-114134246D01*
X136653255Y-114123471D01*
X136642695Y-114113238D01*
X136633113Y-114109293D01*
X136627078Y-114104156D01*
X136626308Y-114099766D01*
X136621776Y-114091333D01*
X136617854Y-114090238D01*
X136608963Y-114085171D01*
X136600901Y-114074359D01*
X136591993Y-114062755D01*
X136583949Y-114058480D01*
X136577487Y-114053012D01*
X136575495Y-114042601D01*
X136572872Y-114030514D01*
X136562542Y-114026790D01*
X136559616Y-114026722D01*
X136547298Y-114023874D01*
X136543740Y-114013632D01*
X136543737Y-114013181D01*
X136539316Y-114000931D01*
X136528131Y-113985540D01*
X136521507Y-113978674D01*
X136508425Y-113965031D01*
X136500435Y-113954179D01*
X136499276Y-113950930D01*
X136493843Y-113945836D01*
X136483397Y-113944152D01*
X136471460Y-113941978D01*
X136467518Y-113937800D01*
X136462373Y-113932165D01*
X136457991Y-113931449D01*
X136449542Y-113927779D01*
X136448463Y-113924643D01*
X136442726Y-113912060D01*
X136427800Y-113903045D01*
X136407632Y-113899691D01*
X136391011Y-113897709D01*
X136385023Y-113891343D01*
X136384947Y-113890163D01*
X136381518Y-113881711D01*
X136378596Y-113880636D01*
X136374398Y-113875052D01*
X136372299Y-113861323D01*
X136372244Y-113858405D01*
X136373839Y-113843712D01*
X136377762Y-113836367D01*
X136378596Y-113836175D01*
X136384231Y-113831030D01*
X136384947Y-113826647D01*
X136386899Y-113822464D01*
X136394071Y-113819678D01*
X136408443Y-113818032D01*
X136431990Y-113817269D01*
X136457991Y-113817120D01*
X136531034Y-113817120D01*
X136531034Y-113801241D01*
X136528188Y-113788926D01*
X136517947Y-113785365D01*
X136517471Y-113785362D01*
X136503927Y-113780896D01*
X136489764Y-113770089D01*
X136489192Y-113769483D01*
X136475356Y-113758487D01*
X136462017Y-113753618D01*
X136461470Y-113753604D01*
X136450985Y-113751000D01*
X136448463Y-113747253D01*
X136443135Y-113742119D01*
X136435561Y-113740901D01*
X136423347Y-113736762D01*
X136419002Y-113731374D01*
X136410335Y-113724252D01*
X136396668Y-113721846D01*
X136375689Y-113715903D01*
X136363273Y-113705967D01*
X136357518Y-113700150D01*
X136351350Y-113695961D01*
X136342725Y-113693134D01*
X136329602Y-113691401D01*
X136309939Y-113690493D01*
X136281692Y-113690145D01*
X136242820Y-113690088D01*
X136242037Y-113690088D01*
X136202962Y-113690143D01*
X136174547Y-113690483D01*
X136154752Y-113691378D01*
X136141532Y-113693095D01*
X136132847Y-113695901D01*
X136126653Y-113700064D01*
X136120908Y-113705850D01*
X136120800Y-113705967D01*
X136106964Y-113716964D01*
X136093625Y-113721833D01*
X136093078Y-113721846D01*
X136082596Y-113724634D01*
X136080071Y-113728652D01*
X136075260Y-113739426D01*
X136064700Y-113749660D01*
X136055118Y-113753604D01*
X136048592Y-113758484D01*
X136048313Y-113760409D01*
X136043502Y-113771184D01*
X136032942Y-113781418D01*
X136023361Y-113785362D01*
X136016834Y-113790242D01*
X136016555Y-113792167D01*
X136011744Y-113802942D01*
X136001184Y-113813175D01*
X135991603Y-113817120D01*
X135986065Y-113822432D01*
X135984797Y-113829751D01*
X135980164Y-113845556D01*
X135969002Y-113859751D01*
X135955416Y-113867545D01*
X135952070Y-113867933D01*
X135942435Y-113873473D01*
X135939190Y-113882159D01*
X135932985Y-113894312D01*
X135925437Y-113898621D01*
X135908700Y-113905936D01*
X135895255Y-113918620D01*
X135889530Y-113932449D01*
X135889524Y-113932860D01*
X135884891Y-113941954D01*
X135873645Y-113944152D01*
X135861710Y-113946480D01*
X135857766Y-113950957D01*
X135852954Y-113961732D01*
X135842395Y-113971965D01*
X135832813Y-113975910D01*
X135826287Y-113980790D01*
X135826008Y-113982715D01*
X135821196Y-113993490D01*
X135810637Y-114003723D01*
X135801055Y-114007668D01*
X135795020Y-114012805D01*
X135794250Y-114017195D01*
X135788819Y-114024925D01*
X135779959Y-114026785D01*
X135766174Y-114031966D01*
X135749209Y-114045942D01*
X135743437Y-114052129D01*
X135728822Y-114066506D01*
X135715695Y-114075694D01*
X135710091Y-114077473D01*
X135700663Y-114080523D01*
X135698976Y-114083887D01*
X135693831Y-114089522D01*
X135689448Y-114090238D01*
X135681000Y-114093908D01*
X135679921Y-114097044D01*
X135675975Y-114108804D01*
X135663294Y-114116580D01*
X135640614Y-114120824D01*
X135610054Y-114121996D01*
X135577125Y-114120587D01*
X135555352Y-114116058D01*
X135543469Y-114107958D01*
X135540186Y-114097044D01*
X135535306Y-114090517D01*
X135533381Y-114090238D01*
X135522606Y-114085427D01*
X135512373Y-114074867D01*
X135508428Y-114065286D01*
X135503291Y-114059251D01*
X135498901Y-114058480D01*
X135490480Y-114053396D01*
X135489373Y-114048953D01*
X135486178Y-114040497D01*
X135483464Y-114039426D01*
X135478078Y-114034025D01*
X135475524Y-114025135D01*
X135471466Y-114015142D01*
X135460621Y-114010271D01*
X135449676Y-114008872D01*
X135434114Y-114008268D01*
X135427438Y-114012220D01*
X135425886Y-114024093D01*
X135425858Y-114030189D01*
X135122483Y-114030189D01*
X135120981Y-114022867D01*
X135118188Y-114011248D01*
X135107448Y-114007711D01*
X135105102Y-114007668D01*
X135097227Y-114008209D01*
X135092512Y-114011562D01*
X135090146Y-114020317D01*
X135089320Y-114037066D01*
X135089223Y-114058480D01*
X135088966Y-114083782D01*
X135087759Y-114098944D01*
X135084953Y-114106527D01*
X135079898Y-114109092D01*
X135076321Y-114109293D01*
X135064107Y-114105154D01*
X135059762Y-114099766D01*
X135051124Y-114091831D01*
X135043629Y-114090238D01*
X135027006Y-114084799D01*
X135015505Y-114071434D01*
X135012942Y-114060522D01*
X135008389Y-114049970D01*
X134996809Y-114035617D01*
X134987598Y-114026722D01*
X134971196Y-114009405D01*
X134962859Y-113994216D01*
X134962254Y-113990201D01*
X134959643Y-113979048D01*
X134955386Y-113975910D01*
X134944612Y-113971099D01*
X134934378Y-113960539D01*
X134930434Y-113950957D01*
X134925296Y-113944922D01*
X134920906Y-113944152D01*
X134912651Y-113939014D01*
X134911379Y-113933924D01*
X134916096Y-113922959D01*
X134928085Y-113907945D01*
X134944100Y-113891961D01*
X134960897Y-113878083D01*
X134975232Y-113869389D01*
X134980946Y-113867933D01*
X134991527Y-113864031D01*
X134993950Y-113858405D01*
X134997619Y-113849957D01*
X135000755Y-113848878D01*
X135010511Y-113844797D01*
X135016634Y-113839804D01*
X135024200Y-113829177D01*
X135025708Y-113823925D01*
X135030587Y-113817399D01*
X135032513Y-113817120D01*
X135042269Y-113813039D01*
X135048392Y-113808046D01*
X135055958Y-113797419D01*
X135057465Y-113792167D01*
X135062603Y-113786133D01*
X135066993Y-113785362D01*
X135075448Y-113782093D01*
X135076520Y-113779313D01*
X135080719Y-113772118D01*
X135091757Y-113758916D01*
X135107302Y-113742485D01*
X135108278Y-113741506D01*
X135124102Y-113724366D01*
X135135480Y-113709532D01*
X135140030Y-113700122D01*
X135140036Y-113699918D01*
X135143374Y-113691273D01*
X135146388Y-113690088D01*
X135152023Y-113684944D01*
X135152739Y-113680561D01*
X135156200Y-113672109D01*
X135159149Y-113671034D01*
X135169101Y-113666379D01*
X135182178Y-113655087D01*
X135194571Y-113641166D01*
X135202473Y-113628624D01*
X135203552Y-113624297D01*
X135206721Y-113615282D01*
X135209904Y-113613869D01*
X135215539Y-113608725D01*
X135216255Y-113604342D01*
X135221339Y-113595921D01*
X135225783Y-113594815D01*
X135233527Y-113589460D01*
X135235310Y-113581481D01*
X135239802Y-113570030D01*
X135251786Y-113553545D01*
X135267068Y-113537052D01*
X135282969Y-113520127D01*
X135294361Y-113505417D01*
X135298824Y-113496056D01*
X135298826Y-113495943D01*
X135303415Y-113482970D01*
X135313861Y-113471747D01*
X135323778Y-113467783D01*
X135329813Y-113462645D01*
X135330584Y-113458255D01*
X135335668Y-113449835D01*
X135340111Y-113448728D01*
X135347820Y-113443289D01*
X135349639Y-113434251D01*
X135354528Y-113419333D01*
X135362342Y-113410618D01*
X135372285Y-113398822D01*
X135375045Y-113389261D01*
X135379420Y-113377931D01*
X135390073Y-113363542D01*
X135403296Y-113350143D01*
X135415381Y-113341787D01*
X135419448Y-113340751D01*
X135424558Y-113335401D01*
X135425858Y-113327313D01*
X135430509Y-113315513D01*
X135443053Y-113298796D01*
X135457616Y-113283587D01*
X135475021Y-113265018D01*
X135486253Y-113248998D01*
X135489373Y-113239860D01*
X135493176Y-113228942D01*
X135498901Y-113226422D01*
X135507350Y-113222753D01*
X135508428Y-113219617D01*
X135512509Y-113209861D01*
X135517502Y-113203738D01*
X135528129Y-113196172D01*
X135533381Y-113194664D01*
X135539907Y-113189785D01*
X135540186Y-113187859D01*
X135544267Y-113178103D01*
X135549260Y-113171980D01*
X135559887Y-113164414D01*
X135565139Y-113162907D01*
X135571665Y-113158027D01*
X135571944Y-113156101D01*
X135576025Y-113146345D01*
X135581018Y-113140222D01*
X135591645Y-113132656D01*
X135596897Y-113131149D01*
X135603423Y-113126269D01*
X135603702Y-113124343D01*
X135608513Y-113113568D01*
X135619073Y-113103335D01*
X135628655Y-113099391D01*
X135634881Y-113094338D01*
X135635460Y-113090937D01*
X135640528Y-113082046D01*
X135651339Y-113073984D01*
X135662943Y-113065076D01*
X135667218Y-113057032D01*
X135672535Y-113050249D01*
X135680348Y-113048578D01*
X135692338Y-113044165D01*
X135707566Y-113032999D01*
X135714443Y-113026347D01*
X135729648Y-113013082D01*
X135743959Y-113005131D01*
X135748951Y-113004117D01*
X135759715Y-113001428D01*
X135762492Y-112997312D01*
X135767303Y-112986537D01*
X135777863Y-112976303D01*
X135787444Y-112972359D01*
X135793479Y-112967222D01*
X135794250Y-112962832D01*
X135799623Y-112955094D01*
X135807812Y-112953304D01*
X135821357Y-112948838D01*
X135835520Y-112938031D01*
X135836091Y-112937425D01*
X135849043Y-112926508D01*
X135860496Y-112921571D01*
X135861092Y-112921546D01*
X135874245Y-112916979D01*
X135885547Y-112906550D01*
X135889524Y-112896594D01*
X135894934Y-112891398D01*
X135904723Y-112889788D01*
X135917895Y-112886241D01*
X135923578Y-112880261D01*
X135931819Y-112874094D01*
X135947163Y-112870997D01*
X135964349Y-112871146D01*
X135978110Y-112874717D01*
X135982371Y-112878298D01*
X135982435Y-112886414D01*
X135979570Y-112888355D01*
X135973810Y-112895869D01*
X135972094Y-112906197D01*
X135968685Y-112918570D01*
X135962567Y-112921546D01*
X135954116Y-112925060D01*
X135953039Y-112928056D01*
X135948772Y-112935215D01*
X135937410Y-112948597D01*
X135921111Y-112965721D01*
X135914930Y-112971856D01*
X135895322Y-112992672D01*
X135882058Y-113010138D01*
X135876840Y-113021995D01*
X135876820Y-113022511D01*
X135878104Y-113033227D01*
X135883074Y-113034240D01*
X135893413Y-113025355D01*
X135898495Y-113019996D01*
X135910483Y-113009167D01*
X135919880Y-113004158D01*
X135920438Y-113004117D01*
X135927865Y-112999888D01*
X135941717Y-112988557D01*
X135959594Y-112972158D01*
X135969154Y-112962832D01*
X135992970Y-112940501D01*
X136010765Y-112927201D01*
X136024137Y-112921798D01*
X136027278Y-112921546D01*
X136044012Y-112916228D01*
X136063857Y-112899812D01*
X136068086Y-112895362D01*
X136085790Y-112878843D01*
X136098704Y-112872548D01*
X136102045Y-112872932D01*
X136110424Y-112872178D01*
X136111829Y-112867358D01*
X136116918Y-112859112D01*
X136121356Y-112858030D01*
X136129777Y-112852946D01*
X136130884Y-112848503D01*
X136136405Y-112840840D01*
X136146763Y-112838976D01*
X136158699Y-112836801D01*
X136162642Y-112832624D01*
X136168277Y-112828647D01*
X136182353Y-112826434D01*
X136188048Y-112826272D01*
X136203956Y-112824763D01*
X136212806Y-112820994D01*
X136213454Y-112819467D01*
X136219263Y-112806620D01*
X136235224Y-112797919D01*
X136259143Y-112794524D01*
X136260638Y-112794514D01*
X136277840Y-112793271D01*
X136288253Y-112790121D01*
X136289674Y-112788163D01*
X136295261Y-112783980D01*
X136309014Y-112781872D01*
X136312103Y-112781811D01*
X136330115Y-112779083D01*
X136338189Y-112772284D01*
X136347207Y-112765098D01*
X136362867Y-112762756D01*
X136377877Y-112760773D01*
X136386107Y-112755946D01*
X136386330Y-112755432D01*
X136394243Y-112751337D01*
X136414563Y-112749423D01*
X136440892Y-112749485D01*
X136467690Y-112749741D01*
X136484326Y-112748524D01*
X136493296Y-112745454D01*
X136496824Y-112740931D01*
X136506179Y-112733246D01*
X136521507Y-112730999D01*
X136538337Y-112728149D01*
X136546034Y-112721471D01*
X136552313Y-112715678D01*
X136566996Y-112712678D01*
X136587999Y-112711944D01*
X136608379Y-112710984D01*
X136622206Y-112708474D01*
X136626308Y-112705592D01*
X136632495Y-112703088D01*
X136650417Y-112701162D01*
X136679119Y-112699872D01*
X136717644Y-112699276D01*
X136731109Y-112699241D01*
X136770454Y-112699089D01*
X136798790Y-112698534D01*
X136817809Y-112697419D01*
X136829204Y-112695592D01*
X136834667Y-112692898D01*
X136835910Y-112689713D01*
X136838009Y-112685270D01*
X136845699Y-112682418D01*
X136861068Y-112680843D01*
X136886208Y-112680231D01*
X136899426Y-112680186D01*
X136928932Y-112679582D01*
X136950265Y-112677892D01*
X136961594Y-112675300D01*
X136962942Y-112673834D01*
X136969157Y-112671455D01*
X136987275Y-112669594D01*
X137016505Y-112668293D01*
X137056056Y-112667595D01*
X137083622Y-112667483D01*
X137128836Y-112667810D01*
G37*
X137128836Y-112667810D02*
X137164191Y-112668763D01*
X137188897Y-112670302D01*
X137202162Y-112672383D01*
X137204302Y-112673834D01*
X137210076Y-112677232D01*
X137225110Y-112679530D01*
X137241732Y-112680186D01*
X137265182Y-112681246D01*
X137278290Y-112684769D01*
X137282818Y-112689713D01*
X137286242Y-112693475D01*
X137294367Y-112696132D01*
X137309006Y-112697857D01*
X137331976Y-112698825D01*
X137365088Y-112699211D01*
X137381947Y-112699241D01*
X137420827Y-112699651D01*
X137450404Y-112700833D01*
X137469594Y-112702716D01*
X137477316Y-112705227D01*
X137477420Y-112705592D01*
X137483004Y-112709790D01*
X137496734Y-112711889D01*
X137499651Y-112711944D01*
X137516093Y-112714010D01*
X137521841Y-112720603D01*
X137521882Y-112721471D01*
X137526077Y-112728096D01*
X137539984Y-112730826D01*
X137547288Y-112730999D01*
X137564954Y-112732572D01*
X137572233Y-112737787D01*
X137572694Y-112740526D01*
X137574793Y-112744969D01*
X137582483Y-112747821D01*
X137597853Y-112749396D01*
X137622992Y-112750008D01*
X137636210Y-112750053D01*
X137665717Y-112750657D01*
X137687049Y-112752347D01*
X137698378Y-112754939D01*
X137699726Y-112756405D01*
X137705162Y-112761180D01*
X137715605Y-112762756D01*
X137728376Y-112766069D01*
X137731484Y-112772284D01*
X137735679Y-112778909D01*
X137749586Y-112781638D01*
X137756890Y-112781811D01*
X137772800Y-112783220D01*
X137781649Y-112786739D01*
X137782297Y-112788163D01*
X137788208Y-112791363D01*
X137804208Y-112793594D01*
X137827700Y-112794508D01*
X137829934Y-112794514D01*
X137853937Y-112795303D01*
X137870667Y-112797436D01*
X137877526Y-112800568D01*
X137877571Y-112800866D01*
X137882899Y-112806000D01*
X137890473Y-112807218D01*
X137902687Y-112811356D01*
X137907032Y-112816745D01*
X137912321Y-112821969D01*
X137924760Y-112824971D01*
X137946670Y-112826187D01*
X137957645Y-112826272D01*
X137981395Y-112827071D01*
X137997919Y-112829228D01*
X138004574Y-112832387D01*
X138004602Y-112832624D01*
X138009931Y-112837758D01*
X138017505Y-112838976D01*
X138029718Y-112843114D01*
X138034063Y-112848503D01*
X138042590Y-112856002D01*
X138052389Y-112858030D01*
X138064826Y-112860865D01*
X138069544Y-112865485D01*
X138077634Y-112869912D01*
X138097885Y-112871633D01*
X138114566Y-112871398D01*
X138138563Y-112871170D01*
X138152665Y-112872979D01*
X138159583Y-112877318D01*
X138160927Y-112879822D01*
X138168834Y-112888534D01*
X138173599Y-112889788D01*
X138181426Y-112894887D01*
X138182447Y-112899316D01*
X138187267Y-112906362D01*
X138202653Y-112908826D01*
X138204677Y-112908843D01*
X138219371Y-112910438D01*
X138226716Y-112914361D01*
X138226908Y-112915195D01*
X138232678Y-112918596D01*
X138247687Y-112920896D01*
X138264128Y-112921546D01*
X138286206Y-112922287D01*
X138299785Y-112925407D01*
X138309025Y-112932249D01*
X138313272Y-112937425D01*
X138326387Y-112949205D01*
X138344671Y-112953217D01*
X138349096Y-112953304D01*
X138366188Y-112955085D01*
X138372779Y-112960894D01*
X138372994Y-112962832D01*
X138378516Y-112970494D01*
X138388873Y-112972359D01*
X138400810Y-112974533D01*
X138404752Y-112978710D01*
X138410188Y-112983485D01*
X138420631Y-112985062D01*
X138433402Y-112988375D01*
X138436510Y-112994589D01*
X138440706Y-113001214D01*
X138454612Y-113003944D01*
X138461917Y-113004117D01*
X138477826Y-113005526D01*
X138486675Y-113009045D01*
X138487323Y-113010468D01*
X138492643Y-113015629D01*
X138500026Y-113016820D01*
X138510372Y-113020791D01*
X138512729Y-113026347D01*
X138518251Y-113034010D01*
X138528608Y-113035875D01*
X138540545Y-113038049D01*
X138544487Y-113042226D01*
X138550042Y-113046580D01*
X138563573Y-113048661D01*
X138565130Y-113048688D01*
X138588488Y-113054853D01*
X138600730Y-113064567D01*
X138620916Y-113077862D01*
X138637252Y-113080336D01*
X138653428Y-113082536D01*
X138658808Y-113089486D01*
X138658816Y-113089863D01*
X138664337Y-113097526D01*
X138674695Y-113099391D01*
X138686631Y-113101565D01*
X138690574Y-113105742D01*
X138695718Y-113111377D01*
X138700101Y-113112094D01*
X138708522Y-113117178D01*
X138709629Y-113121621D01*
X138714449Y-113128668D01*
X138729834Y-113131131D01*
X138731859Y-113131149D01*
X138746553Y-113132744D01*
X138753898Y-113136667D01*
X138754090Y-113137500D01*
X138759422Y-113142620D01*
X138767096Y-113143852D01*
X138780228Y-113148302D01*
X138794203Y-113159078D01*
X138794819Y-113159731D01*
X138814969Y-113173227D01*
X138829449Y-113175610D01*
X138844947Y-113178204D01*
X138849363Y-113185137D01*
X138854448Y-113193558D01*
X138858891Y-113194664D01*
X138867343Y-113198094D01*
X138868418Y-113201016D01*
X138873670Y-113206376D01*
X138879710Y-113207368D01*
X138895254Y-113213175D01*
X138906669Y-113228971D01*
X138912458Y-113252316D01*
X138912879Y-113261429D01*
X138914132Y-113280241D01*
X138918391Y-113288794D01*
X138922407Y-113289938D01*
X138930827Y-113295023D01*
X138931934Y-113299466D01*
X138935364Y-113307918D01*
X138938286Y-113308993D01*
X138942484Y-113314577D01*
X138944582Y-113328306D01*
X138944637Y-113331224D01*
X138946703Y-113347666D01*
X138953297Y-113353414D01*
X138954165Y-113353454D01*
X138958813Y-113355682D01*
X138961708Y-113363812D01*
X138963212Y-113380016D01*
X138963687Y-113406464D01*
X138963692Y-113410618D01*
X138964063Y-113438507D01*
X138965418Y-113455878D01*
X138968119Y-113464903D01*
X138972527Y-113467753D01*
X138973219Y-113467783D01*
X138980882Y-113473304D01*
X138982747Y-113483662D01*
X138984921Y-113495598D01*
X138989098Y-113499541D01*
X138991094Y-113505820D01*
X138992733Y-113524377D01*
X138993999Y-113554790D01*
X138994879Y-113596640D01*
X138995359Y-113649505D01*
X138995450Y-113690088D01*
X138995241Y-113749971D01*
X138994622Y-113799115D01*
X138993608Y-113837099D01*
X138992213Y-113863504D01*
X138990451Y-113877908D01*
X138989098Y-113880636D01*
X138984345Y-113886078D01*
X138982747Y-113896714D01*
X138979383Y-113910241D01*
X138973219Y-113916449D01*
X138968275Y-113921311D01*
X138965305Y-113932768D01*
X138963922Y-113953095D01*
X138963692Y-113972734D01*
X138963155Y-114000252D01*
X138961288Y-114017379D01*
X138957704Y-114026392D01*
X138954165Y-114029019D01*
X138946959Y-114038209D01*
X138944637Y-114055105D01*
X138943055Y-114069878D01*
X138939161Y-114077322D01*
X138938286Y-114077535D01*
X138934035Y-114083106D01*
X138931971Y-114096752D01*
X138931934Y-114099086D01*
X138929138Y-114116434D01*
X138922407Y-114124293D01*
X138914561Y-114132909D01*
X138912879Y-114140852D01*
X138910256Y-114151281D01*
X138906528Y-114153754D01*
X138900893Y-114158899D01*
X138900176Y-114163282D01*
X138895092Y-114171702D01*
X138890649Y-114172809D01*
X138882228Y-114167725D01*
X138881121Y-114163282D01*
X138877692Y-114154829D01*
X138874770Y-114153754D01*
X138871569Y-114147843D01*
X138869339Y-114131843D01*
X138868424Y-114108351D01*
X138868418Y-114106117D01*
X138867919Y-114080990D01*
X138866116Y-114066241D01*
X138862548Y-114059572D01*
X138858891Y-114058480D01*
X138850470Y-114053396D01*
X138849363Y-114048953D01*
X138845934Y-114040501D01*
X138843012Y-114039426D01*
X138837377Y-114044570D01*
X138836660Y-114048953D01*
X138831576Y-114057374D01*
X138827133Y-114058480D01*
X138821141Y-114061880D01*
X138818215Y-114073651D01*
X138817606Y-114090238D01*
X138816463Y-114108354D01*
X138813542Y-114119853D01*
X138811254Y-114121996D01*
X138806403Y-114127410D01*
X138804902Y-114137196D01*
X138801355Y-114150368D01*
X138795375Y-114156051D01*
X138789582Y-114162330D01*
X138786582Y-114177013D01*
X138785848Y-114198016D01*
X138784888Y-114218397D01*
X138782378Y-114232223D01*
X138779496Y-114236325D01*
X138774721Y-114241760D01*
X138773144Y-114252204D01*
X138769832Y-114264975D01*
X138763617Y-114268083D01*
X138755954Y-114273604D01*
X138754090Y-114283962D01*
X138751915Y-114295898D01*
X138747738Y-114299841D01*
X138744115Y-114305553D01*
X138741815Y-114320159D01*
X138741386Y-114331599D01*
X138740367Y-114351570D01*
X138736835Y-114361324D01*
X138731859Y-114363357D01*
X138724196Y-114368878D01*
X138722332Y-114379236D01*
X138720157Y-114391172D01*
X138715980Y-114395115D01*
X138711205Y-114400550D01*
X138709629Y-114410994D01*
X138706316Y-114423765D01*
X138700101Y-114426873D01*
X138693120Y-114431591D01*
X138690606Y-114446747D01*
X138690574Y-114449557D01*
X138687068Y-114470147D01*
X138677946Y-114484900D01*
X138665621Y-114490388D01*
X138661554Y-114496191D01*
X138659167Y-114511485D01*
X138658816Y-114522146D01*
X138657673Y-114540262D01*
X138654752Y-114551761D01*
X138652464Y-114553904D01*
X138647690Y-114559340D01*
X138646113Y-114569783D01*
X138642800Y-114582554D01*
X138636585Y-114585662D01*
X138628165Y-114590746D01*
X138627058Y-114595190D01*
X138623628Y-114603642D01*
X138620706Y-114604717D01*
X138616264Y-114610241D01*
X138614356Y-114623569D01*
X138614355Y-114623971D01*
X138611375Y-114639549D01*
X138604827Y-114646881D01*
X138596386Y-114654878D01*
X138595300Y-114659385D01*
X138590201Y-114667212D01*
X138585773Y-114668233D01*
X138578110Y-114673754D01*
X138576245Y-114684112D01*
X138574071Y-114696048D01*
X138569894Y-114699991D01*
X138565643Y-114705562D01*
X138563579Y-114719207D01*
X138563542Y-114721542D01*
X138560746Y-114738890D01*
X138554015Y-114746749D01*
X138546764Y-114755208D01*
X138544487Y-114766483D01*
X138542338Y-114778515D01*
X138538136Y-114782561D01*
X138532975Y-114787881D01*
X138531784Y-114795265D01*
X138527813Y-114805610D01*
X138522257Y-114807968D01*
X138513941Y-114813086D01*
X138512729Y-114817937D01*
X138507985Y-114825478D01*
X138498438Y-114825876D01*
X138492231Y-114824361D01*
X138488062Y-114820416D01*
X138485439Y-114811796D01*
X138483870Y-114796254D01*
X138482864Y-114771543D01*
X138482351Y-114752391D01*
X138481360Y-114721159D01*
X138480004Y-114700514D01*
X138477902Y-114688340D01*
X138474671Y-114682522D01*
X138469932Y-114680943D01*
X138469472Y-114680936D01*
X138455739Y-114686352D01*
X138443480Y-114699414D01*
X138436818Y-114715346D01*
X138436510Y-114719118D01*
X138432522Y-114729406D01*
X138426983Y-114731749D01*
X138419320Y-114737270D01*
X138417455Y-114747628D01*
X138415281Y-114759564D01*
X138411104Y-114763507D01*
X138406854Y-114769078D01*
X138404790Y-114782723D01*
X138404752Y-114785058D01*
X138401956Y-114802406D01*
X138395225Y-114810265D01*
X138388019Y-114819454D01*
X138385698Y-114836351D01*
X138384115Y-114851123D01*
X138380221Y-114858567D01*
X138379346Y-114858780D01*
X138374571Y-114864216D01*
X138372994Y-114874659D01*
X138369682Y-114887431D01*
X138363467Y-114890538D01*
X138356842Y-114894734D01*
X138354113Y-114908641D01*
X138353940Y-114915945D01*
X138352531Y-114931854D01*
X138349012Y-114940703D01*
X138347588Y-114941351D01*
X138342454Y-114946680D01*
X138341236Y-114954254D01*
X138337098Y-114966467D01*
X138331709Y-114970812D01*
X138324306Y-114979313D01*
X138322182Y-114989668D01*
X138319919Y-115001275D01*
X138315830Y-115004867D01*
X138311632Y-115010451D01*
X138309533Y-115024180D01*
X138309478Y-115027098D01*
X138307412Y-115043540D01*
X138300819Y-115049288D01*
X138299951Y-115049328D01*
X138291530Y-115054412D01*
X138290424Y-115058856D01*
X138286994Y-115067308D01*
X138284072Y-115068383D01*
X138279630Y-115073907D01*
X138277722Y-115087235D01*
X138277721Y-115087637D01*
X138274741Y-115103215D01*
X138268193Y-115110547D01*
X138260226Y-115119193D01*
X138258666Y-115126530D01*
X138254234Y-115139158D01*
X138243498Y-115152902D01*
X138242787Y-115153573D01*
X138229290Y-115173724D01*
X138226908Y-115188204D01*
X138225141Y-115201950D01*
X138220859Y-115208095D01*
X138220556Y-115208118D01*
X138214921Y-115213262D01*
X138214205Y-115217645D01*
X138209120Y-115226066D01*
X138204677Y-115227173D01*
X138197015Y-115232694D01*
X138195150Y-115243052D01*
X138192976Y-115254988D01*
X138188798Y-115258931D01*
X138184024Y-115264366D01*
X138182447Y-115274810D01*
X138179134Y-115287581D01*
X138172919Y-115290688D01*
X138165257Y-115296210D01*
X138163392Y-115306567D01*
X138161218Y-115318504D01*
X138157040Y-115322446D01*
X138152266Y-115327882D01*
X138150689Y-115338325D01*
X138148539Y-115350262D01*
X138144410Y-115354204D01*
X138132625Y-115359166D01*
X138120586Y-115370659D01*
X138113177Y-115383596D01*
X138112579Y-115387374D01*
X138109625Y-115396903D01*
X138106228Y-115398665D01*
X138101195Y-115404026D01*
X138099876Y-115412352D01*
X138095362Y-115424558D01*
X138083642Y-115440603D01*
X138074470Y-115450207D01*
X138060234Y-115465990D01*
X138051014Y-115480511D01*
X138049063Y-115487333D01*
X138046450Y-115497792D01*
X138042712Y-115500291D01*
X138037937Y-115505726D01*
X138036360Y-115516170D01*
X138034032Y-115528104D01*
X138029555Y-115532049D01*
X138018012Y-115537253D01*
X138008092Y-115549136D01*
X138004602Y-115560481D01*
X138000227Y-115571606D01*
X137989607Y-115584646D01*
X137988723Y-115585481D01*
X137977711Y-115599501D01*
X137972856Y-115613232D01*
X137972844Y-115613760D01*
X137969070Y-115624775D01*
X137963317Y-115627323D01*
X137955604Y-115632755D01*
X137953790Y-115641694D01*
X137948950Y-115655643D01*
X137937911Y-115667990D01*
X137926599Y-115680028D01*
X137922032Y-115691728D01*
X137919194Y-115701556D01*
X137915680Y-115703542D01*
X137910045Y-115708686D01*
X137909328Y-115713069D01*
X137904244Y-115721490D01*
X137899801Y-115722596D01*
X137892088Y-115728028D01*
X137890274Y-115736968D01*
X137885434Y-115750917D01*
X137874395Y-115763264D01*
X137863071Y-115775456D01*
X137858516Y-115787456D01*
X137854117Y-115801893D01*
X137843836Y-115813768D01*
X137833563Y-115817870D01*
X137828153Y-115823221D01*
X137826758Y-115831411D01*
X137822337Y-115843661D01*
X137811152Y-115859053D01*
X137804527Y-115865919D01*
X137791273Y-115881025D01*
X137783319Y-115895121D01*
X137782297Y-115900014D01*
X137778424Y-115910694D01*
X137772769Y-115913144D01*
X137764349Y-115918228D01*
X137763242Y-115922671D01*
X137758158Y-115931092D01*
X137753715Y-115932199D01*
X137745966Y-115937538D01*
X137744187Y-115945356D01*
X137739867Y-115960354D01*
X137729666Y-115972482D01*
X137719235Y-115976660D01*
X137713200Y-115981797D01*
X137712429Y-115986187D01*
X137709000Y-115994640D01*
X137706078Y-115995715D01*
X137701303Y-116001150D01*
X137699726Y-116011594D01*
X137697398Y-116023528D01*
X137692921Y-116027473D01*
X137683165Y-116031554D01*
X137677042Y-116036546D01*
X137669475Y-116047174D01*
X137667968Y-116052425D01*
X137662535Y-116057540D01*
X137652089Y-116059231D01*
X137639318Y-116055918D01*
X137636210Y-116049703D01*
X137632541Y-116041255D01*
X137629405Y-116040176D01*
X137619649Y-116036095D01*
X137613526Y-116031102D01*
X137605959Y-116020475D01*
X137604452Y-116015223D01*
X137599572Y-116008697D01*
X137597647Y-116008418D01*
X137587891Y-116004337D01*
X137581768Y-115999344D01*
X137574202Y-115988717D01*
X137572694Y-115983465D01*
X137567815Y-115976939D01*
X137565889Y-115976660D01*
X137556133Y-115972579D01*
X137550010Y-115967586D01*
X137542444Y-115956959D01*
X137540936Y-115951707D01*
X137535799Y-115945673D01*
X137531409Y-115944902D01*
X137522956Y-115941472D01*
X137521882Y-115938550D01*
X137516446Y-115933776D01*
X137506003Y-115932199D01*
X137494069Y-115929871D01*
X137490124Y-115925394D01*
X137485313Y-115914619D01*
X137474753Y-115904385D01*
X137465171Y-115900441D01*
X137459136Y-115895304D01*
X137458366Y-115890914D01*
X137452994Y-115883175D01*
X137444825Y-115881386D01*
X137432575Y-115876965D01*
X137417183Y-115865780D01*
X137410317Y-115859156D01*
X137396156Y-115846012D01*
X137384155Y-115838034D01*
X137380287Y-115836925D01*
X137370352Y-115832237D01*
X137359298Y-115821046D01*
X137346082Y-115809477D01*
X137332803Y-115805167D01*
X137319889Y-115801475D01*
X137314576Y-115795640D01*
X137306075Y-115788236D01*
X137295721Y-115786112D01*
X137284116Y-115783690D01*
X137280521Y-115779307D01*
X137274784Y-115766724D01*
X137259858Y-115757709D01*
X137239690Y-115754354D01*
X137224818Y-115752677D01*
X137217249Y-115748543D01*
X137217005Y-115747549D01*
X137211268Y-115734966D01*
X137196343Y-115725951D01*
X137176174Y-115722596D01*
X137159553Y-115720615D01*
X137153565Y-115714249D01*
X137153489Y-115713069D01*
X137149294Y-115706444D01*
X137135387Y-115703715D01*
X137128083Y-115703542D01*
X137112174Y-115702133D01*
X137103325Y-115698614D01*
X137102677Y-115697190D01*
X137097093Y-115692992D01*
X137083364Y-115690893D01*
X137080446Y-115690839D01*
X137064004Y-115688773D01*
X137058256Y-115682179D01*
X137058216Y-115681311D01*
X137052694Y-115673648D01*
X137042337Y-115671784D01*
X137033536Y-115670977D01*
X137028785Y-115666567D01*
X137026840Y-115655573D01*
X137026458Y-115635010D01*
X137026458Y-115633674D01*
X137025494Y-115613375D01*
X137022975Y-115599613D01*
X137020106Y-115595565D01*
X137015923Y-115589978D01*
X137013815Y-115576224D01*
X137013755Y-115573135D01*
X137011026Y-115555123D01*
X137004227Y-115547049D01*
X136996824Y-115538548D01*
X136994700Y-115528193D01*
X136991263Y-115515933D01*
X136985172Y-115512994D01*
X136978126Y-115508173D01*
X136975662Y-115492788D01*
X136975645Y-115490763D01*
X136974050Y-115476070D01*
X136970127Y-115468725D01*
X136969293Y-115468533D01*
X136964443Y-115463119D01*
X136962942Y-115453334D01*
X136959394Y-115440161D01*
X136953414Y-115434478D01*
X136946164Y-115426019D01*
X136943887Y-115414744D01*
X136941737Y-115402712D01*
X136937536Y-115398665D01*
X136932761Y-115393230D01*
X136931184Y-115382786D01*
X136928817Y-115370853D01*
X136924266Y-115366908D01*
X136916508Y-115362651D01*
X136903236Y-115351572D01*
X136889569Y-115338325D01*
X136867829Y-115318733D01*
X136851532Y-115310157D01*
X136840899Y-115312625D01*
X136836154Y-115326163D01*
X136835910Y-115331974D01*
X136837505Y-115346668D01*
X136841428Y-115354012D01*
X136842262Y-115354204D01*
X136844534Y-115360441D01*
X136846336Y-115378704D01*
X136847637Y-115408326D01*
X136848404Y-115448639D01*
X136848613Y-115490763D01*
X136848323Y-115539628D01*
X136847474Y-115578371D01*
X136846096Y-115606322D01*
X136844221Y-115622814D01*
X136842262Y-115627323D01*
X136838063Y-115632906D01*
X136835965Y-115646636D01*
X136835910Y-115649553D01*
X136833844Y-115665995D01*
X136827250Y-115671744D01*
X136826383Y-115671784D01*
X136818720Y-115677305D01*
X136816855Y-115687663D01*
X136814681Y-115699599D01*
X136810504Y-115703542D01*
X136806526Y-115709177D01*
X136804314Y-115723253D01*
X136804152Y-115728948D01*
X136802643Y-115744856D01*
X136798873Y-115753706D01*
X136797347Y-115754354D01*
X136785691Y-115759617D01*
X136775833Y-115771732D01*
X136772394Y-115783466D01*
X136768037Y-115793733D01*
X136756843Y-115808361D01*
X136746988Y-115818599D01*
X136732823Y-115833824D01*
X136723600Y-115847095D01*
X136721582Y-115853003D01*
X136716168Y-115867636D01*
X136703460Y-115878655D01*
X136693150Y-115881386D01*
X136682024Y-115885761D01*
X136668984Y-115896381D01*
X136668149Y-115897265D01*
X136654129Y-115908277D01*
X136640399Y-115913133D01*
X136639870Y-115913144D01*
X136628856Y-115916919D01*
X136626308Y-115922671D01*
X136622908Y-115928663D01*
X136611137Y-115931589D01*
X136594550Y-115932199D01*
X136576434Y-115933341D01*
X136564935Y-115936263D01*
X136562792Y-115938550D01*
X136557378Y-115943401D01*
X136547592Y-115944902D01*
X136534420Y-115948450D01*
X136528737Y-115954429D01*
X136524689Y-115958758D01*
X136515125Y-115961599D01*
X136497970Y-115963222D01*
X136471152Y-115963893D01*
X136455014Y-115963957D01*
X136423428Y-115964507D01*
X136400304Y-115966062D01*
X136387262Y-115968473D01*
X136384947Y-115970308D01*
X136378748Y-115972760D01*
X136360740Y-115974659D01*
X136331806Y-115975955D01*
X136292832Y-115976597D01*
X136273795Y-115976660D01*
X136230889Y-115976306D01*
X136197655Y-115975277D01*
X136174976Y-115973623D01*
X136163738Y-115971396D01*
X136162642Y-115970308D01*
X136156527Y-115967557D01*
X136139101Y-115965511D01*
X136111742Y-115964280D01*
X136083247Y-115963957D01*
X136049615Y-115963732D01*
X136026770Y-115962904D01*
X136012801Y-115961245D01*
X136005799Y-115958524D01*
X136003853Y-115954514D01*
X136003852Y-115954429D01*
X135999657Y-115947805D01*
X135985750Y-115945075D01*
X135978446Y-115944902D01*
X135962536Y-115943493D01*
X135953687Y-115939974D01*
X135953039Y-115938550D01*
X135946875Y-115935962D01*
X135929104Y-115933993D01*
X135900815Y-115932717D01*
X135863091Y-115932205D01*
X135857766Y-115932199D01*
X135820477Y-115932026D01*
X135794123Y-115931390D01*
X135776937Y-115930114D01*
X135767155Y-115928021D01*
X135763009Y-115924936D01*
X135762492Y-115922671D01*
X135759736Y-115917327D01*
X135749887Y-115914357D01*
X135730576Y-115913214D01*
X135721206Y-115913144D01*
X135699632Y-115912247D01*
X135684862Y-115909869D01*
X135679921Y-115906793D01*
X135674136Y-115903409D01*
X135659022Y-115901116D01*
X135641812Y-115900441D01*
X135619683Y-115899709D01*
X135607802Y-115897115D01*
X135603777Y-115892061D01*
X135603702Y-115890914D01*
X135602191Y-115887731D01*
X135596660Y-115885329D01*
X135585611Y-115883605D01*
X135567545Y-115882454D01*
X135540965Y-115881770D01*
X135504371Y-115881450D01*
X135467143Y-115881386D01*
X135418278Y-115881096D01*
X135379536Y-115880247D01*
X135351584Y-115878869D01*
X135335092Y-115876994D01*
X135330584Y-115875035D01*
X135324397Y-115872531D01*
X135306474Y-115870605D01*
X135277772Y-115869315D01*
X135239248Y-115868718D01*
X135225783Y-115868683D01*
X135186438Y-115868532D01*
X135158102Y-115867976D01*
X135139083Y-115866861D01*
X135127688Y-115865034D01*
X135122225Y-115862341D01*
X135120981Y-115859156D01*
X135116161Y-115852109D01*
X135100775Y-115849645D01*
X135098751Y-115849628D01*
X135082309Y-115851694D01*
X135076560Y-115858288D01*
X135076520Y-115859156D01*
X135070999Y-115866818D01*
X135060641Y-115868683D01*
X135048705Y-115870857D01*
X135044762Y-115875035D01*
X135039082Y-115878806D01*
X135024693Y-115881082D01*
X135015877Y-115881386D01*
X134994355Y-115883318D01*
X134979515Y-115890477D01*
X134972275Y-115897265D01*
X134958255Y-115908277D01*
X134944525Y-115913133D01*
X134943996Y-115913144D01*
X134932982Y-115916919D01*
X134930434Y-115922671D01*
X134926238Y-115929296D01*
X134912332Y-115932026D01*
X134905027Y-115932199D01*
X134887362Y-115930626D01*
X134880082Y-115925411D01*
X134879621Y-115922671D01*
X134876191Y-115914219D01*
X134873269Y-115913144D01*
X134869071Y-115907561D01*
X134866973Y-115893831D01*
X134866918Y-115890914D01*
X134864852Y-115874471D01*
X134858258Y-115868723D01*
X134857390Y-115868683D01*
X134851320Y-115863199D01*
X134847953Y-115849635D01*
X134847291Y-115832325D01*
X134849331Y-115815599D01*
X134854076Y-115803791D01*
X134857390Y-115801112D01*
X134865326Y-115792474D01*
X134866918Y-115784979D01*
X134872425Y-115767923D01*
X134887910Y-115757359D01*
X134907749Y-115754354D01*
X134924370Y-115752373D01*
X134930358Y-115746007D01*
X134930434Y-115744827D01*
X134935955Y-115737164D01*
X134946313Y-115735300D01*
X134958249Y-115733125D01*
X134962192Y-115728948D01*
X134967627Y-115724173D01*
X134978071Y-115722596D01*
X134990842Y-115719284D01*
X134993950Y-115713069D01*
X134995498Y-115709783D01*
X135001176Y-115707332D01*
X135012532Y-115705603D01*
X135031118Y-115704477D01*
X135058481Y-115703839D01*
X135096171Y-115703572D01*
X135120981Y-115703542D01*
X135167683Y-115703230D01*
X135204415Y-115702321D01*
X135230438Y-115700851D01*
X135245015Y-115698857D01*
X135248013Y-115697190D01*
X135254274Y-115695061D01*
X135272703Y-115693343D01*
X135302774Y-115692055D01*
X135343957Y-115691218D01*
X135395725Y-115690853D01*
X135409979Y-115690839D01*
X135464262Y-115691084D01*
X135508090Y-115691807D01*
X135540935Y-115692986D01*
X135562269Y-115694601D01*
X135571563Y-115696631D01*
X135571944Y-115697190D01*
X135578272Y-115698624D01*
X135597165Y-115699879D01*
X135628484Y-115700953D01*
X135672094Y-115701844D01*
X135727856Y-115702550D01*
X135795632Y-115703069D01*
X135875286Y-115703399D01*
X135966680Y-115703537D01*
X135987973Y-115703542D01*
X136081888Y-115703445D01*
X136164092Y-115703157D01*
X136234448Y-115702678D01*
X136292820Y-115702013D01*
X136339069Y-115701161D01*
X136373057Y-115700127D01*
X136394649Y-115698911D01*
X136403705Y-115697515D01*
X136404002Y-115697190D01*
X136409438Y-115692415D01*
X136419881Y-115690839D01*
X136432652Y-115687526D01*
X136435760Y-115681311D01*
X136438687Y-115675779D01*
X136449062Y-115672809D01*
X136469278Y-115671803D01*
X136473870Y-115671784D01*
X136494169Y-115670820D01*
X136507931Y-115668301D01*
X136511979Y-115665432D01*
X136517415Y-115660658D01*
X136527858Y-115659081D01*
X136539945Y-115656457D01*
X136543670Y-115646128D01*
X136543737Y-115643202D01*
X136547050Y-115630431D01*
X136553264Y-115627323D01*
X136561685Y-115622238D01*
X136562792Y-115617795D01*
X136566221Y-115609343D01*
X136569143Y-115608268D01*
X136574277Y-115602939D01*
X136575495Y-115595365D01*
X136579634Y-115583152D01*
X136585022Y-115578807D01*
X136589573Y-115574483D01*
X136592470Y-115564279D01*
X136594023Y-115546033D01*
X136594542Y-115517586D01*
X136594550Y-115512315D01*
X136594230Y-115482877D01*
X136593057Y-115464034D01*
X136590714Y-115453687D01*
X136586883Y-115449738D01*
X136585022Y-115449478D01*
X136578398Y-115445283D01*
X136575668Y-115431376D01*
X136575495Y-115424072D01*
X136574086Y-115408162D01*
X136570567Y-115399313D01*
X136569143Y-115398665D01*
X136564010Y-115393337D01*
X136562792Y-115385763D01*
X136558653Y-115373549D01*
X136553264Y-115369204D01*
X136547399Y-115362788D01*
X136544407Y-115347799D01*
X136543737Y-115328118D01*
X136543737Y-115290688D01*
X136569143Y-115290688D01*
X136585512Y-115291555D01*
X136592788Y-115295643D01*
X136594541Y-115305185D01*
X136594550Y-115306567D01*
X136597173Y-115318655D01*
X136607502Y-115322379D01*
X136610429Y-115322446D01*
X136622740Y-115325289D01*
X136626304Y-115335529D01*
X136626308Y-115336037D01*
X136631993Y-115351969D01*
X136646595Y-115363188D01*
X136662829Y-115366706D01*
X136673076Y-115364501D01*
X136676828Y-115355072D01*
X136677120Y-115347653D01*
X136674141Y-115332076D01*
X136667593Y-115324743D01*
X136660190Y-115316243D01*
X136658066Y-115305888D01*
X136655803Y-115294280D01*
X136651714Y-115290688D01*
X136646580Y-115285360D01*
X136645362Y-115277786D01*
X136641224Y-115265572D01*
X136635835Y-115261227D01*
X136627394Y-115253230D01*
X136626308Y-115248724D01*
X136622396Y-115240721D01*
X136619502Y-115239876D01*
X136608728Y-115235065D01*
X136598494Y-115224505D01*
X136594550Y-115214923D01*
X136589670Y-115208397D01*
X136587744Y-115208118D01*
X136576970Y-115203307D01*
X136566736Y-115192747D01*
X136562792Y-115183165D01*
X136557912Y-115176639D01*
X136555987Y-115176360D01*
X136545212Y-115171549D01*
X136534978Y-115160989D01*
X136531034Y-115151407D01*
X136526154Y-115144881D01*
X136524229Y-115144602D01*
X136513919Y-115140054D01*
X136503665Y-115130124D01*
X136499276Y-115120723D01*
X136494273Y-115113878D01*
X136483397Y-115106492D01*
X136471793Y-115097584D01*
X136467518Y-115089540D01*
X136463451Y-115081805D01*
X136460713Y-115081086D01*
X136449938Y-115076275D01*
X136439705Y-115065715D01*
X136435760Y-115056133D01*
X136430880Y-115049607D01*
X136428955Y-115049328D01*
X136418180Y-115044517D01*
X136407947Y-115033957D01*
X136404002Y-115024375D01*
X136398569Y-115019261D01*
X136388123Y-115017570D01*
X136376187Y-115015396D01*
X136372244Y-115011219D01*
X136367100Y-115005584D01*
X136362717Y-115004867D01*
X136354296Y-114999783D01*
X136353189Y-114995340D01*
X136347853Y-114987590D01*
X136340060Y-114985812D01*
X136328070Y-114981399D01*
X136312842Y-114970234D01*
X136305964Y-114963582D01*
X136291457Y-114950397D01*
X136278690Y-114942428D01*
X136274433Y-114941351D01*
X136263243Y-114936367D01*
X136260213Y-114931824D01*
X136251679Y-114924296D01*
X136242037Y-114922296D01*
X136229143Y-114918592D01*
X136223861Y-114912769D01*
X136215245Y-114904923D01*
X136207302Y-114903242D01*
X136196873Y-114900619D01*
X136194400Y-114896890D01*
X136188964Y-114892115D01*
X136178521Y-114890538D01*
X136165750Y-114887226D01*
X136162642Y-114881011D01*
X136157120Y-114873348D01*
X136146763Y-114871484D01*
X136134826Y-114869309D01*
X136130884Y-114865132D01*
X136125171Y-114861509D01*
X136110566Y-114859209D01*
X136099126Y-114858780D01*
X136079155Y-114857761D01*
X136069400Y-114854229D01*
X136067368Y-114849253D01*
X136064612Y-114843909D01*
X136054763Y-114840939D01*
X136035452Y-114839795D01*
X136026083Y-114839726D01*
X136002925Y-114840362D01*
X135990054Y-114842635D01*
X135985100Y-114847091D01*
X135984797Y-114849253D01*
X135979977Y-114856300D01*
X135964591Y-114858763D01*
X135962567Y-114858780D01*
X135947873Y-114860376D01*
X135940528Y-114864299D01*
X135940336Y-114865132D01*
X135945170Y-114871299D01*
X135946688Y-114871484D01*
X135952323Y-114876628D01*
X135953039Y-114881011D01*
X135955643Y-114886174D01*
X135965011Y-114889136D01*
X135983475Y-114890393D01*
X135997766Y-114890538D01*
X136024019Y-114891367D01*
X136041134Y-114894341D01*
X136052600Y-114900193D01*
X136055507Y-114902663D01*
X136066481Y-114917388D01*
X136065397Y-114929091D01*
X136052698Y-114937000D01*
X136033965Y-114940111D01*
X136016389Y-114942378D01*
X136005540Y-114945965D01*
X136003852Y-114948051D01*
X135998216Y-114951810D01*
X135984138Y-114953901D01*
X135978446Y-114954054D01*
X135960780Y-114955628D01*
X135953500Y-114960843D01*
X135953039Y-114963582D01*
X135947518Y-114971244D01*
X135937160Y-114973109D01*
X135925224Y-114975283D01*
X135921281Y-114979461D01*
X135915755Y-114983893D01*
X135902411Y-114985810D01*
X135901923Y-114985812D01*
X135879936Y-114991913D01*
X135867849Y-115001691D01*
X135853829Y-115012703D01*
X135840099Y-115017559D01*
X135839570Y-115017570D01*
X135828794Y-115020255D01*
X135826008Y-115024375D01*
X135821196Y-115035150D01*
X135810637Y-115045384D01*
X135801055Y-115049328D01*
X135795020Y-115054465D01*
X135794250Y-115058856D01*
X135791574Y-115067318D01*
X135789314Y-115068383D01*
X135779375Y-115073123D01*
X135766315Y-115084721D01*
X135753714Y-115099241D01*
X135745150Y-115112746D01*
X135743437Y-115118838D01*
X135740843Y-115129352D01*
X135737085Y-115131899D01*
X135732311Y-115137334D01*
X135730734Y-115147778D01*
X135728406Y-115159712D01*
X135723929Y-115163657D01*
X135712057Y-115169032D01*
X135702332Y-115181629D01*
X135698976Y-115194281D01*
X135694705Y-115206312D01*
X135689448Y-115210415D01*
X135681603Y-115219031D01*
X135679921Y-115226973D01*
X135677298Y-115237402D01*
X135673570Y-115239876D01*
X135667935Y-115245020D01*
X135667218Y-115249403D01*
X135663788Y-115257856D01*
X135660866Y-115258931D01*
X135655732Y-115264259D01*
X135654515Y-115271833D01*
X135650376Y-115284047D01*
X135644987Y-115288392D01*
X135637020Y-115297037D01*
X135635460Y-115304374D01*
X135631029Y-115317003D01*
X135620292Y-115330747D01*
X135619581Y-115331418D01*
X135608680Y-115344185D01*
X135603729Y-115355245D01*
X135603702Y-115355841D01*
X135598564Y-115366422D01*
X135594175Y-115369204D01*
X135586329Y-115377820D01*
X135584647Y-115385763D01*
X135582024Y-115396192D01*
X135578296Y-115398665D01*
X135572661Y-115403810D01*
X135571944Y-115408193D01*
X135566860Y-115416614D01*
X135562417Y-115417720D01*
X135554667Y-115423056D01*
X135552889Y-115430838D01*
X135548253Y-115442471D01*
X135536260Y-115458754D01*
X135519790Y-115476810D01*
X135501719Y-115493762D01*
X135484924Y-115506733D01*
X135472283Y-115512844D01*
X135470733Y-115512994D01*
X135460192Y-115515761D01*
X135457616Y-115519799D01*
X135451878Y-115532382D01*
X135436953Y-115541398D01*
X135416784Y-115544752D01*
X135400163Y-115546734D01*
X135394175Y-115553099D01*
X135394100Y-115554279D01*
X135388578Y-115561942D01*
X135378221Y-115563807D01*
X135366284Y-115565981D01*
X135362342Y-115570158D01*
X135356369Y-115573248D01*
X135339935Y-115575438D01*
X135315267Y-115576465D01*
X135308154Y-115576510D01*
X135280225Y-115577019D01*
X135262707Y-115578793D01*
X135253338Y-115582206D01*
X135250310Y-115586037D01*
X135245491Y-115590951D01*
X135234135Y-115593918D01*
X135213974Y-115595316D01*
X135193345Y-115595565D01*
X135167292Y-115596275D01*
X135148872Y-115598227D01*
X135140355Y-115601150D01*
X135140036Y-115601916D01*
X135133831Y-115604343D01*
X135115784Y-115606229D01*
X135086745Y-115607527D01*
X135047567Y-115608190D01*
X135025708Y-115608268D01*
X134982022Y-115607923D01*
X134948072Y-115606921D01*
X134924711Y-115605307D01*
X134912789Y-115603131D01*
X134911379Y-115601916D01*
X134905795Y-115597718D01*
X134892066Y-115595620D01*
X134889148Y-115595565D01*
X134874455Y-115597160D01*
X134867110Y-115601083D01*
X134866918Y-115601916D01*
X134861482Y-115606691D01*
X134851039Y-115608268D01*
X134838268Y-115611581D01*
X134835160Y-115617795D01*
X134829677Y-115625481D01*
X134819960Y-115627323D01*
X134806788Y-115630870D01*
X134801105Y-115636850D01*
X134792489Y-115644696D01*
X134784547Y-115646377D01*
X134774118Y-115649000D01*
X134771644Y-115652729D01*
X134766500Y-115658364D01*
X134762117Y-115659081D01*
X134753664Y-115662510D01*
X134752589Y-115665432D01*
X134748077Y-115671510D01*
X134736760Y-115670810D01*
X134721965Y-115664216D01*
X134708070Y-115653629D01*
X134694751Y-115637605D01*
X134689559Y-115619941D01*
X134689073Y-115608714D01*
X134685857Y-115585876D01*
X134677209Y-115570007D01*
X134664633Y-115563815D01*
X134664121Y-115563807D01*
X134660054Y-115558004D01*
X134657667Y-115542710D01*
X134657315Y-115532049D01*
X134656173Y-115513933D01*
X134653252Y-115502434D01*
X134650964Y-115500291D01*
X134646189Y-115494855D01*
X134644612Y-115484412D01*
X134641299Y-115471641D01*
X134635085Y-115468533D01*
X134627400Y-115463050D01*
X134625558Y-115453334D01*
X134621875Y-115440104D01*
X134615679Y-115434344D01*
X134609473Y-115428226D01*
X134607311Y-115414448D01*
X134607740Y-115400318D01*
X134609679Y-115370083D01*
X134649376Y-115368192D01*
X134671010Y-115367421D01*
X134682886Y-115368429D01*
X134687927Y-115372269D01*
X134689059Y-115379992D01*
X134689073Y-115382483D01*
X134690062Y-115392083D01*
X134695198Y-115396872D01*
X134707733Y-115398508D01*
X134720831Y-115398665D01*
X134738947Y-115397523D01*
X134750446Y-115394602D01*
X134752589Y-115392314D01*
X134757734Y-115386679D01*
X134762117Y-115385962D01*
X134769876Y-115380670D01*
X134771644Y-115373284D01*
X134775968Y-115366206D01*
X134788080Y-115351585D01*
X134806686Y-115330740D01*
X134830494Y-115304995D01*
X134858212Y-115275670D01*
X134888546Y-115244087D01*
X134920204Y-115211567D01*
X134951893Y-115179433D01*
X134982322Y-115149005D01*
X135010197Y-115121605D01*
X135034225Y-115098555D01*
X135053114Y-115081176D01*
X135065572Y-115070790D01*
X135069871Y-115068383D01*
X135074869Y-115062949D01*
X135076520Y-115052504D01*
X135078694Y-115040567D01*
X135082872Y-115036625D01*
X135087920Y-115031270D01*
X135089223Y-115023062D01*
X135093689Y-115009518D01*
X135104496Y-114995355D01*
X135105102Y-114994783D01*
X135118546Y-114974794D01*
X135120981Y-114960510D01*
X135123936Y-114944695D01*
X135130509Y-114937296D01*
X135138195Y-114928721D01*
X135140036Y-114919949D01*
X135144849Y-114906539D01*
X135155915Y-114894332D01*
X135166647Y-114883224D01*
X135171177Y-114868227D01*
X135171794Y-114854715D01*
X135173094Y-114837980D01*
X135176371Y-114828130D01*
X135178146Y-114827023D01*
X135184046Y-114822904D01*
X135182038Y-114813167D01*
X135175424Y-114804338D01*
X135164273Y-114797736D01*
X135151430Y-114795411D01*
X135141973Y-114797754D01*
X135140036Y-114801616D01*
X135134726Y-114806806D01*
X135127552Y-114807968D01*
X135115967Y-114812174D01*
X135101168Y-114822464D01*
X135087181Y-114835348D01*
X135078032Y-114847334D01*
X135076520Y-114852215D01*
X135070929Y-114856519D01*
X135057147Y-114858710D01*
X135053836Y-114858780D01*
X135033245Y-114862287D01*
X135018493Y-114871408D01*
X135013004Y-114883733D01*
X135007371Y-114887994D01*
X134993297Y-114890365D01*
X134987598Y-114890538D01*
X134971689Y-114891947D01*
X134962840Y-114895466D01*
X134962192Y-114896890D01*
X134956605Y-114901073D01*
X134942851Y-114903181D01*
X134939762Y-114903242D01*
X134921750Y-114905970D01*
X134913676Y-114912769D01*
X134905175Y-114920172D01*
X134894820Y-114922296D01*
X134882560Y-114925734D01*
X134879621Y-114931824D01*
X134876221Y-114937815D01*
X134864450Y-114940741D01*
X134847863Y-114941351D01*
X134829747Y-114942494D01*
X134818248Y-114945415D01*
X134816105Y-114947703D01*
X134810777Y-114952837D01*
X134803203Y-114954054D01*
X134790989Y-114958193D01*
X134786644Y-114963582D01*
X134778143Y-114970985D01*
X134767789Y-114973109D01*
X134756181Y-114975372D01*
X134752589Y-114979461D01*
X134747154Y-114984235D01*
X134736710Y-114985812D01*
X134723939Y-114989125D01*
X134720831Y-114995340D01*
X134715399Y-115003052D01*
X134706460Y-115004867D01*
X134692511Y-115009707D01*
X134680164Y-115020746D01*
X134668126Y-115032058D01*
X134656426Y-115036625D01*
X134646598Y-115039463D01*
X134644612Y-115042977D01*
X134639468Y-115048612D01*
X134635085Y-115049328D01*
X134626664Y-115054412D01*
X134625558Y-115058856D01*
X134623330Y-115063504D01*
X134615199Y-115066399D01*
X134598996Y-115067903D01*
X134572547Y-115068378D01*
X134568393Y-115068383D01*
X134539046Y-115067832D01*
X134520861Y-115066039D01*
X134512340Y-115062793D01*
X134511229Y-115060363D01*
X134506570Y-115051203D01*
X134495365Y-115040430D01*
X134495350Y-115040419D01*
X134487326Y-115033318D01*
X134482575Y-115024748D01*
X134480252Y-115011409D01*
X134479512Y-114990000D01*
X134479471Y-114978372D01*
X134480059Y-114951520D01*
X134482095Y-114935030D01*
X134485987Y-114926601D01*
X134488998Y-114924593D01*
X134497440Y-114916596D01*
X134498526Y-114912089D01*
X134502183Y-114904083D01*
X134504877Y-114903242D01*
X134509652Y-114897806D01*
X134511229Y-114887363D01*
X134513557Y-114875429D01*
X134518034Y-114871484D01*
X134528809Y-114866673D01*
X134539042Y-114856113D01*
X134542987Y-114846531D01*
X134547867Y-114840005D01*
X134549792Y-114839726D01*
X134561747Y-114834306D01*
X134571414Y-114821508D01*
X134574745Y-114808421D01*
X134578611Y-114797721D01*
X134584272Y-114795265D01*
X134592721Y-114791595D01*
X134593800Y-114788459D01*
X134598611Y-114777684D01*
X134609171Y-114767451D01*
X134618752Y-114763507D01*
X134624787Y-114758369D01*
X134625558Y-114753979D01*
X134629227Y-114745531D01*
X134632363Y-114744452D01*
X134643138Y-114739641D01*
X134653371Y-114729081D01*
X134657315Y-114719499D01*
X134662195Y-114712973D01*
X134664121Y-114712694D01*
X134674896Y-114707883D01*
X134685129Y-114697323D01*
X134689073Y-114687741D01*
X134693953Y-114681215D01*
X134695879Y-114680936D01*
X134706654Y-114676125D01*
X134716887Y-114665565D01*
X134720831Y-114655983D01*
X134725711Y-114649457D01*
X134727637Y-114649178D01*
X134738411Y-114644367D01*
X134748645Y-114633807D01*
X134752589Y-114624225D01*
X134757469Y-114617699D01*
X134759395Y-114617420D01*
X134770169Y-114612609D01*
X134780403Y-114602049D01*
X134784347Y-114592467D01*
X134789659Y-114586929D01*
X134796974Y-114585662D01*
X134807156Y-114581322D01*
X134823035Y-114569739D01*
X134841765Y-114553066D01*
X134847357Y-114547553D01*
X134867603Y-114528685D01*
X134884996Y-114515392D01*
X134897022Y-114509558D01*
X134898246Y-114509443D01*
X134908928Y-114505572D01*
X134911379Y-114499916D01*
X134915685Y-114491478D01*
X134919399Y-114490388D01*
X134928559Y-114485729D01*
X134939332Y-114474525D01*
X134939343Y-114474509D01*
X134950418Y-114463275D01*
X134960209Y-114458630D01*
X134970355Y-114454292D01*
X134982923Y-114443749D01*
X134983866Y-114442751D01*
X134996761Y-114431839D01*
X135008094Y-114426898D01*
X135008690Y-114426873D01*
X135017481Y-114422617D01*
X135031816Y-114411633D01*
X135048870Y-114396591D01*
X135065822Y-114380164D01*
X135079847Y-114365023D01*
X135088122Y-114353841D01*
X135089223Y-114350655D01*
X135094659Y-114345879D01*
X135105102Y-114344302D01*
X135117039Y-114342128D01*
X135120981Y-114337950D01*
X135126417Y-114333176D01*
X135136860Y-114331599D01*
X135149631Y-114328286D01*
X135152739Y-114322071D01*
X135157824Y-114313651D01*
X135162267Y-114312544D01*
X135170719Y-114309114D01*
X135171794Y-114306192D01*
X135176985Y-114300670D01*
X135182022Y-114299841D01*
X135192303Y-114295279D01*
X135207023Y-114283715D01*
X135223027Y-114268332D01*
X135237161Y-114252312D01*
X135246271Y-114238838D01*
X135248013Y-114233250D01*
X135253156Y-114222381D01*
X135257541Y-114219567D01*
X135266096Y-114212977D01*
X135264890Y-114206548D01*
X135257541Y-114204567D01*
X135249878Y-114199045D01*
X135248013Y-114188688D01*
X135245839Y-114176751D01*
X135241662Y-114172809D01*
X135236027Y-114167664D01*
X135235310Y-114163282D01*
X135229788Y-114155619D01*
X135219431Y-114153754D01*
X135207494Y-114151580D01*
X135203552Y-114147403D01*
X135198407Y-114141768D01*
X135194025Y-114141051D01*
X135185604Y-114135967D01*
X135184497Y-114131524D01*
X135181068Y-114123071D01*
X135178146Y-114121996D01*
X135173371Y-114116561D01*
X135171794Y-114106117D01*
X135169466Y-114094183D01*
X135164989Y-114090238D01*
X135153011Y-114084807D01*
X135143360Y-114071950D01*
X135140036Y-114058735D01*
X135136029Y-114046328D01*
X135130509Y-114041723D01*
X135123105Y-114033222D01*
X135122483Y-114030189D01*
X135425858Y-114030189D01*
X135429151Y-114050552D01*
X135440657Y-114065100D01*
X135441737Y-114065967D01*
X135452967Y-114078148D01*
X135457616Y-114089810D01*
X135462365Y-114101455D01*
X135473494Y-114113087D01*
X135484891Y-114126025D01*
X135489373Y-114139383D01*
X135492975Y-114151017D01*
X135498901Y-114153754D01*
X135507350Y-114157424D01*
X135508428Y-114160560D01*
X135513239Y-114171334D01*
X135523799Y-114181568D01*
X135533381Y-114185512D01*
X135539416Y-114190649D01*
X135540186Y-114195040D01*
X135545708Y-114202702D01*
X135556065Y-114204567D01*
X135568002Y-114206741D01*
X135571944Y-114210919D01*
X135577915Y-114214012D01*
X135594337Y-114216202D01*
X135618974Y-114217227D01*
X135625933Y-114217270D01*
X135652076Y-114217416D01*
X135668032Y-114218346D01*
X135676315Y-114220801D01*
X135679439Y-114225521D01*
X135679921Y-114233149D01*
X135678260Y-114243887D01*
X135670786Y-114248283D01*
X135657691Y-114249028D01*
X135641248Y-114251094D01*
X135635500Y-114257688D01*
X135635460Y-114258555D01*
X135630087Y-114266293D01*
X135621897Y-114268083D01*
X135608353Y-114272549D01*
X135594190Y-114283356D01*
X135593618Y-114283962D01*
X135573764Y-114297359D01*
X135559544Y-114299841D01*
X135546035Y-114301654D01*
X135540192Y-114306032D01*
X135540186Y-114306192D01*
X135535042Y-114311827D01*
X135530659Y-114312544D01*
X135523678Y-114317262D01*
X135521163Y-114332419D01*
X135521131Y-114335228D01*
X135517213Y-114357256D01*
X135506568Y-114371642D01*
X135493003Y-114376060D01*
X135481370Y-114380280D01*
X135470319Y-114388763D01*
X135457616Y-114401466D01*
X135470319Y-114414169D01*
X135483869Y-114423492D01*
X135497233Y-114426576D01*
X135506483Y-114423094D01*
X135508428Y-114417345D01*
X135510527Y-114412902D01*
X135518217Y-114410050D01*
X135533587Y-114408475D01*
X135558726Y-114407863D01*
X135571944Y-114407818D01*
X135600839Y-114407649D01*
X135619335Y-114406832D01*
X135629734Y-114404898D01*
X135634339Y-114401381D01*
X135635452Y-114395811D01*
X135635460Y-114394915D01*
X135631321Y-114382702D01*
X135625933Y-114378357D01*
X135618738Y-114369271D01*
X135616405Y-114353150D01*
X135616405Y-114331599D01*
X135664042Y-114331599D01*
X135688045Y-114332387D01*
X135704775Y-114334520D01*
X135711634Y-114337652D01*
X135711679Y-114337950D01*
X135717471Y-114341325D01*
X135732633Y-114343616D01*
X135750215Y-114344302D01*
X135772472Y-114343684D01*
X135786909Y-114340616D01*
X135798394Y-114333281D01*
X135809717Y-114322071D01*
X135824782Y-114309287D01*
X135839826Y-114301415D01*
X135851787Y-114299468D01*
X135857606Y-114304456D01*
X135857766Y-114306192D01*
X135862910Y-114311827D01*
X135867293Y-114312544D01*
X135875714Y-114317628D01*
X135876820Y-114322071D01*
X135880506Y-114328307D01*
X135893076Y-114331179D01*
X135905856Y-114331599D01*
X135930148Y-114334670D01*
X135946601Y-114343111D01*
X135953021Y-114355761D01*
X135953039Y-114356551D01*
X135958382Y-114361989D01*
X135966376Y-114363357D01*
X135976672Y-114368158D01*
X135994756Y-114382333D01*
X136020232Y-114405538D01*
X136052704Y-114437432D01*
X136057964Y-114442751D01*
X136083555Y-114468488D01*
X136106114Y-114490745D01*
X136124127Y-114508062D01*
X136136082Y-114518983D01*
X136140355Y-114522146D01*
X136148921Y-114526822D01*
X136158083Y-114536960D01*
X136162629Y-114546724D01*
X136162642Y-114547099D01*
X136167522Y-114553625D01*
X136169447Y-114553904D01*
X136180222Y-114558715D01*
X136190455Y-114569275D01*
X136194400Y-114578857D01*
X136199537Y-114584892D01*
X136203927Y-114585662D01*
X136212177Y-114590801D01*
X136213454Y-114595911D01*
X136216566Y-114602862D01*
X136227824Y-114603925D01*
X136233098Y-114603276D01*
X136249745Y-114603656D01*
X136256008Y-114608906D01*
X136264435Y-114614839D01*
X136281727Y-114617393D01*
X136284002Y-114617420D01*
X136301410Y-114619082D01*
X136308387Y-114624552D01*
X136308728Y-114626948D01*
X136310289Y-114630269D01*
X136316017Y-114632735D01*
X136327479Y-114634466D01*
X136346240Y-114635582D01*
X136373867Y-114636205D01*
X136411928Y-114636453D01*
X136432784Y-114636475D01*
X136476370Y-114636341D01*
X136508858Y-114635860D01*
X136531854Y-114634912D01*
X136546959Y-114633378D01*
X136555779Y-114631137D01*
X136559917Y-114628071D01*
X136560495Y-114626948D01*
X136569029Y-114619420D01*
X136578671Y-114617420D01*
X136591632Y-114613554D01*
X136597001Y-114607490D01*
X136603458Y-114601033D01*
X136607573Y-114601739D01*
X136614654Y-114599321D01*
X136628009Y-114589357D01*
X136645339Y-114573677D01*
X136655002Y-114564032D01*
X136673220Y-114545675D01*
X136688132Y-114531408D01*
X136697563Y-114523274D01*
X136699552Y-114522146D01*
X136708551Y-114517139D01*
X136717395Y-114505959D01*
X136721575Y-114494366D01*
X136721582Y-114494002D01*
X136725841Y-114485312D01*
X136737248Y-114470433D01*
X136753745Y-114451930D01*
X136762867Y-114442516D01*
X136783904Y-114420377D01*
X136796726Y-114404018D01*
X136802914Y-114391128D01*
X136804152Y-114382192D01*
X136806012Y-114368908D01*
X136810485Y-114363357D01*
X136810504Y-114363357D01*
X136816139Y-114358212D01*
X136816855Y-114353829D01*
X136821940Y-114345409D01*
X136826383Y-114344302D01*
X136834045Y-114338780D01*
X136835910Y-114328423D01*
X136838084Y-114316486D01*
X136842262Y-114312544D01*
X136845212Y-114306505D01*
X136847346Y-114289609D01*
X136848478Y-114263686D01*
X136848613Y-114249028D01*
X136848928Y-114219409D01*
X136850082Y-114200393D01*
X136852387Y-114189891D01*
X136856158Y-114185813D01*
X136858141Y-114185512D01*
X136865187Y-114180692D01*
X136867651Y-114165306D01*
X136867668Y-114163282D01*
X136865602Y-114146840D01*
X136859008Y-114141091D01*
X136858141Y-114141051D01*
X136849720Y-114135967D01*
X136848613Y-114131524D01*
X136843793Y-114124477D01*
X136828407Y-114122014D01*
X136826383Y-114121996D01*
X136811061Y-114123417D01*
X136804879Y-114128965D01*
X136804152Y-114134699D01*
X136799266Y-114152904D01*
X136784249Y-114165087D01*
X136758565Y-114171542D01*
X136734285Y-114172809D01*
X136709532Y-114171886D01*
X136694175Y-114169297D01*
X136689824Y-114166004D01*
X136685012Y-114155229D01*
X136674453Y-114144996D01*
X136664871Y-114141051D01*
X136658345Y-114136171D01*
X136658066Y-114134246D01*
X136653255Y-114123471D01*
X136642695Y-114113238D01*
X136633113Y-114109293D01*
X136627078Y-114104156D01*
X136626308Y-114099766D01*
X136621776Y-114091333D01*
X136617854Y-114090238D01*
X136608963Y-114085171D01*
X136600901Y-114074359D01*
X136591993Y-114062755D01*
X136583949Y-114058480D01*
X136577487Y-114053012D01*
X136575495Y-114042601D01*
X136572872Y-114030514D01*
X136562542Y-114026790D01*
X136559616Y-114026722D01*
X136547298Y-114023874D01*
X136543740Y-114013632D01*
X136543737Y-114013181D01*
X136539316Y-114000931D01*
X136528131Y-113985540D01*
X136521507Y-113978674D01*
X136508425Y-113965031D01*
X136500435Y-113954179D01*
X136499276Y-113950930D01*
X136493843Y-113945836D01*
X136483397Y-113944152D01*
X136471460Y-113941978D01*
X136467518Y-113937800D01*
X136462373Y-113932165D01*
X136457991Y-113931449D01*
X136449542Y-113927779D01*
X136448463Y-113924643D01*
X136442726Y-113912060D01*
X136427800Y-113903045D01*
X136407632Y-113899691D01*
X136391011Y-113897709D01*
X136385023Y-113891343D01*
X136384947Y-113890163D01*
X136381518Y-113881711D01*
X136378596Y-113880636D01*
X136374398Y-113875052D01*
X136372299Y-113861323D01*
X136372244Y-113858405D01*
X136373839Y-113843712D01*
X136377762Y-113836367D01*
X136378596Y-113836175D01*
X136384231Y-113831030D01*
X136384947Y-113826647D01*
X136386899Y-113822464D01*
X136394071Y-113819678D01*
X136408443Y-113818032D01*
X136431990Y-113817269D01*
X136457991Y-113817120D01*
X136531034Y-113817120D01*
X136531034Y-113801241D01*
X136528188Y-113788926D01*
X136517947Y-113785365D01*
X136517471Y-113785362D01*
X136503927Y-113780896D01*
X136489764Y-113770089D01*
X136489192Y-113769483D01*
X136475356Y-113758487D01*
X136462017Y-113753618D01*
X136461470Y-113753604D01*
X136450985Y-113751000D01*
X136448463Y-113747253D01*
X136443135Y-113742119D01*
X136435561Y-113740901D01*
X136423347Y-113736762D01*
X136419002Y-113731374D01*
X136410335Y-113724252D01*
X136396668Y-113721846D01*
X136375689Y-113715903D01*
X136363273Y-113705967D01*
X136357518Y-113700150D01*
X136351350Y-113695961D01*
X136342725Y-113693134D01*
X136329602Y-113691401D01*
X136309939Y-113690493D01*
X136281692Y-113690145D01*
X136242820Y-113690088D01*
X136242037Y-113690088D01*
X136202962Y-113690143D01*
X136174547Y-113690483D01*
X136154752Y-113691378D01*
X136141532Y-113693095D01*
X136132847Y-113695901D01*
X136126653Y-113700064D01*
X136120908Y-113705850D01*
X136120800Y-113705967D01*
X136106964Y-113716964D01*
X136093625Y-113721833D01*
X136093078Y-113721846D01*
X136082596Y-113724634D01*
X136080071Y-113728652D01*
X136075260Y-113739426D01*
X136064700Y-113749660D01*
X136055118Y-113753604D01*
X136048592Y-113758484D01*
X136048313Y-113760409D01*
X136043502Y-113771184D01*
X136032942Y-113781418D01*
X136023361Y-113785362D01*
X136016834Y-113790242D01*
X136016555Y-113792167D01*
X136011744Y-113802942D01*
X136001184Y-113813175D01*
X135991603Y-113817120D01*
X135986065Y-113822432D01*
X135984797Y-113829751D01*
X135980164Y-113845556D01*
X135969002Y-113859751D01*
X135955416Y-113867545D01*
X135952070Y-113867933D01*
X135942435Y-113873473D01*
X135939190Y-113882159D01*
X135932985Y-113894312D01*
X135925437Y-113898621D01*
X135908700Y-113905936D01*
X135895255Y-113918620D01*
X135889530Y-113932449D01*
X135889524Y-113932860D01*
X135884891Y-113941954D01*
X135873645Y-113944152D01*
X135861710Y-113946480D01*
X135857766Y-113950957D01*
X135852954Y-113961732D01*
X135842395Y-113971965D01*
X135832813Y-113975910D01*
X135826287Y-113980790D01*
X135826008Y-113982715D01*
X135821196Y-113993490D01*
X135810637Y-114003723D01*
X135801055Y-114007668D01*
X135795020Y-114012805D01*
X135794250Y-114017195D01*
X135788819Y-114024925D01*
X135779959Y-114026785D01*
X135766174Y-114031966D01*
X135749209Y-114045942D01*
X135743437Y-114052129D01*
X135728822Y-114066506D01*
X135715695Y-114075694D01*
X135710091Y-114077473D01*
X135700663Y-114080523D01*
X135698976Y-114083887D01*
X135693831Y-114089522D01*
X135689448Y-114090238D01*
X135681000Y-114093908D01*
X135679921Y-114097044D01*
X135675975Y-114108804D01*
X135663294Y-114116580D01*
X135640614Y-114120824D01*
X135610054Y-114121996D01*
X135577125Y-114120587D01*
X135555352Y-114116058D01*
X135543469Y-114107958D01*
X135540186Y-114097044D01*
X135535306Y-114090517D01*
X135533381Y-114090238D01*
X135522606Y-114085427D01*
X135512373Y-114074867D01*
X135508428Y-114065286D01*
X135503291Y-114059251D01*
X135498901Y-114058480D01*
X135490480Y-114053396D01*
X135489373Y-114048953D01*
X135486178Y-114040497D01*
X135483464Y-114039426D01*
X135478078Y-114034025D01*
X135475524Y-114025135D01*
X135471466Y-114015142D01*
X135460621Y-114010271D01*
X135449676Y-114008872D01*
X135434114Y-114008268D01*
X135427438Y-114012220D01*
X135425886Y-114024093D01*
X135425858Y-114030189D01*
X135122483Y-114030189D01*
X135120981Y-114022867D01*
X135118188Y-114011248D01*
X135107448Y-114007711D01*
X135105102Y-114007668D01*
X135097227Y-114008209D01*
X135092512Y-114011562D01*
X135090146Y-114020317D01*
X135089320Y-114037066D01*
X135089223Y-114058480D01*
X135088966Y-114083782D01*
X135087759Y-114098944D01*
X135084953Y-114106527D01*
X135079898Y-114109092D01*
X135076321Y-114109293D01*
X135064107Y-114105154D01*
X135059762Y-114099766D01*
X135051124Y-114091831D01*
X135043629Y-114090238D01*
X135027006Y-114084799D01*
X135015505Y-114071434D01*
X135012942Y-114060522D01*
X135008389Y-114049970D01*
X134996809Y-114035617D01*
X134987598Y-114026722D01*
X134971196Y-114009405D01*
X134962859Y-113994216D01*
X134962254Y-113990201D01*
X134959643Y-113979048D01*
X134955386Y-113975910D01*
X134944612Y-113971099D01*
X134934378Y-113960539D01*
X134930434Y-113950957D01*
X134925296Y-113944922D01*
X134920906Y-113944152D01*
X134912651Y-113939014D01*
X134911379Y-113933924D01*
X134916096Y-113922959D01*
X134928085Y-113907945D01*
X134944100Y-113891961D01*
X134960897Y-113878083D01*
X134975232Y-113869389D01*
X134980946Y-113867933D01*
X134991527Y-113864031D01*
X134993950Y-113858405D01*
X134997619Y-113849957D01*
X135000755Y-113848878D01*
X135010511Y-113844797D01*
X135016634Y-113839804D01*
X135024200Y-113829177D01*
X135025708Y-113823925D01*
X135030587Y-113817399D01*
X135032513Y-113817120D01*
X135042269Y-113813039D01*
X135048392Y-113808046D01*
X135055958Y-113797419D01*
X135057465Y-113792167D01*
X135062603Y-113786133D01*
X135066993Y-113785362D01*
X135075448Y-113782093D01*
X135076520Y-113779313D01*
X135080719Y-113772118D01*
X135091757Y-113758916D01*
X135107302Y-113742485D01*
X135108278Y-113741506D01*
X135124102Y-113724366D01*
X135135480Y-113709532D01*
X135140030Y-113700122D01*
X135140036Y-113699918D01*
X135143374Y-113691273D01*
X135146388Y-113690088D01*
X135152023Y-113684944D01*
X135152739Y-113680561D01*
X135156200Y-113672109D01*
X135159149Y-113671034D01*
X135169101Y-113666379D01*
X135182178Y-113655087D01*
X135194571Y-113641166D01*
X135202473Y-113628624D01*
X135203552Y-113624297D01*
X135206721Y-113615282D01*
X135209904Y-113613869D01*
X135215539Y-113608725D01*
X135216255Y-113604342D01*
X135221339Y-113595921D01*
X135225783Y-113594815D01*
X135233527Y-113589460D01*
X135235310Y-113581481D01*
X135239802Y-113570030D01*
X135251786Y-113553545D01*
X135267068Y-113537052D01*
X135282969Y-113520127D01*
X135294361Y-113505417D01*
X135298824Y-113496056D01*
X135298826Y-113495943D01*
X135303415Y-113482970D01*
X135313861Y-113471747D01*
X135323778Y-113467783D01*
X135329813Y-113462645D01*
X135330584Y-113458255D01*
X135335668Y-113449835D01*
X135340111Y-113448728D01*
X135347820Y-113443289D01*
X135349639Y-113434251D01*
X135354528Y-113419333D01*
X135362342Y-113410618D01*
X135372285Y-113398822D01*
X135375045Y-113389261D01*
X135379420Y-113377931D01*
X135390073Y-113363542D01*
X135403296Y-113350143D01*
X135415381Y-113341787D01*
X135419448Y-113340751D01*
X135424558Y-113335401D01*
X135425858Y-113327313D01*
X135430509Y-113315513D01*
X135443053Y-113298796D01*
X135457616Y-113283587D01*
X135475021Y-113265018D01*
X135486253Y-113248998D01*
X135489373Y-113239860D01*
X135493176Y-113228942D01*
X135498901Y-113226422D01*
X135507350Y-113222753D01*
X135508428Y-113219617D01*
X135512509Y-113209861D01*
X135517502Y-113203738D01*
X135528129Y-113196172D01*
X135533381Y-113194664D01*
X135539907Y-113189785D01*
X135540186Y-113187859D01*
X135544267Y-113178103D01*
X135549260Y-113171980D01*
X135559887Y-113164414D01*
X135565139Y-113162907D01*
X135571665Y-113158027D01*
X135571944Y-113156101D01*
X135576025Y-113146345D01*
X135581018Y-113140222D01*
X135591645Y-113132656D01*
X135596897Y-113131149D01*
X135603423Y-113126269D01*
X135603702Y-113124343D01*
X135608513Y-113113568D01*
X135619073Y-113103335D01*
X135628655Y-113099391D01*
X135634881Y-113094338D01*
X135635460Y-113090937D01*
X135640528Y-113082046D01*
X135651339Y-113073984D01*
X135662943Y-113065076D01*
X135667218Y-113057032D01*
X135672535Y-113050249D01*
X135680348Y-113048578D01*
X135692338Y-113044165D01*
X135707566Y-113032999D01*
X135714443Y-113026347D01*
X135729648Y-113013082D01*
X135743959Y-113005131D01*
X135748951Y-113004117D01*
X135759715Y-113001428D01*
X135762492Y-112997312D01*
X135767303Y-112986537D01*
X135777863Y-112976303D01*
X135787444Y-112972359D01*
X135793479Y-112967222D01*
X135794250Y-112962832D01*
X135799623Y-112955094D01*
X135807812Y-112953304D01*
X135821357Y-112948838D01*
X135835520Y-112938031D01*
X135836091Y-112937425D01*
X135849043Y-112926508D01*
X135860496Y-112921571D01*
X135861092Y-112921546D01*
X135874245Y-112916979D01*
X135885547Y-112906550D01*
X135889524Y-112896594D01*
X135894934Y-112891398D01*
X135904723Y-112889788D01*
X135917895Y-112886241D01*
X135923578Y-112880261D01*
X135931819Y-112874094D01*
X135947163Y-112870997D01*
X135964349Y-112871146D01*
X135978110Y-112874717D01*
X135982371Y-112878298D01*
X135982435Y-112886414D01*
X135979570Y-112888355D01*
X135973810Y-112895869D01*
X135972094Y-112906197D01*
X135968685Y-112918570D01*
X135962567Y-112921546D01*
X135954116Y-112925060D01*
X135953039Y-112928056D01*
X135948772Y-112935215D01*
X135937410Y-112948597D01*
X135921111Y-112965721D01*
X135914930Y-112971856D01*
X135895322Y-112992672D01*
X135882058Y-113010138D01*
X135876840Y-113021995D01*
X135876820Y-113022511D01*
X135878104Y-113033227D01*
X135883074Y-113034240D01*
X135893413Y-113025355D01*
X135898495Y-113019996D01*
X135910483Y-113009167D01*
X135919880Y-113004158D01*
X135920438Y-113004117D01*
X135927865Y-112999888D01*
X135941717Y-112988557D01*
X135959594Y-112972158D01*
X135969154Y-112962832D01*
X135992970Y-112940501D01*
X136010765Y-112927201D01*
X136024137Y-112921798D01*
X136027278Y-112921546D01*
X136044012Y-112916228D01*
X136063857Y-112899812D01*
X136068086Y-112895362D01*
X136085790Y-112878843D01*
X136098704Y-112872548D01*
X136102045Y-112872932D01*
X136110424Y-112872178D01*
X136111829Y-112867358D01*
X136116918Y-112859112D01*
X136121356Y-112858030D01*
X136129777Y-112852946D01*
X136130884Y-112848503D01*
X136136405Y-112840840D01*
X136146763Y-112838976D01*
X136158699Y-112836801D01*
X136162642Y-112832624D01*
X136168277Y-112828647D01*
X136182353Y-112826434D01*
X136188048Y-112826272D01*
X136203956Y-112824763D01*
X136212806Y-112820994D01*
X136213454Y-112819467D01*
X136219263Y-112806620D01*
X136235224Y-112797919D01*
X136259143Y-112794524D01*
X136260638Y-112794514D01*
X136277840Y-112793271D01*
X136288253Y-112790121D01*
X136289674Y-112788163D01*
X136295261Y-112783980D01*
X136309014Y-112781872D01*
X136312103Y-112781811D01*
X136330115Y-112779083D01*
X136338189Y-112772284D01*
X136347207Y-112765098D01*
X136362867Y-112762756D01*
X136377877Y-112760773D01*
X136386107Y-112755946D01*
X136386330Y-112755432D01*
X136394243Y-112751337D01*
X136414563Y-112749423D01*
X136440892Y-112749485D01*
X136467690Y-112749741D01*
X136484326Y-112748524D01*
X136493296Y-112745454D01*
X136496824Y-112740931D01*
X136506179Y-112733246D01*
X136521507Y-112730999D01*
X136538337Y-112728149D01*
X136546034Y-112721471D01*
X136552313Y-112715678D01*
X136566996Y-112712678D01*
X136587999Y-112711944D01*
X136608379Y-112710984D01*
X136622206Y-112708474D01*
X136626308Y-112705592D01*
X136632495Y-112703088D01*
X136650417Y-112701162D01*
X136679119Y-112699872D01*
X136717644Y-112699276D01*
X136731109Y-112699241D01*
X136770454Y-112699089D01*
X136798790Y-112698534D01*
X136817809Y-112697419D01*
X136829204Y-112695592D01*
X136834667Y-112692898D01*
X136835910Y-112689713D01*
X136838009Y-112685270D01*
X136845699Y-112682418D01*
X136861068Y-112680843D01*
X136886208Y-112680231D01*
X136899426Y-112680186D01*
X136928932Y-112679582D01*
X136950265Y-112677892D01*
X136961594Y-112675300D01*
X136962942Y-112673834D01*
X136969157Y-112671455D01*
X136987275Y-112669594D01*
X137016505Y-112668293D01*
X137056056Y-112667595D01*
X137083622Y-112667483D01*
X137128836Y-112667810D01*
G36*
X136040776Y-115069978D02*
G01*
X136048121Y-115073901D01*
X136048313Y-115074734D01*
X136053206Y-115080829D01*
X136055118Y-115081086D01*
X136065893Y-115085897D01*
X136076127Y-115096457D01*
X136080071Y-115106039D01*
X136085208Y-115112074D01*
X136089599Y-115112844D01*
X136098019Y-115117928D01*
X136099126Y-115122371D01*
X136102556Y-115130824D01*
X136105477Y-115131899D01*
X136108428Y-115137937D01*
X136110561Y-115154833D01*
X136111694Y-115180756D01*
X136111829Y-115195415D01*
X136111829Y-115258931D01*
X136095950Y-115258931D01*
X136083179Y-115255618D01*
X136080071Y-115249403D01*
X136076641Y-115240951D01*
X136073720Y-115239876D01*
X136068187Y-115234689D01*
X136067368Y-115229713D01*
X136062710Y-115218511D01*
X136051194Y-115203914D01*
X136036509Y-115189608D01*
X136022340Y-115179281D01*
X136014015Y-115176360D01*
X136007094Y-115179894D01*
X136004149Y-115192174D01*
X136003852Y-115201766D01*
X136005261Y-115217676D01*
X136008780Y-115226525D01*
X136010204Y-115227173D01*
X136014978Y-115232608D01*
X136016555Y-115243052D01*
X136019868Y-115255823D01*
X136026083Y-115258931D01*
X136033489Y-115264015D01*
X136035976Y-115276439D01*
X136033833Y-115291954D01*
X136027350Y-115306313D01*
X136022470Y-115311819D01*
X136015168Y-115317256D01*
X136008677Y-115317933D01*
X136000258Y-115312546D01*
X135987172Y-115299793D01*
X135978743Y-115291000D01*
X135959818Y-115272647D01*
X135945220Y-115262653D01*
X135931869Y-115259059D01*
X135928367Y-115258931D01*
X135915082Y-115260100D01*
X135909633Y-115266186D01*
X135908578Y-115281055D01*
X135908578Y-115281161D01*
X135910174Y-115295855D01*
X135914096Y-115303200D01*
X135914930Y-115303392D01*
X135920678Y-115308486D01*
X135921281Y-115312239D01*
X135926405Y-115322045D01*
X135930809Y-115324743D01*
X135938029Y-115334249D01*
X135940336Y-115354005D01*
X135941977Y-115371148D01*
X135948507Y-115385389D01*
X135962341Y-115401573D01*
X135965743Y-115405017D01*
X135981970Y-115419100D01*
X135996714Y-115428326D01*
X136003852Y-115430423D01*
X136014197Y-115434395D01*
X136016555Y-115439951D01*
X136020751Y-115446575D01*
X136034657Y-115449305D01*
X136041962Y-115449478D01*
X136067368Y-115449478D01*
X136067368Y-115420969D01*
X136070931Y-115395634D01*
X136080623Y-115377029D01*
X136094946Y-115367594D01*
X136100537Y-115366908D01*
X136109632Y-115371540D01*
X136111829Y-115382786D01*
X136115142Y-115395558D01*
X136121356Y-115398665D01*
X136129777Y-115403750D01*
X136130884Y-115408193D01*
X136134553Y-115416642D01*
X136137689Y-115417720D01*
X136148464Y-115422531D01*
X136158697Y-115433091D01*
X136162642Y-115442673D01*
X136165865Y-115449112D01*
X136174624Y-115445334D01*
X136184470Y-115435524D01*
X136191664Y-115423991D01*
X136189057Y-115419115D01*
X136183386Y-115411633D01*
X136181697Y-115401312D01*
X136178288Y-115388938D01*
X136172169Y-115385962D01*
X136165123Y-115381142D01*
X136162659Y-115365756D01*
X136162642Y-115363732D01*
X136163603Y-115348897D01*
X136169068Y-115342763D01*
X136182911Y-115341506D01*
X136185161Y-115341501D01*
X136206263Y-115346199D01*
X136224611Y-115358230D01*
X136236444Y-115374500D01*
X136238861Y-115385674D01*
X136242765Y-115396245D01*
X136248388Y-115398665D01*
X136256074Y-115404149D01*
X136257916Y-115413865D01*
X136261463Y-115427037D01*
X136267443Y-115432720D01*
X136274694Y-115441180D01*
X136276970Y-115452455D01*
X136279120Y-115464486D01*
X136283322Y-115468533D01*
X136286522Y-115474444D01*
X136288753Y-115490444D01*
X136289668Y-115513936D01*
X136289674Y-115516170D01*
X136288885Y-115540173D01*
X136286752Y-115556903D01*
X136283620Y-115563762D01*
X136283322Y-115563807D01*
X136277821Y-115569006D01*
X136276970Y-115574172D01*
X136272613Y-115584372D01*
X136261547Y-115598536D01*
X136254288Y-115605930D01*
X136231605Y-115627323D01*
X135571944Y-115627323D01*
X135571944Y-115597881D01*
X135573755Y-115576346D01*
X135580516Y-115561628D01*
X135587823Y-115553723D01*
X135598740Y-115540780D01*
X135603677Y-115529345D01*
X135603702Y-115528750D01*
X135608057Y-115518563D01*
X135619091Y-115504479D01*
X135625933Y-115497526D01*
X135639117Y-115483019D01*
X135647086Y-115470253D01*
X135648163Y-115465996D01*
X135653148Y-115454805D01*
X135657691Y-115451775D01*
X135666132Y-115443778D01*
X135666944Y-115440404D01*
X135845062Y-115440404D01*
X135848568Y-115460995D01*
X135857690Y-115475748D01*
X135870015Y-115481236D01*
X135876050Y-115486373D01*
X135876820Y-115490763D01*
X135880250Y-115499216D01*
X135883172Y-115500291D01*
X135888807Y-115495146D01*
X135889524Y-115490763D01*
X135894608Y-115482343D01*
X135899051Y-115481236D01*
X135907509Y-115478167D01*
X135908578Y-115475564D01*
X135903524Y-115468621D01*
X135899051Y-115466236D01*
X135891205Y-115457620D01*
X135889524Y-115449678D01*
X135885162Y-115438955D01*
X135876621Y-115436775D01*
X135864408Y-115432636D01*
X135860062Y-115427248D01*
X135854044Y-115418183D01*
X135848652Y-115420451D01*
X135845414Y-115432716D01*
X135845062Y-115440404D01*
X135666944Y-115440404D01*
X135667218Y-115439271D01*
X135670875Y-115431264D01*
X135673570Y-115430423D01*
X135678703Y-115425095D01*
X135679921Y-115417521D01*
X135684060Y-115405307D01*
X135689448Y-115400962D01*
X135697384Y-115392324D01*
X135698976Y-115384829D01*
X135703356Y-115370259D01*
X135713619Y-115358323D01*
X135723929Y-115354204D01*
X135729043Y-115348772D01*
X135730734Y-115338325D01*
X135732908Y-115326389D01*
X135737085Y-115322446D01*
X135741860Y-115317011D01*
X135743437Y-115306567D01*
X135746750Y-115293796D01*
X135752964Y-115290688D01*
X135761385Y-115285604D01*
X135762492Y-115281161D01*
X135765921Y-115272709D01*
X135768843Y-115271634D01*
X135774398Y-115266456D01*
X135775195Y-115261611D01*
X135779571Y-115253816D01*
X135791421Y-115239384D01*
X135808824Y-115220230D01*
X135829862Y-115198270D01*
X135852613Y-115175420D01*
X135875159Y-115153596D01*
X135895581Y-115134712D01*
X135911957Y-115120685D01*
X135922370Y-115113429D01*
X135924280Y-115112844D01*
X135933482Y-115107702D01*
X135936558Y-115102596D01*
X135945093Y-115095206D01*
X135953505Y-115095751D01*
X135965916Y-115094881D01*
X135969986Y-115090120D01*
X135978329Y-115083105D01*
X135988653Y-115081086D01*
X136000260Y-115078824D01*
X136003852Y-115074734D01*
X136009436Y-115070536D01*
X136023165Y-115068438D01*
X136026083Y-115068383D01*
X136040776Y-115069978D01*
G37*
X136040776Y-115069978D02*
X136048121Y-115073901D01*
X136048313Y-115074734D01*
X136053206Y-115080829D01*
X136055118Y-115081086D01*
X136065893Y-115085897D01*
X136076127Y-115096457D01*
X136080071Y-115106039D01*
X136085208Y-115112074D01*
X136089599Y-115112844D01*
X136098019Y-115117928D01*
X136099126Y-115122371D01*
X136102556Y-115130824D01*
X136105477Y-115131899D01*
X136108428Y-115137937D01*
X136110561Y-115154833D01*
X136111694Y-115180756D01*
X136111829Y-115195415D01*
X136111829Y-115258931D01*
X136095950Y-115258931D01*
X136083179Y-115255618D01*
X136080071Y-115249403D01*
X136076641Y-115240951D01*
X136073720Y-115239876D01*
X136068187Y-115234689D01*
X136067368Y-115229713D01*
X136062710Y-115218511D01*
X136051194Y-115203914D01*
X136036509Y-115189608D01*
X136022340Y-115179281D01*
X136014015Y-115176360D01*
X136007094Y-115179894D01*
X136004149Y-115192174D01*
X136003852Y-115201766D01*
X136005261Y-115217676D01*
X136008780Y-115226525D01*
X136010204Y-115227173D01*
X136014978Y-115232608D01*
X136016555Y-115243052D01*
X136019868Y-115255823D01*
X136026083Y-115258931D01*
X136033489Y-115264015D01*
X136035976Y-115276439D01*
X136033833Y-115291954D01*
X136027350Y-115306313D01*
X136022470Y-115311819D01*
X136015168Y-115317256D01*
X136008677Y-115317933D01*
X136000258Y-115312546D01*
X135987172Y-115299793D01*
X135978743Y-115291000D01*
X135959818Y-115272647D01*
X135945220Y-115262653D01*
X135931869Y-115259059D01*
X135928367Y-115258931D01*
X135915082Y-115260100D01*
X135909633Y-115266186D01*
X135908578Y-115281055D01*
X135908578Y-115281161D01*
X135910174Y-115295855D01*
X135914096Y-115303200D01*
X135914930Y-115303392D01*
X135920678Y-115308486D01*
X135921281Y-115312239D01*
X135926405Y-115322045D01*
X135930809Y-115324743D01*
X135938029Y-115334249D01*
X135940336Y-115354005D01*
X135941977Y-115371148D01*
X135948507Y-115385389D01*
X135962341Y-115401573D01*
X135965743Y-115405017D01*
X135981970Y-115419100D01*
X135996714Y-115428326D01*
X136003852Y-115430423D01*
X136014197Y-115434395D01*
X136016555Y-115439951D01*
X136020751Y-115446575D01*
X136034657Y-115449305D01*
X136041962Y-115449478D01*
X136067368Y-115449478D01*
X136067368Y-115420969D01*
X136070931Y-115395634D01*
X136080623Y-115377029D01*
X136094946Y-115367594D01*
X136100537Y-115366908D01*
X136109632Y-115371540D01*
X136111829Y-115382786D01*
X136115142Y-115395558D01*
X136121356Y-115398665D01*
X136129777Y-115403750D01*
X136130884Y-115408193D01*
X136134553Y-115416642D01*
X136137689Y-115417720D01*
X136148464Y-115422531D01*
X136158697Y-115433091D01*
X136162642Y-115442673D01*
X136165865Y-115449112D01*
X136174624Y-115445334D01*
X136184470Y-115435524D01*
X136191664Y-115423991D01*
X136189057Y-115419115D01*
X136183386Y-115411633D01*
X136181697Y-115401312D01*
X136178288Y-115388938D01*
X136172169Y-115385962D01*
X136165123Y-115381142D01*
X136162659Y-115365756D01*
X136162642Y-115363732D01*
X136163603Y-115348897D01*
X136169068Y-115342763D01*
X136182911Y-115341506D01*
X136185161Y-115341501D01*
X136206263Y-115346199D01*
X136224611Y-115358230D01*
X136236444Y-115374500D01*
X136238861Y-115385674D01*
X136242765Y-115396245D01*
X136248388Y-115398665D01*
X136256074Y-115404149D01*
X136257916Y-115413865D01*
X136261463Y-115427037D01*
X136267443Y-115432720D01*
X136274694Y-115441180D01*
X136276970Y-115452455D01*
X136279120Y-115464486D01*
X136283322Y-115468533D01*
X136286522Y-115474444D01*
X136288753Y-115490444D01*
X136289668Y-115513936D01*
X136289674Y-115516170D01*
X136288885Y-115540173D01*
X136286752Y-115556903D01*
X136283620Y-115563762D01*
X136283322Y-115563807D01*
X136277821Y-115569006D01*
X136276970Y-115574172D01*
X136272613Y-115584372D01*
X136261547Y-115598536D01*
X136254288Y-115605930D01*
X136231605Y-115627323D01*
X135571944Y-115627323D01*
X135571944Y-115597881D01*
X135573755Y-115576346D01*
X135580516Y-115561628D01*
X135587823Y-115553723D01*
X135598740Y-115540780D01*
X135603677Y-115529345D01*
X135603702Y-115528750D01*
X135608057Y-115518563D01*
X135619091Y-115504479D01*
X135625933Y-115497526D01*
X135639117Y-115483019D01*
X135647086Y-115470253D01*
X135648163Y-115465996D01*
X135653148Y-115454805D01*
X135657691Y-115451775D01*
X135666132Y-115443778D01*
X135666944Y-115440404D01*
X135845062Y-115440404D01*
X135848568Y-115460995D01*
X135857690Y-115475748D01*
X135870015Y-115481236D01*
X135876050Y-115486373D01*
X135876820Y-115490763D01*
X135880250Y-115499216D01*
X135883172Y-115500291D01*
X135888807Y-115495146D01*
X135889524Y-115490763D01*
X135894608Y-115482343D01*
X135899051Y-115481236D01*
X135907509Y-115478167D01*
X135908578Y-115475564D01*
X135903524Y-115468621D01*
X135899051Y-115466236D01*
X135891205Y-115457620D01*
X135889524Y-115449678D01*
X135885162Y-115438955D01*
X135876621Y-115436775D01*
X135864408Y-115432636D01*
X135860062Y-115427248D01*
X135854044Y-115418183D01*
X135848652Y-115420451D01*
X135845414Y-115432716D01*
X135845062Y-115440404D01*
X135666944Y-115440404D01*
X135667218Y-115439271D01*
X135670875Y-115431264D01*
X135673570Y-115430423D01*
X135678703Y-115425095D01*
X135679921Y-115417521D01*
X135684060Y-115405307D01*
X135689448Y-115400962D01*
X135697384Y-115392324D01*
X135698976Y-115384829D01*
X135703356Y-115370259D01*
X135713619Y-115358323D01*
X135723929Y-115354204D01*
X135729043Y-115348772D01*
X135730734Y-115338325D01*
X135732908Y-115326389D01*
X135737085Y-115322446D01*
X135741860Y-115317011D01*
X135743437Y-115306567D01*
X135746750Y-115293796D01*
X135752964Y-115290688D01*
X135761385Y-115285604D01*
X135762492Y-115281161D01*
X135765921Y-115272709D01*
X135768843Y-115271634D01*
X135774398Y-115266456D01*
X135775195Y-115261611D01*
X135779571Y-115253816D01*
X135791421Y-115239384D01*
X135808824Y-115220230D01*
X135829862Y-115198270D01*
X135852613Y-115175420D01*
X135875159Y-115153596D01*
X135895581Y-115134712D01*
X135911957Y-115120685D01*
X135922370Y-115113429D01*
X135924280Y-115112844D01*
X135933482Y-115107702D01*
X135936558Y-115102596D01*
X135945093Y-115095206D01*
X135953505Y-115095751D01*
X135965916Y-115094881D01*
X135969986Y-115090120D01*
X135978329Y-115083105D01*
X135988653Y-115081086D01*
X136000260Y-115078824D01*
X136003852Y-115074734D01*
X136009436Y-115070536D01*
X136023165Y-115068438D01*
X136026083Y-115068383D01*
X136040776Y-115069978D01*
G36*
X136194400Y-113998594D02*
G01*
X136190249Y-114021695D01*
X136177730Y-114035263D01*
X136158158Y-114039426D01*
X136138468Y-114045304D01*
X136122909Y-114058976D01*
X136109583Y-114071769D01*
X136096149Y-114076693D01*
X136079098Y-114076602D01*
X136059608Y-114077065D01*
X136050206Y-114081661D01*
X136049848Y-114082458D01*
X136042250Y-114088455D01*
X136031905Y-114090238D01*
X136020227Y-114092639D01*
X136016555Y-114097044D01*
X136010739Y-114109990D01*
X135994509Y-114118614D01*
X135969696Y-114121982D01*
X135967724Y-114121996D01*
X135947347Y-114120755D01*
X135935279Y-114116026D01*
X135928296Y-114107994D01*
X135923250Y-114096363D01*
X135926768Y-114091585D01*
X135932764Y-114084079D01*
X135933985Y-114076807D01*
X135938289Y-114064821D01*
X135943512Y-114060777D01*
X135951953Y-114052780D01*
X135953039Y-114048273D01*
X135956951Y-114040271D01*
X135959845Y-114039426D01*
X135970620Y-114034615D01*
X135980853Y-114024055D01*
X135984797Y-114014473D01*
X135989935Y-114008438D01*
X135994325Y-114007668D01*
X136002777Y-114004238D01*
X136003852Y-114001316D01*
X136009436Y-113997118D01*
X136023165Y-113995019D01*
X136026083Y-113994965D01*
X136042525Y-113992899D01*
X136048273Y-113986305D01*
X136048313Y-113985437D01*
X136050265Y-113981253D01*
X136057437Y-113978468D01*
X136071808Y-113976822D01*
X136095356Y-113976059D01*
X136121356Y-113975910D01*
X136194400Y-113975910D01*
X136194400Y-113998594D01*
G37*
X136194400Y-113998594D02*
X136190249Y-114021695D01*
X136177730Y-114035263D01*
X136158158Y-114039426D01*
X136138468Y-114045304D01*
X136122909Y-114058976D01*
X136109583Y-114071769D01*
X136096149Y-114076693D01*
X136079098Y-114076602D01*
X136059608Y-114077065D01*
X136050206Y-114081661D01*
X136049848Y-114082458D01*
X136042250Y-114088455D01*
X136031905Y-114090238D01*
X136020227Y-114092639D01*
X136016555Y-114097044D01*
X136010739Y-114109990D01*
X135994509Y-114118614D01*
X135969696Y-114121982D01*
X135967724Y-114121996D01*
X135947347Y-114120755D01*
X135935279Y-114116026D01*
X135928296Y-114107994D01*
X135923250Y-114096363D01*
X135926768Y-114091585D01*
X135932764Y-114084079D01*
X135933985Y-114076807D01*
X135938289Y-114064821D01*
X135943512Y-114060777D01*
X135951953Y-114052780D01*
X135953039Y-114048273D01*
X135956951Y-114040271D01*
X135959845Y-114039426D01*
X135970620Y-114034615D01*
X135980853Y-114024055D01*
X135984797Y-114014473D01*
X135989935Y-114008438D01*
X135994325Y-114007668D01*
X136002777Y-114004238D01*
X136003852Y-114001316D01*
X136009436Y-113997118D01*
X136023165Y-113995019D01*
X136026083Y-113994965D01*
X136042525Y-113992899D01*
X136048273Y-113986305D01*
X136048313Y-113985437D01*
X136050265Y-113981253D01*
X136057437Y-113978468D01*
X136071808Y-113976822D01*
X136095356Y-113976059D01*
X136121356Y-113975910D01*
X136194400Y-113975910D01*
X136194400Y-113998594D01*
D14*
X132858252Y-93270000D02*
X132335748Y-93270000D01*
X132858252Y-94690000D02*
X132335748Y-94690000D01*
X120227000Y-124470000D02*
X136202000Y-124470000D01*
X120227000Y-119370000D02*
X120227000Y-124470000D01*
X136202000Y-119370000D02*
X120227000Y-119370000D01*
X131428000Y-95190000D02*
X129778000Y-95190000D01*
X131428000Y-118170000D02*
X131428000Y-95190000D01*
X126128000Y-118170000D02*
X131428000Y-118170000D01*
X126128000Y-95190000D02*
X126128000Y-118170000D01*
X127778000Y-95190000D02*
X126128000Y-95190000D01*
X129778000Y-95190000D02*
G75*
G02X127778000Y-95190000I-1000000J0D01*
G01*
D15*
X142443200Y-107137200D02*
G75*
G02X142443200Y-107746800I0J-304800D01*
G01*
D16*
X142443200Y-107746800D02*
X142443200Y-108737400D01*
X142443200Y-107137200D02*
X142443200Y-107746800D01*
X142443200Y-106146600D02*
X142443200Y-107137200D01*
X151180800Y-108737400D02*
X151180800Y-106146600D01*
D14*
X151944000Y-108695748D02*
X151944000Y-109218252D01*
X153364000Y-108695748D02*
X153364000Y-109218252D01*
X152661252Y-112066000D02*
X152138748Y-112066000D01*
X152661252Y-113486000D02*
X152138748Y-113486000D01*
X137430252Y-98604000D02*
X136907748Y-98604000D01*
X137430252Y-100024000D02*
X136907748Y-100024000D01*
X137158252Y-105970000D02*
X136635748Y-105970000D01*
X137158252Y-107390000D02*
X136635748Y-107390000D01*
X137167252Y-102541000D02*
X136644748Y-102541000D01*
X137167252Y-103961000D02*
X136644748Y-103961000D01*
X138378000Y-96010252D02*
X138378000Y-95487748D01*
X136958000Y-96010252D02*
X136958000Y-95487748D01*
X136390748Y-93166000D02*
X136913252Y-93166000D01*
X136390748Y-91746000D02*
X136913252Y-91746000D01*
D11*
X151011000Y-120331000D02*
X151011000Y-120081000D01*
X150261000Y-121081000D02*
X150011000Y-121081000D01*
X151011000Y-121831000D02*
X151011000Y-122081000D01*
X151761000Y-121081000D02*
X152011000Y-121081000D01*
X157761000Y-121081000D02*
X158011000Y-121081000D01*
X157011000Y-120331000D02*
X157011000Y-120081000D01*
X156261000Y-121081000D02*
X156011000Y-121081000D01*
X157011000Y-121831000D02*
X157011000Y-122081000D01*
X159011000Y-124081000D02*
X159011000Y-123081000D01*
X162011000Y-123081000D02*
X159011000Y-123081000D01*
X159011000Y-119081000D02*
X162011000Y-119081000D01*
X159011000Y-118081000D02*
X159011000Y-119081000D01*
X157761000Y-118081000D02*
X159011000Y-118081000D01*
X149261000Y-124081000D02*
X148011000Y-124081000D01*
X150761000Y-118081000D02*
X156261000Y-118081000D01*
X148011000Y-118081000D02*
X149261000Y-118081000D01*
X148011000Y-120831000D02*
X148011000Y-118081000D01*
X148011000Y-124081000D02*
X148011000Y-121331000D01*
X154261000Y-124081000D02*
X150761000Y-124081000D01*
X159011000Y-124081000D02*
X155761000Y-124081000D01*
X116130605Y-116332000D02*
G75*
G03X116130605Y-116332000I-179605J0D01*
G01*
X112903000Y-97409000D02*
X115570000Y-97409000D01*
X112903000Y-115951000D02*
X112903000Y-97409000D01*
X115570000Y-115951000D02*
X112903000Y-115951000D01*
D14*
X151376748Y-127964000D02*
X151899252Y-127964000D01*
X151376748Y-126544000D02*
X151899252Y-126544000D01*
X144763748Y-117296000D02*
X145286252Y-117296000D01*
X144763748Y-115876000D02*
X145286252Y-115876000D01*
X153364000Y-104646252D02*
X153364000Y-104123748D01*
X151944000Y-104646252D02*
X151944000Y-104123748D01*
X140433000Y-94197000D02*
X140433000Y-95447000D01*
X139808000Y-94822000D02*
X141058000Y-94822000D01*
X141298000Y-101477563D02*
X142362437Y-102542000D01*
X141298000Y-93086437D02*
X142362437Y-92022000D01*
X141298000Y-93086437D02*
X141298000Y-96072000D01*
X141298000Y-101477563D02*
X141298000Y-98492000D01*
X142362437Y-102542000D02*
X151818000Y-102542000D01*
X142362437Y-92022000D02*
X151818000Y-92022000D01*
X151818000Y-92022000D02*
X151818000Y-96072000D01*
X151818000Y-102542000D02*
X151818000Y-98492000D01*
X126493748Y-126313000D02*
X127016252Y-126313000D01*
X126493748Y-124893000D02*
X127016252Y-124893000D01*
X134128252Y-124893000D02*
X133605748Y-124893000D01*
X134128252Y-126313000D02*
X133605748Y-126313000D01*
D11*
X132421333Y-92813142D02*
X132373714Y-92860761D01*
X132230857Y-92908380D01*
X132135619Y-92908380D01*
X131992761Y-92860761D01*
X131897523Y-92765523D01*
X131849904Y-92670285D01*
X131802285Y-92479809D01*
X131802285Y-92336952D01*
X131849904Y-92146476D01*
X131897523Y-92051238D01*
X131992761Y-91956000D01*
X132135619Y-91908380D01*
X132230857Y-91908380D01*
X132373714Y-91956000D01*
X132421333Y-92003619D01*
X132754666Y-91908380D02*
X133421333Y-91908380D01*
X132992761Y-92908380D01*
X129825809Y-125706190D02*
X129825809Y-126182380D01*
X129492476Y-125182380D02*
X129825809Y-125706190D01*
X130159142Y-125182380D01*
X131016285Y-126182380D02*
X130444857Y-126182380D01*
X130730571Y-126182380D02*
X130730571Y-125182380D01*
X130635333Y-125325238D01*
X130540095Y-125420476D01*
X130444857Y-125468095D01*
X128905095Y-93813380D02*
X128905095Y-94622904D01*
X128952714Y-94718142D01*
X129000333Y-94765761D01*
X129095571Y-94813380D01*
X129286047Y-94813380D01*
X129381285Y-94765761D01*
X129428904Y-94718142D01*
X129476523Y-94622904D01*
X129476523Y-93813380D01*
X129905095Y-93908619D02*
X129952714Y-93861000D01*
X130047952Y-93813380D01*
X130286047Y-93813380D01*
X130381285Y-93861000D01*
X130428904Y-93908619D01*
X130476523Y-94003857D01*
X130476523Y-94099095D01*
X130428904Y-94241952D01*
X129857476Y-94813380D01*
X130476523Y-94813380D01*
X141057380Y-110616904D02*
X141866904Y-110616904D01*
X141962142Y-110569285D01*
X142009761Y-110521666D01*
X142057380Y-110426428D01*
X142057380Y-110235952D01*
X142009761Y-110140714D01*
X141962142Y-110093095D01*
X141866904Y-110045476D01*
X141057380Y-110045476D01*
X142057380Y-109045476D02*
X142057380Y-109616904D01*
X142057380Y-109331190D02*
X141057380Y-109331190D01*
X141200238Y-109426428D01*
X141295476Y-109521666D01*
X141343095Y-109616904D01*
X154756380Y-109123666D02*
X154280190Y-109457000D01*
X154756380Y-109695095D02*
X153756380Y-109695095D01*
X153756380Y-109314142D01*
X153804000Y-109218904D01*
X153851619Y-109171285D01*
X153946857Y-109123666D01*
X154089714Y-109123666D01*
X154184952Y-109171285D01*
X154232571Y-109218904D01*
X154280190Y-109314142D01*
X154280190Y-109695095D01*
X153756380Y-108266523D02*
X153756380Y-108457000D01*
X153804000Y-108552238D01*
X153851619Y-108599857D01*
X153994476Y-108695095D01*
X154184952Y-108742714D01*
X154565904Y-108742714D01*
X154661142Y-108695095D01*
X154708761Y-108647476D01*
X154756380Y-108552238D01*
X154756380Y-108361761D01*
X154708761Y-108266523D01*
X154661142Y-108218904D01*
X154565904Y-108171285D01*
X154327809Y-108171285D01*
X154232571Y-108218904D01*
X154184952Y-108266523D01*
X154137333Y-108361761D01*
X154137333Y-108552238D01*
X154184952Y-108647476D01*
X154232571Y-108695095D01*
X154327809Y-108742714D01*
X152233333Y-114878380D02*
X151900000Y-114402190D01*
X151661904Y-114878380D02*
X151661904Y-113878380D01*
X152042857Y-113878380D01*
X152138095Y-113926000D01*
X152185714Y-113973619D01*
X152233333Y-114068857D01*
X152233333Y-114211714D01*
X152185714Y-114306952D01*
X152138095Y-114354571D01*
X152042857Y-114402190D01*
X151661904Y-114402190D01*
X153138095Y-113878380D02*
X152661904Y-113878380D01*
X152614285Y-114354571D01*
X152661904Y-114306952D01*
X152757142Y-114259333D01*
X152995238Y-114259333D01*
X153090476Y-114306952D01*
X153138095Y-114354571D01*
X153185714Y-114449809D01*
X153185714Y-114687904D01*
X153138095Y-114783142D01*
X153090476Y-114830761D01*
X152995238Y-114878380D01*
X152757142Y-114878380D01*
X152661904Y-114830761D01*
X152614285Y-114783142D01*
X137002333Y-101416380D02*
X136669000Y-100940190D01*
X136430904Y-101416380D02*
X136430904Y-100416380D01*
X136811857Y-100416380D01*
X136907095Y-100464000D01*
X136954714Y-100511619D01*
X137002333Y-100606857D01*
X137002333Y-100749714D01*
X136954714Y-100844952D01*
X136907095Y-100892571D01*
X136811857Y-100940190D01*
X136430904Y-100940190D01*
X137859476Y-100749714D02*
X137859476Y-101416380D01*
X137621380Y-100368761D02*
X137383285Y-101083047D01*
X138002333Y-101083047D01*
X136730333Y-108782380D02*
X136397000Y-108306190D01*
X136158904Y-108782380D02*
X136158904Y-107782380D01*
X136539857Y-107782380D01*
X136635095Y-107830000D01*
X136682714Y-107877619D01*
X136730333Y-107972857D01*
X136730333Y-108115714D01*
X136682714Y-108210952D01*
X136635095Y-108258571D01*
X136539857Y-108306190D01*
X136158904Y-108306190D01*
X137063666Y-107782380D02*
X137682714Y-107782380D01*
X137349380Y-108163333D01*
X137492238Y-108163333D01*
X137587476Y-108210952D01*
X137635095Y-108258571D01*
X137682714Y-108353809D01*
X137682714Y-108591904D01*
X137635095Y-108687142D01*
X137587476Y-108734761D01*
X137492238Y-108782380D01*
X137206523Y-108782380D01*
X137111285Y-108734761D01*
X137063666Y-108687142D01*
X136739333Y-105353380D02*
X136406000Y-104877190D01*
X136167904Y-105353380D02*
X136167904Y-104353380D01*
X136548857Y-104353380D01*
X136644095Y-104401000D01*
X136691714Y-104448619D01*
X136739333Y-104543857D01*
X136739333Y-104686714D01*
X136691714Y-104781952D01*
X136644095Y-104829571D01*
X136548857Y-104877190D01*
X136167904Y-104877190D01*
X137120285Y-104448619D02*
X137167904Y-104401000D01*
X137263142Y-104353380D01*
X137501238Y-104353380D01*
X137596476Y-104401000D01*
X137644095Y-104448619D01*
X137691714Y-104543857D01*
X137691714Y-104639095D01*
X137644095Y-104781952D01*
X137072666Y-105353380D01*
X137691714Y-105353380D01*
X136470380Y-95915666D02*
X135994190Y-96249000D01*
X136470380Y-96487095D02*
X135470380Y-96487095D01*
X135470380Y-96106142D01*
X135518000Y-96010904D01*
X135565619Y-95963285D01*
X135660857Y-95915666D01*
X135803714Y-95915666D01*
X135898952Y-95963285D01*
X135946571Y-96010904D01*
X135994190Y-96106142D01*
X135994190Y-96487095D01*
X136470380Y-94963285D02*
X136470380Y-95534714D01*
X136470380Y-95249000D02*
X135470380Y-95249000D01*
X135613238Y-95344238D01*
X135708476Y-95439476D01*
X135756095Y-95534714D01*
X136485333Y-91384380D02*
X136009142Y-91384380D01*
X136009142Y-90384380D01*
X137342476Y-91384380D02*
X136771047Y-91384380D01*
X137056761Y-91384380D02*
X137056761Y-90384380D01*
X136961523Y-90527238D01*
X136866285Y-90622476D01*
X136771047Y-90670095D01*
X157908666Y-124674380D02*
X157908666Y-125388666D01*
X157861047Y-125531523D01*
X157765809Y-125626761D01*
X157622952Y-125674380D01*
X157527714Y-125674380D01*
X158337238Y-124769619D02*
X158384857Y-124722000D01*
X158480095Y-124674380D01*
X158718190Y-124674380D01*
X158813428Y-124722000D01*
X158861047Y-124769619D01*
X158908666Y-124864857D01*
X158908666Y-124960095D01*
X158861047Y-125102952D01*
X158289619Y-125674380D01*
X158908666Y-125674380D01*
X151471333Y-125961142D02*
X151423714Y-126008761D01*
X151280857Y-126056380D01*
X151185619Y-126056380D01*
X151042761Y-126008761D01*
X150947523Y-125913523D01*
X150899904Y-125818285D01*
X150852285Y-125627809D01*
X150852285Y-125484952D01*
X150899904Y-125294476D01*
X150947523Y-125199238D01*
X151042761Y-125104000D01*
X151185619Y-125056380D01*
X151280857Y-125056380D01*
X151423714Y-125104000D01*
X151471333Y-125151619D01*
X152328476Y-125056380D02*
X152138000Y-125056380D01*
X152042761Y-125104000D01*
X151995142Y-125151619D01*
X151899904Y-125294476D01*
X151852285Y-125484952D01*
X151852285Y-125865904D01*
X151899904Y-125961142D01*
X151947523Y-126008761D01*
X152042761Y-126056380D01*
X152233238Y-126056380D01*
X152328476Y-126008761D01*
X152376095Y-125961142D01*
X152423714Y-125865904D01*
X152423714Y-125627809D01*
X152376095Y-125532571D01*
X152328476Y-125484952D01*
X152233238Y-125437333D01*
X152042761Y-125437333D01*
X151947523Y-125484952D01*
X151899904Y-125532571D01*
X151852285Y-125627809D01*
X144858333Y-115293142D02*
X144810714Y-115340761D01*
X144667857Y-115388380D01*
X144572619Y-115388380D01*
X144429761Y-115340761D01*
X144334523Y-115245523D01*
X144286904Y-115150285D01*
X144239285Y-114959809D01*
X144239285Y-114816952D01*
X144286904Y-114626476D01*
X144334523Y-114531238D01*
X144429761Y-114436000D01*
X144572619Y-114388380D01*
X144667857Y-114388380D01*
X144810714Y-114436000D01*
X144858333Y-114483619D01*
X145763095Y-114388380D02*
X145286904Y-114388380D01*
X145239285Y-114864571D01*
X145286904Y-114816952D01*
X145382142Y-114769333D01*
X145620238Y-114769333D01*
X145715476Y-114816952D01*
X145763095Y-114864571D01*
X145810714Y-114959809D01*
X145810714Y-115197904D01*
X145763095Y-115293142D01*
X145715476Y-115340761D01*
X145620238Y-115388380D01*
X145382142Y-115388380D01*
X145286904Y-115340761D01*
X145239285Y-115293142D01*
X154662142Y-104433666D02*
X154709761Y-104481285D01*
X154757380Y-104624142D01*
X154757380Y-104719380D01*
X154709761Y-104862238D01*
X154614523Y-104957476D01*
X154519285Y-105005095D01*
X154328809Y-105052714D01*
X154185952Y-105052714D01*
X153995476Y-105005095D01*
X153900238Y-104957476D01*
X153805000Y-104862238D01*
X153757380Y-104719380D01*
X153757380Y-104624142D01*
X153805000Y-104481285D01*
X153852619Y-104433666D01*
X154090714Y-103576523D02*
X154757380Y-103576523D01*
X153709761Y-103814619D02*
X154424047Y-104052714D01*
X154424047Y-103433666D01*
X146391333Y-91439142D02*
X146343714Y-91486761D01*
X146200857Y-91534380D01*
X146105619Y-91534380D01*
X145962761Y-91486761D01*
X145867523Y-91391523D01*
X145819904Y-91296285D01*
X145772285Y-91105809D01*
X145772285Y-90962952D01*
X145819904Y-90772476D01*
X145867523Y-90677238D01*
X145962761Y-90582000D01*
X146105619Y-90534380D01*
X146200857Y-90534380D01*
X146343714Y-90582000D01*
X146391333Y-90629619D01*
X146724666Y-90534380D02*
X147343714Y-90534380D01*
X147010380Y-90915333D01*
X147153238Y-90915333D01*
X147248476Y-90962952D01*
X147296095Y-91010571D01*
X147343714Y-91105809D01*
X147343714Y-91343904D01*
X147296095Y-91439142D01*
X147248476Y-91486761D01*
X147153238Y-91534380D01*
X146867523Y-91534380D01*
X146772285Y-91486761D01*
X146724666Y-91439142D01*
X126579333Y-127611142D02*
X126531714Y-127658761D01*
X126388857Y-127706380D01*
X126293619Y-127706380D01*
X126150761Y-127658761D01*
X126055523Y-127563523D01*
X126007904Y-127468285D01*
X125960285Y-127277809D01*
X125960285Y-127134952D01*
X126007904Y-126944476D01*
X126055523Y-126849238D01*
X126150761Y-126754000D01*
X126293619Y-126706380D01*
X126388857Y-126706380D01*
X126531714Y-126754000D01*
X126579333Y-126801619D01*
X126960285Y-126801619D02*
X127007904Y-126754000D01*
X127103142Y-126706380D01*
X127341238Y-126706380D01*
X127436476Y-126754000D01*
X127484095Y-126801619D01*
X127531714Y-126896857D01*
X127531714Y-126992095D01*
X127484095Y-127134952D01*
X126912666Y-127706380D01*
X127531714Y-127706380D01*
X133700333Y-127610142D02*
X133652714Y-127657761D01*
X133509857Y-127705380D01*
X133414619Y-127705380D01*
X133271761Y-127657761D01*
X133176523Y-127562523D01*
X133128904Y-127467285D01*
X133081285Y-127276809D01*
X133081285Y-127133952D01*
X133128904Y-126943476D01*
X133176523Y-126848238D01*
X133271761Y-126753000D01*
X133414619Y-126705380D01*
X133509857Y-126705380D01*
X133652714Y-126753000D01*
X133700333Y-126800619D01*
X134652714Y-127705380D02*
X134081285Y-127705380D01*
X134367000Y-127705380D02*
X134367000Y-126705380D01*
X134271761Y-126848238D01*
X134176523Y-126943476D01*
X134081285Y-126991095D01*
M02*
