M48
; DRILL file {KiCad (5.1.5)-3} date 25-Jan-20 15:55:38
; FORMAT={-:-/ absolute / metric / decimal}
; #@! TF.CreationDate,2020-01-25T15:55:38+03:00
; #@! TF.GenerationSoftware,Kicad,Pcbnew,(5.1.5)-3
; #@! TF.FileFunction,Plated,1,2,PTH
FMAT,2
METRIC
T1C0.300
T2C0.800
%
G90
G05
T1
X116.433Y-107.217
X118.11Y-104.648
X128.778Y-103.632
X134.167Y-95.282
X139.446Y-105.41
X141.343Y-100.53
X141.343Y-107.988
X142.096Y-104.32
X142.096Y-115.575
X147.32Y-106.934
X153.924Y-105.41
X153.924Y-107.95
T2
X124.968Y-96.52
X124.968Y-99.06
X124.968Y-101.6
X124.968Y-104.14
X124.968Y-106.68
X124.968Y-109.22
X124.968Y-111.76
X124.968Y-114.3
X124.968Y-116.84
X132.588Y-96.52
X132.588Y-99.06
X132.588Y-101.6
X132.588Y-104.14
X132.588Y-106.68
X132.588Y-109.22
X132.588Y-111.76
X132.588Y-114.3
X132.588Y-116.84
T0
M30
