G04 #@! TF.GenerationSoftware,KiCad,Pcbnew,(5.1.5)-3*
G04 #@! TF.CreationDate,2020-01-25T15:55:35+03:00*
G04 #@! TF.ProjectId,CASIO PB-1000 YM2413 Soundcard,43415349-4f20-4504-922d-313030302059,rev?*
G04 #@! TF.SameCoordinates,Original*
G04 #@! TF.FileFunction,Copper,L2,Bot*
G04 #@! TF.FilePolarity,Positive*
%FSLAX46Y46*%
G04 Gerber Fmt 4.6, Leading zero omitted, Abs format (unit mm)*
G04 Created by KiCad (PCBNEW (5.1.5)-3) date 2020-01-25 15:55:35*
%MOMM*%
%LPD*%
G04 APERTURE LIST*
%ADD10O,1.600000X1.600000*%
%ADD11R,1.600000X1.600000*%
%ADD12R,2.540000X0.600000*%
%ADD13C,0.600000*%
%ADD14C,0.400000*%
%ADD15C,0.200000*%
G04 APERTURE END LIST*
D10*
X132588000Y-96520000D03*
X124968000Y-116840000D03*
X132588000Y-99060000D03*
X124968000Y-114300000D03*
X132588000Y-101600000D03*
X124968000Y-111760000D03*
X132588000Y-104140000D03*
X124968000Y-109220000D03*
X132588000Y-106680000D03*
X124968000Y-106680000D03*
X132588000Y-109220000D03*
X124968000Y-104140000D03*
X132588000Y-111760000D03*
X124968000Y-101600000D03*
X132588000Y-114300000D03*
X124968000Y-99060000D03*
X132588000Y-116840000D03*
D11*
X124968000Y-96520000D03*
D12*
X114300000Y-97790000D03*
X114300000Y-99060000D03*
X114300000Y-100330000D03*
X114300000Y-101600000D03*
X114300000Y-102870000D03*
X114300000Y-104140000D03*
X114300000Y-105410000D03*
X114300000Y-106680000D03*
X114300000Y-107950000D03*
X114300000Y-109220000D03*
X114300000Y-110490000D03*
X114300000Y-111760000D03*
X114300000Y-113030000D03*
X114300000Y-114300000D03*
X114300000Y-115570000D03*
D13*
X147320000Y-106934000D03*
X139446000Y-105410000D03*
X153924000Y-107950000D03*
X153924000Y-105410000D03*
X142096100Y-104320200D03*
X142096100Y-115574700D03*
X134166600Y-95282100D03*
X116432600Y-107217300D03*
X128778000Y-103632000D03*
X118110000Y-104648000D03*
X141342900Y-100530400D03*
X141342900Y-107988300D03*
D14*
X153924000Y-105410000D02*
X153924000Y-107950000D01*
X142096100Y-104320200D02*
X142096100Y-115574700D01*
X123885898Y-95282100D02*
X133600915Y-95282100D01*
X133600915Y-95282100D02*
X134166600Y-95282100D01*
X120107998Y-99060000D02*
X123885898Y-95282100D01*
X114300000Y-99060000D02*
X120107998Y-99060000D01*
X114300000Y-100330000D02*
X114300000Y-99060000D01*
X123836630Y-101600000D02*
X124968000Y-101600000D01*
X120026630Y-105410000D02*
X123836630Y-101600000D01*
X114300000Y-105410000D02*
X120026630Y-105410000D01*
X115895300Y-106680000D02*
X116432600Y-107217300D01*
X114300000Y-106680000D02*
X115895300Y-106680000D01*
X124531997Y-102800001D02*
X119381998Y-107950000D01*
X132588000Y-99060000D02*
X128847999Y-102800001D01*
X119381998Y-107950000D02*
X114300000Y-107950000D01*
X128847999Y-102800001D02*
X124531997Y-102800001D01*
X119888000Y-109220000D02*
X124968000Y-104140000D01*
X114300000Y-109220000D02*
X119888000Y-109220000D01*
X114300000Y-110490000D02*
X122682000Y-110490000D01*
X122682000Y-110490000D02*
X123952000Y-109220000D01*
X123952000Y-109220000D02*
X124968000Y-109220000D01*
X114300000Y-111760000D02*
X123052000Y-111760000D01*
X125544001Y-110420001D02*
X128778000Y-107186002D01*
X124391999Y-110420001D02*
X125544001Y-110420001D01*
X123052000Y-111760000D02*
X124391999Y-110420001D01*
X128778000Y-107186002D02*
X128778000Y-103632000D01*
X131788001Y-112559999D02*
X132588000Y-111760000D01*
X131387999Y-112960001D02*
X131788001Y-112559999D01*
X124531997Y-112960001D02*
X131387999Y-112960001D01*
X123191998Y-114300000D02*
X124531997Y-112960001D01*
X114300000Y-114300000D02*
X123191998Y-114300000D01*
X119380000Y-104648000D02*
X124968000Y-99060000D01*
X118110000Y-104648000D02*
X119380000Y-104648000D01*
X140942901Y-107588301D02*
X141342900Y-107988300D01*
X140942901Y-100930399D02*
X140942901Y-107588301D01*
X141342900Y-100530400D02*
X140942901Y-100930399D01*
D15*
G36*
X158679001Y-129469000D02*
G01*
X112593000Y-129469000D01*
X112593000Y-120992358D01*
X150111000Y-120992358D01*
X150111000Y-121169642D01*
X150145586Y-121343520D01*
X150213430Y-121507310D01*
X150311924Y-121654717D01*
X150437283Y-121780076D01*
X150584690Y-121878570D01*
X150748480Y-121946414D01*
X150922358Y-121981000D01*
X151099642Y-121981000D01*
X151273520Y-121946414D01*
X151437310Y-121878570D01*
X151584717Y-121780076D01*
X151710076Y-121654717D01*
X151808570Y-121507310D01*
X151876414Y-121343520D01*
X151911000Y-121169642D01*
X151911000Y-120992358D01*
X156111000Y-120992358D01*
X156111000Y-121169642D01*
X156145586Y-121343520D01*
X156213430Y-121507310D01*
X156311924Y-121654717D01*
X156437283Y-121780076D01*
X156584690Y-121878570D01*
X156748480Y-121946414D01*
X156922358Y-121981000D01*
X157099642Y-121981000D01*
X157273520Y-121946414D01*
X157437310Y-121878570D01*
X157584717Y-121780076D01*
X157710076Y-121654717D01*
X157808570Y-121507310D01*
X157876414Y-121343520D01*
X157911000Y-121169642D01*
X157911000Y-120992358D01*
X157876414Y-120818480D01*
X157808570Y-120654690D01*
X157710076Y-120507283D01*
X157584717Y-120381924D01*
X157437310Y-120283430D01*
X157273520Y-120215586D01*
X157099642Y-120181000D01*
X156922358Y-120181000D01*
X156748480Y-120215586D01*
X156584690Y-120283430D01*
X156437283Y-120381924D01*
X156311924Y-120507283D01*
X156213430Y-120654690D01*
X156145586Y-120818480D01*
X156111000Y-120992358D01*
X151911000Y-120992358D01*
X151876414Y-120818480D01*
X151808570Y-120654690D01*
X151710076Y-120507283D01*
X151584717Y-120381924D01*
X151437310Y-120283430D01*
X151273520Y-120215586D01*
X151099642Y-120181000D01*
X150922358Y-120181000D01*
X150748480Y-120215586D01*
X150584690Y-120283430D01*
X150437283Y-120381924D01*
X150311924Y-120507283D01*
X150213430Y-120654690D01*
X150145586Y-120818480D01*
X150111000Y-120992358D01*
X112593000Y-120992358D01*
X112593000Y-116731659D01*
X123868000Y-116731659D01*
X123868000Y-116948341D01*
X123910273Y-117160858D01*
X123993193Y-117361045D01*
X124113575Y-117541209D01*
X124266791Y-117694425D01*
X124446955Y-117814807D01*
X124647142Y-117897727D01*
X124859659Y-117940000D01*
X125076341Y-117940000D01*
X125288858Y-117897727D01*
X125489045Y-117814807D01*
X125669209Y-117694425D01*
X125822425Y-117541209D01*
X125942807Y-117361045D01*
X126025727Y-117160858D01*
X126068000Y-116948341D01*
X126068000Y-116731659D01*
X131488000Y-116731659D01*
X131488000Y-116948341D01*
X131530273Y-117160858D01*
X131613193Y-117361045D01*
X131733575Y-117541209D01*
X131886791Y-117694425D01*
X132066955Y-117814807D01*
X132267142Y-117897727D01*
X132479659Y-117940000D01*
X132696341Y-117940000D01*
X132908858Y-117897727D01*
X133109045Y-117814807D01*
X133289209Y-117694425D01*
X133442425Y-117541209D01*
X133562807Y-117361045D01*
X133645727Y-117160858D01*
X133688000Y-116948341D01*
X133688000Y-116731659D01*
X133645727Y-116519142D01*
X133562807Y-116318955D01*
X133442425Y-116138791D01*
X133289209Y-115985575D01*
X133109045Y-115865193D01*
X132908858Y-115782273D01*
X132696341Y-115740000D01*
X132479659Y-115740000D01*
X132267142Y-115782273D01*
X132066955Y-115865193D01*
X131886791Y-115985575D01*
X131733575Y-116138791D01*
X131613193Y-116318955D01*
X131530273Y-116519142D01*
X131488000Y-116731659D01*
X126068000Y-116731659D01*
X126025727Y-116519142D01*
X125942807Y-116318955D01*
X125822425Y-116138791D01*
X125669209Y-115985575D01*
X125489045Y-115865193D01*
X125288858Y-115782273D01*
X125076341Y-115740000D01*
X124859659Y-115740000D01*
X124647142Y-115782273D01*
X124446955Y-115865193D01*
X124266791Y-115985575D01*
X124113575Y-116138791D01*
X123993193Y-116318955D01*
X123910273Y-116519142D01*
X123868000Y-116731659D01*
X112593000Y-116731659D01*
X112593000Y-115270000D01*
X112728549Y-115270000D01*
X112728549Y-115870000D01*
X112734341Y-115928810D01*
X112751496Y-115985360D01*
X112779353Y-116037477D01*
X112816842Y-116083158D01*
X112862523Y-116120647D01*
X112914640Y-116148504D01*
X112971190Y-116165659D01*
X113030000Y-116171451D01*
X115570000Y-116171451D01*
X115628810Y-116165659D01*
X115685360Y-116148504D01*
X115737477Y-116120647D01*
X115783158Y-116083158D01*
X115820647Y-116037477D01*
X115848504Y-115985360D01*
X115865659Y-115928810D01*
X115871451Y-115870000D01*
X115871451Y-115270000D01*
X115865659Y-115211190D01*
X115848504Y-115154640D01*
X115820647Y-115102523D01*
X115783158Y-115056842D01*
X115737477Y-115019353D01*
X115685360Y-114991496D01*
X115628810Y-114974341D01*
X115570000Y-114968549D01*
X113030000Y-114968549D01*
X112971190Y-114974341D01*
X112914640Y-114991496D01*
X112862523Y-115019353D01*
X112816842Y-115056842D01*
X112779353Y-115102523D01*
X112751496Y-115154640D01*
X112734341Y-115211190D01*
X112728549Y-115270000D01*
X112593000Y-115270000D01*
X112593000Y-112730000D01*
X112728549Y-112730000D01*
X112728549Y-113330000D01*
X112734341Y-113388810D01*
X112751496Y-113445360D01*
X112779353Y-113497477D01*
X112816842Y-113543158D01*
X112862523Y-113580647D01*
X112914640Y-113608504D01*
X112971190Y-113625659D01*
X113030000Y-113631451D01*
X115570000Y-113631451D01*
X115628810Y-113625659D01*
X115685360Y-113608504D01*
X115737477Y-113580647D01*
X115783158Y-113543158D01*
X115820647Y-113497477D01*
X115848504Y-113445360D01*
X115865659Y-113388810D01*
X115871451Y-113330000D01*
X115871451Y-112730000D01*
X115865659Y-112671190D01*
X115848504Y-112614640D01*
X115820647Y-112562523D01*
X115783158Y-112516842D01*
X115737477Y-112479353D01*
X115685360Y-112451496D01*
X115628810Y-112434341D01*
X115570000Y-112428549D01*
X113030000Y-112428549D01*
X112971190Y-112434341D01*
X112914640Y-112451496D01*
X112862523Y-112479353D01*
X112816842Y-112516842D01*
X112779353Y-112562523D01*
X112751496Y-112614640D01*
X112734341Y-112671190D01*
X112728549Y-112730000D01*
X112593000Y-112730000D01*
X112593000Y-105110000D01*
X112728549Y-105110000D01*
X112728549Y-105710000D01*
X112734341Y-105768810D01*
X112751496Y-105825360D01*
X112779353Y-105877477D01*
X112816842Y-105923158D01*
X112862523Y-105960647D01*
X112914640Y-105988504D01*
X112971190Y-106005659D01*
X113030000Y-106011451D01*
X115570000Y-106011451D01*
X115628810Y-106005659D01*
X115685360Y-105988504D01*
X115737477Y-105960647D01*
X115783158Y-105923158D01*
X115793956Y-105910000D01*
X120002070Y-105910000D01*
X120026630Y-105912419D01*
X120051190Y-105910000D01*
X120124647Y-105902765D01*
X120218897Y-105874175D01*
X120305759Y-105827746D01*
X120381894Y-105765264D01*
X120397559Y-105746176D01*
X124005009Y-102138728D01*
X124113575Y-102301209D01*
X124220876Y-102408510D01*
X124176733Y-102444737D01*
X124161077Y-102463814D01*
X119174893Y-107450000D01*
X116985648Y-107450000D01*
X117009542Y-107392314D01*
X117032600Y-107276395D01*
X117032600Y-107158205D01*
X117009542Y-107042286D01*
X116964313Y-106933093D01*
X116898650Y-106834822D01*
X116815078Y-106751250D01*
X116716807Y-106685587D01*
X116607614Y-106640358D01*
X116551627Y-106629221D01*
X116266229Y-106343824D01*
X116250564Y-106324736D01*
X116174429Y-106262254D01*
X116087567Y-106215825D01*
X115993317Y-106187235D01*
X115919860Y-106180000D01*
X115895300Y-106177581D01*
X115870740Y-106180000D01*
X115793956Y-106180000D01*
X115783158Y-106166842D01*
X115737477Y-106129353D01*
X115685360Y-106101496D01*
X115628810Y-106084341D01*
X115570000Y-106078549D01*
X113030000Y-106078549D01*
X112971190Y-106084341D01*
X112914640Y-106101496D01*
X112862523Y-106129353D01*
X112816842Y-106166842D01*
X112779353Y-106212523D01*
X112751496Y-106264640D01*
X112734341Y-106321190D01*
X112728549Y-106380000D01*
X112728549Y-106980000D01*
X112734341Y-107038810D01*
X112751496Y-107095360D01*
X112779353Y-107147477D01*
X112816842Y-107193158D01*
X112862523Y-107230647D01*
X112914640Y-107258504D01*
X112971190Y-107275659D01*
X113030000Y-107281451D01*
X115570000Y-107281451D01*
X115628810Y-107275659D01*
X115685360Y-107258504D01*
X115737477Y-107230647D01*
X115738227Y-107230032D01*
X115844521Y-107336327D01*
X115855658Y-107392314D01*
X115879552Y-107450000D01*
X115793956Y-107450000D01*
X115783158Y-107436842D01*
X115737477Y-107399353D01*
X115685360Y-107371496D01*
X115628810Y-107354341D01*
X115570000Y-107348549D01*
X113030000Y-107348549D01*
X112971190Y-107354341D01*
X112914640Y-107371496D01*
X112862523Y-107399353D01*
X112816842Y-107436842D01*
X112779353Y-107482523D01*
X112751496Y-107534640D01*
X112734341Y-107591190D01*
X112728549Y-107650000D01*
X112728549Y-108250000D01*
X112734341Y-108308810D01*
X112751496Y-108365360D01*
X112779353Y-108417477D01*
X112816842Y-108463158D01*
X112862523Y-108500647D01*
X112914640Y-108528504D01*
X112971190Y-108545659D01*
X113030000Y-108551451D01*
X115570000Y-108551451D01*
X115628810Y-108545659D01*
X115685360Y-108528504D01*
X115737477Y-108500647D01*
X115783158Y-108463158D01*
X115793956Y-108450000D01*
X119357438Y-108450000D01*
X119381998Y-108452419D01*
X119406558Y-108450000D01*
X119480015Y-108442765D01*
X119574265Y-108414175D01*
X119661127Y-108367746D01*
X119737262Y-108305264D01*
X119752927Y-108286176D01*
X123868000Y-104171105D01*
X123868000Y-104248341D01*
X123910273Y-104460858D01*
X123918990Y-104481903D01*
X119680895Y-108720000D01*
X115793956Y-108720000D01*
X115783158Y-108706842D01*
X115737477Y-108669353D01*
X115685360Y-108641496D01*
X115628810Y-108624341D01*
X115570000Y-108618549D01*
X113030000Y-108618549D01*
X112971190Y-108624341D01*
X112914640Y-108641496D01*
X112862523Y-108669353D01*
X112816842Y-108706842D01*
X112779353Y-108752523D01*
X112751496Y-108804640D01*
X112734341Y-108861190D01*
X112728549Y-108920000D01*
X112728549Y-109520000D01*
X112734341Y-109578810D01*
X112751496Y-109635360D01*
X112779353Y-109687477D01*
X112816842Y-109733158D01*
X112862523Y-109770647D01*
X112914640Y-109798504D01*
X112971190Y-109815659D01*
X113030000Y-109821451D01*
X115570000Y-109821451D01*
X115628810Y-109815659D01*
X115685360Y-109798504D01*
X115737477Y-109770647D01*
X115783158Y-109733158D01*
X115793956Y-109720000D01*
X119863440Y-109720000D01*
X119888000Y-109722419D01*
X119912560Y-109720000D01*
X119986017Y-109712765D01*
X120080267Y-109684175D01*
X120167129Y-109637746D01*
X120243264Y-109575264D01*
X120258929Y-109556176D01*
X123243447Y-106571659D01*
X123868000Y-106571659D01*
X123868000Y-106788341D01*
X123910273Y-107000858D01*
X123993193Y-107201045D01*
X124113575Y-107381209D01*
X124266791Y-107534425D01*
X124446955Y-107654807D01*
X124647142Y-107737727D01*
X124859659Y-107780000D01*
X125076341Y-107780000D01*
X125288858Y-107737727D01*
X125489045Y-107654807D01*
X125669209Y-107534425D01*
X125822425Y-107381209D01*
X125942807Y-107201045D01*
X126025727Y-107000858D01*
X126068000Y-106788341D01*
X126068000Y-106571659D01*
X126025727Y-106359142D01*
X125942807Y-106158955D01*
X125822425Y-105978791D01*
X125669209Y-105825575D01*
X125489045Y-105705193D01*
X125288858Y-105622273D01*
X125076341Y-105580000D01*
X124859659Y-105580000D01*
X124647142Y-105622273D01*
X124446955Y-105705193D01*
X124266791Y-105825575D01*
X124113575Y-105978791D01*
X123993193Y-106158955D01*
X123910273Y-106359142D01*
X123868000Y-106571659D01*
X123243447Y-106571659D01*
X124626097Y-105189010D01*
X124647142Y-105197727D01*
X124859659Y-105240000D01*
X125076341Y-105240000D01*
X125288858Y-105197727D01*
X125489045Y-105114807D01*
X125669209Y-104994425D01*
X125822425Y-104841209D01*
X125942807Y-104661045D01*
X126025727Y-104460858D01*
X126068000Y-104248341D01*
X126068000Y-104031659D01*
X126025727Y-103819142D01*
X125942807Y-103618955D01*
X125822425Y-103438791D01*
X125683635Y-103300001D01*
X128278221Y-103300001D01*
X128246287Y-103347793D01*
X128201058Y-103456986D01*
X128178000Y-103572905D01*
X128178000Y-103691095D01*
X128201058Y-103807014D01*
X128246287Y-103916207D01*
X128278001Y-103963670D01*
X128278000Y-106978895D01*
X126068000Y-109188896D01*
X126068000Y-109111659D01*
X126025727Y-108899142D01*
X125942807Y-108698955D01*
X125822425Y-108518791D01*
X125669209Y-108365575D01*
X125489045Y-108245193D01*
X125288858Y-108162273D01*
X125076341Y-108120000D01*
X124859659Y-108120000D01*
X124647142Y-108162273D01*
X124446955Y-108245193D01*
X124266791Y-108365575D01*
X124113575Y-108518791D01*
X123993193Y-108698955D01*
X123984476Y-108720000D01*
X123976557Y-108720000D01*
X123951999Y-108717581D01*
X123927441Y-108720000D01*
X123927440Y-108720000D01*
X123853983Y-108727235D01*
X123759733Y-108755825D01*
X123672871Y-108802254D01*
X123596736Y-108864736D01*
X123581080Y-108883813D01*
X122474895Y-109990000D01*
X115793956Y-109990000D01*
X115783158Y-109976842D01*
X115737477Y-109939353D01*
X115685360Y-109911496D01*
X115628810Y-109894341D01*
X115570000Y-109888549D01*
X113030000Y-109888549D01*
X112971190Y-109894341D01*
X112914640Y-109911496D01*
X112862523Y-109939353D01*
X112816842Y-109976842D01*
X112779353Y-110022523D01*
X112751496Y-110074640D01*
X112734341Y-110131190D01*
X112728549Y-110190000D01*
X112728549Y-110790000D01*
X112734341Y-110848810D01*
X112751496Y-110905360D01*
X112779353Y-110957477D01*
X112816842Y-111003158D01*
X112862523Y-111040647D01*
X112914640Y-111068504D01*
X112971190Y-111085659D01*
X113030000Y-111091451D01*
X115570000Y-111091451D01*
X115628810Y-111085659D01*
X115685360Y-111068504D01*
X115737477Y-111040647D01*
X115783158Y-111003158D01*
X115793956Y-110990000D01*
X122657440Y-110990000D01*
X122682000Y-110992419D01*
X122706560Y-110990000D01*
X122780017Y-110982765D01*
X122874267Y-110954175D01*
X122961129Y-110907746D01*
X123037264Y-110845264D01*
X123052929Y-110826176D01*
X124051219Y-109827887D01*
X124113575Y-109921209D01*
X124166145Y-109973779D01*
X124112870Y-110002255D01*
X124036735Y-110064737D01*
X124021079Y-110083814D01*
X122844895Y-111260000D01*
X115793956Y-111260000D01*
X115783158Y-111246842D01*
X115737477Y-111209353D01*
X115685360Y-111181496D01*
X115628810Y-111164341D01*
X115570000Y-111158549D01*
X113030000Y-111158549D01*
X112971190Y-111164341D01*
X112914640Y-111181496D01*
X112862523Y-111209353D01*
X112816842Y-111246842D01*
X112779353Y-111292523D01*
X112751496Y-111344640D01*
X112734341Y-111401190D01*
X112728549Y-111460000D01*
X112728549Y-112060000D01*
X112734341Y-112118810D01*
X112751496Y-112175360D01*
X112779353Y-112227477D01*
X112816842Y-112273158D01*
X112862523Y-112310647D01*
X112914640Y-112338504D01*
X112971190Y-112355659D01*
X113030000Y-112361451D01*
X115570000Y-112361451D01*
X115628810Y-112355659D01*
X115685360Y-112338504D01*
X115737477Y-112310647D01*
X115783158Y-112273158D01*
X115793956Y-112260000D01*
X123027440Y-112260000D01*
X123052000Y-112262419D01*
X123076560Y-112260000D01*
X123150017Y-112252765D01*
X123244267Y-112224175D01*
X123331129Y-112177746D01*
X123407264Y-112115264D01*
X123422929Y-112096176D01*
X123868137Y-111650968D01*
X123868000Y-111651659D01*
X123868000Y-111868341D01*
X123910273Y-112080858D01*
X123993193Y-112281045D01*
X124113575Y-112461209D01*
X124220876Y-112568510D01*
X124176733Y-112604737D01*
X124161077Y-112623814D01*
X122984893Y-113800000D01*
X115793956Y-113800000D01*
X115783158Y-113786842D01*
X115737477Y-113749353D01*
X115685360Y-113721496D01*
X115628810Y-113704341D01*
X115570000Y-113698549D01*
X113030000Y-113698549D01*
X112971190Y-113704341D01*
X112914640Y-113721496D01*
X112862523Y-113749353D01*
X112816842Y-113786842D01*
X112779353Y-113832523D01*
X112751496Y-113884640D01*
X112734341Y-113941190D01*
X112728549Y-114000000D01*
X112728549Y-114600000D01*
X112734341Y-114658810D01*
X112751496Y-114715360D01*
X112779353Y-114767477D01*
X112816842Y-114813158D01*
X112862523Y-114850647D01*
X112914640Y-114878504D01*
X112971190Y-114895659D01*
X113030000Y-114901451D01*
X115570000Y-114901451D01*
X115628810Y-114895659D01*
X115685360Y-114878504D01*
X115737477Y-114850647D01*
X115783158Y-114813158D01*
X115793956Y-114800000D01*
X123167438Y-114800000D01*
X123191998Y-114802419D01*
X123216558Y-114800000D01*
X123290015Y-114792765D01*
X123384265Y-114764175D01*
X123471127Y-114717746D01*
X123547262Y-114655264D01*
X123562927Y-114636176D01*
X123868000Y-114331103D01*
X123868000Y-114408341D01*
X123910273Y-114620858D01*
X123993193Y-114821045D01*
X124113575Y-115001209D01*
X124266791Y-115154425D01*
X124446955Y-115274807D01*
X124647142Y-115357727D01*
X124859659Y-115400000D01*
X125076341Y-115400000D01*
X125288858Y-115357727D01*
X125489045Y-115274807D01*
X125669209Y-115154425D01*
X125822425Y-115001209D01*
X125942807Y-114821045D01*
X126025727Y-114620858D01*
X126068000Y-114408341D01*
X126068000Y-114191659D01*
X131488000Y-114191659D01*
X131488000Y-114408341D01*
X131530273Y-114620858D01*
X131613193Y-114821045D01*
X131733575Y-115001209D01*
X131886791Y-115154425D01*
X132066955Y-115274807D01*
X132267142Y-115357727D01*
X132479659Y-115400000D01*
X132696341Y-115400000D01*
X132908858Y-115357727D01*
X133109045Y-115274807D01*
X133289209Y-115154425D01*
X133442425Y-115001209D01*
X133562807Y-114821045D01*
X133645727Y-114620858D01*
X133688000Y-114408341D01*
X133688000Y-114191659D01*
X133645727Y-113979142D01*
X133562807Y-113778955D01*
X133442425Y-113598791D01*
X133289209Y-113445575D01*
X133109045Y-113325193D01*
X132908858Y-113242273D01*
X132696341Y-113200000D01*
X132479659Y-113200000D01*
X132267142Y-113242273D01*
X132066955Y-113325193D01*
X131886791Y-113445575D01*
X131733575Y-113598791D01*
X131613193Y-113778955D01*
X131530273Y-113979142D01*
X131488000Y-114191659D01*
X126068000Y-114191659D01*
X126025727Y-113979142D01*
X125942807Y-113778955D01*
X125822425Y-113598791D01*
X125683635Y-113460001D01*
X131363439Y-113460001D01*
X131387999Y-113462420D01*
X131412559Y-113460001D01*
X131486016Y-113452766D01*
X131580266Y-113424176D01*
X131667128Y-113377747D01*
X131743263Y-113315265D01*
X131758927Y-113296178D01*
X132158920Y-112896187D01*
X132158929Y-112896176D01*
X132246096Y-112809009D01*
X132267142Y-112817727D01*
X132479659Y-112860000D01*
X132696341Y-112860000D01*
X132908858Y-112817727D01*
X133109045Y-112734807D01*
X133289209Y-112614425D01*
X133442425Y-112461209D01*
X133562807Y-112281045D01*
X133645727Y-112080858D01*
X133688000Y-111868341D01*
X133688000Y-111651659D01*
X133645727Y-111439142D01*
X133562807Y-111238955D01*
X133442425Y-111058791D01*
X133289209Y-110905575D01*
X133109045Y-110785193D01*
X132908858Y-110702273D01*
X132696341Y-110660000D01*
X132479659Y-110660000D01*
X132267142Y-110702273D01*
X132066955Y-110785193D01*
X131886791Y-110905575D01*
X131733575Y-111058791D01*
X131613193Y-111238955D01*
X131530273Y-111439142D01*
X131488000Y-111651659D01*
X131488000Y-111868341D01*
X131530273Y-112080858D01*
X131538991Y-112101904D01*
X131451824Y-112189071D01*
X131451813Y-112189080D01*
X131180893Y-112460001D01*
X125823232Y-112460001D01*
X125942807Y-112281045D01*
X126025727Y-112080858D01*
X126068000Y-111868341D01*
X126068000Y-111651659D01*
X126025727Y-111439142D01*
X125942807Y-111238955D01*
X125822425Y-111058791D01*
X125669209Y-110905575D01*
X125668121Y-110904848D01*
X125736268Y-110884176D01*
X125823130Y-110837747D01*
X125899265Y-110775265D01*
X125914930Y-110756177D01*
X127559449Y-109111659D01*
X131488000Y-109111659D01*
X131488000Y-109328341D01*
X131530273Y-109540858D01*
X131613193Y-109741045D01*
X131733575Y-109921209D01*
X131886791Y-110074425D01*
X132066955Y-110194807D01*
X132267142Y-110277727D01*
X132479659Y-110320000D01*
X132696341Y-110320000D01*
X132908858Y-110277727D01*
X133109045Y-110194807D01*
X133289209Y-110074425D01*
X133442425Y-109921209D01*
X133562807Y-109741045D01*
X133645727Y-109540858D01*
X133688000Y-109328341D01*
X133688000Y-109111659D01*
X133645727Y-108899142D01*
X133562807Y-108698955D01*
X133442425Y-108518791D01*
X133289209Y-108365575D01*
X133109045Y-108245193D01*
X132908858Y-108162273D01*
X132696341Y-108120000D01*
X132479659Y-108120000D01*
X132267142Y-108162273D01*
X132066955Y-108245193D01*
X131886791Y-108365575D01*
X131733575Y-108518791D01*
X131613193Y-108698955D01*
X131530273Y-108899142D01*
X131488000Y-109111659D01*
X127559449Y-109111659D01*
X129114187Y-107556922D01*
X129133264Y-107541266D01*
X129195746Y-107465131D01*
X129242175Y-107378269D01*
X129270765Y-107284019D01*
X129278000Y-107210562D01*
X129278000Y-107210553D01*
X129280418Y-107186003D01*
X129278000Y-107161453D01*
X129278000Y-106571659D01*
X131488000Y-106571659D01*
X131488000Y-106788341D01*
X131530273Y-107000858D01*
X131613193Y-107201045D01*
X131733575Y-107381209D01*
X131886791Y-107534425D01*
X132066955Y-107654807D01*
X132267142Y-107737727D01*
X132479659Y-107780000D01*
X132696341Y-107780000D01*
X132908858Y-107737727D01*
X133109045Y-107654807D01*
X133289209Y-107534425D01*
X133442425Y-107381209D01*
X133562807Y-107201045D01*
X133645727Y-107000858D01*
X133688000Y-106788341D01*
X133688000Y-106571659D01*
X133645727Y-106359142D01*
X133562807Y-106158955D01*
X133442425Y-105978791D01*
X133289209Y-105825575D01*
X133109045Y-105705193D01*
X132908858Y-105622273D01*
X132696341Y-105580000D01*
X132479659Y-105580000D01*
X132267142Y-105622273D01*
X132066955Y-105705193D01*
X131886791Y-105825575D01*
X131733575Y-105978791D01*
X131613193Y-106158955D01*
X131530273Y-106359142D01*
X131488000Y-106571659D01*
X129278000Y-106571659D01*
X129278000Y-104031659D01*
X131488000Y-104031659D01*
X131488000Y-104248341D01*
X131530273Y-104460858D01*
X131613193Y-104661045D01*
X131733575Y-104841209D01*
X131886791Y-104994425D01*
X132066955Y-105114807D01*
X132267142Y-105197727D01*
X132479659Y-105240000D01*
X132696341Y-105240000D01*
X132908858Y-105197727D01*
X133109045Y-105114807D01*
X133289209Y-104994425D01*
X133442425Y-104841209D01*
X133562807Y-104661045D01*
X133645727Y-104460858D01*
X133688000Y-104248341D01*
X133688000Y-104031659D01*
X133645727Y-103819142D01*
X133562807Y-103618955D01*
X133442425Y-103438791D01*
X133289209Y-103285575D01*
X133109045Y-103165193D01*
X132908858Y-103082273D01*
X132696341Y-103040000D01*
X132479659Y-103040000D01*
X132267142Y-103082273D01*
X132066955Y-103165193D01*
X131886791Y-103285575D01*
X131733575Y-103438791D01*
X131613193Y-103618955D01*
X131530273Y-103819142D01*
X131488000Y-104031659D01*
X129278000Y-104031659D01*
X129278000Y-103963669D01*
X129309713Y-103916207D01*
X129354942Y-103807014D01*
X129378000Y-103691095D01*
X129378000Y-103572905D01*
X129354942Y-103456986D01*
X129309713Y-103347793D01*
X129244050Y-103249522D01*
X129173895Y-103179367D01*
X129203263Y-103155265D01*
X129218928Y-103136177D01*
X130863446Y-101491659D01*
X131488000Y-101491659D01*
X131488000Y-101708341D01*
X131530273Y-101920858D01*
X131613193Y-102121045D01*
X131733575Y-102301209D01*
X131886791Y-102454425D01*
X132066955Y-102574807D01*
X132267142Y-102657727D01*
X132479659Y-102700000D01*
X132696341Y-102700000D01*
X132908858Y-102657727D01*
X133109045Y-102574807D01*
X133289209Y-102454425D01*
X133442425Y-102301209D01*
X133562807Y-102121045D01*
X133645727Y-101920858D01*
X133688000Y-101708341D01*
X133688000Y-101491659D01*
X133645727Y-101279142D01*
X133562807Y-101078955D01*
X133463545Y-100930399D01*
X140440482Y-100930399D01*
X140442901Y-100954959D01*
X140442902Y-107563731D01*
X140440482Y-107588301D01*
X140450136Y-107686318D01*
X140469155Y-107749013D01*
X140478727Y-107780568D01*
X140525156Y-107867430D01*
X140587638Y-107943565D01*
X140606720Y-107959225D01*
X140754821Y-108107327D01*
X140765958Y-108163314D01*
X140811187Y-108272507D01*
X140876850Y-108370778D01*
X140960422Y-108454350D01*
X141058693Y-108520013D01*
X141167886Y-108565242D01*
X141283805Y-108588300D01*
X141401995Y-108588300D01*
X141517914Y-108565242D01*
X141596100Y-108532856D01*
X141596101Y-115243030D01*
X141564387Y-115290493D01*
X141519158Y-115399686D01*
X141496100Y-115515605D01*
X141496100Y-115633795D01*
X141519158Y-115749714D01*
X141564387Y-115858907D01*
X141630050Y-115957178D01*
X141713622Y-116040750D01*
X141811893Y-116106413D01*
X141921086Y-116151642D01*
X142037005Y-116174700D01*
X142155195Y-116174700D01*
X142271114Y-116151642D01*
X142380307Y-116106413D01*
X142478578Y-116040750D01*
X142562150Y-115957178D01*
X142627813Y-115858907D01*
X142673042Y-115749714D01*
X142696100Y-115633795D01*
X142696100Y-115515605D01*
X142673042Y-115399686D01*
X142627813Y-115290493D01*
X142596100Y-115243031D01*
X142596100Y-105350905D01*
X153324000Y-105350905D01*
X153324000Y-105469095D01*
X153347058Y-105585014D01*
X153392287Y-105694207D01*
X153424000Y-105741669D01*
X153424001Y-107618330D01*
X153392287Y-107665793D01*
X153347058Y-107774986D01*
X153324000Y-107890905D01*
X153324000Y-108009095D01*
X153347058Y-108125014D01*
X153392287Y-108234207D01*
X153457950Y-108332478D01*
X153541522Y-108416050D01*
X153639793Y-108481713D01*
X153748986Y-108526942D01*
X153864905Y-108550000D01*
X153983095Y-108550000D01*
X154099014Y-108526942D01*
X154208207Y-108481713D01*
X154306478Y-108416050D01*
X154390050Y-108332478D01*
X154455713Y-108234207D01*
X154500942Y-108125014D01*
X154524000Y-108009095D01*
X154524000Y-107890905D01*
X154500942Y-107774986D01*
X154455713Y-107665793D01*
X154424000Y-107618331D01*
X154424000Y-105741669D01*
X154455713Y-105694207D01*
X154500942Y-105585014D01*
X154524000Y-105469095D01*
X154524000Y-105350905D01*
X154500942Y-105234986D01*
X154455713Y-105125793D01*
X154390050Y-105027522D01*
X154306478Y-104943950D01*
X154208207Y-104878287D01*
X154099014Y-104833058D01*
X153983095Y-104810000D01*
X153864905Y-104810000D01*
X153748986Y-104833058D01*
X153639793Y-104878287D01*
X153541522Y-104943950D01*
X153457950Y-105027522D01*
X153392287Y-105125793D01*
X153347058Y-105234986D01*
X153324000Y-105350905D01*
X142596100Y-105350905D01*
X142596100Y-104651869D01*
X142627813Y-104604407D01*
X142673042Y-104495214D01*
X142696100Y-104379295D01*
X142696100Y-104261105D01*
X142673042Y-104145186D01*
X142627813Y-104035993D01*
X142562150Y-103937722D01*
X142478578Y-103854150D01*
X142380307Y-103788487D01*
X142271114Y-103743258D01*
X142155195Y-103720200D01*
X142037005Y-103720200D01*
X141921086Y-103743258D01*
X141811893Y-103788487D01*
X141713622Y-103854150D01*
X141630050Y-103937722D01*
X141564387Y-104035993D01*
X141519158Y-104145186D01*
X141496100Y-104261105D01*
X141496100Y-104379295D01*
X141519158Y-104495214D01*
X141564387Y-104604407D01*
X141596100Y-104651869D01*
X141596100Y-107443744D01*
X141517914Y-107411358D01*
X141461927Y-107400221D01*
X141442901Y-107381196D01*
X141442901Y-101137504D01*
X141461927Y-101118479D01*
X141517914Y-101107342D01*
X141627107Y-101062113D01*
X141725378Y-100996450D01*
X141808950Y-100912878D01*
X141874613Y-100814607D01*
X141919842Y-100705414D01*
X141942900Y-100589495D01*
X141942900Y-100471305D01*
X141919842Y-100355386D01*
X141874613Y-100246193D01*
X141808950Y-100147922D01*
X141725378Y-100064350D01*
X141627107Y-99998687D01*
X141517914Y-99953458D01*
X141401995Y-99930400D01*
X141283805Y-99930400D01*
X141167886Y-99953458D01*
X141058693Y-99998687D01*
X140960422Y-100064350D01*
X140876850Y-100147922D01*
X140811187Y-100246193D01*
X140765958Y-100355386D01*
X140754821Y-100411373D01*
X140606725Y-100559470D01*
X140587637Y-100575135D01*
X140525155Y-100651270D01*
X140478726Y-100738133D01*
X140458809Y-100803792D01*
X140450136Y-100832382D01*
X140440482Y-100930399D01*
X133463545Y-100930399D01*
X133442425Y-100898791D01*
X133289209Y-100745575D01*
X133109045Y-100625193D01*
X132908858Y-100542273D01*
X132696341Y-100500000D01*
X132479659Y-100500000D01*
X132267142Y-100542273D01*
X132066955Y-100625193D01*
X131886791Y-100745575D01*
X131733575Y-100898791D01*
X131613193Y-101078955D01*
X131530273Y-101279142D01*
X131488000Y-101491659D01*
X130863446Y-101491659D01*
X132246096Y-100109010D01*
X132267142Y-100117727D01*
X132479659Y-100160000D01*
X132696341Y-100160000D01*
X132908858Y-100117727D01*
X133109045Y-100034807D01*
X133289209Y-99914425D01*
X133442425Y-99761209D01*
X133562807Y-99581045D01*
X133645727Y-99380858D01*
X133688000Y-99168341D01*
X133688000Y-98951659D01*
X133645727Y-98739142D01*
X133562807Y-98538955D01*
X133442425Y-98358791D01*
X133289209Y-98205575D01*
X133109045Y-98085193D01*
X132908858Y-98002273D01*
X132696341Y-97960000D01*
X132479659Y-97960000D01*
X132267142Y-98002273D01*
X132066955Y-98085193D01*
X131886791Y-98205575D01*
X131733575Y-98358791D01*
X131613193Y-98538955D01*
X131530273Y-98739142D01*
X131488000Y-98951659D01*
X131488000Y-99168341D01*
X131530273Y-99380858D01*
X131538990Y-99401904D01*
X128640894Y-102300001D01*
X125823232Y-102300001D01*
X125942807Y-102121045D01*
X126025727Y-101920858D01*
X126068000Y-101708341D01*
X126068000Y-101491659D01*
X126025727Y-101279142D01*
X125942807Y-101078955D01*
X125822425Y-100898791D01*
X125669209Y-100745575D01*
X125489045Y-100625193D01*
X125288858Y-100542273D01*
X125076341Y-100500000D01*
X124859659Y-100500000D01*
X124647142Y-100542273D01*
X124446955Y-100625193D01*
X124266791Y-100745575D01*
X124113575Y-100898791D01*
X123993193Y-101078955D01*
X123984476Y-101100000D01*
X123861190Y-101100000D01*
X123836630Y-101097581D01*
X123812070Y-101100000D01*
X123738613Y-101107235D01*
X123644363Y-101135825D01*
X123557501Y-101182254D01*
X123531578Y-101203528D01*
X124626097Y-100109010D01*
X124647142Y-100117727D01*
X124859659Y-100160000D01*
X125076341Y-100160000D01*
X125288858Y-100117727D01*
X125489045Y-100034807D01*
X125669209Y-99914425D01*
X125822425Y-99761209D01*
X125942807Y-99581045D01*
X126025727Y-99380858D01*
X126068000Y-99168341D01*
X126068000Y-98951659D01*
X126025727Y-98739142D01*
X125942807Y-98538955D01*
X125822425Y-98358791D01*
X125669209Y-98205575D01*
X125489045Y-98085193D01*
X125288858Y-98002273D01*
X125076341Y-97960000D01*
X124859659Y-97960000D01*
X124647142Y-98002273D01*
X124446955Y-98085193D01*
X124266791Y-98205575D01*
X124113575Y-98358791D01*
X123993193Y-98538955D01*
X123910273Y-98739142D01*
X123868000Y-98951659D01*
X123868000Y-99168341D01*
X123910273Y-99380858D01*
X123918990Y-99401903D01*
X119172895Y-104148000D01*
X118441669Y-104148000D01*
X118394207Y-104116287D01*
X118285014Y-104071058D01*
X118169095Y-104048000D01*
X118050905Y-104048000D01*
X117934986Y-104071058D01*
X117825793Y-104116287D01*
X117727522Y-104181950D01*
X117643950Y-104265522D01*
X117578287Y-104363793D01*
X117533058Y-104472986D01*
X117510000Y-104588905D01*
X117510000Y-104707095D01*
X117533058Y-104823014D01*
X117569089Y-104910000D01*
X115793956Y-104910000D01*
X115783158Y-104896842D01*
X115737477Y-104859353D01*
X115685360Y-104831496D01*
X115628810Y-104814341D01*
X115570000Y-104808549D01*
X113030000Y-104808549D01*
X112971190Y-104814341D01*
X112914640Y-104831496D01*
X112862523Y-104859353D01*
X112816842Y-104896842D01*
X112779353Y-104942523D01*
X112751496Y-104994640D01*
X112734341Y-105051190D01*
X112728549Y-105110000D01*
X112593000Y-105110000D01*
X112593000Y-103840000D01*
X112728549Y-103840000D01*
X112728549Y-104440000D01*
X112734341Y-104498810D01*
X112751496Y-104555360D01*
X112779353Y-104607477D01*
X112816842Y-104653158D01*
X112862523Y-104690647D01*
X112914640Y-104718504D01*
X112971190Y-104735659D01*
X113030000Y-104741451D01*
X115570000Y-104741451D01*
X115628810Y-104735659D01*
X115685360Y-104718504D01*
X115737477Y-104690647D01*
X115783158Y-104653158D01*
X115820647Y-104607477D01*
X115848504Y-104555360D01*
X115865659Y-104498810D01*
X115871451Y-104440000D01*
X115871451Y-103840000D01*
X115865659Y-103781190D01*
X115848504Y-103724640D01*
X115820647Y-103672523D01*
X115783158Y-103626842D01*
X115737477Y-103589353D01*
X115685360Y-103561496D01*
X115628810Y-103544341D01*
X115570000Y-103538549D01*
X113030000Y-103538549D01*
X112971190Y-103544341D01*
X112914640Y-103561496D01*
X112862523Y-103589353D01*
X112816842Y-103626842D01*
X112779353Y-103672523D01*
X112751496Y-103724640D01*
X112734341Y-103781190D01*
X112728549Y-103840000D01*
X112593000Y-103840000D01*
X112593000Y-102570000D01*
X112728549Y-102570000D01*
X112728549Y-103170000D01*
X112734341Y-103228810D01*
X112751496Y-103285360D01*
X112779353Y-103337477D01*
X112816842Y-103383158D01*
X112862523Y-103420647D01*
X112914640Y-103448504D01*
X112971190Y-103465659D01*
X113030000Y-103471451D01*
X115570000Y-103471451D01*
X115628810Y-103465659D01*
X115685360Y-103448504D01*
X115737477Y-103420647D01*
X115783158Y-103383158D01*
X115820647Y-103337477D01*
X115848504Y-103285360D01*
X115865659Y-103228810D01*
X115871451Y-103170000D01*
X115871451Y-102570000D01*
X115865659Y-102511190D01*
X115848504Y-102454640D01*
X115820647Y-102402523D01*
X115783158Y-102356842D01*
X115737477Y-102319353D01*
X115685360Y-102291496D01*
X115628810Y-102274341D01*
X115570000Y-102268549D01*
X113030000Y-102268549D01*
X112971190Y-102274341D01*
X112914640Y-102291496D01*
X112862523Y-102319353D01*
X112816842Y-102356842D01*
X112779353Y-102402523D01*
X112751496Y-102454640D01*
X112734341Y-102511190D01*
X112728549Y-102570000D01*
X112593000Y-102570000D01*
X112593000Y-101300000D01*
X112728549Y-101300000D01*
X112728549Y-101900000D01*
X112734341Y-101958810D01*
X112751496Y-102015360D01*
X112779353Y-102067477D01*
X112816842Y-102113158D01*
X112862523Y-102150647D01*
X112914640Y-102178504D01*
X112971190Y-102195659D01*
X113030000Y-102201451D01*
X115570000Y-102201451D01*
X115628810Y-102195659D01*
X115685360Y-102178504D01*
X115737477Y-102150647D01*
X115783158Y-102113158D01*
X115820647Y-102067477D01*
X115848504Y-102015360D01*
X115865659Y-101958810D01*
X115871451Y-101900000D01*
X115871451Y-101300000D01*
X115865659Y-101241190D01*
X115848504Y-101184640D01*
X115820647Y-101132523D01*
X115783158Y-101086842D01*
X115737477Y-101049353D01*
X115685360Y-101021496D01*
X115628810Y-101004341D01*
X115570000Y-100998549D01*
X113030000Y-100998549D01*
X112971190Y-101004341D01*
X112914640Y-101021496D01*
X112862523Y-101049353D01*
X112816842Y-101086842D01*
X112779353Y-101132523D01*
X112751496Y-101184640D01*
X112734341Y-101241190D01*
X112728549Y-101300000D01*
X112593000Y-101300000D01*
X112593000Y-98760000D01*
X112728549Y-98760000D01*
X112728549Y-99360000D01*
X112734341Y-99418810D01*
X112751496Y-99475360D01*
X112779353Y-99527477D01*
X112816842Y-99573158D01*
X112862523Y-99610647D01*
X112914640Y-99638504D01*
X112971190Y-99655659D01*
X113030000Y-99661451D01*
X113800001Y-99661451D01*
X113800000Y-99728549D01*
X113030000Y-99728549D01*
X112971190Y-99734341D01*
X112914640Y-99751496D01*
X112862523Y-99779353D01*
X112816842Y-99816842D01*
X112779353Y-99862523D01*
X112751496Y-99914640D01*
X112734341Y-99971190D01*
X112728549Y-100030000D01*
X112728549Y-100630000D01*
X112734341Y-100688810D01*
X112751496Y-100745360D01*
X112779353Y-100797477D01*
X112816842Y-100843158D01*
X112862523Y-100880647D01*
X112914640Y-100908504D01*
X112971190Y-100925659D01*
X113030000Y-100931451D01*
X115570000Y-100931451D01*
X115628810Y-100925659D01*
X115685360Y-100908504D01*
X115737477Y-100880647D01*
X115783158Y-100843158D01*
X115820647Y-100797477D01*
X115848504Y-100745360D01*
X115865659Y-100688810D01*
X115871451Y-100630000D01*
X115871451Y-100030000D01*
X115865659Y-99971190D01*
X115848504Y-99914640D01*
X115820647Y-99862523D01*
X115783158Y-99816842D01*
X115737477Y-99779353D01*
X115685360Y-99751496D01*
X115628810Y-99734341D01*
X115570000Y-99728549D01*
X114800000Y-99728549D01*
X114800000Y-99661451D01*
X115570000Y-99661451D01*
X115628810Y-99655659D01*
X115685360Y-99638504D01*
X115737477Y-99610647D01*
X115783158Y-99573158D01*
X115793956Y-99560000D01*
X120083438Y-99560000D01*
X120107998Y-99562419D01*
X120132558Y-99560000D01*
X120206015Y-99552765D01*
X120300265Y-99524175D01*
X120387127Y-99477746D01*
X120463262Y-99415264D01*
X120478927Y-99396176D01*
X122555104Y-97320000D01*
X123816306Y-97320000D01*
X123823064Y-97388612D01*
X123843077Y-97454587D01*
X123875577Y-97515391D01*
X123919315Y-97568685D01*
X123972609Y-97612423D01*
X124033413Y-97644923D01*
X124099388Y-97664936D01*
X124168000Y-97671694D01*
X124855500Y-97670000D01*
X124943000Y-97582500D01*
X124943000Y-96545000D01*
X124993000Y-96545000D01*
X124993000Y-97582500D01*
X125080500Y-97670000D01*
X125768000Y-97671694D01*
X125836612Y-97664936D01*
X125902587Y-97644923D01*
X125963391Y-97612423D01*
X126016685Y-97568685D01*
X126060423Y-97515391D01*
X126092923Y-97454587D01*
X126112936Y-97388612D01*
X126119694Y-97320000D01*
X126118000Y-96632500D01*
X126030500Y-96545000D01*
X124993000Y-96545000D01*
X124943000Y-96545000D01*
X123905500Y-96545000D01*
X123818000Y-96632500D01*
X123816306Y-97320000D01*
X122555104Y-97320000D01*
X123817139Y-96057966D01*
X123818000Y-96407500D01*
X123905500Y-96495000D01*
X124943000Y-96495000D01*
X124943000Y-96475000D01*
X124993000Y-96475000D01*
X124993000Y-96495000D01*
X126030500Y-96495000D01*
X126118000Y-96407500D01*
X126119541Y-95782100D01*
X131770266Y-95782100D01*
X131733575Y-95818791D01*
X131613193Y-95998955D01*
X131530273Y-96199142D01*
X131488000Y-96411659D01*
X131488000Y-96628341D01*
X131530273Y-96840858D01*
X131613193Y-97041045D01*
X131733575Y-97221209D01*
X131886791Y-97374425D01*
X132066955Y-97494807D01*
X132267142Y-97577727D01*
X132479659Y-97620000D01*
X132696341Y-97620000D01*
X132908858Y-97577727D01*
X133109045Y-97494807D01*
X133289209Y-97374425D01*
X133442425Y-97221209D01*
X133562807Y-97041045D01*
X133645727Y-96840858D01*
X133688000Y-96628341D01*
X133688000Y-96411659D01*
X133645727Y-96199142D01*
X133562807Y-95998955D01*
X133442425Y-95818791D01*
X133405734Y-95782100D01*
X133834931Y-95782100D01*
X133882393Y-95813813D01*
X133991586Y-95859042D01*
X134107505Y-95882100D01*
X134225695Y-95882100D01*
X134341614Y-95859042D01*
X134450807Y-95813813D01*
X134549078Y-95748150D01*
X134632650Y-95664578D01*
X134698313Y-95566307D01*
X134743542Y-95457114D01*
X134766600Y-95341195D01*
X134766600Y-95223005D01*
X134743542Y-95107086D01*
X134698313Y-94997893D01*
X134632650Y-94899622D01*
X134549078Y-94816050D01*
X134450807Y-94750387D01*
X134341614Y-94705158D01*
X134225695Y-94682100D01*
X134107505Y-94682100D01*
X133991586Y-94705158D01*
X133882393Y-94750387D01*
X133834931Y-94782100D01*
X123910447Y-94782100D01*
X123885897Y-94779682D01*
X123861347Y-94782100D01*
X123861338Y-94782100D01*
X123787881Y-94789335D01*
X123693631Y-94817925D01*
X123606769Y-94864354D01*
X123530634Y-94926836D01*
X123514978Y-94945913D01*
X119900893Y-98560000D01*
X115793956Y-98560000D01*
X115783158Y-98546842D01*
X115737477Y-98509353D01*
X115685360Y-98481496D01*
X115628810Y-98464341D01*
X115570000Y-98458549D01*
X113030000Y-98458549D01*
X112971190Y-98464341D01*
X112914640Y-98481496D01*
X112862523Y-98509353D01*
X112816842Y-98546842D01*
X112779353Y-98592523D01*
X112751496Y-98644640D01*
X112734341Y-98701190D01*
X112728549Y-98760000D01*
X112593000Y-98760000D01*
X112593000Y-97490000D01*
X112728549Y-97490000D01*
X112728549Y-98090000D01*
X112734341Y-98148810D01*
X112751496Y-98205360D01*
X112779353Y-98257477D01*
X112816842Y-98303158D01*
X112862523Y-98340647D01*
X112914640Y-98368504D01*
X112971190Y-98385659D01*
X113030000Y-98391451D01*
X115570000Y-98391451D01*
X115628810Y-98385659D01*
X115685360Y-98368504D01*
X115737477Y-98340647D01*
X115783158Y-98303158D01*
X115820647Y-98257477D01*
X115848504Y-98205360D01*
X115865659Y-98148810D01*
X115871451Y-98090000D01*
X115871451Y-97490000D01*
X115865659Y-97431190D01*
X115848504Y-97374640D01*
X115820647Y-97322523D01*
X115783158Y-97276842D01*
X115737477Y-97239353D01*
X115685360Y-97211496D01*
X115628810Y-97194341D01*
X115570000Y-97188549D01*
X113030000Y-97188549D01*
X112971190Y-97194341D01*
X112914640Y-97211496D01*
X112862523Y-97239353D01*
X112816842Y-97276842D01*
X112779353Y-97322523D01*
X112751496Y-97374640D01*
X112734341Y-97431190D01*
X112728549Y-97490000D01*
X112593000Y-97490000D01*
X112593000Y-89225000D01*
X158679000Y-89225000D01*
X158679001Y-129469000D01*
G37*
X158679001Y-129469000D02*
X112593000Y-129469000D01*
X112593000Y-120992358D01*
X150111000Y-120992358D01*
X150111000Y-121169642D01*
X150145586Y-121343520D01*
X150213430Y-121507310D01*
X150311924Y-121654717D01*
X150437283Y-121780076D01*
X150584690Y-121878570D01*
X150748480Y-121946414D01*
X150922358Y-121981000D01*
X151099642Y-121981000D01*
X151273520Y-121946414D01*
X151437310Y-121878570D01*
X151584717Y-121780076D01*
X151710076Y-121654717D01*
X151808570Y-121507310D01*
X151876414Y-121343520D01*
X151911000Y-121169642D01*
X151911000Y-120992358D01*
X156111000Y-120992358D01*
X156111000Y-121169642D01*
X156145586Y-121343520D01*
X156213430Y-121507310D01*
X156311924Y-121654717D01*
X156437283Y-121780076D01*
X156584690Y-121878570D01*
X156748480Y-121946414D01*
X156922358Y-121981000D01*
X157099642Y-121981000D01*
X157273520Y-121946414D01*
X157437310Y-121878570D01*
X157584717Y-121780076D01*
X157710076Y-121654717D01*
X157808570Y-121507310D01*
X157876414Y-121343520D01*
X157911000Y-121169642D01*
X157911000Y-120992358D01*
X157876414Y-120818480D01*
X157808570Y-120654690D01*
X157710076Y-120507283D01*
X157584717Y-120381924D01*
X157437310Y-120283430D01*
X157273520Y-120215586D01*
X157099642Y-120181000D01*
X156922358Y-120181000D01*
X156748480Y-120215586D01*
X156584690Y-120283430D01*
X156437283Y-120381924D01*
X156311924Y-120507283D01*
X156213430Y-120654690D01*
X156145586Y-120818480D01*
X156111000Y-120992358D01*
X151911000Y-120992358D01*
X151876414Y-120818480D01*
X151808570Y-120654690D01*
X151710076Y-120507283D01*
X151584717Y-120381924D01*
X151437310Y-120283430D01*
X151273520Y-120215586D01*
X151099642Y-120181000D01*
X150922358Y-120181000D01*
X150748480Y-120215586D01*
X150584690Y-120283430D01*
X150437283Y-120381924D01*
X150311924Y-120507283D01*
X150213430Y-120654690D01*
X150145586Y-120818480D01*
X150111000Y-120992358D01*
X112593000Y-120992358D01*
X112593000Y-116731659D01*
X123868000Y-116731659D01*
X123868000Y-116948341D01*
X123910273Y-117160858D01*
X123993193Y-117361045D01*
X124113575Y-117541209D01*
X124266791Y-117694425D01*
X124446955Y-117814807D01*
X124647142Y-117897727D01*
X124859659Y-117940000D01*
X125076341Y-117940000D01*
X125288858Y-117897727D01*
X125489045Y-117814807D01*
X125669209Y-117694425D01*
X125822425Y-117541209D01*
X125942807Y-117361045D01*
X126025727Y-117160858D01*
X126068000Y-116948341D01*
X126068000Y-116731659D01*
X131488000Y-116731659D01*
X131488000Y-116948341D01*
X131530273Y-117160858D01*
X131613193Y-117361045D01*
X131733575Y-117541209D01*
X131886791Y-117694425D01*
X132066955Y-117814807D01*
X132267142Y-117897727D01*
X132479659Y-117940000D01*
X132696341Y-117940000D01*
X132908858Y-117897727D01*
X133109045Y-117814807D01*
X133289209Y-117694425D01*
X133442425Y-117541209D01*
X133562807Y-117361045D01*
X133645727Y-117160858D01*
X133688000Y-116948341D01*
X133688000Y-116731659D01*
X133645727Y-116519142D01*
X133562807Y-116318955D01*
X133442425Y-116138791D01*
X133289209Y-115985575D01*
X133109045Y-115865193D01*
X132908858Y-115782273D01*
X132696341Y-115740000D01*
X132479659Y-115740000D01*
X132267142Y-115782273D01*
X132066955Y-115865193D01*
X131886791Y-115985575D01*
X131733575Y-116138791D01*
X131613193Y-116318955D01*
X131530273Y-116519142D01*
X131488000Y-116731659D01*
X126068000Y-116731659D01*
X126025727Y-116519142D01*
X125942807Y-116318955D01*
X125822425Y-116138791D01*
X125669209Y-115985575D01*
X125489045Y-115865193D01*
X125288858Y-115782273D01*
X125076341Y-115740000D01*
X124859659Y-115740000D01*
X124647142Y-115782273D01*
X124446955Y-115865193D01*
X124266791Y-115985575D01*
X124113575Y-116138791D01*
X123993193Y-116318955D01*
X123910273Y-116519142D01*
X123868000Y-116731659D01*
X112593000Y-116731659D01*
X112593000Y-115270000D01*
X112728549Y-115270000D01*
X112728549Y-115870000D01*
X112734341Y-115928810D01*
X112751496Y-115985360D01*
X112779353Y-116037477D01*
X112816842Y-116083158D01*
X112862523Y-116120647D01*
X112914640Y-116148504D01*
X112971190Y-116165659D01*
X113030000Y-116171451D01*
X115570000Y-116171451D01*
X115628810Y-116165659D01*
X115685360Y-116148504D01*
X115737477Y-116120647D01*
X115783158Y-116083158D01*
X115820647Y-116037477D01*
X115848504Y-115985360D01*
X115865659Y-115928810D01*
X115871451Y-115870000D01*
X115871451Y-115270000D01*
X115865659Y-115211190D01*
X115848504Y-115154640D01*
X115820647Y-115102523D01*
X115783158Y-115056842D01*
X115737477Y-115019353D01*
X115685360Y-114991496D01*
X115628810Y-114974341D01*
X115570000Y-114968549D01*
X113030000Y-114968549D01*
X112971190Y-114974341D01*
X112914640Y-114991496D01*
X112862523Y-115019353D01*
X112816842Y-115056842D01*
X112779353Y-115102523D01*
X112751496Y-115154640D01*
X112734341Y-115211190D01*
X112728549Y-115270000D01*
X112593000Y-115270000D01*
X112593000Y-112730000D01*
X112728549Y-112730000D01*
X112728549Y-113330000D01*
X112734341Y-113388810D01*
X112751496Y-113445360D01*
X112779353Y-113497477D01*
X112816842Y-113543158D01*
X112862523Y-113580647D01*
X112914640Y-113608504D01*
X112971190Y-113625659D01*
X113030000Y-113631451D01*
X115570000Y-113631451D01*
X115628810Y-113625659D01*
X115685360Y-113608504D01*
X115737477Y-113580647D01*
X115783158Y-113543158D01*
X115820647Y-113497477D01*
X115848504Y-113445360D01*
X115865659Y-113388810D01*
X115871451Y-113330000D01*
X115871451Y-112730000D01*
X115865659Y-112671190D01*
X115848504Y-112614640D01*
X115820647Y-112562523D01*
X115783158Y-112516842D01*
X115737477Y-112479353D01*
X115685360Y-112451496D01*
X115628810Y-112434341D01*
X115570000Y-112428549D01*
X113030000Y-112428549D01*
X112971190Y-112434341D01*
X112914640Y-112451496D01*
X112862523Y-112479353D01*
X112816842Y-112516842D01*
X112779353Y-112562523D01*
X112751496Y-112614640D01*
X112734341Y-112671190D01*
X112728549Y-112730000D01*
X112593000Y-112730000D01*
X112593000Y-105110000D01*
X112728549Y-105110000D01*
X112728549Y-105710000D01*
X112734341Y-105768810D01*
X112751496Y-105825360D01*
X112779353Y-105877477D01*
X112816842Y-105923158D01*
X112862523Y-105960647D01*
X112914640Y-105988504D01*
X112971190Y-106005659D01*
X113030000Y-106011451D01*
X115570000Y-106011451D01*
X115628810Y-106005659D01*
X115685360Y-105988504D01*
X115737477Y-105960647D01*
X115783158Y-105923158D01*
X115793956Y-105910000D01*
X120002070Y-105910000D01*
X120026630Y-105912419D01*
X120051190Y-105910000D01*
X120124647Y-105902765D01*
X120218897Y-105874175D01*
X120305759Y-105827746D01*
X120381894Y-105765264D01*
X120397559Y-105746176D01*
X124005009Y-102138728D01*
X124113575Y-102301209D01*
X124220876Y-102408510D01*
X124176733Y-102444737D01*
X124161077Y-102463814D01*
X119174893Y-107450000D01*
X116985648Y-107450000D01*
X117009542Y-107392314D01*
X117032600Y-107276395D01*
X117032600Y-107158205D01*
X117009542Y-107042286D01*
X116964313Y-106933093D01*
X116898650Y-106834822D01*
X116815078Y-106751250D01*
X116716807Y-106685587D01*
X116607614Y-106640358D01*
X116551627Y-106629221D01*
X116266229Y-106343824D01*
X116250564Y-106324736D01*
X116174429Y-106262254D01*
X116087567Y-106215825D01*
X115993317Y-106187235D01*
X115919860Y-106180000D01*
X115895300Y-106177581D01*
X115870740Y-106180000D01*
X115793956Y-106180000D01*
X115783158Y-106166842D01*
X115737477Y-106129353D01*
X115685360Y-106101496D01*
X115628810Y-106084341D01*
X115570000Y-106078549D01*
X113030000Y-106078549D01*
X112971190Y-106084341D01*
X112914640Y-106101496D01*
X112862523Y-106129353D01*
X112816842Y-106166842D01*
X112779353Y-106212523D01*
X112751496Y-106264640D01*
X112734341Y-106321190D01*
X112728549Y-106380000D01*
X112728549Y-106980000D01*
X112734341Y-107038810D01*
X112751496Y-107095360D01*
X112779353Y-107147477D01*
X112816842Y-107193158D01*
X112862523Y-107230647D01*
X112914640Y-107258504D01*
X112971190Y-107275659D01*
X113030000Y-107281451D01*
X115570000Y-107281451D01*
X115628810Y-107275659D01*
X115685360Y-107258504D01*
X115737477Y-107230647D01*
X115738227Y-107230032D01*
X115844521Y-107336327D01*
X115855658Y-107392314D01*
X115879552Y-107450000D01*
X115793956Y-107450000D01*
X115783158Y-107436842D01*
X115737477Y-107399353D01*
X115685360Y-107371496D01*
X115628810Y-107354341D01*
X115570000Y-107348549D01*
X113030000Y-107348549D01*
X112971190Y-107354341D01*
X112914640Y-107371496D01*
X112862523Y-107399353D01*
X112816842Y-107436842D01*
X112779353Y-107482523D01*
X112751496Y-107534640D01*
X112734341Y-107591190D01*
X112728549Y-107650000D01*
X112728549Y-108250000D01*
X112734341Y-108308810D01*
X112751496Y-108365360D01*
X112779353Y-108417477D01*
X112816842Y-108463158D01*
X112862523Y-108500647D01*
X112914640Y-108528504D01*
X112971190Y-108545659D01*
X113030000Y-108551451D01*
X115570000Y-108551451D01*
X115628810Y-108545659D01*
X115685360Y-108528504D01*
X115737477Y-108500647D01*
X115783158Y-108463158D01*
X115793956Y-108450000D01*
X119357438Y-108450000D01*
X119381998Y-108452419D01*
X119406558Y-108450000D01*
X119480015Y-108442765D01*
X119574265Y-108414175D01*
X119661127Y-108367746D01*
X119737262Y-108305264D01*
X119752927Y-108286176D01*
X123868000Y-104171105D01*
X123868000Y-104248341D01*
X123910273Y-104460858D01*
X123918990Y-104481903D01*
X119680895Y-108720000D01*
X115793956Y-108720000D01*
X115783158Y-108706842D01*
X115737477Y-108669353D01*
X115685360Y-108641496D01*
X115628810Y-108624341D01*
X115570000Y-108618549D01*
X113030000Y-108618549D01*
X112971190Y-108624341D01*
X112914640Y-108641496D01*
X112862523Y-108669353D01*
X112816842Y-108706842D01*
X112779353Y-108752523D01*
X112751496Y-108804640D01*
X112734341Y-108861190D01*
X112728549Y-108920000D01*
X112728549Y-109520000D01*
X112734341Y-109578810D01*
X112751496Y-109635360D01*
X112779353Y-109687477D01*
X112816842Y-109733158D01*
X112862523Y-109770647D01*
X112914640Y-109798504D01*
X112971190Y-109815659D01*
X113030000Y-109821451D01*
X115570000Y-109821451D01*
X115628810Y-109815659D01*
X115685360Y-109798504D01*
X115737477Y-109770647D01*
X115783158Y-109733158D01*
X115793956Y-109720000D01*
X119863440Y-109720000D01*
X119888000Y-109722419D01*
X119912560Y-109720000D01*
X119986017Y-109712765D01*
X120080267Y-109684175D01*
X120167129Y-109637746D01*
X120243264Y-109575264D01*
X120258929Y-109556176D01*
X123243447Y-106571659D01*
X123868000Y-106571659D01*
X123868000Y-106788341D01*
X123910273Y-107000858D01*
X123993193Y-107201045D01*
X124113575Y-107381209D01*
X124266791Y-107534425D01*
X124446955Y-107654807D01*
X124647142Y-107737727D01*
X124859659Y-107780000D01*
X125076341Y-107780000D01*
X125288858Y-107737727D01*
X125489045Y-107654807D01*
X125669209Y-107534425D01*
X125822425Y-107381209D01*
X125942807Y-107201045D01*
X126025727Y-107000858D01*
X126068000Y-106788341D01*
X126068000Y-106571659D01*
X126025727Y-106359142D01*
X125942807Y-106158955D01*
X125822425Y-105978791D01*
X125669209Y-105825575D01*
X125489045Y-105705193D01*
X125288858Y-105622273D01*
X125076341Y-105580000D01*
X124859659Y-105580000D01*
X124647142Y-105622273D01*
X124446955Y-105705193D01*
X124266791Y-105825575D01*
X124113575Y-105978791D01*
X123993193Y-106158955D01*
X123910273Y-106359142D01*
X123868000Y-106571659D01*
X123243447Y-106571659D01*
X124626097Y-105189010D01*
X124647142Y-105197727D01*
X124859659Y-105240000D01*
X125076341Y-105240000D01*
X125288858Y-105197727D01*
X125489045Y-105114807D01*
X125669209Y-104994425D01*
X125822425Y-104841209D01*
X125942807Y-104661045D01*
X126025727Y-104460858D01*
X126068000Y-104248341D01*
X126068000Y-104031659D01*
X126025727Y-103819142D01*
X125942807Y-103618955D01*
X125822425Y-103438791D01*
X125683635Y-103300001D01*
X128278221Y-103300001D01*
X128246287Y-103347793D01*
X128201058Y-103456986D01*
X128178000Y-103572905D01*
X128178000Y-103691095D01*
X128201058Y-103807014D01*
X128246287Y-103916207D01*
X128278001Y-103963670D01*
X128278000Y-106978895D01*
X126068000Y-109188896D01*
X126068000Y-109111659D01*
X126025727Y-108899142D01*
X125942807Y-108698955D01*
X125822425Y-108518791D01*
X125669209Y-108365575D01*
X125489045Y-108245193D01*
X125288858Y-108162273D01*
X125076341Y-108120000D01*
X124859659Y-108120000D01*
X124647142Y-108162273D01*
X124446955Y-108245193D01*
X124266791Y-108365575D01*
X124113575Y-108518791D01*
X123993193Y-108698955D01*
X123984476Y-108720000D01*
X123976557Y-108720000D01*
X123951999Y-108717581D01*
X123927441Y-108720000D01*
X123927440Y-108720000D01*
X123853983Y-108727235D01*
X123759733Y-108755825D01*
X123672871Y-108802254D01*
X123596736Y-108864736D01*
X123581080Y-108883813D01*
X122474895Y-109990000D01*
X115793956Y-109990000D01*
X115783158Y-109976842D01*
X115737477Y-109939353D01*
X115685360Y-109911496D01*
X115628810Y-109894341D01*
X115570000Y-109888549D01*
X113030000Y-109888549D01*
X112971190Y-109894341D01*
X112914640Y-109911496D01*
X112862523Y-109939353D01*
X112816842Y-109976842D01*
X112779353Y-110022523D01*
X112751496Y-110074640D01*
X112734341Y-110131190D01*
X112728549Y-110190000D01*
X112728549Y-110790000D01*
X112734341Y-110848810D01*
X112751496Y-110905360D01*
X112779353Y-110957477D01*
X112816842Y-111003158D01*
X112862523Y-111040647D01*
X112914640Y-111068504D01*
X112971190Y-111085659D01*
X113030000Y-111091451D01*
X115570000Y-111091451D01*
X115628810Y-111085659D01*
X115685360Y-111068504D01*
X115737477Y-111040647D01*
X115783158Y-111003158D01*
X115793956Y-110990000D01*
X122657440Y-110990000D01*
X122682000Y-110992419D01*
X122706560Y-110990000D01*
X122780017Y-110982765D01*
X122874267Y-110954175D01*
X122961129Y-110907746D01*
X123037264Y-110845264D01*
X123052929Y-110826176D01*
X124051219Y-109827887D01*
X124113575Y-109921209D01*
X124166145Y-109973779D01*
X124112870Y-110002255D01*
X124036735Y-110064737D01*
X124021079Y-110083814D01*
X122844895Y-111260000D01*
X115793956Y-111260000D01*
X115783158Y-111246842D01*
X115737477Y-111209353D01*
X115685360Y-111181496D01*
X115628810Y-111164341D01*
X115570000Y-111158549D01*
X113030000Y-111158549D01*
X112971190Y-111164341D01*
X112914640Y-111181496D01*
X112862523Y-111209353D01*
X112816842Y-111246842D01*
X112779353Y-111292523D01*
X112751496Y-111344640D01*
X112734341Y-111401190D01*
X112728549Y-111460000D01*
X112728549Y-112060000D01*
X112734341Y-112118810D01*
X112751496Y-112175360D01*
X112779353Y-112227477D01*
X112816842Y-112273158D01*
X112862523Y-112310647D01*
X112914640Y-112338504D01*
X112971190Y-112355659D01*
X113030000Y-112361451D01*
X115570000Y-112361451D01*
X115628810Y-112355659D01*
X115685360Y-112338504D01*
X115737477Y-112310647D01*
X115783158Y-112273158D01*
X115793956Y-112260000D01*
X123027440Y-112260000D01*
X123052000Y-112262419D01*
X123076560Y-112260000D01*
X123150017Y-112252765D01*
X123244267Y-112224175D01*
X123331129Y-112177746D01*
X123407264Y-112115264D01*
X123422929Y-112096176D01*
X123868137Y-111650968D01*
X123868000Y-111651659D01*
X123868000Y-111868341D01*
X123910273Y-112080858D01*
X123993193Y-112281045D01*
X124113575Y-112461209D01*
X124220876Y-112568510D01*
X124176733Y-112604737D01*
X124161077Y-112623814D01*
X122984893Y-113800000D01*
X115793956Y-113800000D01*
X115783158Y-113786842D01*
X115737477Y-113749353D01*
X115685360Y-113721496D01*
X115628810Y-113704341D01*
X115570000Y-113698549D01*
X113030000Y-113698549D01*
X112971190Y-113704341D01*
X112914640Y-113721496D01*
X112862523Y-113749353D01*
X112816842Y-113786842D01*
X112779353Y-113832523D01*
X112751496Y-113884640D01*
X112734341Y-113941190D01*
X112728549Y-114000000D01*
X112728549Y-114600000D01*
X112734341Y-114658810D01*
X112751496Y-114715360D01*
X112779353Y-114767477D01*
X112816842Y-114813158D01*
X112862523Y-114850647D01*
X112914640Y-114878504D01*
X112971190Y-114895659D01*
X113030000Y-114901451D01*
X115570000Y-114901451D01*
X115628810Y-114895659D01*
X115685360Y-114878504D01*
X115737477Y-114850647D01*
X115783158Y-114813158D01*
X115793956Y-114800000D01*
X123167438Y-114800000D01*
X123191998Y-114802419D01*
X123216558Y-114800000D01*
X123290015Y-114792765D01*
X123384265Y-114764175D01*
X123471127Y-114717746D01*
X123547262Y-114655264D01*
X123562927Y-114636176D01*
X123868000Y-114331103D01*
X123868000Y-114408341D01*
X123910273Y-114620858D01*
X123993193Y-114821045D01*
X124113575Y-115001209D01*
X124266791Y-115154425D01*
X124446955Y-115274807D01*
X124647142Y-115357727D01*
X124859659Y-115400000D01*
X125076341Y-115400000D01*
X125288858Y-115357727D01*
X125489045Y-115274807D01*
X125669209Y-115154425D01*
X125822425Y-115001209D01*
X125942807Y-114821045D01*
X126025727Y-114620858D01*
X126068000Y-114408341D01*
X126068000Y-114191659D01*
X131488000Y-114191659D01*
X131488000Y-114408341D01*
X131530273Y-114620858D01*
X131613193Y-114821045D01*
X131733575Y-115001209D01*
X131886791Y-115154425D01*
X132066955Y-115274807D01*
X132267142Y-115357727D01*
X132479659Y-115400000D01*
X132696341Y-115400000D01*
X132908858Y-115357727D01*
X133109045Y-115274807D01*
X133289209Y-115154425D01*
X133442425Y-115001209D01*
X133562807Y-114821045D01*
X133645727Y-114620858D01*
X133688000Y-114408341D01*
X133688000Y-114191659D01*
X133645727Y-113979142D01*
X133562807Y-113778955D01*
X133442425Y-113598791D01*
X133289209Y-113445575D01*
X133109045Y-113325193D01*
X132908858Y-113242273D01*
X132696341Y-113200000D01*
X132479659Y-113200000D01*
X132267142Y-113242273D01*
X132066955Y-113325193D01*
X131886791Y-113445575D01*
X131733575Y-113598791D01*
X131613193Y-113778955D01*
X131530273Y-113979142D01*
X131488000Y-114191659D01*
X126068000Y-114191659D01*
X126025727Y-113979142D01*
X125942807Y-113778955D01*
X125822425Y-113598791D01*
X125683635Y-113460001D01*
X131363439Y-113460001D01*
X131387999Y-113462420D01*
X131412559Y-113460001D01*
X131486016Y-113452766D01*
X131580266Y-113424176D01*
X131667128Y-113377747D01*
X131743263Y-113315265D01*
X131758927Y-113296178D01*
X132158920Y-112896187D01*
X132158929Y-112896176D01*
X132246096Y-112809009D01*
X132267142Y-112817727D01*
X132479659Y-112860000D01*
X132696341Y-112860000D01*
X132908858Y-112817727D01*
X133109045Y-112734807D01*
X133289209Y-112614425D01*
X133442425Y-112461209D01*
X133562807Y-112281045D01*
X133645727Y-112080858D01*
X133688000Y-111868341D01*
X133688000Y-111651659D01*
X133645727Y-111439142D01*
X133562807Y-111238955D01*
X133442425Y-111058791D01*
X133289209Y-110905575D01*
X133109045Y-110785193D01*
X132908858Y-110702273D01*
X132696341Y-110660000D01*
X132479659Y-110660000D01*
X132267142Y-110702273D01*
X132066955Y-110785193D01*
X131886791Y-110905575D01*
X131733575Y-111058791D01*
X131613193Y-111238955D01*
X131530273Y-111439142D01*
X131488000Y-111651659D01*
X131488000Y-111868341D01*
X131530273Y-112080858D01*
X131538991Y-112101904D01*
X131451824Y-112189071D01*
X131451813Y-112189080D01*
X131180893Y-112460001D01*
X125823232Y-112460001D01*
X125942807Y-112281045D01*
X126025727Y-112080858D01*
X126068000Y-111868341D01*
X126068000Y-111651659D01*
X126025727Y-111439142D01*
X125942807Y-111238955D01*
X125822425Y-111058791D01*
X125669209Y-110905575D01*
X125668121Y-110904848D01*
X125736268Y-110884176D01*
X125823130Y-110837747D01*
X125899265Y-110775265D01*
X125914930Y-110756177D01*
X127559449Y-109111659D01*
X131488000Y-109111659D01*
X131488000Y-109328341D01*
X131530273Y-109540858D01*
X131613193Y-109741045D01*
X131733575Y-109921209D01*
X131886791Y-110074425D01*
X132066955Y-110194807D01*
X132267142Y-110277727D01*
X132479659Y-110320000D01*
X132696341Y-110320000D01*
X132908858Y-110277727D01*
X133109045Y-110194807D01*
X133289209Y-110074425D01*
X133442425Y-109921209D01*
X133562807Y-109741045D01*
X133645727Y-109540858D01*
X133688000Y-109328341D01*
X133688000Y-109111659D01*
X133645727Y-108899142D01*
X133562807Y-108698955D01*
X133442425Y-108518791D01*
X133289209Y-108365575D01*
X133109045Y-108245193D01*
X132908858Y-108162273D01*
X132696341Y-108120000D01*
X132479659Y-108120000D01*
X132267142Y-108162273D01*
X132066955Y-108245193D01*
X131886791Y-108365575D01*
X131733575Y-108518791D01*
X131613193Y-108698955D01*
X131530273Y-108899142D01*
X131488000Y-109111659D01*
X127559449Y-109111659D01*
X129114187Y-107556922D01*
X129133264Y-107541266D01*
X129195746Y-107465131D01*
X129242175Y-107378269D01*
X129270765Y-107284019D01*
X129278000Y-107210562D01*
X129278000Y-107210553D01*
X129280418Y-107186003D01*
X129278000Y-107161453D01*
X129278000Y-106571659D01*
X131488000Y-106571659D01*
X131488000Y-106788341D01*
X131530273Y-107000858D01*
X131613193Y-107201045D01*
X131733575Y-107381209D01*
X131886791Y-107534425D01*
X132066955Y-107654807D01*
X132267142Y-107737727D01*
X132479659Y-107780000D01*
X132696341Y-107780000D01*
X132908858Y-107737727D01*
X133109045Y-107654807D01*
X133289209Y-107534425D01*
X133442425Y-107381209D01*
X133562807Y-107201045D01*
X133645727Y-107000858D01*
X133688000Y-106788341D01*
X133688000Y-106571659D01*
X133645727Y-106359142D01*
X133562807Y-106158955D01*
X133442425Y-105978791D01*
X133289209Y-105825575D01*
X133109045Y-105705193D01*
X132908858Y-105622273D01*
X132696341Y-105580000D01*
X132479659Y-105580000D01*
X132267142Y-105622273D01*
X132066955Y-105705193D01*
X131886791Y-105825575D01*
X131733575Y-105978791D01*
X131613193Y-106158955D01*
X131530273Y-106359142D01*
X131488000Y-106571659D01*
X129278000Y-106571659D01*
X129278000Y-104031659D01*
X131488000Y-104031659D01*
X131488000Y-104248341D01*
X131530273Y-104460858D01*
X131613193Y-104661045D01*
X131733575Y-104841209D01*
X131886791Y-104994425D01*
X132066955Y-105114807D01*
X132267142Y-105197727D01*
X132479659Y-105240000D01*
X132696341Y-105240000D01*
X132908858Y-105197727D01*
X133109045Y-105114807D01*
X133289209Y-104994425D01*
X133442425Y-104841209D01*
X133562807Y-104661045D01*
X133645727Y-104460858D01*
X133688000Y-104248341D01*
X133688000Y-104031659D01*
X133645727Y-103819142D01*
X133562807Y-103618955D01*
X133442425Y-103438791D01*
X133289209Y-103285575D01*
X133109045Y-103165193D01*
X132908858Y-103082273D01*
X132696341Y-103040000D01*
X132479659Y-103040000D01*
X132267142Y-103082273D01*
X132066955Y-103165193D01*
X131886791Y-103285575D01*
X131733575Y-103438791D01*
X131613193Y-103618955D01*
X131530273Y-103819142D01*
X131488000Y-104031659D01*
X129278000Y-104031659D01*
X129278000Y-103963669D01*
X129309713Y-103916207D01*
X129354942Y-103807014D01*
X129378000Y-103691095D01*
X129378000Y-103572905D01*
X129354942Y-103456986D01*
X129309713Y-103347793D01*
X129244050Y-103249522D01*
X129173895Y-103179367D01*
X129203263Y-103155265D01*
X129218928Y-103136177D01*
X130863446Y-101491659D01*
X131488000Y-101491659D01*
X131488000Y-101708341D01*
X131530273Y-101920858D01*
X131613193Y-102121045D01*
X131733575Y-102301209D01*
X131886791Y-102454425D01*
X132066955Y-102574807D01*
X132267142Y-102657727D01*
X132479659Y-102700000D01*
X132696341Y-102700000D01*
X132908858Y-102657727D01*
X133109045Y-102574807D01*
X133289209Y-102454425D01*
X133442425Y-102301209D01*
X133562807Y-102121045D01*
X133645727Y-101920858D01*
X133688000Y-101708341D01*
X133688000Y-101491659D01*
X133645727Y-101279142D01*
X133562807Y-101078955D01*
X133463545Y-100930399D01*
X140440482Y-100930399D01*
X140442901Y-100954959D01*
X140442902Y-107563731D01*
X140440482Y-107588301D01*
X140450136Y-107686318D01*
X140469155Y-107749013D01*
X140478727Y-107780568D01*
X140525156Y-107867430D01*
X140587638Y-107943565D01*
X140606720Y-107959225D01*
X140754821Y-108107327D01*
X140765958Y-108163314D01*
X140811187Y-108272507D01*
X140876850Y-108370778D01*
X140960422Y-108454350D01*
X141058693Y-108520013D01*
X141167886Y-108565242D01*
X141283805Y-108588300D01*
X141401995Y-108588300D01*
X141517914Y-108565242D01*
X141596100Y-108532856D01*
X141596101Y-115243030D01*
X141564387Y-115290493D01*
X141519158Y-115399686D01*
X141496100Y-115515605D01*
X141496100Y-115633795D01*
X141519158Y-115749714D01*
X141564387Y-115858907D01*
X141630050Y-115957178D01*
X141713622Y-116040750D01*
X141811893Y-116106413D01*
X141921086Y-116151642D01*
X142037005Y-116174700D01*
X142155195Y-116174700D01*
X142271114Y-116151642D01*
X142380307Y-116106413D01*
X142478578Y-116040750D01*
X142562150Y-115957178D01*
X142627813Y-115858907D01*
X142673042Y-115749714D01*
X142696100Y-115633795D01*
X142696100Y-115515605D01*
X142673042Y-115399686D01*
X142627813Y-115290493D01*
X142596100Y-115243031D01*
X142596100Y-105350905D01*
X153324000Y-105350905D01*
X153324000Y-105469095D01*
X153347058Y-105585014D01*
X153392287Y-105694207D01*
X153424000Y-105741669D01*
X153424001Y-107618330D01*
X153392287Y-107665793D01*
X153347058Y-107774986D01*
X153324000Y-107890905D01*
X153324000Y-108009095D01*
X153347058Y-108125014D01*
X153392287Y-108234207D01*
X153457950Y-108332478D01*
X153541522Y-108416050D01*
X153639793Y-108481713D01*
X153748986Y-108526942D01*
X153864905Y-108550000D01*
X153983095Y-108550000D01*
X154099014Y-108526942D01*
X154208207Y-108481713D01*
X154306478Y-108416050D01*
X154390050Y-108332478D01*
X154455713Y-108234207D01*
X154500942Y-108125014D01*
X154524000Y-108009095D01*
X154524000Y-107890905D01*
X154500942Y-107774986D01*
X154455713Y-107665793D01*
X154424000Y-107618331D01*
X154424000Y-105741669D01*
X154455713Y-105694207D01*
X154500942Y-105585014D01*
X154524000Y-105469095D01*
X154524000Y-105350905D01*
X154500942Y-105234986D01*
X154455713Y-105125793D01*
X154390050Y-105027522D01*
X154306478Y-104943950D01*
X154208207Y-104878287D01*
X154099014Y-104833058D01*
X153983095Y-104810000D01*
X153864905Y-104810000D01*
X153748986Y-104833058D01*
X153639793Y-104878287D01*
X153541522Y-104943950D01*
X153457950Y-105027522D01*
X153392287Y-105125793D01*
X153347058Y-105234986D01*
X153324000Y-105350905D01*
X142596100Y-105350905D01*
X142596100Y-104651869D01*
X142627813Y-104604407D01*
X142673042Y-104495214D01*
X142696100Y-104379295D01*
X142696100Y-104261105D01*
X142673042Y-104145186D01*
X142627813Y-104035993D01*
X142562150Y-103937722D01*
X142478578Y-103854150D01*
X142380307Y-103788487D01*
X142271114Y-103743258D01*
X142155195Y-103720200D01*
X142037005Y-103720200D01*
X141921086Y-103743258D01*
X141811893Y-103788487D01*
X141713622Y-103854150D01*
X141630050Y-103937722D01*
X141564387Y-104035993D01*
X141519158Y-104145186D01*
X141496100Y-104261105D01*
X141496100Y-104379295D01*
X141519158Y-104495214D01*
X141564387Y-104604407D01*
X141596100Y-104651869D01*
X141596100Y-107443744D01*
X141517914Y-107411358D01*
X141461927Y-107400221D01*
X141442901Y-107381196D01*
X141442901Y-101137504D01*
X141461927Y-101118479D01*
X141517914Y-101107342D01*
X141627107Y-101062113D01*
X141725378Y-100996450D01*
X141808950Y-100912878D01*
X141874613Y-100814607D01*
X141919842Y-100705414D01*
X141942900Y-100589495D01*
X141942900Y-100471305D01*
X141919842Y-100355386D01*
X141874613Y-100246193D01*
X141808950Y-100147922D01*
X141725378Y-100064350D01*
X141627107Y-99998687D01*
X141517914Y-99953458D01*
X141401995Y-99930400D01*
X141283805Y-99930400D01*
X141167886Y-99953458D01*
X141058693Y-99998687D01*
X140960422Y-100064350D01*
X140876850Y-100147922D01*
X140811187Y-100246193D01*
X140765958Y-100355386D01*
X140754821Y-100411373D01*
X140606725Y-100559470D01*
X140587637Y-100575135D01*
X140525155Y-100651270D01*
X140478726Y-100738133D01*
X140458809Y-100803792D01*
X140450136Y-100832382D01*
X140440482Y-100930399D01*
X133463545Y-100930399D01*
X133442425Y-100898791D01*
X133289209Y-100745575D01*
X133109045Y-100625193D01*
X132908858Y-100542273D01*
X132696341Y-100500000D01*
X132479659Y-100500000D01*
X132267142Y-100542273D01*
X132066955Y-100625193D01*
X131886791Y-100745575D01*
X131733575Y-100898791D01*
X131613193Y-101078955D01*
X131530273Y-101279142D01*
X131488000Y-101491659D01*
X130863446Y-101491659D01*
X132246096Y-100109010D01*
X132267142Y-100117727D01*
X132479659Y-100160000D01*
X132696341Y-100160000D01*
X132908858Y-100117727D01*
X133109045Y-100034807D01*
X133289209Y-99914425D01*
X133442425Y-99761209D01*
X133562807Y-99581045D01*
X133645727Y-99380858D01*
X133688000Y-99168341D01*
X133688000Y-98951659D01*
X133645727Y-98739142D01*
X133562807Y-98538955D01*
X133442425Y-98358791D01*
X133289209Y-98205575D01*
X133109045Y-98085193D01*
X132908858Y-98002273D01*
X132696341Y-97960000D01*
X132479659Y-97960000D01*
X132267142Y-98002273D01*
X132066955Y-98085193D01*
X131886791Y-98205575D01*
X131733575Y-98358791D01*
X131613193Y-98538955D01*
X131530273Y-98739142D01*
X131488000Y-98951659D01*
X131488000Y-99168341D01*
X131530273Y-99380858D01*
X131538990Y-99401904D01*
X128640894Y-102300001D01*
X125823232Y-102300001D01*
X125942807Y-102121045D01*
X126025727Y-101920858D01*
X126068000Y-101708341D01*
X126068000Y-101491659D01*
X126025727Y-101279142D01*
X125942807Y-101078955D01*
X125822425Y-100898791D01*
X125669209Y-100745575D01*
X125489045Y-100625193D01*
X125288858Y-100542273D01*
X125076341Y-100500000D01*
X124859659Y-100500000D01*
X124647142Y-100542273D01*
X124446955Y-100625193D01*
X124266791Y-100745575D01*
X124113575Y-100898791D01*
X123993193Y-101078955D01*
X123984476Y-101100000D01*
X123861190Y-101100000D01*
X123836630Y-101097581D01*
X123812070Y-101100000D01*
X123738613Y-101107235D01*
X123644363Y-101135825D01*
X123557501Y-101182254D01*
X123531578Y-101203528D01*
X124626097Y-100109010D01*
X124647142Y-100117727D01*
X124859659Y-100160000D01*
X125076341Y-100160000D01*
X125288858Y-100117727D01*
X125489045Y-100034807D01*
X125669209Y-99914425D01*
X125822425Y-99761209D01*
X125942807Y-99581045D01*
X126025727Y-99380858D01*
X126068000Y-99168341D01*
X126068000Y-98951659D01*
X126025727Y-98739142D01*
X125942807Y-98538955D01*
X125822425Y-98358791D01*
X125669209Y-98205575D01*
X125489045Y-98085193D01*
X125288858Y-98002273D01*
X125076341Y-97960000D01*
X124859659Y-97960000D01*
X124647142Y-98002273D01*
X124446955Y-98085193D01*
X124266791Y-98205575D01*
X124113575Y-98358791D01*
X123993193Y-98538955D01*
X123910273Y-98739142D01*
X123868000Y-98951659D01*
X123868000Y-99168341D01*
X123910273Y-99380858D01*
X123918990Y-99401903D01*
X119172895Y-104148000D01*
X118441669Y-104148000D01*
X118394207Y-104116287D01*
X118285014Y-104071058D01*
X118169095Y-104048000D01*
X118050905Y-104048000D01*
X117934986Y-104071058D01*
X117825793Y-104116287D01*
X117727522Y-104181950D01*
X117643950Y-104265522D01*
X117578287Y-104363793D01*
X117533058Y-104472986D01*
X117510000Y-104588905D01*
X117510000Y-104707095D01*
X117533058Y-104823014D01*
X117569089Y-104910000D01*
X115793956Y-104910000D01*
X115783158Y-104896842D01*
X115737477Y-104859353D01*
X115685360Y-104831496D01*
X115628810Y-104814341D01*
X115570000Y-104808549D01*
X113030000Y-104808549D01*
X112971190Y-104814341D01*
X112914640Y-104831496D01*
X112862523Y-104859353D01*
X112816842Y-104896842D01*
X112779353Y-104942523D01*
X112751496Y-104994640D01*
X112734341Y-105051190D01*
X112728549Y-105110000D01*
X112593000Y-105110000D01*
X112593000Y-103840000D01*
X112728549Y-103840000D01*
X112728549Y-104440000D01*
X112734341Y-104498810D01*
X112751496Y-104555360D01*
X112779353Y-104607477D01*
X112816842Y-104653158D01*
X112862523Y-104690647D01*
X112914640Y-104718504D01*
X112971190Y-104735659D01*
X113030000Y-104741451D01*
X115570000Y-104741451D01*
X115628810Y-104735659D01*
X115685360Y-104718504D01*
X115737477Y-104690647D01*
X115783158Y-104653158D01*
X115820647Y-104607477D01*
X115848504Y-104555360D01*
X115865659Y-104498810D01*
X115871451Y-104440000D01*
X115871451Y-103840000D01*
X115865659Y-103781190D01*
X115848504Y-103724640D01*
X115820647Y-103672523D01*
X115783158Y-103626842D01*
X115737477Y-103589353D01*
X115685360Y-103561496D01*
X115628810Y-103544341D01*
X115570000Y-103538549D01*
X113030000Y-103538549D01*
X112971190Y-103544341D01*
X112914640Y-103561496D01*
X112862523Y-103589353D01*
X112816842Y-103626842D01*
X112779353Y-103672523D01*
X112751496Y-103724640D01*
X112734341Y-103781190D01*
X112728549Y-103840000D01*
X112593000Y-103840000D01*
X112593000Y-102570000D01*
X112728549Y-102570000D01*
X112728549Y-103170000D01*
X112734341Y-103228810D01*
X112751496Y-103285360D01*
X112779353Y-103337477D01*
X112816842Y-103383158D01*
X112862523Y-103420647D01*
X112914640Y-103448504D01*
X112971190Y-103465659D01*
X113030000Y-103471451D01*
X115570000Y-103471451D01*
X115628810Y-103465659D01*
X115685360Y-103448504D01*
X115737477Y-103420647D01*
X115783158Y-103383158D01*
X115820647Y-103337477D01*
X115848504Y-103285360D01*
X115865659Y-103228810D01*
X115871451Y-103170000D01*
X115871451Y-102570000D01*
X115865659Y-102511190D01*
X115848504Y-102454640D01*
X115820647Y-102402523D01*
X115783158Y-102356842D01*
X115737477Y-102319353D01*
X115685360Y-102291496D01*
X115628810Y-102274341D01*
X115570000Y-102268549D01*
X113030000Y-102268549D01*
X112971190Y-102274341D01*
X112914640Y-102291496D01*
X112862523Y-102319353D01*
X112816842Y-102356842D01*
X112779353Y-102402523D01*
X112751496Y-102454640D01*
X112734341Y-102511190D01*
X112728549Y-102570000D01*
X112593000Y-102570000D01*
X112593000Y-101300000D01*
X112728549Y-101300000D01*
X112728549Y-101900000D01*
X112734341Y-101958810D01*
X112751496Y-102015360D01*
X112779353Y-102067477D01*
X112816842Y-102113158D01*
X112862523Y-102150647D01*
X112914640Y-102178504D01*
X112971190Y-102195659D01*
X113030000Y-102201451D01*
X115570000Y-102201451D01*
X115628810Y-102195659D01*
X115685360Y-102178504D01*
X115737477Y-102150647D01*
X115783158Y-102113158D01*
X115820647Y-102067477D01*
X115848504Y-102015360D01*
X115865659Y-101958810D01*
X115871451Y-101900000D01*
X115871451Y-101300000D01*
X115865659Y-101241190D01*
X115848504Y-101184640D01*
X115820647Y-101132523D01*
X115783158Y-101086842D01*
X115737477Y-101049353D01*
X115685360Y-101021496D01*
X115628810Y-101004341D01*
X115570000Y-100998549D01*
X113030000Y-100998549D01*
X112971190Y-101004341D01*
X112914640Y-101021496D01*
X112862523Y-101049353D01*
X112816842Y-101086842D01*
X112779353Y-101132523D01*
X112751496Y-101184640D01*
X112734341Y-101241190D01*
X112728549Y-101300000D01*
X112593000Y-101300000D01*
X112593000Y-98760000D01*
X112728549Y-98760000D01*
X112728549Y-99360000D01*
X112734341Y-99418810D01*
X112751496Y-99475360D01*
X112779353Y-99527477D01*
X112816842Y-99573158D01*
X112862523Y-99610647D01*
X112914640Y-99638504D01*
X112971190Y-99655659D01*
X113030000Y-99661451D01*
X113800001Y-99661451D01*
X113800000Y-99728549D01*
X113030000Y-99728549D01*
X112971190Y-99734341D01*
X112914640Y-99751496D01*
X112862523Y-99779353D01*
X112816842Y-99816842D01*
X112779353Y-99862523D01*
X112751496Y-99914640D01*
X112734341Y-99971190D01*
X112728549Y-100030000D01*
X112728549Y-100630000D01*
X112734341Y-100688810D01*
X112751496Y-100745360D01*
X112779353Y-100797477D01*
X112816842Y-100843158D01*
X112862523Y-100880647D01*
X112914640Y-100908504D01*
X112971190Y-100925659D01*
X113030000Y-100931451D01*
X115570000Y-100931451D01*
X115628810Y-100925659D01*
X115685360Y-100908504D01*
X115737477Y-100880647D01*
X115783158Y-100843158D01*
X115820647Y-100797477D01*
X115848504Y-100745360D01*
X115865659Y-100688810D01*
X115871451Y-100630000D01*
X115871451Y-100030000D01*
X115865659Y-99971190D01*
X115848504Y-99914640D01*
X115820647Y-99862523D01*
X115783158Y-99816842D01*
X115737477Y-99779353D01*
X115685360Y-99751496D01*
X115628810Y-99734341D01*
X115570000Y-99728549D01*
X114800000Y-99728549D01*
X114800000Y-99661451D01*
X115570000Y-99661451D01*
X115628810Y-99655659D01*
X115685360Y-99638504D01*
X115737477Y-99610647D01*
X115783158Y-99573158D01*
X115793956Y-99560000D01*
X120083438Y-99560000D01*
X120107998Y-99562419D01*
X120132558Y-99560000D01*
X120206015Y-99552765D01*
X120300265Y-99524175D01*
X120387127Y-99477746D01*
X120463262Y-99415264D01*
X120478927Y-99396176D01*
X122555104Y-97320000D01*
X123816306Y-97320000D01*
X123823064Y-97388612D01*
X123843077Y-97454587D01*
X123875577Y-97515391D01*
X123919315Y-97568685D01*
X123972609Y-97612423D01*
X124033413Y-97644923D01*
X124099388Y-97664936D01*
X124168000Y-97671694D01*
X124855500Y-97670000D01*
X124943000Y-97582500D01*
X124943000Y-96545000D01*
X124993000Y-96545000D01*
X124993000Y-97582500D01*
X125080500Y-97670000D01*
X125768000Y-97671694D01*
X125836612Y-97664936D01*
X125902587Y-97644923D01*
X125963391Y-97612423D01*
X126016685Y-97568685D01*
X126060423Y-97515391D01*
X126092923Y-97454587D01*
X126112936Y-97388612D01*
X126119694Y-97320000D01*
X126118000Y-96632500D01*
X126030500Y-96545000D01*
X124993000Y-96545000D01*
X124943000Y-96545000D01*
X123905500Y-96545000D01*
X123818000Y-96632500D01*
X123816306Y-97320000D01*
X122555104Y-97320000D01*
X123817139Y-96057966D01*
X123818000Y-96407500D01*
X123905500Y-96495000D01*
X124943000Y-96495000D01*
X124943000Y-96475000D01*
X124993000Y-96475000D01*
X124993000Y-96495000D01*
X126030500Y-96495000D01*
X126118000Y-96407500D01*
X126119541Y-95782100D01*
X131770266Y-95782100D01*
X131733575Y-95818791D01*
X131613193Y-95998955D01*
X131530273Y-96199142D01*
X131488000Y-96411659D01*
X131488000Y-96628341D01*
X131530273Y-96840858D01*
X131613193Y-97041045D01*
X131733575Y-97221209D01*
X131886791Y-97374425D01*
X132066955Y-97494807D01*
X132267142Y-97577727D01*
X132479659Y-97620000D01*
X132696341Y-97620000D01*
X132908858Y-97577727D01*
X133109045Y-97494807D01*
X133289209Y-97374425D01*
X133442425Y-97221209D01*
X133562807Y-97041045D01*
X133645727Y-96840858D01*
X133688000Y-96628341D01*
X133688000Y-96411659D01*
X133645727Y-96199142D01*
X133562807Y-95998955D01*
X133442425Y-95818791D01*
X133405734Y-95782100D01*
X133834931Y-95782100D01*
X133882393Y-95813813D01*
X133991586Y-95859042D01*
X134107505Y-95882100D01*
X134225695Y-95882100D01*
X134341614Y-95859042D01*
X134450807Y-95813813D01*
X134549078Y-95748150D01*
X134632650Y-95664578D01*
X134698313Y-95566307D01*
X134743542Y-95457114D01*
X134766600Y-95341195D01*
X134766600Y-95223005D01*
X134743542Y-95107086D01*
X134698313Y-94997893D01*
X134632650Y-94899622D01*
X134549078Y-94816050D01*
X134450807Y-94750387D01*
X134341614Y-94705158D01*
X134225695Y-94682100D01*
X134107505Y-94682100D01*
X133991586Y-94705158D01*
X133882393Y-94750387D01*
X133834931Y-94782100D01*
X123910447Y-94782100D01*
X123885897Y-94779682D01*
X123861347Y-94782100D01*
X123861338Y-94782100D01*
X123787881Y-94789335D01*
X123693631Y-94817925D01*
X123606769Y-94864354D01*
X123530634Y-94926836D01*
X123514978Y-94945913D01*
X119900893Y-98560000D01*
X115793956Y-98560000D01*
X115783158Y-98546842D01*
X115737477Y-98509353D01*
X115685360Y-98481496D01*
X115628810Y-98464341D01*
X115570000Y-98458549D01*
X113030000Y-98458549D01*
X112971190Y-98464341D01*
X112914640Y-98481496D01*
X112862523Y-98509353D01*
X112816842Y-98546842D01*
X112779353Y-98592523D01*
X112751496Y-98644640D01*
X112734341Y-98701190D01*
X112728549Y-98760000D01*
X112593000Y-98760000D01*
X112593000Y-97490000D01*
X112728549Y-97490000D01*
X112728549Y-98090000D01*
X112734341Y-98148810D01*
X112751496Y-98205360D01*
X112779353Y-98257477D01*
X112816842Y-98303158D01*
X112862523Y-98340647D01*
X112914640Y-98368504D01*
X112971190Y-98385659D01*
X113030000Y-98391451D01*
X115570000Y-98391451D01*
X115628810Y-98385659D01*
X115685360Y-98368504D01*
X115737477Y-98340647D01*
X115783158Y-98303158D01*
X115820647Y-98257477D01*
X115848504Y-98205360D01*
X115865659Y-98148810D01*
X115871451Y-98090000D01*
X115871451Y-97490000D01*
X115865659Y-97431190D01*
X115848504Y-97374640D01*
X115820647Y-97322523D01*
X115783158Y-97276842D01*
X115737477Y-97239353D01*
X115685360Y-97211496D01*
X115628810Y-97194341D01*
X115570000Y-97188549D01*
X113030000Y-97188549D01*
X112971190Y-97194341D01*
X112914640Y-97211496D01*
X112862523Y-97239353D01*
X112816842Y-97276842D01*
X112779353Y-97322523D01*
X112751496Y-97374640D01*
X112734341Y-97431190D01*
X112728549Y-97490000D01*
X112593000Y-97490000D01*
X112593000Y-89225000D01*
X158679000Y-89225000D01*
X158679001Y-129469000D01*
M02*
