G04 #@! TF.GenerationSoftware,KiCad,Pcbnew,(5.1.5)-3*
G04 #@! TF.CreationDate,2020-01-25T15:57:13+03:00*
G04 #@! TF.ProjectId,CASIO VX4 YM2413 Soundcard v1.1,43415349-4f20-4565-9834-20594d323431,rev?*
G04 #@! TF.SameCoordinates,Original*
G04 #@! TF.FileFunction,Legend,Top*
G04 #@! TF.FilePolarity,Positive*
%FSLAX46Y46*%
G04 Gerber Fmt 4.6, Leading zero omitted, Abs format (unit mm)*
G04 Created by KiCad (PCBNEW (5.1.5)-3) date 2020-01-25 15:57:13*
%MOMM*%
%LPD*%
G04 APERTURE LIST*
%ADD10C,0.150000*%
%ADD11C,0.250000*%
%ADD12C,0.300000*%
%ADD13C,0.010000*%
%ADD14C,0.120000*%
%ADD15C,0.100000*%
%ADD16C,0.152400*%
G04 APERTURE END LIST*
D10*
X119507142Y-124722380D02*
X119507142Y-123722380D01*
X119745238Y-123722380D01*
X119888095Y-123770000D01*
X119983333Y-123865238D01*
X120030952Y-123960476D01*
X120078571Y-124150952D01*
X120078571Y-124293809D01*
X120030952Y-124484285D01*
X119983333Y-124579523D01*
X119888095Y-124674761D01*
X119745238Y-124722380D01*
X119507142Y-124722380D01*
X120364285Y-123722380D02*
X120935714Y-123722380D01*
X120650000Y-124722380D02*
X120650000Y-123722380D01*
X121840476Y-124722380D02*
X121507142Y-124246190D01*
X121269047Y-124722380D02*
X121269047Y-123722380D01*
X121650000Y-123722380D01*
X121745238Y-123770000D01*
X121792857Y-123817619D01*
X121840476Y-123912857D01*
X121840476Y-124055714D01*
X121792857Y-124150952D01*
X121745238Y-124198571D01*
X121650000Y-124246190D01*
X121269047Y-124246190D01*
X119650000Y-126372380D02*
X119650000Y-125372380D01*
X120697619Y-126277142D02*
X120650000Y-126324761D01*
X120507142Y-126372380D01*
X120411904Y-126372380D01*
X120269047Y-126324761D01*
X120173809Y-126229523D01*
X120126190Y-126134285D01*
X120078571Y-125943809D01*
X120078571Y-125800952D01*
X120126190Y-125610476D01*
X120173809Y-125515238D01*
X120269047Y-125420000D01*
X120411904Y-125372380D01*
X120507142Y-125372380D01*
X120650000Y-125420000D01*
X120697619Y-125467619D01*
X121078571Y-125705714D02*
X121792857Y-125705714D01*
X121364285Y-125277142D02*
X121078571Y-126562857D01*
X121697619Y-126134285D02*
X120983333Y-126134285D01*
X121411904Y-126562857D02*
X121697619Y-125277142D01*
X113768333Y-124198571D02*
X113911190Y-124246190D01*
X113958809Y-124293809D01*
X114006428Y-124389047D01*
X114006428Y-124531904D01*
X113958809Y-124627142D01*
X113911190Y-124674761D01*
X113815952Y-124722380D01*
X113435000Y-124722380D01*
X113435000Y-123722380D01*
X113768333Y-123722380D01*
X113863571Y-123770000D01*
X113911190Y-123817619D01*
X113958809Y-123912857D01*
X113958809Y-124008095D01*
X113911190Y-124103333D01*
X113863571Y-124150952D01*
X113768333Y-124198571D01*
X113435000Y-124198571D01*
X114863571Y-124055714D02*
X114863571Y-124722380D01*
X114435000Y-124055714D02*
X114435000Y-124579523D01*
X114482619Y-124674761D01*
X114577857Y-124722380D01*
X114720714Y-124722380D01*
X114815952Y-124674761D01*
X114863571Y-124627142D01*
X115292142Y-124674761D02*
X115387380Y-124722380D01*
X115577857Y-124722380D01*
X115673095Y-124674761D01*
X115720714Y-124579523D01*
X115720714Y-124531904D01*
X115673095Y-124436666D01*
X115577857Y-124389047D01*
X115435000Y-124389047D01*
X115339761Y-124341428D01*
X115292142Y-124246190D01*
X115292142Y-124198571D01*
X115339761Y-124103333D01*
X115435000Y-124055714D01*
X115577857Y-124055714D01*
X115673095Y-124103333D01*
X116054047Y-124055714D02*
X116292142Y-124722380D01*
X116530238Y-124055714D02*
X116292142Y-124722380D01*
X116196904Y-124960476D01*
X116149285Y-125008095D01*
X116054047Y-125055714D01*
X113935000Y-126372380D02*
X113935000Y-125372380D01*
X114982619Y-126277142D02*
X114935000Y-126324761D01*
X114792142Y-126372380D01*
X114696904Y-126372380D01*
X114554047Y-126324761D01*
X114458809Y-126229523D01*
X114411190Y-126134285D01*
X114363571Y-125943809D01*
X114363571Y-125800952D01*
X114411190Y-125610476D01*
X114458809Y-125515238D01*
X114554047Y-125420000D01*
X114696904Y-125372380D01*
X114792142Y-125372380D01*
X114935000Y-125420000D01*
X114982619Y-125467619D01*
X115363571Y-125705714D02*
X116077857Y-125705714D01*
X115649285Y-125277142D02*
X115363571Y-126562857D01*
X115982619Y-126134285D02*
X115268333Y-126134285D01*
X115696904Y-126562857D02*
X115982619Y-125277142D01*
D11*
X135961666Y-129357380D02*
X135961666Y-128357380D01*
X135961666Y-128833571D02*
X136533095Y-128833571D01*
X136533095Y-129357380D02*
X136533095Y-128357380D01*
X136914047Y-128357380D02*
X137152142Y-129357380D01*
X137342619Y-128643095D01*
X137533095Y-129357380D01*
X137771190Y-128357380D01*
X138723571Y-129357380D02*
X138390238Y-128881190D01*
X138152142Y-129357380D02*
X138152142Y-128357380D01*
X138533095Y-128357380D01*
X138628333Y-128405000D01*
X138675952Y-128452619D01*
X138723571Y-128547857D01*
X138723571Y-128690714D01*
X138675952Y-128785952D01*
X138628333Y-128833571D01*
X138533095Y-128881190D01*
X138152142Y-128881190D01*
X139342619Y-128357380D02*
X139437857Y-128357380D01*
X139533095Y-128405000D01*
X139580714Y-128452619D01*
X139628333Y-128547857D01*
X139675952Y-128738333D01*
X139675952Y-128976428D01*
X139628333Y-129166904D01*
X139580714Y-129262142D01*
X139533095Y-129309761D01*
X139437857Y-129357380D01*
X139342619Y-129357380D01*
X139247380Y-129309761D01*
X139199761Y-129262142D01*
X139152142Y-129166904D01*
X139104523Y-128976428D01*
X139104523Y-128738333D01*
X139152142Y-128547857D01*
X139199761Y-128452619D01*
X139247380Y-128405000D01*
X139342619Y-128357380D01*
D10*
X141034523Y-128690714D02*
X140272619Y-128976428D01*
X141034523Y-129262142D01*
X141891666Y-129309761D02*
X141796428Y-129357380D01*
X141605952Y-129357380D01*
X141510714Y-129309761D01*
X141463095Y-129214523D01*
X141463095Y-128833571D01*
X141510714Y-128738333D01*
X141605952Y-128690714D01*
X141796428Y-128690714D01*
X141891666Y-128738333D01*
X141939285Y-128833571D01*
X141939285Y-128928809D01*
X141463095Y-129024047D01*
X142272619Y-128690714D02*
X142510714Y-129357380D01*
X142748809Y-128690714D01*
X143129761Y-129357380D02*
X143129761Y-128690714D01*
X143129761Y-128357380D02*
X143082142Y-128405000D01*
X143129761Y-128452619D01*
X143177380Y-128405000D01*
X143129761Y-128357380D01*
X143129761Y-128452619D01*
X143748809Y-129357380D02*
X143653571Y-129309761D01*
X143605952Y-129214523D01*
X143605952Y-128357380D01*
X144129761Y-129357380D02*
X144129761Y-128357380D01*
X144558333Y-129357380D02*
X144558333Y-128833571D01*
X144510714Y-128738333D01*
X144415476Y-128690714D01*
X144272619Y-128690714D01*
X144177380Y-128738333D01*
X144129761Y-128785952D01*
X145463095Y-129357380D02*
X145463095Y-128833571D01*
X145415476Y-128738333D01*
X145320238Y-128690714D01*
X145129761Y-128690714D01*
X145034523Y-128738333D01*
X145463095Y-129309761D02*
X145367857Y-129357380D01*
X145129761Y-129357380D01*
X145034523Y-129309761D01*
X144986904Y-129214523D01*
X144986904Y-129119285D01*
X145034523Y-129024047D01*
X145129761Y-128976428D01*
X145367857Y-128976428D01*
X145463095Y-128928809D01*
X145939285Y-129357380D02*
X145939285Y-128690714D01*
X145939285Y-128881190D02*
X145986904Y-128785952D01*
X146034523Y-128738333D01*
X146129761Y-128690714D01*
X146225000Y-128690714D01*
X146986904Y-129357380D02*
X146986904Y-128357380D01*
X146986904Y-129309761D02*
X146891666Y-129357380D01*
X146701190Y-129357380D01*
X146605952Y-129309761D01*
X146558333Y-129262142D01*
X146510714Y-129166904D01*
X146510714Y-128881190D01*
X146558333Y-128785952D01*
X146605952Y-128738333D01*
X146701190Y-128690714D01*
X146891666Y-128690714D01*
X146986904Y-128738333D01*
X147367857Y-128690714D02*
X147558333Y-129357380D01*
X147748809Y-128881190D01*
X147939285Y-129357380D01*
X148129761Y-128690714D01*
X148939285Y-129357380D02*
X148939285Y-128833571D01*
X148891666Y-128738333D01*
X148796428Y-128690714D01*
X148605952Y-128690714D01*
X148510714Y-128738333D01*
X148939285Y-129309761D02*
X148844047Y-129357380D01*
X148605952Y-129357380D01*
X148510714Y-129309761D01*
X148463095Y-129214523D01*
X148463095Y-129119285D01*
X148510714Y-129024047D01*
X148605952Y-128976428D01*
X148844047Y-128976428D01*
X148939285Y-128928809D01*
X149415476Y-129357380D02*
X149415476Y-128690714D01*
X149415476Y-128881190D02*
X149463095Y-128785952D01*
X149510714Y-128738333D01*
X149605952Y-128690714D01*
X149701190Y-128690714D01*
X150415476Y-129309761D02*
X150320238Y-129357380D01*
X150129761Y-129357380D01*
X150034523Y-129309761D01*
X149986904Y-129214523D01*
X149986904Y-128833571D01*
X150034523Y-128738333D01*
X150129761Y-128690714D01*
X150320238Y-128690714D01*
X150415476Y-128738333D01*
X150463095Y-128833571D01*
X150463095Y-128928809D01*
X149986904Y-129024047D01*
X151510714Y-128881190D02*
X151463095Y-128833571D01*
X151367857Y-128785952D01*
X151272619Y-128785952D01*
X151177380Y-128833571D01*
X151129761Y-128881190D01*
X151082142Y-128976428D01*
X151082142Y-129071666D01*
X151129761Y-129166904D01*
X151177380Y-129214523D01*
X151272619Y-129262142D01*
X151367857Y-129262142D01*
X151463095Y-129214523D01*
X151510714Y-129166904D01*
X151510714Y-128785952D02*
X151510714Y-129166904D01*
X151558333Y-129214523D01*
X151605952Y-129214523D01*
X151701190Y-129166904D01*
X151748809Y-129071666D01*
X151748809Y-128833571D01*
X151653571Y-128690714D01*
X151510714Y-128595476D01*
X151320238Y-128547857D01*
X151129761Y-128595476D01*
X150986904Y-128690714D01*
X150891666Y-128833571D01*
X150844047Y-129024047D01*
X150891666Y-129214523D01*
X150986904Y-129357380D01*
X151129761Y-129452619D01*
X151320238Y-129500238D01*
X151510714Y-129452619D01*
X151653571Y-129357380D01*
X152177380Y-129357380D02*
X152177380Y-128690714D01*
X152177380Y-128785952D02*
X152225000Y-128738333D01*
X152320238Y-128690714D01*
X152463095Y-128690714D01*
X152558333Y-128738333D01*
X152605952Y-128833571D01*
X152605952Y-129357380D01*
X152605952Y-128833571D02*
X152653571Y-128738333D01*
X152748809Y-128690714D01*
X152891666Y-128690714D01*
X152986904Y-128738333D01*
X153034523Y-128833571D01*
X153034523Y-129357380D01*
X153939285Y-129357380D02*
X153939285Y-128833571D01*
X153891666Y-128738333D01*
X153796428Y-128690714D01*
X153605952Y-128690714D01*
X153510714Y-128738333D01*
X153939285Y-129309761D02*
X153844047Y-129357380D01*
X153605952Y-129357380D01*
X153510714Y-129309761D01*
X153463095Y-129214523D01*
X153463095Y-129119285D01*
X153510714Y-129024047D01*
X153605952Y-128976428D01*
X153844047Y-128976428D01*
X153939285Y-128928809D01*
X154415476Y-129357380D02*
X154415476Y-128690714D01*
X154415476Y-128357380D02*
X154367857Y-128405000D01*
X154415476Y-128452619D01*
X154463095Y-128405000D01*
X154415476Y-128357380D01*
X154415476Y-128452619D01*
X155034523Y-129357380D02*
X154939285Y-129309761D01*
X154891666Y-129214523D01*
X154891666Y-128357380D01*
X155415476Y-129262142D02*
X155463095Y-129309761D01*
X155415476Y-129357380D01*
X155367857Y-129309761D01*
X155415476Y-129262142D01*
X155415476Y-129357380D01*
X155891666Y-129357380D02*
X155891666Y-128690714D01*
X155891666Y-128881190D02*
X155939285Y-128785952D01*
X155986904Y-128738333D01*
X156082142Y-128690714D01*
X156177380Y-128690714D01*
X156939285Y-128690714D02*
X156939285Y-129357380D01*
X156510714Y-128690714D02*
X156510714Y-129214523D01*
X156558333Y-129309761D01*
X156653571Y-129357380D01*
X156796428Y-129357380D01*
X156891666Y-129309761D01*
X156939285Y-129262142D01*
X157415476Y-128690714D02*
X158177380Y-128976428D01*
X157415476Y-129262142D01*
D12*
X113642380Y-90779285D02*
X113580476Y-90841190D01*
X113394761Y-90903095D01*
X113270952Y-90903095D01*
X113085238Y-90841190D01*
X112961428Y-90717380D01*
X112899523Y-90593571D01*
X112837619Y-90345952D01*
X112837619Y-90160238D01*
X112899523Y-89912619D01*
X112961428Y-89788809D01*
X113085238Y-89665000D01*
X113270952Y-89603095D01*
X113394761Y-89603095D01*
X113580476Y-89665000D01*
X113642380Y-89726904D01*
X114756666Y-90903095D02*
X114756666Y-90222142D01*
X114694761Y-90098333D01*
X114570952Y-90036428D01*
X114323333Y-90036428D01*
X114199523Y-90098333D01*
X114756666Y-90841190D02*
X114632857Y-90903095D01*
X114323333Y-90903095D01*
X114199523Y-90841190D01*
X114137619Y-90717380D01*
X114137619Y-90593571D01*
X114199523Y-90469761D01*
X114323333Y-90407857D01*
X114632857Y-90407857D01*
X114756666Y-90345952D01*
X115313809Y-90841190D02*
X115437619Y-90903095D01*
X115685238Y-90903095D01*
X115809047Y-90841190D01*
X115870952Y-90717380D01*
X115870952Y-90655476D01*
X115809047Y-90531666D01*
X115685238Y-90469761D01*
X115499523Y-90469761D01*
X115375714Y-90407857D01*
X115313809Y-90284047D01*
X115313809Y-90222142D01*
X115375714Y-90098333D01*
X115499523Y-90036428D01*
X115685238Y-90036428D01*
X115809047Y-90098333D01*
X116428095Y-90903095D02*
X116428095Y-90036428D01*
X116428095Y-89603095D02*
X116366190Y-89665000D01*
X116428095Y-89726904D01*
X116490000Y-89665000D01*
X116428095Y-89603095D01*
X116428095Y-89726904D01*
X117232857Y-90903095D02*
X117109047Y-90841190D01*
X117047142Y-90779285D01*
X116985238Y-90655476D01*
X116985238Y-90284047D01*
X117047142Y-90160238D01*
X117109047Y-90098333D01*
X117232857Y-90036428D01*
X117418571Y-90036428D01*
X117542380Y-90098333D01*
X117604285Y-90160238D01*
X117666190Y-90284047D01*
X117666190Y-90655476D01*
X117604285Y-90779285D01*
X117542380Y-90841190D01*
X117418571Y-90903095D01*
X117232857Y-90903095D01*
X119028095Y-89603095D02*
X119461428Y-90903095D01*
X119894761Y-89603095D01*
X120204285Y-89603095D02*
X121070952Y-90903095D01*
X121070952Y-89603095D02*
X120204285Y-90903095D01*
X122494761Y-90841190D02*
X122680476Y-90903095D01*
X122990000Y-90903095D01*
X123113809Y-90841190D01*
X123175714Y-90779285D01*
X123237619Y-90655476D01*
X123237619Y-90531666D01*
X123175714Y-90407857D01*
X123113809Y-90345952D01*
X122990000Y-90284047D01*
X122742380Y-90222142D01*
X122618571Y-90160238D01*
X122556666Y-90098333D01*
X122494761Y-89974523D01*
X122494761Y-89850714D01*
X122556666Y-89726904D01*
X122618571Y-89665000D01*
X122742380Y-89603095D01*
X123051904Y-89603095D01*
X123237619Y-89665000D01*
X123980476Y-90903095D02*
X123856666Y-90841190D01*
X123794761Y-90779285D01*
X123732857Y-90655476D01*
X123732857Y-90284047D01*
X123794761Y-90160238D01*
X123856666Y-90098333D01*
X123980476Y-90036428D01*
X124166190Y-90036428D01*
X124290000Y-90098333D01*
X124351904Y-90160238D01*
X124413809Y-90284047D01*
X124413809Y-90655476D01*
X124351904Y-90779285D01*
X124290000Y-90841190D01*
X124166190Y-90903095D01*
X123980476Y-90903095D01*
X125528095Y-90036428D02*
X125528095Y-90903095D01*
X124970952Y-90036428D02*
X124970952Y-90717380D01*
X125032857Y-90841190D01*
X125156666Y-90903095D01*
X125342380Y-90903095D01*
X125466190Y-90841190D01*
X125528095Y-90779285D01*
X126147142Y-90036428D02*
X126147142Y-90903095D01*
X126147142Y-90160238D02*
X126209047Y-90098333D01*
X126332857Y-90036428D01*
X126518571Y-90036428D01*
X126642380Y-90098333D01*
X126704285Y-90222142D01*
X126704285Y-90903095D01*
X127880476Y-90903095D02*
X127880476Y-89603095D01*
X127880476Y-90841190D02*
X127756666Y-90903095D01*
X127509047Y-90903095D01*
X127385238Y-90841190D01*
X127323333Y-90779285D01*
X127261428Y-90655476D01*
X127261428Y-90284047D01*
X127323333Y-90160238D01*
X127385238Y-90098333D01*
X127509047Y-90036428D01*
X127756666Y-90036428D01*
X127880476Y-90098333D01*
X129056666Y-90841190D02*
X128932857Y-90903095D01*
X128685238Y-90903095D01*
X128561428Y-90841190D01*
X128499523Y-90779285D01*
X128437619Y-90655476D01*
X128437619Y-90284047D01*
X128499523Y-90160238D01*
X128561428Y-90098333D01*
X128685238Y-90036428D01*
X128932857Y-90036428D01*
X129056666Y-90098333D01*
X130170952Y-90903095D02*
X130170952Y-90222142D01*
X130109047Y-90098333D01*
X129985238Y-90036428D01*
X129737619Y-90036428D01*
X129613809Y-90098333D01*
X130170952Y-90841190D02*
X130047142Y-90903095D01*
X129737619Y-90903095D01*
X129613809Y-90841190D01*
X129551904Y-90717380D01*
X129551904Y-90593571D01*
X129613809Y-90469761D01*
X129737619Y-90407857D01*
X130047142Y-90407857D01*
X130170952Y-90345952D01*
X130790000Y-90903095D02*
X130790000Y-90036428D01*
X130790000Y-90284047D02*
X130851904Y-90160238D01*
X130913809Y-90098333D01*
X131037619Y-90036428D01*
X131161428Y-90036428D01*
X132151904Y-90903095D02*
X132151904Y-89603095D01*
X132151904Y-90841190D02*
X132028095Y-90903095D01*
X131780476Y-90903095D01*
X131656666Y-90841190D01*
X131594761Y-90779285D01*
X131532857Y-90655476D01*
X131532857Y-90284047D01*
X131594761Y-90160238D01*
X131656666Y-90098333D01*
X131780476Y-90036428D01*
X132028095Y-90036428D01*
X132151904Y-90098333D01*
X112775714Y-92286428D02*
X113085238Y-93153095D01*
X113394761Y-92286428D01*
X114570952Y-93153095D02*
X113828095Y-93153095D01*
X114199523Y-93153095D02*
X114199523Y-91853095D01*
X114075714Y-92038809D01*
X113951904Y-92162619D01*
X113828095Y-92224523D01*
X115128095Y-93029285D02*
X115190000Y-93091190D01*
X115128095Y-93153095D01*
X115066190Y-93091190D01*
X115128095Y-93029285D01*
X115128095Y-93153095D01*
X116428095Y-93153095D02*
X115685238Y-93153095D01*
X116056666Y-93153095D02*
X116056666Y-91853095D01*
X115932857Y-92038809D01*
X115809047Y-92162619D01*
X115685238Y-92224523D01*
D13*
G36*
X136194400Y-113363594D02*
G01*
X136190249Y-113386695D01*
X136177730Y-113400263D01*
X136158158Y-113404426D01*
X136138468Y-113410304D01*
X136122909Y-113423976D01*
X136109583Y-113436769D01*
X136096149Y-113441693D01*
X136079098Y-113441602D01*
X136059608Y-113442065D01*
X136050206Y-113446661D01*
X136049848Y-113447458D01*
X136042250Y-113453455D01*
X136031905Y-113455238D01*
X136020227Y-113457639D01*
X136016555Y-113462044D01*
X136010739Y-113474990D01*
X135994509Y-113483614D01*
X135969696Y-113486982D01*
X135967724Y-113486996D01*
X135947347Y-113485755D01*
X135935279Y-113481026D01*
X135928296Y-113472994D01*
X135923250Y-113461363D01*
X135926768Y-113456585D01*
X135932764Y-113449079D01*
X135933985Y-113441807D01*
X135938289Y-113429821D01*
X135943512Y-113425777D01*
X135951953Y-113417780D01*
X135953039Y-113413273D01*
X135956951Y-113405271D01*
X135959845Y-113404426D01*
X135970620Y-113399615D01*
X135980853Y-113389055D01*
X135984797Y-113379473D01*
X135989935Y-113373438D01*
X135994325Y-113372668D01*
X136002777Y-113369238D01*
X136003852Y-113366316D01*
X136009436Y-113362118D01*
X136023165Y-113360019D01*
X136026083Y-113359965D01*
X136042525Y-113357899D01*
X136048273Y-113351305D01*
X136048313Y-113350437D01*
X136050265Y-113346253D01*
X136057437Y-113343468D01*
X136071808Y-113341822D01*
X136095356Y-113341059D01*
X136121356Y-113340910D01*
X136194400Y-113340910D01*
X136194400Y-113363594D01*
G37*
X136194400Y-113363594D02*
X136190249Y-113386695D01*
X136177730Y-113400263D01*
X136158158Y-113404426D01*
X136138468Y-113410304D01*
X136122909Y-113423976D01*
X136109583Y-113436769D01*
X136096149Y-113441693D01*
X136079098Y-113441602D01*
X136059608Y-113442065D01*
X136050206Y-113446661D01*
X136049848Y-113447458D01*
X136042250Y-113453455D01*
X136031905Y-113455238D01*
X136020227Y-113457639D01*
X136016555Y-113462044D01*
X136010739Y-113474990D01*
X135994509Y-113483614D01*
X135969696Y-113486982D01*
X135967724Y-113486996D01*
X135947347Y-113485755D01*
X135935279Y-113481026D01*
X135928296Y-113472994D01*
X135923250Y-113461363D01*
X135926768Y-113456585D01*
X135932764Y-113449079D01*
X135933985Y-113441807D01*
X135938289Y-113429821D01*
X135943512Y-113425777D01*
X135951953Y-113417780D01*
X135953039Y-113413273D01*
X135956951Y-113405271D01*
X135959845Y-113404426D01*
X135970620Y-113399615D01*
X135980853Y-113389055D01*
X135984797Y-113379473D01*
X135989935Y-113373438D01*
X135994325Y-113372668D01*
X136002777Y-113369238D01*
X136003852Y-113366316D01*
X136009436Y-113362118D01*
X136023165Y-113360019D01*
X136026083Y-113359965D01*
X136042525Y-113357899D01*
X136048273Y-113351305D01*
X136048313Y-113350437D01*
X136050265Y-113346253D01*
X136057437Y-113343468D01*
X136071808Y-113341822D01*
X136095356Y-113341059D01*
X136121356Y-113340910D01*
X136194400Y-113340910D01*
X136194400Y-113363594D01*
G36*
X137128836Y-112032810D02*
G01*
X137164191Y-112033763D01*
X137188897Y-112035302D01*
X137202162Y-112037383D01*
X137204302Y-112038834D01*
X137210076Y-112042232D01*
X137225110Y-112044530D01*
X137241732Y-112045186D01*
X137265182Y-112046246D01*
X137278290Y-112049769D01*
X137282818Y-112054713D01*
X137286242Y-112058475D01*
X137294367Y-112061132D01*
X137309006Y-112062857D01*
X137331976Y-112063825D01*
X137365088Y-112064211D01*
X137381947Y-112064241D01*
X137420827Y-112064651D01*
X137450404Y-112065833D01*
X137469594Y-112067716D01*
X137477316Y-112070227D01*
X137477420Y-112070592D01*
X137483004Y-112074790D01*
X137496734Y-112076889D01*
X137499651Y-112076944D01*
X137516093Y-112079010D01*
X137521841Y-112085603D01*
X137521882Y-112086471D01*
X137526077Y-112093096D01*
X137539984Y-112095826D01*
X137547288Y-112095999D01*
X137564954Y-112097572D01*
X137572233Y-112102787D01*
X137572694Y-112105526D01*
X137574793Y-112109969D01*
X137582483Y-112112821D01*
X137597853Y-112114396D01*
X137622992Y-112115008D01*
X137636210Y-112115053D01*
X137665717Y-112115657D01*
X137687049Y-112117347D01*
X137698378Y-112119939D01*
X137699726Y-112121405D01*
X137705162Y-112126180D01*
X137715605Y-112127756D01*
X137728376Y-112131069D01*
X137731484Y-112137284D01*
X137735679Y-112143909D01*
X137749586Y-112146638D01*
X137756890Y-112146811D01*
X137772800Y-112148220D01*
X137781649Y-112151739D01*
X137782297Y-112153163D01*
X137788208Y-112156363D01*
X137804208Y-112158594D01*
X137827700Y-112159508D01*
X137829934Y-112159514D01*
X137853937Y-112160303D01*
X137870667Y-112162436D01*
X137877526Y-112165568D01*
X137877571Y-112165866D01*
X137882899Y-112171000D01*
X137890473Y-112172218D01*
X137902687Y-112176356D01*
X137907032Y-112181745D01*
X137912321Y-112186969D01*
X137924760Y-112189971D01*
X137946670Y-112191187D01*
X137957645Y-112191272D01*
X137981395Y-112192071D01*
X137997919Y-112194228D01*
X138004574Y-112197387D01*
X138004602Y-112197624D01*
X138009931Y-112202758D01*
X138017505Y-112203976D01*
X138029718Y-112208114D01*
X138034063Y-112213503D01*
X138042590Y-112221002D01*
X138052389Y-112223030D01*
X138064826Y-112225865D01*
X138069544Y-112230485D01*
X138077634Y-112234912D01*
X138097885Y-112236633D01*
X138114566Y-112236398D01*
X138138563Y-112236170D01*
X138152665Y-112237979D01*
X138159583Y-112242318D01*
X138160927Y-112244822D01*
X138168834Y-112253534D01*
X138173599Y-112254788D01*
X138181426Y-112259887D01*
X138182447Y-112264316D01*
X138187267Y-112271362D01*
X138202653Y-112273826D01*
X138204677Y-112273843D01*
X138219371Y-112275438D01*
X138226716Y-112279361D01*
X138226908Y-112280195D01*
X138232678Y-112283596D01*
X138247687Y-112285896D01*
X138264128Y-112286546D01*
X138286206Y-112287287D01*
X138299785Y-112290407D01*
X138309025Y-112297249D01*
X138313272Y-112302425D01*
X138326387Y-112314205D01*
X138344671Y-112318217D01*
X138349096Y-112318304D01*
X138366188Y-112320085D01*
X138372779Y-112325894D01*
X138372994Y-112327832D01*
X138378516Y-112335494D01*
X138388873Y-112337359D01*
X138400810Y-112339533D01*
X138404752Y-112343710D01*
X138410188Y-112348485D01*
X138420631Y-112350062D01*
X138433402Y-112353375D01*
X138436510Y-112359589D01*
X138440706Y-112366214D01*
X138454612Y-112368944D01*
X138461917Y-112369117D01*
X138477826Y-112370526D01*
X138486675Y-112374045D01*
X138487323Y-112375468D01*
X138492643Y-112380629D01*
X138500026Y-112381820D01*
X138510372Y-112385791D01*
X138512729Y-112391347D01*
X138518251Y-112399010D01*
X138528608Y-112400875D01*
X138540545Y-112403049D01*
X138544487Y-112407226D01*
X138550042Y-112411580D01*
X138563573Y-112413661D01*
X138565130Y-112413688D01*
X138588488Y-112419853D01*
X138600730Y-112429567D01*
X138620916Y-112442862D01*
X138637252Y-112445336D01*
X138653428Y-112447536D01*
X138658808Y-112454486D01*
X138658816Y-112454863D01*
X138664337Y-112462526D01*
X138674695Y-112464391D01*
X138686631Y-112466565D01*
X138690574Y-112470742D01*
X138695718Y-112476377D01*
X138700101Y-112477094D01*
X138708522Y-112482178D01*
X138709629Y-112486621D01*
X138714449Y-112493668D01*
X138729834Y-112496131D01*
X138731859Y-112496149D01*
X138746553Y-112497744D01*
X138753898Y-112501667D01*
X138754090Y-112502500D01*
X138759422Y-112507620D01*
X138767096Y-112508852D01*
X138780228Y-112513302D01*
X138794203Y-112524078D01*
X138794819Y-112524731D01*
X138814969Y-112538227D01*
X138829449Y-112540610D01*
X138844947Y-112543204D01*
X138849363Y-112550137D01*
X138854448Y-112558558D01*
X138858891Y-112559664D01*
X138867343Y-112563094D01*
X138868418Y-112566016D01*
X138873670Y-112571376D01*
X138879710Y-112572368D01*
X138895254Y-112578175D01*
X138906669Y-112593971D01*
X138912458Y-112617316D01*
X138912879Y-112626429D01*
X138914132Y-112645241D01*
X138918391Y-112653794D01*
X138922407Y-112654938D01*
X138930827Y-112660023D01*
X138931934Y-112664466D01*
X138935364Y-112672918D01*
X138938286Y-112673993D01*
X138942484Y-112679577D01*
X138944582Y-112693306D01*
X138944637Y-112696224D01*
X138946703Y-112712666D01*
X138953297Y-112718414D01*
X138954165Y-112718454D01*
X138958813Y-112720682D01*
X138961708Y-112728812D01*
X138963212Y-112745016D01*
X138963687Y-112771464D01*
X138963692Y-112775618D01*
X138964063Y-112803507D01*
X138965418Y-112820878D01*
X138968119Y-112829903D01*
X138972527Y-112832753D01*
X138973219Y-112832783D01*
X138980882Y-112838304D01*
X138982747Y-112848662D01*
X138984921Y-112860598D01*
X138989098Y-112864541D01*
X138991094Y-112870820D01*
X138992733Y-112889377D01*
X138993999Y-112919790D01*
X138994879Y-112961640D01*
X138995359Y-113014505D01*
X138995450Y-113055088D01*
X138995241Y-113114971D01*
X138994622Y-113164115D01*
X138993608Y-113202099D01*
X138992213Y-113228504D01*
X138990451Y-113242908D01*
X138989098Y-113245636D01*
X138984345Y-113251078D01*
X138982747Y-113261714D01*
X138979383Y-113275241D01*
X138973219Y-113281449D01*
X138968275Y-113286311D01*
X138965305Y-113297768D01*
X138963922Y-113318095D01*
X138963692Y-113337734D01*
X138963155Y-113365252D01*
X138961288Y-113382379D01*
X138957704Y-113391392D01*
X138954165Y-113394019D01*
X138946959Y-113403209D01*
X138944637Y-113420105D01*
X138943055Y-113434878D01*
X138939161Y-113442322D01*
X138938286Y-113442535D01*
X138934035Y-113448106D01*
X138931971Y-113461752D01*
X138931934Y-113464086D01*
X138929138Y-113481434D01*
X138922407Y-113489293D01*
X138914561Y-113497909D01*
X138912879Y-113505852D01*
X138910256Y-113516281D01*
X138906528Y-113518754D01*
X138900893Y-113523899D01*
X138900176Y-113528282D01*
X138895092Y-113536702D01*
X138890649Y-113537809D01*
X138882228Y-113532725D01*
X138881121Y-113528282D01*
X138877692Y-113519829D01*
X138874770Y-113518754D01*
X138871569Y-113512843D01*
X138869339Y-113496843D01*
X138868424Y-113473351D01*
X138868418Y-113471117D01*
X138867919Y-113445990D01*
X138866116Y-113431241D01*
X138862548Y-113424572D01*
X138858891Y-113423480D01*
X138850470Y-113418396D01*
X138849363Y-113413953D01*
X138845934Y-113405501D01*
X138843012Y-113404426D01*
X138837377Y-113409570D01*
X138836660Y-113413953D01*
X138831576Y-113422374D01*
X138827133Y-113423480D01*
X138821141Y-113426880D01*
X138818215Y-113438651D01*
X138817606Y-113455238D01*
X138816463Y-113473354D01*
X138813542Y-113484853D01*
X138811254Y-113486996D01*
X138806403Y-113492410D01*
X138804902Y-113502196D01*
X138801355Y-113515368D01*
X138795375Y-113521051D01*
X138789582Y-113527330D01*
X138786582Y-113542013D01*
X138785848Y-113563016D01*
X138784888Y-113583397D01*
X138782378Y-113597223D01*
X138779496Y-113601325D01*
X138774721Y-113606760D01*
X138773144Y-113617204D01*
X138769832Y-113629975D01*
X138763617Y-113633083D01*
X138755954Y-113638604D01*
X138754090Y-113648962D01*
X138751915Y-113660898D01*
X138747738Y-113664841D01*
X138744115Y-113670553D01*
X138741815Y-113685159D01*
X138741386Y-113696599D01*
X138740367Y-113716570D01*
X138736835Y-113726324D01*
X138731859Y-113728357D01*
X138724196Y-113733878D01*
X138722332Y-113744236D01*
X138720157Y-113756172D01*
X138715980Y-113760115D01*
X138711205Y-113765550D01*
X138709629Y-113775994D01*
X138706316Y-113788765D01*
X138700101Y-113791873D01*
X138693120Y-113796591D01*
X138690606Y-113811747D01*
X138690574Y-113814557D01*
X138687068Y-113835147D01*
X138677946Y-113849900D01*
X138665621Y-113855388D01*
X138661554Y-113861191D01*
X138659167Y-113876485D01*
X138658816Y-113887146D01*
X138657673Y-113905262D01*
X138654752Y-113916761D01*
X138652464Y-113918904D01*
X138647690Y-113924340D01*
X138646113Y-113934783D01*
X138642800Y-113947554D01*
X138636585Y-113950662D01*
X138628165Y-113955746D01*
X138627058Y-113960190D01*
X138623628Y-113968642D01*
X138620706Y-113969717D01*
X138616264Y-113975241D01*
X138614356Y-113988569D01*
X138614355Y-113988971D01*
X138611375Y-114004549D01*
X138604827Y-114011881D01*
X138596386Y-114019878D01*
X138595300Y-114024385D01*
X138590201Y-114032212D01*
X138585773Y-114033233D01*
X138578110Y-114038754D01*
X138576245Y-114049112D01*
X138574071Y-114061048D01*
X138569894Y-114064991D01*
X138565643Y-114070562D01*
X138563579Y-114084207D01*
X138563542Y-114086542D01*
X138560746Y-114103890D01*
X138554015Y-114111749D01*
X138546764Y-114120208D01*
X138544487Y-114131483D01*
X138542338Y-114143515D01*
X138538136Y-114147561D01*
X138532975Y-114152881D01*
X138531784Y-114160265D01*
X138527813Y-114170610D01*
X138522257Y-114172968D01*
X138513941Y-114178086D01*
X138512729Y-114182937D01*
X138507985Y-114190478D01*
X138498438Y-114190876D01*
X138492231Y-114189361D01*
X138488062Y-114185416D01*
X138485439Y-114176796D01*
X138483870Y-114161254D01*
X138482864Y-114136543D01*
X138482351Y-114117391D01*
X138481360Y-114086159D01*
X138480004Y-114065514D01*
X138477902Y-114053340D01*
X138474671Y-114047522D01*
X138469932Y-114045943D01*
X138469472Y-114045936D01*
X138455739Y-114051352D01*
X138443480Y-114064414D01*
X138436818Y-114080346D01*
X138436510Y-114084118D01*
X138432522Y-114094406D01*
X138426983Y-114096749D01*
X138419320Y-114102270D01*
X138417455Y-114112628D01*
X138415281Y-114124564D01*
X138411104Y-114128507D01*
X138406854Y-114134078D01*
X138404790Y-114147723D01*
X138404752Y-114150058D01*
X138401956Y-114167406D01*
X138395225Y-114175265D01*
X138388019Y-114184454D01*
X138385698Y-114201351D01*
X138384115Y-114216123D01*
X138380221Y-114223567D01*
X138379346Y-114223780D01*
X138374571Y-114229216D01*
X138372994Y-114239659D01*
X138369682Y-114252431D01*
X138363467Y-114255538D01*
X138356842Y-114259734D01*
X138354113Y-114273641D01*
X138353940Y-114280945D01*
X138352531Y-114296854D01*
X138349012Y-114305703D01*
X138347588Y-114306351D01*
X138342454Y-114311680D01*
X138341236Y-114319254D01*
X138337098Y-114331467D01*
X138331709Y-114335812D01*
X138324306Y-114344313D01*
X138322182Y-114354668D01*
X138319919Y-114366275D01*
X138315830Y-114369867D01*
X138311632Y-114375451D01*
X138309533Y-114389180D01*
X138309478Y-114392098D01*
X138307412Y-114408540D01*
X138300819Y-114414288D01*
X138299951Y-114414328D01*
X138291530Y-114419412D01*
X138290424Y-114423856D01*
X138286994Y-114432308D01*
X138284072Y-114433383D01*
X138279630Y-114438907D01*
X138277722Y-114452235D01*
X138277721Y-114452637D01*
X138274741Y-114468215D01*
X138268193Y-114475547D01*
X138260226Y-114484193D01*
X138258666Y-114491530D01*
X138254234Y-114504158D01*
X138243498Y-114517902D01*
X138242787Y-114518573D01*
X138229290Y-114538724D01*
X138226908Y-114553204D01*
X138225141Y-114566950D01*
X138220859Y-114573095D01*
X138220556Y-114573118D01*
X138214921Y-114578262D01*
X138214205Y-114582645D01*
X138209120Y-114591066D01*
X138204677Y-114592173D01*
X138197015Y-114597694D01*
X138195150Y-114608052D01*
X138192976Y-114619988D01*
X138188798Y-114623931D01*
X138184024Y-114629366D01*
X138182447Y-114639810D01*
X138179134Y-114652581D01*
X138172919Y-114655688D01*
X138165257Y-114661210D01*
X138163392Y-114671567D01*
X138161218Y-114683504D01*
X138157040Y-114687446D01*
X138152266Y-114692882D01*
X138150689Y-114703325D01*
X138148539Y-114715262D01*
X138144410Y-114719204D01*
X138132625Y-114724166D01*
X138120586Y-114735659D01*
X138113177Y-114748596D01*
X138112579Y-114752374D01*
X138109625Y-114761903D01*
X138106228Y-114763665D01*
X138101195Y-114769026D01*
X138099876Y-114777352D01*
X138095362Y-114789558D01*
X138083642Y-114805603D01*
X138074470Y-114815207D01*
X138060234Y-114830990D01*
X138051014Y-114845511D01*
X138049063Y-114852333D01*
X138046450Y-114862792D01*
X138042712Y-114865291D01*
X138037937Y-114870726D01*
X138036360Y-114881170D01*
X138034032Y-114893104D01*
X138029555Y-114897049D01*
X138018012Y-114902253D01*
X138008092Y-114914136D01*
X138004602Y-114925481D01*
X138000227Y-114936606D01*
X137989607Y-114949646D01*
X137988723Y-114950481D01*
X137977711Y-114964501D01*
X137972856Y-114978232D01*
X137972844Y-114978760D01*
X137969070Y-114989775D01*
X137963317Y-114992323D01*
X137955604Y-114997755D01*
X137953790Y-115006694D01*
X137948950Y-115020643D01*
X137937911Y-115032990D01*
X137926599Y-115045028D01*
X137922032Y-115056728D01*
X137919194Y-115066556D01*
X137915680Y-115068542D01*
X137910045Y-115073686D01*
X137909328Y-115078069D01*
X137904244Y-115086490D01*
X137899801Y-115087596D01*
X137892088Y-115093028D01*
X137890274Y-115101968D01*
X137885434Y-115115917D01*
X137874395Y-115128264D01*
X137863071Y-115140456D01*
X137858516Y-115152456D01*
X137854117Y-115166893D01*
X137843836Y-115178768D01*
X137833563Y-115182870D01*
X137828153Y-115188221D01*
X137826758Y-115196411D01*
X137822337Y-115208661D01*
X137811152Y-115224053D01*
X137804527Y-115230919D01*
X137791273Y-115246025D01*
X137783319Y-115260121D01*
X137782297Y-115265014D01*
X137778424Y-115275694D01*
X137772769Y-115278144D01*
X137764349Y-115283228D01*
X137763242Y-115287671D01*
X137758158Y-115296092D01*
X137753715Y-115297199D01*
X137745966Y-115302538D01*
X137744187Y-115310356D01*
X137739867Y-115325354D01*
X137729666Y-115337482D01*
X137719235Y-115341660D01*
X137713200Y-115346797D01*
X137712429Y-115351187D01*
X137709000Y-115359640D01*
X137706078Y-115360715D01*
X137701303Y-115366150D01*
X137699726Y-115376594D01*
X137697398Y-115388528D01*
X137692921Y-115392473D01*
X137683165Y-115396554D01*
X137677042Y-115401546D01*
X137669475Y-115412174D01*
X137667968Y-115417425D01*
X137662535Y-115422540D01*
X137652089Y-115424231D01*
X137639318Y-115420918D01*
X137636210Y-115414703D01*
X137632541Y-115406255D01*
X137629405Y-115405176D01*
X137619649Y-115401095D01*
X137613526Y-115396102D01*
X137605959Y-115385475D01*
X137604452Y-115380223D01*
X137599572Y-115373697D01*
X137597647Y-115373418D01*
X137587891Y-115369337D01*
X137581768Y-115364344D01*
X137574202Y-115353717D01*
X137572694Y-115348465D01*
X137567815Y-115341939D01*
X137565889Y-115341660D01*
X137556133Y-115337579D01*
X137550010Y-115332586D01*
X137542444Y-115321959D01*
X137540936Y-115316707D01*
X137535799Y-115310673D01*
X137531409Y-115309902D01*
X137522956Y-115306472D01*
X137521882Y-115303550D01*
X137516446Y-115298776D01*
X137506003Y-115297199D01*
X137494069Y-115294871D01*
X137490124Y-115290394D01*
X137485313Y-115279619D01*
X137474753Y-115269385D01*
X137465171Y-115265441D01*
X137459136Y-115260304D01*
X137458366Y-115255914D01*
X137452994Y-115248175D01*
X137444825Y-115246386D01*
X137432575Y-115241965D01*
X137417183Y-115230780D01*
X137410317Y-115224156D01*
X137396156Y-115211012D01*
X137384155Y-115203034D01*
X137380287Y-115201925D01*
X137370352Y-115197237D01*
X137359298Y-115186046D01*
X137346082Y-115174477D01*
X137332803Y-115170167D01*
X137319889Y-115166475D01*
X137314576Y-115160640D01*
X137306075Y-115153236D01*
X137295721Y-115151112D01*
X137284116Y-115148690D01*
X137280521Y-115144307D01*
X137274784Y-115131724D01*
X137259858Y-115122709D01*
X137239690Y-115119354D01*
X137224818Y-115117677D01*
X137217249Y-115113543D01*
X137217005Y-115112549D01*
X137211268Y-115099966D01*
X137196343Y-115090951D01*
X137176174Y-115087596D01*
X137159553Y-115085615D01*
X137153565Y-115079249D01*
X137153489Y-115078069D01*
X137149294Y-115071444D01*
X137135387Y-115068715D01*
X137128083Y-115068542D01*
X137112174Y-115067133D01*
X137103325Y-115063614D01*
X137102677Y-115062190D01*
X137097093Y-115057992D01*
X137083364Y-115055893D01*
X137080446Y-115055839D01*
X137064004Y-115053773D01*
X137058256Y-115047179D01*
X137058216Y-115046311D01*
X137052694Y-115038648D01*
X137042337Y-115036784D01*
X137033536Y-115035977D01*
X137028785Y-115031567D01*
X137026840Y-115020573D01*
X137026458Y-115000010D01*
X137026458Y-114998674D01*
X137025494Y-114978375D01*
X137022975Y-114964613D01*
X137020106Y-114960565D01*
X137015923Y-114954978D01*
X137013815Y-114941224D01*
X137013755Y-114938135D01*
X137011026Y-114920123D01*
X137004227Y-114912049D01*
X136996824Y-114903548D01*
X136994700Y-114893193D01*
X136991263Y-114880933D01*
X136985172Y-114877994D01*
X136978126Y-114873173D01*
X136975662Y-114857788D01*
X136975645Y-114855763D01*
X136974050Y-114841070D01*
X136970127Y-114833725D01*
X136969293Y-114833533D01*
X136964443Y-114828119D01*
X136962942Y-114818334D01*
X136959394Y-114805161D01*
X136953414Y-114799478D01*
X136946164Y-114791019D01*
X136943887Y-114779744D01*
X136941737Y-114767712D01*
X136937536Y-114763665D01*
X136932761Y-114758230D01*
X136931184Y-114747786D01*
X136928817Y-114735853D01*
X136924266Y-114731908D01*
X136916508Y-114727651D01*
X136903236Y-114716572D01*
X136889569Y-114703325D01*
X136867829Y-114683733D01*
X136851532Y-114675157D01*
X136840899Y-114677625D01*
X136836154Y-114691163D01*
X136835910Y-114696974D01*
X136837505Y-114711668D01*
X136841428Y-114719012D01*
X136842262Y-114719204D01*
X136844534Y-114725441D01*
X136846336Y-114743704D01*
X136847637Y-114773326D01*
X136848404Y-114813639D01*
X136848613Y-114855763D01*
X136848323Y-114904628D01*
X136847474Y-114943371D01*
X136846096Y-114971322D01*
X136844221Y-114987814D01*
X136842262Y-114992323D01*
X136838063Y-114997906D01*
X136835965Y-115011636D01*
X136835910Y-115014553D01*
X136833844Y-115030995D01*
X136827250Y-115036744D01*
X136826383Y-115036784D01*
X136818720Y-115042305D01*
X136816855Y-115052663D01*
X136814681Y-115064599D01*
X136810504Y-115068542D01*
X136806526Y-115074177D01*
X136804314Y-115088253D01*
X136804152Y-115093948D01*
X136802643Y-115109856D01*
X136798873Y-115118706D01*
X136797347Y-115119354D01*
X136785691Y-115124617D01*
X136775833Y-115136732D01*
X136772394Y-115148466D01*
X136768037Y-115158733D01*
X136756843Y-115173361D01*
X136746988Y-115183599D01*
X136732823Y-115198824D01*
X136723600Y-115212095D01*
X136721582Y-115218003D01*
X136716168Y-115232636D01*
X136703460Y-115243655D01*
X136693150Y-115246386D01*
X136682024Y-115250761D01*
X136668984Y-115261381D01*
X136668149Y-115262265D01*
X136654129Y-115273277D01*
X136640399Y-115278133D01*
X136639870Y-115278144D01*
X136628856Y-115281919D01*
X136626308Y-115287671D01*
X136622908Y-115293663D01*
X136611137Y-115296589D01*
X136594550Y-115297199D01*
X136576434Y-115298341D01*
X136564935Y-115301263D01*
X136562792Y-115303550D01*
X136557378Y-115308401D01*
X136547592Y-115309902D01*
X136534420Y-115313450D01*
X136528737Y-115319429D01*
X136524689Y-115323758D01*
X136515125Y-115326599D01*
X136497970Y-115328222D01*
X136471152Y-115328893D01*
X136455014Y-115328957D01*
X136423428Y-115329507D01*
X136400304Y-115331062D01*
X136387262Y-115333473D01*
X136384947Y-115335308D01*
X136378748Y-115337760D01*
X136360740Y-115339659D01*
X136331806Y-115340955D01*
X136292832Y-115341597D01*
X136273795Y-115341660D01*
X136230889Y-115341306D01*
X136197655Y-115340277D01*
X136174976Y-115338623D01*
X136163738Y-115336396D01*
X136162642Y-115335308D01*
X136156527Y-115332557D01*
X136139101Y-115330511D01*
X136111742Y-115329280D01*
X136083247Y-115328957D01*
X136049615Y-115328732D01*
X136026770Y-115327904D01*
X136012801Y-115326245D01*
X136005799Y-115323524D01*
X136003853Y-115319514D01*
X136003852Y-115319429D01*
X135999657Y-115312805D01*
X135985750Y-115310075D01*
X135978446Y-115309902D01*
X135962536Y-115308493D01*
X135953687Y-115304974D01*
X135953039Y-115303550D01*
X135946875Y-115300962D01*
X135929104Y-115298993D01*
X135900815Y-115297717D01*
X135863091Y-115297205D01*
X135857766Y-115297199D01*
X135820477Y-115297026D01*
X135794123Y-115296390D01*
X135776937Y-115295114D01*
X135767155Y-115293021D01*
X135763009Y-115289936D01*
X135762492Y-115287671D01*
X135759736Y-115282327D01*
X135749887Y-115279357D01*
X135730576Y-115278214D01*
X135721206Y-115278144D01*
X135699632Y-115277247D01*
X135684862Y-115274869D01*
X135679921Y-115271793D01*
X135674136Y-115268409D01*
X135659022Y-115266116D01*
X135641812Y-115265441D01*
X135619683Y-115264709D01*
X135607802Y-115262115D01*
X135603777Y-115257061D01*
X135603702Y-115255914D01*
X135602191Y-115252731D01*
X135596660Y-115250329D01*
X135585611Y-115248605D01*
X135567545Y-115247454D01*
X135540965Y-115246770D01*
X135504371Y-115246450D01*
X135467143Y-115246386D01*
X135418278Y-115246096D01*
X135379536Y-115245247D01*
X135351584Y-115243869D01*
X135335092Y-115241994D01*
X135330584Y-115240035D01*
X135324397Y-115237531D01*
X135306474Y-115235605D01*
X135277772Y-115234315D01*
X135239248Y-115233718D01*
X135225783Y-115233683D01*
X135186438Y-115233532D01*
X135158102Y-115232976D01*
X135139083Y-115231861D01*
X135127688Y-115230034D01*
X135122225Y-115227341D01*
X135120981Y-115224156D01*
X135116161Y-115217109D01*
X135100775Y-115214645D01*
X135098751Y-115214628D01*
X135082309Y-115216694D01*
X135076560Y-115223288D01*
X135076520Y-115224156D01*
X135070999Y-115231818D01*
X135060641Y-115233683D01*
X135048705Y-115235857D01*
X135044762Y-115240035D01*
X135039082Y-115243806D01*
X135024693Y-115246082D01*
X135015877Y-115246386D01*
X134994355Y-115248318D01*
X134979515Y-115255477D01*
X134972275Y-115262265D01*
X134958255Y-115273277D01*
X134944525Y-115278133D01*
X134943996Y-115278144D01*
X134932982Y-115281919D01*
X134930434Y-115287671D01*
X134926238Y-115294296D01*
X134912332Y-115297026D01*
X134905027Y-115297199D01*
X134887362Y-115295626D01*
X134880082Y-115290411D01*
X134879621Y-115287671D01*
X134876191Y-115279219D01*
X134873269Y-115278144D01*
X134869071Y-115272561D01*
X134866973Y-115258831D01*
X134866918Y-115255914D01*
X134864852Y-115239471D01*
X134858258Y-115233723D01*
X134857390Y-115233683D01*
X134851320Y-115228199D01*
X134847953Y-115214635D01*
X134847291Y-115197325D01*
X134849331Y-115180599D01*
X134854076Y-115168791D01*
X134857390Y-115166112D01*
X134865326Y-115157474D01*
X134866918Y-115149979D01*
X134872425Y-115132923D01*
X134887910Y-115122359D01*
X134907749Y-115119354D01*
X134924370Y-115117373D01*
X134930358Y-115111007D01*
X134930434Y-115109827D01*
X134935955Y-115102164D01*
X134946313Y-115100300D01*
X134958249Y-115098125D01*
X134962192Y-115093948D01*
X134967627Y-115089173D01*
X134978071Y-115087596D01*
X134990842Y-115084284D01*
X134993950Y-115078069D01*
X134995498Y-115074783D01*
X135001176Y-115072332D01*
X135012532Y-115070603D01*
X135031118Y-115069477D01*
X135058481Y-115068839D01*
X135096171Y-115068572D01*
X135120981Y-115068542D01*
X135167683Y-115068230D01*
X135204415Y-115067321D01*
X135230438Y-115065851D01*
X135245015Y-115063857D01*
X135248013Y-115062190D01*
X135254274Y-115060061D01*
X135272703Y-115058343D01*
X135302774Y-115057055D01*
X135343957Y-115056218D01*
X135395725Y-115055853D01*
X135409979Y-115055839D01*
X135464262Y-115056084D01*
X135508090Y-115056807D01*
X135540935Y-115057986D01*
X135562269Y-115059601D01*
X135571563Y-115061631D01*
X135571944Y-115062190D01*
X135578272Y-115063624D01*
X135597165Y-115064879D01*
X135628484Y-115065953D01*
X135672094Y-115066844D01*
X135727856Y-115067550D01*
X135795632Y-115068069D01*
X135875286Y-115068399D01*
X135966680Y-115068537D01*
X135987973Y-115068542D01*
X136081888Y-115068445D01*
X136164092Y-115068157D01*
X136234448Y-115067678D01*
X136292820Y-115067013D01*
X136339069Y-115066161D01*
X136373057Y-115065127D01*
X136394649Y-115063911D01*
X136403705Y-115062515D01*
X136404002Y-115062190D01*
X136409438Y-115057415D01*
X136419881Y-115055839D01*
X136432652Y-115052526D01*
X136435760Y-115046311D01*
X136438687Y-115040779D01*
X136449062Y-115037809D01*
X136469278Y-115036803D01*
X136473870Y-115036784D01*
X136494169Y-115035820D01*
X136507931Y-115033301D01*
X136511979Y-115030432D01*
X136517415Y-115025658D01*
X136527858Y-115024081D01*
X136539945Y-115021457D01*
X136543670Y-115011128D01*
X136543737Y-115008202D01*
X136547050Y-114995431D01*
X136553264Y-114992323D01*
X136561685Y-114987238D01*
X136562792Y-114982795D01*
X136566221Y-114974343D01*
X136569143Y-114973268D01*
X136574277Y-114967939D01*
X136575495Y-114960365D01*
X136579634Y-114948152D01*
X136585022Y-114943807D01*
X136589573Y-114939483D01*
X136592470Y-114929279D01*
X136594023Y-114911033D01*
X136594542Y-114882586D01*
X136594550Y-114877315D01*
X136594230Y-114847877D01*
X136593057Y-114829034D01*
X136590714Y-114818687D01*
X136586883Y-114814738D01*
X136585022Y-114814478D01*
X136578398Y-114810283D01*
X136575668Y-114796376D01*
X136575495Y-114789072D01*
X136574086Y-114773162D01*
X136570567Y-114764313D01*
X136569143Y-114763665D01*
X136564010Y-114758337D01*
X136562792Y-114750763D01*
X136558653Y-114738549D01*
X136553264Y-114734204D01*
X136547399Y-114727788D01*
X136544407Y-114712799D01*
X136543737Y-114693118D01*
X136543737Y-114655688D01*
X136569143Y-114655688D01*
X136585512Y-114656555D01*
X136592788Y-114660643D01*
X136594541Y-114670185D01*
X136594550Y-114671567D01*
X136597173Y-114683655D01*
X136607502Y-114687379D01*
X136610429Y-114687446D01*
X136622740Y-114690289D01*
X136626304Y-114700529D01*
X136626308Y-114701037D01*
X136631993Y-114716969D01*
X136646595Y-114728188D01*
X136662829Y-114731706D01*
X136673076Y-114729501D01*
X136676828Y-114720072D01*
X136677120Y-114712653D01*
X136674141Y-114697076D01*
X136667593Y-114689743D01*
X136660190Y-114681243D01*
X136658066Y-114670888D01*
X136655803Y-114659280D01*
X136651714Y-114655688D01*
X136646580Y-114650360D01*
X136645362Y-114642786D01*
X136641224Y-114630572D01*
X136635835Y-114626227D01*
X136627394Y-114618230D01*
X136626308Y-114613724D01*
X136622396Y-114605721D01*
X136619502Y-114604876D01*
X136608728Y-114600065D01*
X136598494Y-114589505D01*
X136594550Y-114579923D01*
X136589670Y-114573397D01*
X136587744Y-114573118D01*
X136576970Y-114568307D01*
X136566736Y-114557747D01*
X136562792Y-114548165D01*
X136557912Y-114541639D01*
X136555987Y-114541360D01*
X136545212Y-114536549D01*
X136534978Y-114525989D01*
X136531034Y-114516407D01*
X136526154Y-114509881D01*
X136524229Y-114509602D01*
X136513919Y-114505054D01*
X136503665Y-114495124D01*
X136499276Y-114485723D01*
X136494273Y-114478878D01*
X136483397Y-114471492D01*
X136471793Y-114462584D01*
X136467518Y-114454540D01*
X136463451Y-114446805D01*
X136460713Y-114446086D01*
X136449938Y-114441275D01*
X136439705Y-114430715D01*
X136435760Y-114421133D01*
X136430880Y-114414607D01*
X136428955Y-114414328D01*
X136418180Y-114409517D01*
X136407947Y-114398957D01*
X136404002Y-114389375D01*
X136398569Y-114384261D01*
X136388123Y-114382570D01*
X136376187Y-114380396D01*
X136372244Y-114376219D01*
X136367100Y-114370584D01*
X136362717Y-114369867D01*
X136354296Y-114364783D01*
X136353189Y-114360340D01*
X136347853Y-114352590D01*
X136340060Y-114350812D01*
X136328070Y-114346399D01*
X136312842Y-114335234D01*
X136305964Y-114328582D01*
X136291457Y-114315397D01*
X136278690Y-114307428D01*
X136274433Y-114306351D01*
X136263243Y-114301367D01*
X136260213Y-114296824D01*
X136251679Y-114289296D01*
X136242037Y-114287296D01*
X136229143Y-114283592D01*
X136223861Y-114277769D01*
X136215245Y-114269923D01*
X136207302Y-114268242D01*
X136196873Y-114265619D01*
X136194400Y-114261890D01*
X136188964Y-114257115D01*
X136178521Y-114255538D01*
X136165750Y-114252226D01*
X136162642Y-114246011D01*
X136157120Y-114238348D01*
X136146763Y-114236484D01*
X136134826Y-114234309D01*
X136130884Y-114230132D01*
X136125171Y-114226509D01*
X136110566Y-114224209D01*
X136099126Y-114223780D01*
X136079155Y-114222761D01*
X136069400Y-114219229D01*
X136067368Y-114214253D01*
X136064612Y-114208909D01*
X136054763Y-114205939D01*
X136035452Y-114204795D01*
X136026083Y-114204726D01*
X136002925Y-114205362D01*
X135990054Y-114207635D01*
X135985100Y-114212091D01*
X135984797Y-114214253D01*
X135979977Y-114221300D01*
X135964591Y-114223763D01*
X135962567Y-114223780D01*
X135947873Y-114225376D01*
X135940528Y-114229299D01*
X135940336Y-114230132D01*
X135945170Y-114236299D01*
X135946688Y-114236484D01*
X135952323Y-114241628D01*
X135953039Y-114246011D01*
X135955643Y-114251174D01*
X135965011Y-114254136D01*
X135983475Y-114255393D01*
X135997766Y-114255538D01*
X136024019Y-114256367D01*
X136041134Y-114259341D01*
X136052600Y-114265193D01*
X136055507Y-114267663D01*
X136066481Y-114282388D01*
X136065397Y-114294091D01*
X136052698Y-114302000D01*
X136033965Y-114305111D01*
X136016389Y-114307378D01*
X136005540Y-114310965D01*
X136003852Y-114313051D01*
X135998216Y-114316810D01*
X135984138Y-114318901D01*
X135978446Y-114319054D01*
X135960780Y-114320628D01*
X135953500Y-114325843D01*
X135953039Y-114328582D01*
X135947518Y-114336244D01*
X135937160Y-114338109D01*
X135925224Y-114340283D01*
X135921281Y-114344461D01*
X135915755Y-114348893D01*
X135902411Y-114350810D01*
X135901923Y-114350812D01*
X135879936Y-114356913D01*
X135867849Y-114366691D01*
X135853829Y-114377703D01*
X135840099Y-114382559D01*
X135839570Y-114382570D01*
X135828794Y-114385255D01*
X135826008Y-114389375D01*
X135821196Y-114400150D01*
X135810637Y-114410384D01*
X135801055Y-114414328D01*
X135795020Y-114419465D01*
X135794250Y-114423856D01*
X135791574Y-114432318D01*
X135789314Y-114433383D01*
X135779375Y-114438123D01*
X135766315Y-114449721D01*
X135753714Y-114464241D01*
X135745150Y-114477746D01*
X135743437Y-114483838D01*
X135740843Y-114494352D01*
X135737085Y-114496899D01*
X135732311Y-114502334D01*
X135730734Y-114512778D01*
X135728406Y-114524712D01*
X135723929Y-114528657D01*
X135712057Y-114534032D01*
X135702332Y-114546629D01*
X135698976Y-114559281D01*
X135694705Y-114571312D01*
X135689448Y-114575415D01*
X135681603Y-114584031D01*
X135679921Y-114591973D01*
X135677298Y-114602402D01*
X135673570Y-114604876D01*
X135667935Y-114610020D01*
X135667218Y-114614403D01*
X135663788Y-114622856D01*
X135660866Y-114623931D01*
X135655732Y-114629259D01*
X135654515Y-114636833D01*
X135650376Y-114649047D01*
X135644987Y-114653392D01*
X135637020Y-114662037D01*
X135635460Y-114669374D01*
X135631029Y-114682003D01*
X135620292Y-114695747D01*
X135619581Y-114696418D01*
X135608680Y-114709185D01*
X135603729Y-114720245D01*
X135603702Y-114720841D01*
X135598564Y-114731422D01*
X135594175Y-114734204D01*
X135586329Y-114742820D01*
X135584647Y-114750763D01*
X135582024Y-114761192D01*
X135578296Y-114763665D01*
X135572661Y-114768810D01*
X135571944Y-114773193D01*
X135566860Y-114781614D01*
X135562417Y-114782720D01*
X135554667Y-114788056D01*
X135552889Y-114795838D01*
X135548253Y-114807471D01*
X135536260Y-114823754D01*
X135519790Y-114841810D01*
X135501719Y-114858762D01*
X135484924Y-114871733D01*
X135472283Y-114877844D01*
X135470733Y-114877994D01*
X135460192Y-114880761D01*
X135457616Y-114884799D01*
X135451878Y-114897382D01*
X135436953Y-114906398D01*
X135416784Y-114909752D01*
X135400163Y-114911734D01*
X135394175Y-114918099D01*
X135394100Y-114919279D01*
X135388578Y-114926942D01*
X135378221Y-114928807D01*
X135366284Y-114930981D01*
X135362342Y-114935158D01*
X135356369Y-114938248D01*
X135339935Y-114940438D01*
X135315267Y-114941465D01*
X135308154Y-114941510D01*
X135280225Y-114942019D01*
X135262707Y-114943793D01*
X135253338Y-114947206D01*
X135250310Y-114951037D01*
X135245491Y-114955951D01*
X135234135Y-114958918D01*
X135213974Y-114960316D01*
X135193345Y-114960565D01*
X135167292Y-114961275D01*
X135148872Y-114963227D01*
X135140355Y-114966150D01*
X135140036Y-114966916D01*
X135133831Y-114969343D01*
X135115784Y-114971229D01*
X135086745Y-114972527D01*
X135047567Y-114973190D01*
X135025708Y-114973268D01*
X134982022Y-114972923D01*
X134948072Y-114971921D01*
X134924711Y-114970307D01*
X134912789Y-114968131D01*
X134911379Y-114966916D01*
X134905795Y-114962718D01*
X134892066Y-114960620D01*
X134889148Y-114960565D01*
X134874455Y-114962160D01*
X134867110Y-114966083D01*
X134866918Y-114966916D01*
X134861482Y-114971691D01*
X134851039Y-114973268D01*
X134838268Y-114976581D01*
X134835160Y-114982795D01*
X134829677Y-114990481D01*
X134819960Y-114992323D01*
X134806788Y-114995870D01*
X134801105Y-115001850D01*
X134792489Y-115009696D01*
X134784547Y-115011377D01*
X134774118Y-115014000D01*
X134771644Y-115017729D01*
X134766500Y-115023364D01*
X134762117Y-115024081D01*
X134753664Y-115027510D01*
X134752589Y-115030432D01*
X134748077Y-115036510D01*
X134736760Y-115035810D01*
X134721965Y-115029216D01*
X134708070Y-115018629D01*
X134694751Y-115002605D01*
X134689559Y-114984941D01*
X134689073Y-114973714D01*
X134685857Y-114950876D01*
X134677209Y-114935007D01*
X134664633Y-114928815D01*
X134664121Y-114928807D01*
X134660054Y-114923004D01*
X134657667Y-114907710D01*
X134657315Y-114897049D01*
X134656173Y-114878933D01*
X134653252Y-114867434D01*
X134650964Y-114865291D01*
X134646189Y-114859855D01*
X134644612Y-114849412D01*
X134641299Y-114836641D01*
X134635085Y-114833533D01*
X134627400Y-114828050D01*
X134625558Y-114818334D01*
X134621875Y-114805104D01*
X134615679Y-114799344D01*
X134609473Y-114793226D01*
X134607311Y-114779448D01*
X134607740Y-114765318D01*
X134609679Y-114735083D01*
X134649376Y-114733192D01*
X134671010Y-114732421D01*
X134682886Y-114733429D01*
X134687927Y-114737269D01*
X134689059Y-114744992D01*
X134689073Y-114747483D01*
X134690062Y-114757083D01*
X134695198Y-114761872D01*
X134707733Y-114763508D01*
X134720831Y-114763665D01*
X134738947Y-114762523D01*
X134750446Y-114759602D01*
X134752589Y-114757314D01*
X134757734Y-114751679D01*
X134762117Y-114750962D01*
X134769876Y-114745670D01*
X134771644Y-114738284D01*
X134775968Y-114731206D01*
X134788080Y-114716585D01*
X134806686Y-114695740D01*
X134830494Y-114669995D01*
X134858212Y-114640670D01*
X134888546Y-114609087D01*
X134920204Y-114576567D01*
X134951893Y-114544433D01*
X134982322Y-114514005D01*
X135010197Y-114486605D01*
X135034225Y-114463555D01*
X135053114Y-114446176D01*
X135065572Y-114435790D01*
X135069871Y-114433383D01*
X135074869Y-114427949D01*
X135076520Y-114417504D01*
X135078694Y-114405567D01*
X135082872Y-114401625D01*
X135087920Y-114396270D01*
X135089223Y-114388062D01*
X135093689Y-114374518D01*
X135104496Y-114360355D01*
X135105102Y-114359783D01*
X135118546Y-114339794D01*
X135120981Y-114325510D01*
X135123936Y-114309695D01*
X135130509Y-114302296D01*
X135138195Y-114293721D01*
X135140036Y-114284949D01*
X135144849Y-114271539D01*
X135155915Y-114259332D01*
X135166647Y-114248224D01*
X135171177Y-114233227D01*
X135171794Y-114219715D01*
X135173094Y-114202980D01*
X135176371Y-114193130D01*
X135178146Y-114192023D01*
X135184046Y-114187904D01*
X135182038Y-114178167D01*
X135175424Y-114169338D01*
X135164273Y-114162736D01*
X135151430Y-114160411D01*
X135141973Y-114162754D01*
X135140036Y-114166616D01*
X135134726Y-114171806D01*
X135127552Y-114172968D01*
X135115967Y-114177174D01*
X135101168Y-114187464D01*
X135087181Y-114200348D01*
X135078032Y-114212334D01*
X135076520Y-114217215D01*
X135070929Y-114221519D01*
X135057147Y-114223710D01*
X135053836Y-114223780D01*
X135033245Y-114227287D01*
X135018493Y-114236408D01*
X135013004Y-114248733D01*
X135007371Y-114252994D01*
X134993297Y-114255365D01*
X134987598Y-114255538D01*
X134971689Y-114256947D01*
X134962840Y-114260466D01*
X134962192Y-114261890D01*
X134956605Y-114266073D01*
X134942851Y-114268181D01*
X134939762Y-114268242D01*
X134921750Y-114270970D01*
X134913676Y-114277769D01*
X134905175Y-114285172D01*
X134894820Y-114287296D01*
X134882560Y-114290734D01*
X134879621Y-114296824D01*
X134876221Y-114302815D01*
X134864450Y-114305741D01*
X134847863Y-114306351D01*
X134829747Y-114307494D01*
X134818248Y-114310415D01*
X134816105Y-114312703D01*
X134810777Y-114317837D01*
X134803203Y-114319054D01*
X134790989Y-114323193D01*
X134786644Y-114328582D01*
X134778143Y-114335985D01*
X134767789Y-114338109D01*
X134756181Y-114340372D01*
X134752589Y-114344461D01*
X134747154Y-114349235D01*
X134736710Y-114350812D01*
X134723939Y-114354125D01*
X134720831Y-114360340D01*
X134715399Y-114368052D01*
X134706460Y-114369867D01*
X134692511Y-114374707D01*
X134680164Y-114385746D01*
X134668126Y-114397058D01*
X134656426Y-114401625D01*
X134646598Y-114404463D01*
X134644612Y-114407977D01*
X134639468Y-114413612D01*
X134635085Y-114414328D01*
X134626664Y-114419412D01*
X134625558Y-114423856D01*
X134623330Y-114428504D01*
X134615199Y-114431399D01*
X134598996Y-114432903D01*
X134572547Y-114433378D01*
X134568393Y-114433383D01*
X134539046Y-114432832D01*
X134520861Y-114431039D01*
X134512340Y-114427793D01*
X134511229Y-114425363D01*
X134506570Y-114416203D01*
X134495365Y-114405430D01*
X134495350Y-114405419D01*
X134487326Y-114398318D01*
X134482575Y-114389748D01*
X134480252Y-114376409D01*
X134479512Y-114355000D01*
X134479471Y-114343372D01*
X134480059Y-114316520D01*
X134482095Y-114300030D01*
X134485987Y-114291601D01*
X134488998Y-114289593D01*
X134497440Y-114281596D01*
X134498526Y-114277089D01*
X134502183Y-114269083D01*
X134504877Y-114268242D01*
X134509652Y-114262806D01*
X134511229Y-114252363D01*
X134513557Y-114240429D01*
X134518034Y-114236484D01*
X134528809Y-114231673D01*
X134539042Y-114221113D01*
X134542987Y-114211531D01*
X134547867Y-114205005D01*
X134549792Y-114204726D01*
X134561747Y-114199306D01*
X134571414Y-114186508D01*
X134574745Y-114173421D01*
X134578611Y-114162721D01*
X134584272Y-114160265D01*
X134592721Y-114156595D01*
X134593800Y-114153459D01*
X134598611Y-114142684D01*
X134609171Y-114132451D01*
X134618752Y-114128507D01*
X134624787Y-114123369D01*
X134625558Y-114118979D01*
X134629227Y-114110531D01*
X134632363Y-114109452D01*
X134643138Y-114104641D01*
X134653371Y-114094081D01*
X134657315Y-114084499D01*
X134662195Y-114077973D01*
X134664121Y-114077694D01*
X134674896Y-114072883D01*
X134685129Y-114062323D01*
X134689073Y-114052741D01*
X134693953Y-114046215D01*
X134695879Y-114045936D01*
X134706654Y-114041125D01*
X134716887Y-114030565D01*
X134720831Y-114020983D01*
X134725711Y-114014457D01*
X134727637Y-114014178D01*
X134738411Y-114009367D01*
X134748645Y-113998807D01*
X134752589Y-113989225D01*
X134757469Y-113982699D01*
X134759395Y-113982420D01*
X134770169Y-113977609D01*
X134780403Y-113967049D01*
X134784347Y-113957467D01*
X134789659Y-113951929D01*
X134796974Y-113950662D01*
X134807156Y-113946322D01*
X134823035Y-113934739D01*
X134841765Y-113918066D01*
X134847357Y-113912553D01*
X134867603Y-113893685D01*
X134884996Y-113880392D01*
X134897022Y-113874558D01*
X134898246Y-113874443D01*
X134908928Y-113870572D01*
X134911379Y-113864916D01*
X134915685Y-113856478D01*
X134919399Y-113855388D01*
X134928559Y-113850729D01*
X134939332Y-113839525D01*
X134939343Y-113839509D01*
X134950418Y-113828275D01*
X134960209Y-113823630D01*
X134970355Y-113819292D01*
X134982923Y-113808749D01*
X134983866Y-113807751D01*
X134996761Y-113796839D01*
X135008094Y-113791898D01*
X135008690Y-113791873D01*
X135017481Y-113787617D01*
X135031816Y-113776633D01*
X135048870Y-113761591D01*
X135065822Y-113745164D01*
X135079847Y-113730023D01*
X135088122Y-113718841D01*
X135089223Y-113715655D01*
X135094659Y-113710879D01*
X135105102Y-113709302D01*
X135117039Y-113707128D01*
X135120981Y-113702950D01*
X135126417Y-113698176D01*
X135136860Y-113696599D01*
X135149631Y-113693286D01*
X135152739Y-113687071D01*
X135157824Y-113678651D01*
X135162267Y-113677544D01*
X135170719Y-113674114D01*
X135171794Y-113671192D01*
X135176985Y-113665670D01*
X135182022Y-113664841D01*
X135192303Y-113660279D01*
X135207023Y-113648715D01*
X135223027Y-113633332D01*
X135237161Y-113617312D01*
X135246271Y-113603838D01*
X135248013Y-113598250D01*
X135253156Y-113587381D01*
X135257541Y-113584567D01*
X135266096Y-113577977D01*
X135264890Y-113571548D01*
X135257541Y-113569567D01*
X135249878Y-113564045D01*
X135248013Y-113553688D01*
X135245839Y-113541751D01*
X135241662Y-113537809D01*
X135236027Y-113532664D01*
X135235310Y-113528282D01*
X135229788Y-113520619D01*
X135219431Y-113518754D01*
X135207494Y-113516580D01*
X135203552Y-113512403D01*
X135198407Y-113506768D01*
X135194025Y-113506051D01*
X135185604Y-113500967D01*
X135184497Y-113496524D01*
X135181068Y-113488071D01*
X135178146Y-113486996D01*
X135173371Y-113481561D01*
X135171794Y-113471117D01*
X135169466Y-113459183D01*
X135164989Y-113455238D01*
X135153011Y-113449807D01*
X135143360Y-113436950D01*
X135140036Y-113423735D01*
X135136029Y-113411328D01*
X135130509Y-113406723D01*
X135123105Y-113398222D01*
X135122483Y-113395189D01*
X135425858Y-113395189D01*
X135429151Y-113415552D01*
X135440657Y-113430100D01*
X135441737Y-113430967D01*
X135452967Y-113443148D01*
X135457616Y-113454810D01*
X135462365Y-113466455D01*
X135473494Y-113478087D01*
X135484891Y-113491025D01*
X135489373Y-113504383D01*
X135492975Y-113516017D01*
X135498901Y-113518754D01*
X135507350Y-113522424D01*
X135508428Y-113525560D01*
X135513239Y-113536334D01*
X135523799Y-113546568D01*
X135533381Y-113550512D01*
X135539416Y-113555649D01*
X135540186Y-113560040D01*
X135545708Y-113567702D01*
X135556065Y-113569567D01*
X135568002Y-113571741D01*
X135571944Y-113575919D01*
X135577915Y-113579012D01*
X135594337Y-113581202D01*
X135618974Y-113582227D01*
X135625933Y-113582270D01*
X135652076Y-113582416D01*
X135668032Y-113583346D01*
X135676315Y-113585801D01*
X135679439Y-113590521D01*
X135679921Y-113598149D01*
X135678260Y-113608887D01*
X135670786Y-113613283D01*
X135657691Y-113614028D01*
X135641248Y-113616094D01*
X135635500Y-113622688D01*
X135635460Y-113623555D01*
X135630087Y-113631293D01*
X135621897Y-113633083D01*
X135608353Y-113637549D01*
X135594190Y-113648356D01*
X135593618Y-113648962D01*
X135573764Y-113662359D01*
X135559544Y-113664841D01*
X135546035Y-113666654D01*
X135540192Y-113671032D01*
X135540186Y-113671192D01*
X135535042Y-113676827D01*
X135530659Y-113677544D01*
X135523678Y-113682262D01*
X135521163Y-113697419D01*
X135521131Y-113700228D01*
X135517213Y-113722256D01*
X135506568Y-113736642D01*
X135493003Y-113741060D01*
X135481370Y-113745280D01*
X135470319Y-113753763D01*
X135457616Y-113766466D01*
X135470319Y-113779169D01*
X135483869Y-113788492D01*
X135497233Y-113791576D01*
X135506483Y-113788094D01*
X135508428Y-113782345D01*
X135510527Y-113777902D01*
X135518217Y-113775050D01*
X135533587Y-113773475D01*
X135558726Y-113772863D01*
X135571944Y-113772818D01*
X135600839Y-113772649D01*
X135619335Y-113771832D01*
X135629734Y-113769898D01*
X135634339Y-113766381D01*
X135635452Y-113760811D01*
X135635460Y-113759915D01*
X135631321Y-113747702D01*
X135625933Y-113743357D01*
X135618738Y-113734271D01*
X135616405Y-113718150D01*
X135616405Y-113696599D01*
X135664042Y-113696599D01*
X135688045Y-113697387D01*
X135704775Y-113699520D01*
X135711634Y-113702652D01*
X135711679Y-113702950D01*
X135717471Y-113706325D01*
X135732633Y-113708616D01*
X135750215Y-113709302D01*
X135772472Y-113708684D01*
X135786909Y-113705616D01*
X135798394Y-113698281D01*
X135809717Y-113687071D01*
X135824782Y-113674287D01*
X135839826Y-113666415D01*
X135851787Y-113664468D01*
X135857606Y-113669456D01*
X135857766Y-113671192D01*
X135862910Y-113676827D01*
X135867293Y-113677544D01*
X135875714Y-113682628D01*
X135876820Y-113687071D01*
X135880506Y-113693307D01*
X135893076Y-113696179D01*
X135905856Y-113696599D01*
X135930148Y-113699670D01*
X135946601Y-113708111D01*
X135953021Y-113720761D01*
X135953039Y-113721551D01*
X135958382Y-113726989D01*
X135966376Y-113728357D01*
X135976672Y-113733158D01*
X135994756Y-113747333D01*
X136020232Y-113770538D01*
X136052704Y-113802432D01*
X136057964Y-113807751D01*
X136083555Y-113833488D01*
X136106114Y-113855745D01*
X136124127Y-113873062D01*
X136136082Y-113883983D01*
X136140355Y-113887146D01*
X136148921Y-113891822D01*
X136158083Y-113901960D01*
X136162629Y-113911724D01*
X136162642Y-113912099D01*
X136167522Y-113918625D01*
X136169447Y-113918904D01*
X136180222Y-113923715D01*
X136190455Y-113934275D01*
X136194400Y-113943857D01*
X136199537Y-113949892D01*
X136203927Y-113950662D01*
X136212177Y-113955801D01*
X136213454Y-113960911D01*
X136216566Y-113967862D01*
X136227824Y-113968925D01*
X136233098Y-113968276D01*
X136249745Y-113968656D01*
X136256008Y-113973906D01*
X136264435Y-113979839D01*
X136281727Y-113982393D01*
X136284002Y-113982420D01*
X136301410Y-113984082D01*
X136308387Y-113989552D01*
X136308728Y-113991948D01*
X136310289Y-113995269D01*
X136316017Y-113997735D01*
X136327479Y-113999466D01*
X136346240Y-114000582D01*
X136373867Y-114001205D01*
X136411928Y-114001453D01*
X136432784Y-114001475D01*
X136476370Y-114001341D01*
X136508858Y-114000860D01*
X136531854Y-113999912D01*
X136546959Y-113998378D01*
X136555779Y-113996137D01*
X136559917Y-113993071D01*
X136560495Y-113991948D01*
X136569029Y-113984420D01*
X136578671Y-113982420D01*
X136591632Y-113978554D01*
X136597001Y-113972490D01*
X136603458Y-113966033D01*
X136607573Y-113966739D01*
X136614654Y-113964321D01*
X136628009Y-113954357D01*
X136645339Y-113938677D01*
X136655002Y-113929032D01*
X136673220Y-113910675D01*
X136688132Y-113896408D01*
X136697563Y-113888274D01*
X136699552Y-113887146D01*
X136708551Y-113882139D01*
X136717395Y-113870959D01*
X136721575Y-113859366D01*
X136721582Y-113859002D01*
X136725841Y-113850312D01*
X136737248Y-113835433D01*
X136753745Y-113816930D01*
X136762867Y-113807516D01*
X136783904Y-113785377D01*
X136796726Y-113769018D01*
X136802914Y-113756128D01*
X136804152Y-113747192D01*
X136806012Y-113733908D01*
X136810485Y-113728357D01*
X136810504Y-113728357D01*
X136816139Y-113723212D01*
X136816855Y-113718829D01*
X136821940Y-113710409D01*
X136826383Y-113709302D01*
X136834045Y-113703780D01*
X136835910Y-113693423D01*
X136838084Y-113681486D01*
X136842262Y-113677544D01*
X136845212Y-113671505D01*
X136847346Y-113654609D01*
X136848478Y-113628686D01*
X136848613Y-113614028D01*
X136848928Y-113584409D01*
X136850082Y-113565393D01*
X136852387Y-113554891D01*
X136856158Y-113550813D01*
X136858141Y-113550512D01*
X136865187Y-113545692D01*
X136867651Y-113530306D01*
X136867668Y-113528282D01*
X136865602Y-113511840D01*
X136859008Y-113506091D01*
X136858141Y-113506051D01*
X136849720Y-113500967D01*
X136848613Y-113496524D01*
X136843793Y-113489477D01*
X136828407Y-113487014D01*
X136826383Y-113486996D01*
X136811061Y-113488417D01*
X136804879Y-113493965D01*
X136804152Y-113499699D01*
X136799266Y-113517904D01*
X136784249Y-113530087D01*
X136758565Y-113536542D01*
X136734285Y-113537809D01*
X136709532Y-113536886D01*
X136694175Y-113534297D01*
X136689824Y-113531004D01*
X136685012Y-113520229D01*
X136674453Y-113509996D01*
X136664871Y-113506051D01*
X136658345Y-113501171D01*
X136658066Y-113499246D01*
X136653255Y-113488471D01*
X136642695Y-113478238D01*
X136633113Y-113474293D01*
X136627078Y-113469156D01*
X136626308Y-113464766D01*
X136621776Y-113456333D01*
X136617854Y-113455238D01*
X136608963Y-113450171D01*
X136600901Y-113439359D01*
X136591993Y-113427755D01*
X136583949Y-113423480D01*
X136577487Y-113418012D01*
X136575495Y-113407601D01*
X136572872Y-113395514D01*
X136562542Y-113391790D01*
X136559616Y-113391722D01*
X136547298Y-113388874D01*
X136543740Y-113378632D01*
X136543737Y-113378181D01*
X136539316Y-113365931D01*
X136528131Y-113350540D01*
X136521507Y-113343674D01*
X136508425Y-113330031D01*
X136500435Y-113319179D01*
X136499276Y-113315930D01*
X136493843Y-113310836D01*
X136483397Y-113309152D01*
X136471460Y-113306978D01*
X136467518Y-113302800D01*
X136462373Y-113297165D01*
X136457991Y-113296449D01*
X136449542Y-113292779D01*
X136448463Y-113289643D01*
X136442726Y-113277060D01*
X136427800Y-113268045D01*
X136407632Y-113264691D01*
X136391011Y-113262709D01*
X136385023Y-113256343D01*
X136384947Y-113255163D01*
X136381518Y-113246711D01*
X136378596Y-113245636D01*
X136374398Y-113240052D01*
X136372299Y-113226323D01*
X136372244Y-113223405D01*
X136373839Y-113208712D01*
X136377762Y-113201367D01*
X136378596Y-113201175D01*
X136384231Y-113196030D01*
X136384947Y-113191647D01*
X136386899Y-113187464D01*
X136394071Y-113184678D01*
X136408443Y-113183032D01*
X136431990Y-113182269D01*
X136457991Y-113182120D01*
X136531034Y-113182120D01*
X136531034Y-113166241D01*
X136528188Y-113153926D01*
X136517947Y-113150365D01*
X136517471Y-113150362D01*
X136503927Y-113145896D01*
X136489764Y-113135089D01*
X136489192Y-113134483D01*
X136475356Y-113123487D01*
X136462017Y-113118618D01*
X136461470Y-113118604D01*
X136450985Y-113116000D01*
X136448463Y-113112253D01*
X136443135Y-113107119D01*
X136435561Y-113105901D01*
X136423347Y-113101762D01*
X136419002Y-113096374D01*
X136410335Y-113089252D01*
X136396668Y-113086846D01*
X136375689Y-113080903D01*
X136363273Y-113070967D01*
X136357518Y-113065150D01*
X136351350Y-113060961D01*
X136342725Y-113058134D01*
X136329602Y-113056401D01*
X136309939Y-113055493D01*
X136281692Y-113055145D01*
X136242820Y-113055088D01*
X136242037Y-113055088D01*
X136202962Y-113055143D01*
X136174547Y-113055483D01*
X136154752Y-113056378D01*
X136141532Y-113058095D01*
X136132847Y-113060901D01*
X136126653Y-113065064D01*
X136120908Y-113070850D01*
X136120800Y-113070967D01*
X136106964Y-113081964D01*
X136093625Y-113086833D01*
X136093078Y-113086846D01*
X136082596Y-113089634D01*
X136080071Y-113093652D01*
X136075260Y-113104426D01*
X136064700Y-113114660D01*
X136055118Y-113118604D01*
X136048592Y-113123484D01*
X136048313Y-113125409D01*
X136043502Y-113136184D01*
X136032942Y-113146418D01*
X136023361Y-113150362D01*
X136016834Y-113155242D01*
X136016555Y-113157167D01*
X136011744Y-113167942D01*
X136001184Y-113178175D01*
X135991603Y-113182120D01*
X135986065Y-113187432D01*
X135984797Y-113194751D01*
X135980164Y-113210556D01*
X135969002Y-113224751D01*
X135955416Y-113232545D01*
X135952070Y-113232933D01*
X135942435Y-113238473D01*
X135939190Y-113247159D01*
X135932985Y-113259312D01*
X135925437Y-113263621D01*
X135908700Y-113270936D01*
X135895255Y-113283620D01*
X135889530Y-113297449D01*
X135889524Y-113297860D01*
X135884891Y-113306954D01*
X135873645Y-113309152D01*
X135861710Y-113311480D01*
X135857766Y-113315957D01*
X135852954Y-113326732D01*
X135842395Y-113336965D01*
X135832813Y-113340910D01*
X135826287Y-113345790D01*
X135826008Y-113347715D01*
X135821196Y-113358490D01*
X135810637Y-113368723D01*
X135801055Y-113372668D01*
X135795020Y-113377805D01*
X135794250Y-113382195D01*
X135788819Y-113389925D01*
X135779959Y-113391785D01*
X135766174Y-113396966D01*
X135749209Y-113410942D01*
X135743437Y-113417129D01*
X135728822Y-113431506D01*
X135715695Y-113440694D01*
X135710091Y-113442473D01*
X135700663Y-113445523D01*
X135698976Y-113448887D01*
X135693831Y-113454522D01*
X135689448Y-113455238D01*
X135681000Y-113458908D01*
X135679921Y-113462044D01*
X135675975Y-113473804D01*
X135663294Y-113481580D01*
X135640614Y-113485824D01*
X135610054Y-113486996D01*
X135577125Y-113485587D01*
X135555352Y-113481058D01*
X135543469Y-113472958D01*
X135540186Y-113462044D01*
X135535306Y-113455517D01*
X135533381Y-113455238D01*
X135522606Y-113450427D01*
X135512373Y-113439867D01*
X135508428Y-113430286D01*
X135503291Y-113424251D01*
X135498901Y-113423480D01*
X135490480Y-113418396D01*
X135489373Y-113413953D01*
X135486178Y-113405497D01*
X135483464Y-113404426D01*
X135478078Y-113399025D01*
X135475524Y-113390135D01*
X135471466Y-113380142D01*
X135460621Y-113375271D01*
X135449676Y-113373872D01*
X135434114Y-113373268D01*
X135427438Y-113377220D01*
X135425886Y-113389093D01*
X135425858Y-113395189D01*
X135122483Y-113395189D01*
X135120981Y-113387867D01*
X135118188Y-113376248D01*
X135107448Y-113372711D01*
X135105102Y-113372668D01*
X135097227Y-113373209D01*
X135092512Y-113376562D01*
X135090146Y-113385317D01*
X135089320Y-113402066D01*
X135089223Y-113423480D01*
X135088966Y-113448782D01*
X135087759Y-113463944D01*
X135084953Y-113471527D01*
X135079898Y-113474092D01*
X135076321Y-113474293D01*
X135064107Y-113470154D01*
X135059762Y-113464766D01*
X135051124Y-113456831D01*
X135043629Y-113455238D01*
X135027006Y-113449799D01*
X135015505Y-113436434D01*
X135012942Y-113425522D01*
X135008389Y-113414970D01*
X134996809Y-113400617D01*
X134987598Y-113391722D01*
X134971196Y-113374405D01*
X134962859Y-113359216D01*
X134962254Y-113355201D01*
X134959643Y-113344048D01*
X134955386Y-113340910D01*
X134944612Y-113336099D01*
X134934378Y-113325539D01*
X134930434Y-113315957D01*
X134925296Y-113309922D01*
X134920906Y-113309152D01*
X134912651Y-113304014D01*
X134911379Y-113298924D01*
X134916096Y-113287959D01*
X134928085Y-113272945D01*
X134944100Y-113256961D01*
X134960897Y-113243083D01*
X134975232Y-113234389D01*
X134980946Y-113232933D01*
X134991527Y-113229031D01*
X134993950Y-113223405D01*
X134997619Y-113214957D01*
X135000755Y-113213878D01*
X135010511Y-113209797D01*
X135016634Y-113204804D01*
X135024200Y-113194177D01*
X135025708Y-113188925D01*
X135030587Y-113182399D01*
X135032513Y-113182120D01*
X135042269Y-113178039D01*
X135048392Y-113173046D01*
X135055958Y-113162419D01*
X135057465Y-113157167D01*
X135062603Y-113151133D01*
X135066993Y-113150362D01*
X135075448Y-113147093D01*
X135076520Y-113144313D01*
X135080719Y-113137118D01*
X135091757Y-113123916D01*
X135107302Y-113107485D01*
X135108278Y-113106506D01*
X135124102Y-113089366D01*
X135135480Y-113074532D01*
X135140030Y-113065122D01*
X135140036Y-113064918D01*
X135143374Y-113056273D01*
X135146388Y-113055088D01*
X135152023Y-113049944D01*
X135152739Y-113045561D01*
X135156200Y-113037109D01*
X135159149Y-113036034D01*
X135169101Y-113031379D01*
X135182178Y-113020087D01*
X135194571Y-113006166D01*
X135202473Y-112993624D01*
X135203552Y-112989297D01*
X135206721Y-112980282D01*
X135209904Y-112978869D01*
X135215539Y-112973725D01*
X135216255Y-112969342D01*
X135221339Y-112960921D01*
X135225783Y-112959815D01*
X135233527Y-112954460D01*
X135235310Y-112946481D01*
X135239802Y-112935030D01*
X135251786Y-112918545D01*
X135267068Y-112902052D01*
X135282969Y-112885127D01*
X135294361Y-112870417D01*
X135298824Y-112861056D01*
X135298826Y-112860943D01*
X135303415Y-112847970D01*
X135313861Y-112836747D01*
X135323778Y-112832783D01*
X135329813Y-112827645D01*
X135330584Y-112823255D01*
X135335668Y-112814835D01*
X135340111Y-112813728D01*
X135347820Y-112808289D01*
X135349639Y-112799251D01*
X135354528Y-112784333D01*
X135362342Y-112775618D01*
X135372285Y-112763822D01*
X135375045Y-112754261D01*
X135379420Y-112742931D01*
X135390073Y-112728542D01*
X135403296Y-112715143D01*
X135415381Y-112706787D01*
X135419448Y-112705751D01*
X135424558Y-112700401D01*
X135425858Y-112692313D01*
X135430509Y-112680513D01*
X135443053Y-112663796D01*
X135457616Y-112648587D01*
X135475021Y-112630018D01*
X135486253Y-112613998D01*
X135489373Y-112604860D01*
X135493176Y-112593942D01*
X135498901Y-112591422D01*
X135507350Y-112587753D01*
X135508428Y-112584617D01*
X135512509Y-112574861D01*
X135517502Y-112568738D01*
X135528129Y-112561172D01*
X135533381Y-112559664D01*
X135539907Y-112554785D01*
X135540186Y-112552859D01*
X135544267Y-112543103D01*
X135549260Y-112536980D01*
X135559887Y-112529414D01*
X135565139Y-112527907D01*
X135571665Y-112523027D01*
X135571944Y-112521101D01*
X135576025Y-112511345D01*
X135581018Y-112505222D01*
X135591645Y-112497656D01*
X135596897Y-112496149D01*
X135603423Y-112491269D01*
X135603702Y-112489343D01*
X135608513Y-112478568D01*
X135619073Y-112468335D01*
X135628655Y-112464391D01*
X135634881Y-112459338D01*
X135635460Y-112455937D01*
X135640528Y-112447046D01*
X135651339Y-112438984D01*
X135662943Y-112430076D01*
X135667218Y-112422032D01*
X135672535Y-112415249D01*
X135680348Y-112413578D01*
X135692338Y-112409165D01*
X135707566Y-112397999D01*
X135714443Y-112391347D01*
X135729648Y-112378082D01*
X135743959Y-112370131D01*
X135748951Y-112369117D01*
X135759715Y-112366428D01*
X135762492Y-112362312D01*
X135767303Y-112351537D01*
X135777863Y-112341303D01*
X135787444Y-112337359D01*
X135793479Y-112332222D01*
X135794250Y-112327832D01*
X135799623Y-112320094D01*
X135807812Y-112318304D01*
X135821357Y-112313838D01*
X135835520Y-112303031D01*
X135836091Y-112302425D01*
X135849043Y-112291508D01*
X135860496Y-112286571D01*
X135861092Y-112286546D01*
X135874245Y-112281979D01*
X135885547Y-112271550D01*
X135889524Y-112261594D01*
X135894934Y-112256398D01*
X135904723Y-112254788D01*
X135917895Y-112251241D01*
X135923578Y-112245261D01*
X135931819Y-112239094D01*
X135947163Y-112235997D01*
X135964349Y-112236146D01*
X135978110Y-112239717D01*
X135982371Y-112243298D01*
X135982435Y-112251414D01*
X135979570Y-112253355D01*
X135973810Y-112260869D01*
X135972094Y-112271197D01*
X135968685Y-112283570D01*
X135962567Y-112286546D01*
X135954116Y-112290060D01*
X135953039Y-112293056D01*
X135948772Y-112300215D01*
X135937410Y-112313597D01*
X135921111Y-112330721D01*
X135914930Y-112336856D01*
X135895322Y-112357672D01*
X135882058Y-112375138D01*
X135876840Y-112386995D01*
X135876820Y-112387511D01*
X135878104Y-112398227D01*
X135883074Y-112399240D01*
X135893413Y-112390355D01*
X135898495Y-112384996D01*
X135910483Y-112374167D01*
X135919880Y-112369158D01*
X135920438Y-112369117D01*
X135927865Y-112364888D01*
X135941717Y-112353557D01*
X135959594Y-112337158D01*
X135969154Y-112327832D01*
X135992970Y-112305501D01*
X136010765Y-112292201D01*
X136024137Y-112286798D01*
X136027278Y-112286546D01*
X136044012Y-112281228D01*
X136063857Y-112264812D01*
X136068086Y-112260362D01*
X136085790Y-112243843D01*
X136098704Y-112237548D01*
X136102045Y-112237932D01*
X136110424Y-112237178D01*
X136111829Y-112232358D01*
X136116918Y-112224112D01*
X136121356Y-112223030D01*
X136129777Y-112217946D01*
X136130884Y-112213503D01*
X136136405Y-112205840D01*
X136146763Y-112203976D01*
X136158699Y-112201801D01*
X136162642Y-112197624D01*
X136168277Y-112193647D01*
X136182353Y-112191434D01*
X136188048Y-112191272D01*
X136203956Y-112189763D01*
X136212806Y-112185994D01*
X136213454Y-112184467D01*
X136219263Y-112171620D01*
X136235224Y-112162919D01*
X136259143Y-112159524D01*
X136260638Y-112159514D01*
X136277840Y-112158271D01*
X136288253Y-112155121D01*
X136289674Y-112153163D01*
X136295261Y-112148980D01*
X136309014Y-112146872D01*
X136312103Y-112146811D01*
X136330115Y-112144083D01*
X136338189Y-112137284D01*
X136347207Y-112130098D01*
X136362867Y-112127756D01*
X136377877Y-112125773D01*
X136386107Y-112120946D01*
X136386330Y-112120432D01*
X136394243Y-112116337D01*
X136414563Y-112114423D01*
X136440892Y-112114485D01*
X136467690Y-112114741D01*
X136484326Y-112113524D01*
X136493296Y-112110454D01*
X136496824Y-112105931D01*
X136506179Y-112098246D01*
X136521507Y-112095999D01*
X136538337Y-112093149D01*
X136546034Y-112086471D01*
X136552313Y-112080678D01*
X136566996Y-112077678D01*
X136587999Y-112076944D01*
X136608379Y-112075984D01*
X136622206Y-112073474D01*
X136626308Y-112070592D01*
X136632495Y-112068088D01*
X136650417Y-112066162D01*
X136679119Y-112064872D01*
X136717644Y-112064276D01*
X136731109Y-112064241D01*
X136770454Y-112064089D01*
X136798790Y-112063534D01*
X136817809Y-112062419D01*
X136829204Y-112060592D01*
X136834667Y-112057898D01*
X136835910Y-112054713D01*
X136838009Y-112050270D01*
X136845699Y-112047418D01*
X136861068Y-112045843D01*
X136886208Y-112045231D01*
X136899426Y-112045186D01*
X136928932Y-112044582D01*
X136950265Y-112042892D01*
X136961594Y-112040300D01*
X136962942Y-112038834D01*
X136969157Y-112036455D01*
X136987275Y-112034594D01*
X137016505Y-112033293D01*
X137056056Y-112032595D01*
X137083622Y-112032483D01*
X137128836Y-112032810D01*
G37*
X137128836Y-112032810D02*
X137164191Y-112033763D01*
X137188897Y-112035302D01*
X137202162Y-112037383D01*
X137204302Y-112038834D01*
X137210076Y-112042232D01*
X137225110Y-112044530D01*
X137241732Y-112045186D01*
X137265182Y-112046246D01*
X137278290Y-112049769D01*
X137282818Y-112054713D01*
X137286242Y-112058475D01*
X137294367Y-112061132D01*
X137309006Y-112062857D01*
X137331976Y-112063825D01*
X137365088Y-112064211D01*
X137381947Y-112064241D01*
X137420827Y-112064651D01*
X137450404Y-112065833D01*
X137469594Y-112067716D01*
X137477316Y-112070227D01*
X137477420Y-112070592D01*
X137483004Y-112074790D01*
X137496734Y-112076889D01*
X137499651Y-112076944D01*
X137516093Y-112079010D01*
X137521841Y-112085603D01*
X137521882Y-112086471D01*
X137526077Y-112093096D01*
X137539984Y-112095826D01*
X137547288Y-112095999D01*
X137564954Y-112097572D01*
X137572233Y-112102787D01*
X137572694Y-112105526D01*
X137574793Y-112109969D01*
X137582483Y-112112821D01*
X137597853Y-112114396D01*
X137622992Y-112115008D01*
X137636210Y-112115053D01*
X137665717Y-112115657D01*
X137687049Y-112117347D01*
X137698378Y-112119939D01*
X137699726Y-112121405D01*
X137705162Y-112126180D01*
X137715605Y-112127756D01*
X137728376Y-112131069D01*
X137731484Y-112137284D01*
X137735679Y-112143909D01*
X137749586Y-112146638D01*
X137756890Y-112146811D01*
X137772800Y-112148220D01*
X137781649Y-112151739D01*
X137782297Y-112153163D01*
X137788208Y-112156363D01*
X137804208Y-112158594D01*
X137827700Y-112159508D01*
X137829934Y-112159514D01*
X137853937Y-112160303D01*
X137870667Y-112162436D01*
X137877526Y-112165568D01*
X137877571Y-112165866D01*
X137882899Y-112171000D01*
X137890473Y-112172218D01*
X137902687Y-112176356D01*
X137907032Y-112181745D01*
X137912321Y-112186969D01*
X137924760Y-112189971D01*
X137946670Y-112191187D01*
X137957645Y-112191272D01*
X137981395Y-112192071D01*
X137997919Y-112194228D01*
X138004574Y-112197387D01*
X138004602Y-112197624D01*
X138009931Y-112202758D01*
X138017505Y-112203976D01*
X138029718Y-112208114D01*
X138034063Y-112213503D01*
X138042590Y-112221002D01*
X138052389Y-112223030D01*
X138064826Y-112225865D01*
X138069544Y-112230485D01*
X138077634Y-112234912D01*
X138097885Y-112236633D01*
X138114566Y-112236398D01*
X138138563Y-112236170D01*
X138152665Y-112237979D01*
X138159583Y-112242318D01*
X138160927Y-112244822D01*
X138168834Y-112253534D01*
X138173599Y-112254788D01*
X138181426Y-112259887D01*
X138182447Y-112264316D01*
X138187267Y-112271362D01*
X138202653Y-112273826D01*
X138204677Y-112273843D01*
X138219371Y-112275438D01*
X138226716Y-112279361D01*
X138226908Y-112280195D01*
X138232678Y-112283596D01*
X138247687Y-112285896D01*
X138264128Y-112286546D01*
X138286206Y-112287287D01*
X138299785Y-112290407D01*
X138309025Y-112297249D01*
X138313272Y-112302425D01*
X138326387Y-112314205D01*
X138344671Y-112318217D01*
X138349096Y-112318304D01*
X138366188Y-112320085D01*
X138372779Y-112325894D01*
X138372994Y-112327832D01*
X138378516Y-112335494D01*
X138388873Y-112337359D01*
X138400810Y-112339533D01*
X138404752Y-112343710D01*
X138410188Y-112348485D01*
X138420631Y-112350062D01*
X138433402Y-112353375D01*
X138436510Y-112359589D01*
X138440706Y-112366214D01*
X138454612Y-112368944D01*
X138461917Y-112369117D01*
X138477826Y-112370526D01*
X138486675Y-112374045D01*
X138487323Y-112375468D01*
X138492643Y-112380629D01*
X138500026Y-112381820D01*
X138510372Y-112385791D01*
X138512729Y-112391347D01*
X138518251Y-112399010D01*
X138528608Y-112400875D01*
X138540545Y-112403049D01*
X138544487Y-112407226D01*
X138550042Y-112411580D01*
X138563573Y-112413661D01*
X138565130Y-112413688D01*
X138588488Y-112419853D01*
X138600730Y-112429567D01*
X138620916Y-112442862D01*
X138637252Y-112445336D01*
X138653428Y-112447536D01*
X138658808Y-112454486D01*
X138658816Y-112454863D01*
X138664337Y-112462526D01*
X138674695Y-112464391D01*
X138686631Y-112466565D01*
X138690574Y-112470742D01*
X138695718Y-112476377D01*
X138700101Y-112477094D01*
X138708522Y-112482178D01*
X138709629Y-112486621D01*
X138714449Y-112493668D01*
X138729834Y-112496131D01*
X138731859Y-112496149D01*
X138746553Y-112497744D01*
X138753898Y-112501667D01*
X138754090Y-112502500D01*
X138759422Y-112507620D01*
X138767096Y-112508852D01*
X138780228Y-112513302D01*
X138794203Y-112524078D01*
X138794819Y-112524731D01*
X138814969Y-112538227D01*
X138829449Y-112540610D01*
X138844947Y-112543204D01*
X138849363Y-112550137D01*
X138854448Y-112558558D01*
X138858891Y-112559664D01*
X138867343Y-112563094D01*
X138868418Y-112566016D01*
X138873670Y-112571376D01*
X138879710Y-112572368D01*
X138895254Y-112578175D01*
X138906669Y-112593971D01*
X138912458Y-112617316D01*
X138912879Y-112626429D01*
X138914132Y-112645241D01*
X138918391Y-112653794D01*
X138922407Y-112654938D01*
X138930827Y-112660023D01*
X138931934Y-112664466D01*
X138935364Y-112672918D01*
X138938286Y-112673993D01*
X138942484Y-112679577D01*
X138944582Y-112693306D01*
X138944637Y-112696224D01*
X138946703Y-112712666D01*
X138953297Y-112718414D01*
X138954165Y-112718454D01*
X138958813Y-112720682D01*
X138961708Y-112728812D01*
X138963212Y-112745016D01*
X138963687Y-112771464D01*
X138963692Y-112775618D01*
X138964063Y-112803507D01*
X138965418Y-112820878D01*
X138968119Y-112829903D01*
X138972527Y-112832753D01*
X138973219Y-112832783D01*
X138980882Y-112838304D01*
X138982747Y-112848662D01*
X138984921Y-112860598D01*
X138989098Y-112864541D01*
X138991094Y-112870820D01*
X138992733Y-112889377D01*
X138993999Y-112919790D01*
X138994879Y-112961640D01*
X138995359Y-113014505D01*
X138995450Y-113055088D01*
X138995241Y-113114971D01*
X138994622Y-113164115D01*
X138993608Y-113202099D01*
X138992213Y-113228504D01*
X138990451Y-113242908D01*
X138989098Y-113245636D01*
X138984345Y-113251078D01*
X138982747Y-113261714D01*
X138979383Y-113275241D01*
X138973219Y-113281449D01*
X138968275Y-113286311D01*
X138965305Y-113297768D01*
X138963922Y-113318095D01*
X138963692Y-113337734D01*
X138963155Y-113365252D01*
X138961288Y-113382379D01*
X138957704Y-113391392D01*
X138954165Y-113394019D01*
X138946959Y-113403209D01*
X138944637Y-113420105D01*
X138943055Y-113434878D01*
X138939161Y-113442322D01*
X138938286Y-113442535D01*
X138934035Y-113448106D01*
X138931971Y-113461752D01*
X138931934Y-113464086D01*
X138929138Y-113481434D01*
X138922407Y-113489293D01*
X138914561Y-113497909D01*
X138912879Y-113505852D01*
X138910256Y-113516281D01*
X138906528Y-113518754D01*
X138900893Y-113523899D01*
X138900176Y-113528282D01*
X138895092Y-113536702D01*
X138890649Y-113537809D01*
X138882228Y-113532725D01*
X138881121Y-113528282D01*
X138877692Y-113519829D01*
X138874770Y-113518754D01*
X138871569Y-113512843D01*
X138869339Y-113496843D01*
X138868424Y-113473351D01*
X138868418Y-113471117D01*
X138867919Y-113445990D01*
X138866116Y-113431241D01*
X138862548Y-113424572D01*
X138858891Y-113423480D01*
X138850470Y-113418396D01*
X138849363Y-113413953D01*
X138845934Y-113405501D01*
X138843012Y-113404426D01*
X138837377Y-113409570D01*
X138836660Y-113413953D01*
X138831576Y-113422374D01*
X138827133Y-113423480D01*
X138821141Y-113426880D01*
X138818215Y-113438651D01*
X138817606Y-113455238D01*
X138816463Y-113473354D01*
X138813542Y-113484853D01*
X138811254Y-113486996D01*
X138806403Y-113492410D01*
X138804902Y-113502196D01*
X138801355Y-113515368D01*
X138795375Y-113521051D01*
X138789582Y-113527330D01*
X138786582Y-113542013D01*
X138785848Y-113563016D01*
X138784888Y-113583397D01*
X138782378Y-113597223D01*
X138779496Y-113601325D01*
X138774721Y-113606760D01*
X138773144Y-113617204D01*
X138769832Y-113629975D01*
X138763617Y-113633083D01*
X138755954Y-113638604D01*
X138754090Y-113648962D01*
X138751915Y-113660898D01*
X138747738Y-113664841D01*
X138744115Y-113670553D01*
X138741815Y-113685159D01*
X138741386Y-113696599D01*
X138740367Y-113716570D01*
X138736835Y-113726324D01*
X138731859Y-113728357D01*
X138724196Y-113733878D01*
X138722332Y-113744236D01*
X138720157Y-113756172D01*
X138715980Y-113760115D01*
X138711205Y-113765550D01*
X138709629Y-113775994D01*
X138706316Y-113788765D01*
X138700101Y-113791873D01*
X138693120Y-113796591D01*
X138690606Y-113811747D01*
X138690574Y-113814557D01*
X138687068Y-113835147D01*
X138677946Y-113849900D01*
X138665621Y-113855388D01*
X138661554Y-113861191D01*
X138659167Y-113876485D01*
X138658816Y-113887146D01*
X138657673Y-113905262D01*
X138654752Y-113916761D01*
X138652464Y-113918904D01*
X138647690Y-113924340D01*
X138646113Y-113934783D01*
X138642800Y-113947554D01*
X138636585Y-113950662D01*
X138628165Y-113955746D01*
X138627058Y-113960190D01*
X138623628Y-113968642D01*
X138620706Y-113969717D01*
X138616264Y-113975241D01*
X138614356Y-113988569D01*
X138614355Y-113988971D01*
X138611375Y-114004549D01*
X138604827Y-114011881D01*
X138596386Y-114019878D01*
X138595300Y-114024385D01*
X138590201Y-114032212D01*
X138585773Y-114033233D01*
X138578110Y-114038754D01*
X138576245Y-114049112D01*
X138574071Y-114061048D01*
X138569894Y-114064991D01*
X138565643Y-114070562D01*
X138563579Y-114084207D01*
X138563542Y-114086542D01*
X138560746Y-114103890D01*
X138554015Y-114111749D01*
X138546764Y-114120208D01*
X138544487Y-114131483D01*
X138542338Y-114143515D01*
X138538136Y-114147561D01*
X138532975Y-114152881D01*
X138531784Y-114160265D01*
X138527813Y-114170610D01*
X138522257Y-114172968D01*
X138513941Y-114178086D01*
X138512729Y-114182937D01*
X138507985Y-114190478D01*
X138498438Y-114190876D01*
X138492231Y-114189361D01*
X138488062Y-114185416D01*
X138485439Y-114176796D01*
X138483870Y-114161254D01*
X138482864Y-114136543D01*
X138482351Y-114117391D01*
X138481360Y-114086159D01*
X138480004Y-114065514D01*
X138477902Y-114053340D01*
X138474671Y-114047522D01*
X138469932Y-114045943D01*
X138469472Y-114045936D01*
X138455739Y-114051352D01*
X138443480Y-114064414D01*
X138436818Y-114080346D01*
X138436510Y-114084118D01*
X138432522Y-114094406D01*
X138426983Y-114096749D01*
X138419320Y-114102270D01*
X138417455Y-114112628D01*
X138415281Y-114124564D01*
X138411104Y-114128507D01*
X138406854Y-114134078D01*
X138404790Y-114147723D01*
X138404752Y-114150058D01*
X138401956Y-114167406D01*
X138395225Y-114175265D01*
X138388019Y-114184454D01*
X138385698Y-114201351D01*
X138384115Y-114216123D01*
X138380221Y-114223567D01*
X138379346Y-114223780D01*
X138374571Y-114229216D01*
X138372994Y-114239659D01*
X138369682Y-114252431D01*
X138363467Y-114255538D01*
X138356842Y-114259734D01*
X138354113Y-114273641D01*
X138353940Y-114280945D01*
X138352531Y-114296854D01*
X138349012Y-114305703D01*
X138347588Y-114306351D01*
X138342454Y-114311680D01*
X138341236Y-114319254D01*
X138337098Y-114331467D01*
X138331709Y-114335812D01*
X138324306Y-114344313D01*
X138322182Y-114354668D01*
X138319919Y-114366275D01*
X138315830Y-114369867D01*
X138311632Y-114375451D01*
X138309533Y-114389180D01*
X138309478Y-114392098D01*
X138307412Y-114408540D01*
X138300819Y-114414288D01*
X138299951Y-114414328D01*
X138291530Y-114419412D01*
X138290424Y-114423856D01*
X138286994Y-114432308D01*
X138284072Y-114433383D01*
X138279630Y-114438907D01*
X138277722Y-114452235D01*
X138277721Y-114452637D01*
X138274741Y-114468215D01*
X138268193Y-114475547D01*
X138260226Y-114484193D01*
X138258666Y-114491530D01*
X138254234Y-114504158D01*
X138243498Y-114517902D01*
X138242787Y-114518573D01*
X138229290Y-114538724D01*
X138226908Y-114553204D01*
X138225141Y-114566950D01*
X138220859Y-114573095D01*
X138220556Y-114573118D01*
X138214921Y-114578262D01*
X138214205Y-114582645D01*
X138209120Y-114591066D01*
X138204677Y-114592173D01*
X138197015Y-114597694D01*
X138195150Y-114608052D01*
X138192976Y-114619988D01*
X138188798Y-114623931D01*
X138184024Y-114629366D01*
X138182447Y-114639810D01*
X138179134Y-114652581D01*
X138172919Y-114655688D01*
X138165257Y-114661210D01*
X138163392Y-114671567D01*
X138161218Y-114683504D01*
X138157040Y-114687446D01*
X138152266Y-114692882D01*
X138150689Y-114703325D01*
X138148539Y-114715262D01*
X138144410Y-114719204D01*
X138132625Y-114724166D01*
X138120586Y-114735659D01*
X138113177Y-114748596D01*
X138112579Y-114752374D01*
X138109625Y-114761903D01*
X138106228Y-114763665D01*
X138101195Y-114769026D01*
X138099876Y-114777352D01*
X138095362Y-114789558D01*
X138083642Y-114805603D01*
X138074470Y-114815207D01*
X138060234Y-114830990D01*
X138051014Y-114845511D01*
X138049063Y-114852333D01*
X138046450Y-114862792D01*
X138042712Y-114865291D01*
X138037937Y-114870726D01*
X138036360Y-114881170D01*
X138034032Y-114893104D01*
X138029555Y-114897049D01*
X138018012Y-114902253D01*
X138008092Y-114914136D01*
X138004602Y-114925481D01*
X138000227Y-114936606D01*
X137989607Y-114949646D01*
X137988723Y-114950481D01*
X137977711Y-114964501D01*
X137972856Y-114978232D01*
X137972844Y-114978760D01*
X137969070Y-114989775D01*
X137963317Y-114992323D01*
X137955604Y-114997755D01*
X137953790Y-115006694D01*
X137948950Y-115020643D01*
X137937911Y-115032990D01*
X137926599Y-115045028D01*
X137922032Y-115056728D01*
X137919194Y-115066556D01*
X137915680Y-115068542D01*
X137910045Y-115073686D01*
X137909328Y-115078069D01*
X137904244Y-115086490D01*
X137899801Y-115087596D01*
X137892088Y-115093028D01*
X137890274Y-115101968D01*
X137885434Y-115115917D01*
X137874395Y-115128264D01*
X137863071Y-115140456D01*
X137858516Y-115152456D01*
X137854117Y-115166893D01*
X137843836Y-115178768D01*
X137833563Y-115182870D01*
X137828153Y-115188221D01*
X137826758Y-115196411D01*
X137822337Y-115208661D01*
X137811152Y-115224053D01*
X137804527Y-115230919D01*
X137791273Y-115246025D01*
X137783319Y-115260121D01*
X137782297Y-115265014D01*
X137778424Y-115275694D01*
X137772769Y-115278144D01*
X137764349Y-115283228D01*
X137763242Y-115287671D01*
X137758158Y-115296092D01*
X137753715Y-115297199D01*
X137745966Y-115302538D01*
X137744187Y-115310356D01*
X137739867Y-115325354D01*
X137729666Y-115337482D01*
X137719235Y-115341660D01*
X137713200Y-115346797D01*
X137712429Y-115351187D01*
X137709000Y-115359640D01*
X137706078Y-115360715D01*
X137701303Y-115366150D01*
X137699726Y-115376594D01*
X137697398Y-115388528D01*
X137692921Y-115392473D01*
X137683165Y-115396554D01*
X137677042Y-115401546D01*
X137669475Y-115412174D01*
X137667968Y-115417425D01*
X137662535Y-115422540D01*
X137652089Y-115424231D01*
X137639318Y-115420918D01*
X137636210Y-115414703D01*
X137632541Y-115406255D01*
X137629405Y-115405176D01*
X137619649Y-115401095D01*
X137613526Y-115396102D01*
X137605959Y-115385475D01*
X137604452Y-115380223D01*
X137599572Y-115373697D01*
X137597647Y-115373418D01*
X137587891Y-115369337D01*
X137581768Y-115364344D01*
X137574202Y-115353717D01*
X137572694Y-115348465D01*
X137567815Y-115341939D01*
X137565889Y-115341660D01*
X137556133Y-115337579D01*
X137550010Y-115332586D01*
X137542444Y-115321959D01*
X137540936Y-115316707D01*
X137535799Y-115310673D01*
X137531409Y-115309902D01*
X137522956Y-115306472D01*
X137521882Y-115303550D01*
X137516446Y-115298776D01*
X137506003Y-115297199D01*
X137494069Y-115294871D01*
X137490124Y-115290394D01*
X137485313Y-115279619D01*
X137474753Y-115269385D01*
X137465171Y-115265441D01*
X137459136Y-115260304D01*
X137458366Y-115255914D01*
X137452994Y-115248175D01*
X137444825Y-115246386D01*
X137432575Y-115241965D01*
X137417183Y-115230780D01*
X137410317Y-115224156D01*
X137396156Y-115211012D01*
X137384155Y-115203034D01*
X137380287Y-115201925D01*
X137370352Y-115197237D01*
X137359298Y-115186046D01*
X137346082Y-115174477D01*
X137332803Y-115170167D01*
X137319889Y-115166475D01*
X137314576Y-115160640D01*
X137306075Y-115153236D01*
X137295721Y-115151112D01*
X137284116Y-115148690D01*
X137280521Y-115144307D01*
X137274784Y-115131724D01*
X137259858Y-115122709D01*
X137239690Y-115119354D01*
X137224818Y-115117677D01*
X137217249Y-115113543D01*
X137217005Y-115112549D01*
X137211268Y-115099966D01*
X137196343Y-115090951D01*
X137176174Y-115087596D01*
X137159553Y-115085615D01*
X137153565Y-115079249D01*
X137153489Y-115078069D01*
X137149294Y-115071444D01*
X137135387Y-115068715D01*
X137128083Y-115068542D01*
X137112174Y-115067133D01*
X137103325Y-115063614D01*
X137102677Y-115062190D01*
X137097093Y-115057992D01*
X137083364Y-115055893D01*
X137080446Y-115055839D01*
X137064004Y-115053773D01*
X137058256Y-115047179D01*
X137058216Y-115046311D01*
X137052694Y-115038648D01*
X137042337Y-115036784D01*
X137033536Y-115035977D01*
X137028785Y-115031567D01*
X137026840Y-115020573D01*
X137026458Y-115000010D01*
X137026458Y-114998674D01*
X137025494Y-114978375D01*
X137022975Y-114964613D01*
X137020106Y-114960565D01*
X137015923Y-114954978D01*
X137013815Y-114941224D01*
X137013755Y-114938135D01*
X137011026Y-114920123D01*
X137004227Y-114912049D01*
X136996824Y-114903548D01*
X136994700Y-114893193D01*
X136991263Y-114880933D01*
X136985172Y-114877994D01*
X136978126Y-114873173D01*
X136975662Y-114857788D01*
X136975645Y-114855763D01*
X136974050Y-114841070D01*
X136970127Y-114833725D01*
X136969293Y-114833533D01*
X136964443Y-114828119D01*
X136962942Y-114818334D01*
X136959394Y-114805161D01*
X136953414Y-114799478D01*
X136946164Y-114791019D01*
X136943887Y-114779744D01*
X136941737Y-114767712D01*
X136937536Y-114763665D01*
X136932761Y-114758230D01*
X136931184Y-114747786D01*
X136928817Y-114735853D01*
X136924266Y-114731908D01*
X136916508Y-114727651D01*
X136903236Y-114716572D01*
X136889569Y-114703325D01*
X136867829Y-114683733D01*
X136851532Y-114675157D01*
X136840899Y-114677625D01*
X136836154Y-114691163D01*
X136835910Y-114696974D01*
X136837505Y-114711668D01*
X136841428Y-114719012D01*
X136842262Y-114719204D01*
X136844534Y-114725441D01*
X136846336Y-114743704D01*
X136847637Y-114773326D01*
X136848404Y-114813639D01*
X136848613Y-114855763D01*
X136848323Y-114904628D01*
X136847474Y-114943371D01*
X136846096Y-114971322D01*
X136844221Y-114987814D01*
X136842262Y-114992323D01*
X136838063Y-114997906D01*
X136835965Y-115011636D01*
X136835910Y-115014553D01*
X136833844Y-115030995D01*
X136827250Y-115036744D01*
X136826383Y-115036784D01*
X136818720Y-115042305D01*
X136816855Y-115052663D01*
X136814681Y-115064599D01*
X136810504Y-115068542D01*
X136806526Y-115074177D01*
X136804314Y-115088253D01*
X136804152Y-115093948D01*
X136802643Y-115109856D01*
X136798873Y-115118706D01*
X136797347Y-115119354D01*
X136785691Y-115124617D01*
X136775833Y-115136732D01*
X136772394Y-115148466D01*
X136768037Y-115158733D01*
X136756843Y-115173361D01*
X136746988Y-115183599D01*
X136732823Y-115198824D01*
X136723600Y-115212095D01*
X136721582Y-115218003D01*
X136716168Y-115232636D01*
X136703460Y-115243655D01*
X136693150Y-115246386D01*
X136682024Y-115250761D01*
X136668984Y-115261381D01*
X136668149Y-115262265D01*
X136654129Y-115273277D01*
X136640399Y-115278133D01*
X136639870Y-115278144D01*
X136628856Y-115281919D01*
X136626308Y-115287671D01*
X136622908Y-115293663D01*
X136611137Y-115296589D01*
X136594550Y-115297199D01*
X136576434Y-115298341D01*
X136564935Y-115301263D01*
X136562792Y-115303550D01*
X136557378Y-115308401D01*
X136547592Y-115309902D01*
X136534420Y-115313450D01*
X136528737Y-115319429D01*
X136524689Y-115323758D01*
X136515125Y-115326599D01*
X136497970Y-115328222D01*
X136471152Y-115328893D01*
X136455014Y-115328957D01*
X136423428Y-115329507D01*
X136400304Y-115331062D01*
X136387262Y-115333473D01*
X136384947Y-115335308D01*
X136378748Y-115337760D01*
X136360740Y-115339659D01*
X136331806Y-115340955D01*
X136292832Y-115341597D01*
X136273795Y-115341660D01*
X136230889Y-115341306D01*
X136197655Y-115340277D01*
X136174976Y-115338623D01*
X136163738Y-115336396D01*
X136162642Y-115335308D01*
X136156527Y-115332557D01*
X136139101Y-115330511D01*
X136111742Y-115329280D01*
X136083247Y-115328957D01*
X136049615Y-115328732D01*
X136026770Y-115327904D01*
X136012801Y-115326245D01*
X136005799Y-115323524D01*
X136003853Y-115319514D01*
X136003852Y-115319429D01*
X135999657Y-115312805D01*
X135985750Y-115310075D01*
X135978446Y-115309902D01*
X135962536Y-115308493D01*
X135953687Y-115304974D01*
X135953039Y-115303550D01*
X135946875Y-115300962D01*
X135929104Y-115298993D01*
X135900815Y-115297717D01*
X135863091Y-115297205D01*
X135857766Y-115297199D01*
X135820477Y-115297026D01*
X135794123Y-115296390D01*
X135776937Y-115295114D01*
X135767155Y-115293021D01*
X135763009Y-115289936D01*
X135762492Y-115287671D01*
X135759736Y-115282327D01*
X135749887Y-115279357D01*
X135730576Y-115278214D01*
X135721206Y-115278144D01*
X135699632Y-115277247D01*
X135684862Y-115274869D01*
X135679921Y-115271793D01*
X135674136Y-115268409D01*
X135659022Y-115266116D01*
X135641812Y-115265441D01*
X135619683Y-115264709D01*
X135607802Y-115262115D01*
X135603777Y-115257061D01*
X135603702Y-115255914D01*
X135602191Y-115252731D01*
X135596660Y-115250329D01*
X135585611Y-115248605D01*
X135567545Y-115247454D01*
X135540965Y-115246770D01*
X135504371Y-115246450D01*
X135467143Y-115246386D01*
X135418278Y-115246096D01*
X135379536Y-115245247D01*
X135351584Y-115243869D01*
X135335092Y-115241994D01*
X135330584Y-115240035D01*
X135324397Y-115237531D01*
X135306474Y-115235605D01*
X135277772Y-115234315D01*
X135239248Y-115233718D01*
X135225783Y-115233683D01*
X135186438Y-115233532D01*
X135158102Y-115232976D01*
X135139083Y-115231861D01*
X135127688Y-115230034D01*
X135122225Y-115227341D01*
X135120981Y-115224156D01*
X135116161Y-115217109D01*
X135100775Y-115214645D01*
X135098751Y-115214628D01*
X135082309Y-115216694D01*
X135076560Y-115223288D01*
X135076520Y-115224156D01*
X135070999Y-115231818D01*
X135060641Y-115233683D01*
X135048705Y-115235857D01*
X135044762Y-115240035D01*
X135039082Y-115243806D01*
X135024693Y-115246082D01*
X135015877Y-115246386D01*
X134994355Y-115248318D01*
X134979515Y-115255477D01*
X134972275Y-115262265D01*
X134958255Y-115273277D01*
X134944525Y-115278133D01*
X134943996Y-115278144D01*
X134932982Y-115281919D01*
X134930434Y-115287671D01*
X134926238Y-115294296D01*
X134912332Y-115297026D01*
X134905027Y-115297199D01*
X134887362Y-115295626D01*
X134880082Y-115290411D01*
X134879621Y-115287671D01*
X134876191Y-115279219D01*
X134873269Y-115278144D01*
X134869071Y-115272561D01*
X134866973Y-115258831D01*
X134866918Y-115255914D01*
X134864852Y-115239471D01*
X134858258Y-115233723D01*
X134857390Y-115233683D01*
X134851320Y-115228199D01*
X134847953Y-115214635D01*
X134847291Y-115197325D01*
X134849331Y-115180599D01*
X134854076Y-115168791D01*
X134857390Y-115166112D01*
X134865326Y-115157474D01*
X134866918Y-115149979D01*
X134872425Y-115132923D01*
X134887910Y-115122359D01*
X134907749Y-115119354D01*
X134924370Y-115117373D01*
X134930358Y-115111007D01*
X134930434Y-115109827D01*
X134935955Y-115102164D01*
X134946313Y-115100300D01*
X134958249Y-115098125D01*
X134962192Y-115093948D01*
X134967627Y-115089173D01*
X134978071Y-115087596D01*
X134990842Y-115084284D01*
X134993950Y-115078069D01*
X134995498Y-115074783D01*
X135001176Y-115072332D01*
X135012532Y-115070603D01*
X135031118Y-115069477D01*
X135058481Y-115068839D01*
X135096171Y-115068572D01*
X135120981Y-115068542D01*
X135167683Y-115068230D01*
X135204415Y-115067321D01*
X135230438Y-115065851D01*
X135245015Y-115063857D01*
X135248013Y-115062190D01*
X135254274Y-115060061D01*
X135272703Y-115058343D01*
X135302774Y-115057055D01*
X135343957Y-115056218D01*
X135395725Y-115055853D01*
X135409979Y-115055839D01*
X135464262Y-115056084D01*
X135508090Y-115056807D01*
X135540935Y-115057986D01*
X135562269Y-115059601D01*
X135571563Y-115061631D01*
X135571944Y-115062190D01*
X135578272Y-115063624D01*
X135597165Y-115064879D01*
X135628484Y-115065953D01*
X135672094Y-115066844D01*
X135727856Y-115067550D01*
X135795632Y-115068069D01*
X135875286Y-115068399D01*
X135966680Y-115068537D01*
X135987973Y-115068542D01*
X136081888Y-115068445D01*
X136164092Y-115068157D01*
X136234448Y-115067678D01*
X136292820Y-115067013D01*
X136339069Y-115066161D01*
X136373057Y-115065127D01*
X136394649Y-115063911D01*
X136403705Y-115062515D01*
X136404002Y-115062190D01*
X136409438Y-115057415D01*
X136419881Y-115055839D01*
X136432652Y-115052526D01*
X136435760Y-115046311D01*
X136438687Y-115040779D01*
X136449062Y-115037809D01*
X136469278Y-115036803D01*
X136473870Y-115036784D01*
X136494169Y-115035820D01*
X136507931Y-115033301D01*
X136511979Y-115030432D01*
X136517415Y-115025658D01*
X136527858Y-115024081D01*
X136539945Y-115021457D01*
X136543670Y-115011128D01*
X136543737Y-115008202D01*
X136547050Y-114995431D01*
X136553264Y-114992323D01*
X136561685Y-114987238D01*
X136562792Y-114982795D01*
X136566221Y-114974343D01*
X136569143Y-114973268D01*
X136574277Y-114967939D01*
X136575495Y-114960365D01*
X136579634Y-114948152D01*
X136585022Y-114943807D01*
X136589573Y-114939483D01*
X136592470Y-114929279D01*
X136594023Y-114911033D01*
X136594542Y-114882586D01*
X136594550Y-114877315D01*
X136594230Y-114847877D01*
X136593057Y-114829034D01*
X136590714Y-114818687D01*
X136586883Y-114814738D01*
X136585022Y-114814478D01*
X136578398Y-114810283D01*
X136575668Y-114796376D01*
X136575495Y-114789072D01*
X136574086Y-114773162D01*
X136570567Y-114764313D01*
X136569143Y-114763665D01*
X136564010Y-114758337D01*
X136562792Y-114750763D01*
X136558653Y-114738549D01*
X136553264Y-114734204D01*
X136547399Y-114727788D01*
X136544407Y-114712799D01*
X136543737Y-114693118D01*
X136543737Y-114655688D01*
X136569143Y-114655688D01*
X136585512Y-114656555D01*
X136592788Y-114660643D01*
X136594541Y-114670185D01*
X136594550Y-114671567D01*
X136597173Y-114683655D01*
X136607502Y-114687379D01*
X136610429Y-114687446D01*
X136622740Y-114690289D01*
X136626304Y-114700529D01*
X136626308Y-114701037D01*
X136631993Y-114716969D01*
X136646595Y-114728188D01*
X136662829Y-114731706D01*
X136673076Y-114729501D01*
X136676828Y-114720072D01*
X136677120Y-114712653D01*
X136674141Y-114697076D01*
X136667593Y-114689743D01*
X136660190Y-114681243D01*
X136658066Y-114670888D01*
X136655803Y-114659280D01*
X136651714Y-114655688D01*
X136646580Y-114650360D01*
X136645362Y-114642786D01*
X136641224Y-114630572D01*
X136635835Y-114626227D01*
X136627394Y-114618230D01*
X136626308Y-114613724D01*
X136622396Y-114605721D01*
X136619502Y-114604876D01*
X136608728Y-114600065D01*
X136598494Y-114589505D01*
X136594550Y-114579923D01*
X136589670Y-114573397D01*
X136587744Y-114573118D01*
X136576970Y-114568307D01*
X136566736Y-114557747D01*
X136562792Y-114548165D01*
X136557912Y-114541639D01*
X136555987Y-114541360D01*
X136545212Y-114536549D01*
X136534978Y-114525989D01*
X136531034Y-114516407D01*
X136526154Y-114509881D01*
X136524229Y-114509602D01*
X136513919Y-114505054D01*
X136503665Y-114495124D01*
X136499276Y-114485723D01*
X136494273Y-114478878D01*
X136483397Y-114471492D01*
X136471793Y-114462584D01*
X136467518Y-114454540D01*
X136463451Y-114446805D01*
X136460713Y-114446086D01*
X136449938Y-114441275D01*
X136439705Y-114430715D01*
X136435760Y-114421133D01*
X136430880Y-114414607D01*
X136428955Y-114414328D01*
X136418180Y-114409517D01*
X136407947Y-114398957D01*
X136404002Y-114389375D01*
X136398569Y-114384261D01*
X136388123Y-114382570D01*
X136376187Y-114380396D01*
X136372244Y-114376219D01*
X136367100Y-114370584D01*
X136362717Y-114369867D01*
X136354296Y-114364783D01*
X136353189Y-114360340D01*
X136347853Y-114352590D01*
X136340060Y-114350812D01*
X136328070Y-114346399D01*
X136312842Y-114335234D01*
X136305964Y-114328582D01*
X136291457Y-114315397D01*
X136278690Y-114307428D01*
X136274433Y-114306351D01*
X136263243Y-114301367D01*
X136260213Y-114296824D01*
X136251679Y-114289296D01*
X136242037Y-114287296D01*
X136229143Y-114283592D01*
X136223861Y-114277769D01*
X136215245Y-114269923D01*
X136207302Y-114268242D01*
X136196873Y-114265619D01*
X136194400Y-114261890D01*
X136188964Y-114257115D01*
X136178521Y-114255538D01*
X136165750Y-114252226D01*
X136162642Y-114246011D01*
X136157120Y-114238348D01*
X136146763Y-114236484D01*
X136134826Y-114234309D01*
X136130884Y-114230132D01*
X136125171Y-114226509D01*
X136110566Y-114224209D01*
X136099126Y-114223780D01*
X136079155Y-114222761D01*
X136069400Y-114219229D01*
X136067368Y-114214253D01*
X136064612Y-114208909D01*
X136054763Y-114205939D01*
X136035452Y-114204795D01*
X136026083Y-114204726D01*
X136002925Y-114205362D01*
X135990054Y-114207635D01*
X135985100Y-114212091D01*
X135984797Y-114214253D01*
X135979977Y-114221300D01*
X135964591Y-114223763D01*
X135962567Y-114223780D01*
X135947873Y-114225376D01*
X135940528Y-114229299D01*
X135940336Y-114230132D01*
X135945170Y-114236299D01*
X135946688Y-114236484D01*
X135952323Y-114241628D01*
X135953039Y-114246011D01*
X135955643Y-114251174D01*
X135965011Y-114254136D01*
X135983475Y-114255393D01*
X135997766Y-114255538D01*
X136024019Y-114256367D01*
X136041134Y-114259341D01*
X136052600Y-114265193D01*
X136055507Y-114267663D01*
X136066481Y-114282388D01*
X136065397Y-114294091D01*
X136052698Y-114302000D01*
X136033965Y-114305111D01*
X136016389Y-114307378D01*
X136005540Y-114310965D01*
X136003852Y-114313051D01*
X135998216Y-114316810D01*
X135984138Y-114318901D01*
X135978446Y-114319054D01*
X135960780Y-114320628D01*
X135953500Y-114325843D01*
X135953039Y-114328582D01*
X135947518Y-114336244D01*
X135937160Y-114338109D01*
X135925224Y-114340283D01*
X135921281Y-114344461D01*
X135915755Y-114348893D01*
X135902411Y-114350810D01*
X135901923Y-114350812D01*
X135879936Y-114356913D01*
X135867849Y-114366691D01*
X135853829Y-114377703D01*
X135840099Y-114382559D01*
X135839570Y-114382570D01*
X135828794Y-114385255D01*
X135826008Y-114389375D01*
X135821196Y-114400150D01*
X135810637Y-114410384D01*
X135801055Y-114414328D01*
X135795020Y-114419465D01*
X135794250Y-114423856D01*
X135791574Y-114432318D01*
X135789314Y-114433383D01*
X135779375Y-114438123D01*
X135766315Y-114449721D01*
X135753714Y-114464241D01*
X135745150Y-114477746D01*
X135743437Y-114483838D01*
X135740843Y-114494352D01*
X135737085Y-114496899D01*
X135732311Y-114502334D01*
X135730734Y-114512778D01*
X135728406Y-114524712D01*
X135723929Y-114528657D01*
X135712057Y-114534032D01*
X135702332Y-114546629D01*
X135698976Y-114559281D01*
X135694705Y-114571312D01*
X135689448Y-114575415D01*
X135681603Y-114584031D01*
X135679921Y-114591973D01*
X135677298Y-114602402D01*
X135673570Y-114604876D01*
X135667935Y-114610020D01*
X135667218Y-114614403D01*
X135663788Y-114622856D01*
X135660866Y-114623931D01*
X135655732Y-114629259D01*
X135654515Y-114636833D01*
X135650376Y-114649047D01*
X135644987Y-114653392D01*
X135637020Y-114662037D01*
X135635460Y-114669374D01*
X135631029Y-114682003D01*
X135620292Y-114695747D01*
X135619581Y-114696418D01*
X135608680Y-114709185D01*
X135603729Y-114720245D01*
X135603702Y-114720841D01*
X135598564Y-114731422D01*
X135594175Y-114734204D01*
X135586329Y-114742820D01*
X135584647Y-114750763D01*
X135582024Y-114761192D01*
X135578296Y-114763665D01*
X135572661Y-114768810D01*
X135571944Y-114773193D01*
X135566860Y-114781614D01*
X135562417Y-114782720D01*
X135554667Y-114788056D01*
X135552889Y-114795838D01*
X135548253Y-114807471D01*
X135536260Y-114823754D01*
X135519790Y-114841810D01*
X135501719Y-114858762D01*
X135484924Y-114871733D01*
X135472283Y-114877844D01*
X135470733Y-114877994D01*
X135460192Y-114880761D01*
X135457616Y-114884799D01*
X135451878Y-114897382D01*
X135436953Y-114906398D01*
X135416784Y-114909752D01*
X135400163Y-114911734D01*
X135394175Y-114918099D01*
X135394100Y-114919279D01*
X135388578Y-114926942D01*
X135378221Y-114928807D01*
X135366284Y-114930981D01*
X135362342Y-114935158D01*
X135356369Y-114938248D01*
X135339935Y-114940438D01*
X135315267Y-114941465D01*
X135308154Y-114941510D01*
X135280225Y-114942019D01*
X135262707Y-114943793D01*
X135253338Y-114947206D01*
X135250310Y-114951037D01*
X135245491Y-114955951D01*
X135234135Y-114958918D01*
X135213974Y-114960316D01*
X135193345Y-114960565D01*
X135167292Y-114961275D01*
X135148872Y-114963227D01*
X135140355Y-114966150D01*
X135140036Y-114966916D01*
X135133831Y-114969343D01*
X135115784Y-114971229D01*
X135086745Y-114972527D01*
X135047567Y-114973190D01*
X135025708Y-114973268D01*
X134982022Y-114972923D01*
X134948072Y-114971921D01*
X134924711Y-114970307D01*
X134912789Y-114968131D01*
X134911379Y-114966916D01*
X134905795Y-114962718D01*
X134892066Y-114960620D01*
X134889148Y-114960565D01*
X134874455Y-114962160D01*
X134867110Y-114966083D01*
X134866918Y-114966916D01*
X134861482Y-114971691D01*
X134851039Y-114973268D01*
X134838268Y-114976581D01*
X134835160Y-114982795D01*
X134829677Y-114990481D01*
X134819960Y-114992323D01*
X134806788Y-114995870D01*
X134801105Y-115001850D01*
X134792489Y-115009696D01*
X134784547Y-115011377D01*
X134774118Y-115014000D01*
X134771644Y-115017729D01*
X134766500Y-115023364D01*
X134762117Y-115024081D01*
X134753664Y-115027510D01*
X134752589Y-115030432D01*
X134748077Y-115036510D01*
X134736760Y-115035810D01*
X134721965Y-115029216D01*
X134708070Y-115018629D01*
X134694751Y-115002605D01*
X134689559Y-114984941D01*
X134689073Y-114973714D01*
X134685857Y-114950876D01*
X134677209Y-114935007D01*
X134664633Y-114928815D01*
X134664121Y-114928807D01*
X134660054Y-114923004D01*
X134657667Y-114907710D01*
X134657315Y-114897049D01*
X134656173Y-114878933D01*
X134653252Y-114867434D01*
X134650964Y-114865291D01*
X134646189Y-114859855D01*
X134644612Y-114849412D01*
X134641299Y-114836641D01*
X134635085Y-114833533D01*
X134627400Y-114828050D01*
X134625558Y-114818334D01*
X134621875Y-114805104D01*
X134615679Y-114799344D01*
X134609473Y-114793226D01*
X134607311Y-114779448D01*
X134607740Y-114765318D01*
X134609679Y-114735083D01*
X134649376Y-114733192D01*
X134671010Y-114732421D01*
X134682886Y-114733429D01*
X134687927Y-114737269D01*
X134689059Y-114744992D01*
X134689073Y-114747483D01*
X134690062Y-114757083D01*
X134695198Y-114761872D01*
X134707733Y-114763508D01*
X134720831Y-114763665D01*
X134738947Y-114762523D01*
X134750446Y-114759602D01*
X134752589Y-114757314D01*
X134757734Y-114751679D01*
X134762117Y-114750962D01*
X134769876Y-114745670D01*
X134771644Y-114738284D01*
X134775968Y-114731206D01*
X134788080Y-114716585D01*
X134806686Y-114695740D01*
X134830494Y-114669995D01*
X134858212Y-114640670D01*
X134888546Y-114609087D01*
X134920204Y-114576567D01*
X134951893Y-114544433D01*
X134982322Y-114514005D01*
X135010197Y-114486605D01*
X135034225Y-114463555D01*
X135053114Y-114446176D01*
X135065572Y-114435790D01*
X135069871Y-114433383D01*
X135074869Y-114427949D01*
X135076520Y-114417504D01*
X135078694Y-114405567D01*
X135082872Y-114401625D01*
X135087920Y-114396270D01*
X135089223Y-114388062D01*
X135093689Y-114374518D01*
X135104496Y-114360355D01*
X135105102Y-114359783D01*
X135118546Y-114339794D01*
X135120981Y-114325510D01*
X135123936Y-114309695D01*
X135130509Y-114302296D01*
X135138195Y-114293721D01*
X135140036Y-114284949D01*
X135144849Y-114271539D01*
X135155915Y-114259332D01*
X135166647Y-114248224D01*
X135171177Y-114233227D01*
X135171794Y-114219715D01*
X135173094Y-114202980D01*
X135176371Y-114193130D01*
X135178146Y-114192023D01*
X135184046Y-114187904D01*
X135182038Y-114178167D01*
X135175424Y-114169338D01*
X135164273Y-114162736D01*
X135151430Y-114160411D01*
X135141973Y-114162754D01*
X135140036Y-114166616D01*
X135134726Y-114171806D01*
X135127552Y-114172968D01*
X135115967Y-114177174D01*
X135101168Y-114187464D01*
X135087181Y-114200348D01*
X135078032Y-114212334D01*
X135076520Y-114217215D01*
X135070929Y-114221519D01*
X135057147Y-114223710D01*
X135053836Y-114223780D01*
X135033245Y-114227287D01*
X135018493Y-114236408D01*
X135013004Y-114248733D01*
X135007371Y-114252994D01*
X134993297Y-114255365D01*
X134987598Y-114255538D01*
X134971689Y-114256947D01*
X134962840Y-114260466D01*
X134962192Y-114261890D01*
X134956605Y-114266073D01*
X134942851Y-114268181D01*
X134939762Y-114268242D01*
X134921750Y-114270970D01*
X134913676Y-114277769D01*
X134905175Y-114285172D01*
X134894820Y-114287296D01*
X134882560Y-114290734D01*
X134879621Y-114296824D01*
X134876221Y-114302815D01*
X134864450Y-114305741D01*
X134847863Y-114306351D01*
X134829747Y-114307494D01*
X134818248Y-114310415D01*
X134816105Y-114312703D01*
X134810777Y-114317837D01*
X134803203Y-114319054D01*
X134790989Y-114323193D01*
X134786644Y-114328582D01*
X134778143Y-114335985D01*
X134767789Y-114338109D01*
X134756181Y-114340372D01*
X134752589Y-114344461D01*
X134747154Y-114349235D01*
X134736710Y-114350812D01*
X134723939Y-114354125D01*
X134720831Y-114360340D01*
X134715399Y-114368052D01*
X134706460Y-114369867D01*
X134692511Y-114374707D01*
X134680164Y-114385746D01*
X134668126Y-114397058D01*
X134656426Y-114401625D01*
X134646598Y-114404463D01*
X134644612Y-114407977D01*
X134639468Y-114413612D01*
X134635085Y-114414328D01*
X134626664Y-114419412D01*
X134625558Y-114423856D01*
X134623330Y-114428504D01*
X134615199Y-114431399D01*
X134598996Y-114432903D01*
X134572547Y-114433378D01*
X134568393Y-114433383D01*
X134539046Y-114432832D01*
X134520861Y-114431039D01*
X134512340Y-114427793D01*
X134511229Y-114425363D01*
X134506570Y-114416203D01*
X134495365Y-114405430D01*
X134495350Y-114405419D01*
X134487326Y-114398318D01*
X134482575Y-114389748D01*
X134480252Y-114376409D01*
X134479512Y-114355000D01*
X134479471Y-114343372D01*
X134480059Y-114316520D01*
X134482095Y-114300030D01*
X134485987Y-114291601D01*
X134488998Y-114289593D01*
X134497440Y-114281596D01*
X134498526Y-114277089D01*
X134502183Y-114269083D01*
X134504877Y-114268242D01*
X134509652Y-114262806D01*
X134511229Y-114252363D01*
X134513557Y-114240429D01*
X134518034Y-114236484D01*
X134528809Y-114231673D01*
X134539042Y-114221113D01*
X134542987Y-114211531D01*
X134547867Y-114205005D01*
X134549792Y-114204726D01*
X134561747Y-114199306D01*
X134571414Y-114186508D01*
X134574745Y-114173421D01*
X134578611Y-114162721D01*
X134584272Y-114160265D01*
X134592721Y-114156595D01*
X134593800Y-114153459D01*
X134598611Y-114142684D01*
X134609171Y-114132451D01*
X134618752Y-114128507D01*
X134624787Y-114123369D01*
X134625558Y-114118979D01*
X134629227Y-114110531D01*
X134632363Y-114109452D01*
X134643138Y-114104641D01*
X134653371Y-114094081D01*
X134657315Y-114084499D01*
X134662195Y-114077973D01*
X134664121Y-114077694D01*
X134674896Y-114072883D01*
X134685129Y-114062323D01*
X134689073Y-114052741D01*
X134693953Y-114046215D01*
X134695879Y-114045936D01*
X134706654Y-114041125D01*
X134716887Y-114030565D01*
X134720831Y-114020983D01*
X134725711Y-114014457D01*
X134727637Y-114014178D01*
X134738411Y-114009367D01*
X134748645Y-113998807D01*
X134752589Y-113989225D01*
X134757469Y-113982699D01*
X134759395Y-113982420D01*
X134770169Y-113977609D01*
X134780403Y-113967049D01*
X134784347Y-113957467D01*
X134789659Y-113951929D01*
X134796974Y-113950662D01*
X134807156Y-113946322D01*
X134823035Y-113934739D01*
X134841765Y-113918066D01*
X134847357Y-113912553D01*
X134867603Y-113893685D01*
X134884996Y-113880392D01*
X134897022Y-113874558D01*
X134898246Y-113874443D01*
X134908928Y-113870572D01*
X134911379Y-113864916D01*
X134915685Y-113856478D01*
X134919399Y-113855388D01*
X134928559Y-113850729D01*
X134939332Y-113839525D01*
X134939343Y-113839509D01*
X134950418Y-113828275D01*
X134960209Y-113823630D01*
X134970355Y-113819292D01*
X134982923Y-113808749D01*
X134983866Y-113807751D01*
X134996761Y-113796839D01*
X135008094Y-113791898D01*
X135008690Y-113791873D01*
X135017481Y-113787617D01*
X135031816Y-113776633D01*
X135048870Y-113761591D01*
X135065822Y-113745164D01*
X135079847Y-113730023D01*
X135088122Y-113718841D01*
X135089223Y-113715655D01*
X135094659Y-113710879D01*
X135105102Y-113709302D01*
X135117039Y-113707128D01*
X135120981Y-113702950D01*
X135126417Y-113698176D01*
X135136860Y-113696599D01*
X135149631Y-113693286D01*
X135152739Y-113687071D01*
X135157824Y-113678651D01*
X135162267Y-113677544D01*
X135170719Y-113674114D01*
X135171794Y-113671192D01*
X135176985Y-113665670D01*
X135182022Y-113664841D01*
X135192303Y-113660279D01*
X135207023Y-113648715D01*
X135223027Y-113633332D01*
X135237161Y-113617312D01*
X135246271Y-113603838D01*
X135248013Y-113598250D01*
X135253156Y-113587381D01*
X135257541Y-113584567D01*
X135266096Y-113577977D01*
X135264890Y-113571548D01*
X135257541Y-113569567D01*
X135249878Y-113564045D01*
X135248013Y-113553688D01*
X135245839Y-113541751D01*
X135241662Y-113537809D01*
X135236027Y-113532664D01*
X135235310Y-113528282D01*
X135229788Y-113520619D01*
X135219431Y-113518754D01*
X135207494Y-113516580D01*
X135203552Y-113512403D01*
X135198407Y-113506768D01*
X135194025Y-113506051D01*
X135185604Y-113500967D01*
X135184497Y-113496524D01*
X135181068Y-113488071D01*
X135178146Y-113486996D01*
X135173371Y-113481561D01*
X135171794Y-113471117D01*
X135169466Y-113459183D01*
X135164989Y-113455238D01*
X135153011Y-113449807D01*
X135143360Y-113436950D01*
X135140036Y-113423735D01*
X135136029Y-113411328D01*
X135130509Y-113406723D01*
X135123105Y-113398222D01*
X135122483Y-113395189D01*
X135425858Y-113395189D01*
X135429151Y-113415552D01*
X135440657Y-113430100D01*
X135441737Y-113430967D01*
X135452967Y-113443148D01*
X135457616Y-113454810D01*
X135462365Y-113466455D01*
X135473494Y-113478087D01*
X135484891Y-113491025D01*
X135489373Y-113504383D01*
X135492975Y-113516017D01*
X135498901Y-113518754D01*
X135507350Y-113522424D01*
X135508428Y-113525560D01*
X135513239Y-113536334D01*
X135523799Y-113546568D01*
X135533381Y-113550512D01*
X135539416Y-113555649D01*
X135540186Y-113560040D01*
X135545708Y-113567702D01*
X135556065Y-113569567D01*
X135568002Y-113571741D01*
X135571944Y-113575919D01*
X135577915Y-113579012D01*
X135594337Y-113581202D01*
X135618974Y-113582227D01*
X135625933Y-113582270D01*
X135652076Y-113582416D01*
X135668032Y-113583346D01*
X135676315Y-113585801D01*
X135679439Y-113590521D01*
X135679921Y-113598149D01*
X135678260Y-113608887D01*
X135670786Y-113613283D01*
X135657691Y-113614028D01*
X135641248Y-113616094D01*
X135635500Y-113622688D01*
X135635460Y-113623555D01*
X135630087Y-113631293D01*
X135621897Y-113633083D01*
X135608353Y-113637549D01*
X135594190Y-113648356D01*
X135593618Y-113648962D01*
X135573764Y-113662359D01*
X135559544Y-113664841D01*
X135546035Y-113666654D01*
X135540192Y-113671032D01*
X135540186Y-113671192D01*
X135535042Y-113676827D01*
X135530659Y-113677544D01*
X135523678Y-113682262D01*
X135521163Y-113697419D01*
X135521131Y-113700228D01*
X135517213Y-113722256D01*
X135506568Y-113736642D01*
X135493003Y-113741060D01*
X135481370Y-113745280D01*
X135470319Y-113753763D01*
X135457616Y-113766466D01*
X135470319Y-113779169D01*
X135483869Y-113788492D01*
X135497233Y-113791576D01*
X135506483Y-113788094D01*
X135508428Y-113782345D01*
X135510527Y-113777902D01*
X135518217Y-113775050D01*
X135533587Y-113773475D01*
X135558726Y-113772863D01*
X135571944Y-113772818D01*
X135600839Y-113772649D01*
X135619335Y-113771832D01*
X135629734Y-113769898D01*
X135634339Y-113766381D01*
X135635452Y-113760811D01*
X135635460Y-113759915D01*
X135631321Y-113747702D01*
X135625933Y-113743357D01*
X135618738Y-113734271D01*
X135616405Y-113718150D01*
X135616405Y-113696599D01*
X135664042Y-113696599D01*
X135688045Y-113697387D01*
X135704775Y-113699520D01*
X135711634Y-113702652D01*
X135711679Y-113702950D01*
X135717471Y-113706325D01*
X135732633Y-113708616D01*
X135750215Y-113709302D01*
X135772472Y-113708684D01*
X135786909Y-113705616D01*
X135798394Y-113698281D01*
X135809717Y-113687071D01*
X135824782Y-113674287D01*
X135839826Y-113666415D01*
X135851787Y-113664468D01*
X135857606Y-113669456D01*
X135857766Y-113671192D01*
X135862910Y-113676827D01*
X135867293Y-113677544D01*
X135875714Y-113682628D01*
X135876820Y-113687071D01*
X135880506Y-113693307D01*
X135893076Y-113696179D01*
X135905856Y-113696599D01*
X135930148Y-113699670D01*
X135946601Y-113708111D01*
X135953021Y-113720761D01*
X135953039Y-113721551D01*
X135958382Y-113726989D01*
X135966376Y-113728357D01*
X135976672Y-113733158D01*
X135994756Y-113747333D01*
X136020232Y-113770538D01*
X136052704Y-113802432D01*
X136057964Y-113807751D01*
X136083555Y-113833488D01*
X136106114Y-113855745D01*
X136124127Y-113873062D01*
X136136082Y-113883983D01*
X136140355Y-113887146D01*
X136148921Y-113891822D01*
X136158083Y-113901960D01*
X136162629Y-113911724D01*
X136162642Y-113912099D01*
X136167522Y-113918625D01*
X136169447Y-113918904D01*
X136180222Y-113923715D01*
X136190455Y-113934275D01*
X136194400Y-113943857D01*
X136199537Y-113949892D01*
X136203927Y-113950662D01*
X136212177Y-113955801D01*
X136213454Y-113960911D01*
X136216566Y-113967862D01*
X136227824Y-113968925D01*
X136233098Y-113968276D01*
X136249745Y-113968656D01*
X136256008Y-113973906D01*
X136264435Y-113979839D01*
X136281727Y-113982393D01*
X136284002Y-113982420D01*
X136301410Y-113984082D01*
X136308387Y-113989552D01*
X136308728Y-113991948D01*
X136310289Y-113995269D01*
X136316017Y-113997735D01*
X136327479Y-113999466D01*
X136346240Y-114000582D01*
X136373867Y-114001205D01*
X136411928Y-114001453D01*
X136432784Y-114001475D01*
X136476370Y-114001341D01*
X136508858Y-114000860D01*
X136531854Y-113999912D01*
X136546959Y-113998378D01*
X136555779Y-113996137D01*
X136559917Y-113993071D01*
X136560495Y-113991948D01*
X136569029Y-113984420D01*
X136578671Y-113982420D01*
X136591632Y-113978554D01*
X136597001Y-113972490D01*
X136603458Y-113966033D01*
X136607573Y-113966739D01*
X136614654Y-113964321D01*
X136628009Y-113954357D01*
X136645339Y-113938677D01*
X136655002Y-113929032D01*
X136673220Y-113910675D01*
X136688132Y-113896408D01*
X136697563Y-113888274D01*
X136699552Y-113887146D01*
X136708551Y-113882139D01*
X136717395Y-113870959D01*
X136721575Y-113859366D01*
X136721582Y-113859002D01*
X136725841Y-113850312D01*
X136737248Y-113835433D01*
X136753745Y-113816930D01*
X136762867Y-113807516D01*
X136783904Y-113785377D01*
X136796726Y-113769018D01*
X136802914Y-113756128D01*
X136804152Y-113747192D01*
X136806012Y-113733908D01*
X136810485Y-113728357D01*
X136810504Y-113728357D01*
X136816139Y-113723212D01*
X136816855Y-113718829D01*
X136821940Y-113710409D01*
X136826383Y-113709302D01*
X136834045Y-113703780D01*
X136835910Y-113693423D01*
X136838084Y-113681486D01*
X136842262Y-113677544D01*
X136845212Y-113671505D01*
X136847346Y-113654609D01*
X136848478Y-113628686D01*
X136848613Y-113614028D01*
X136848928Y-113584409D01*
X136850082Y-113565393D01*
X136852387Y-113554891D01*
X136856158Y-113550813D01*
X136858141Y-113550512D01*
X136865187Y-113545692D01*
X136867651Y-113530306D01*
X136867668Y-113528282D01*
X136865602Y-113511840D01*
X136859008Y-113506091D01*
X136858141Y-113506051D01*
X136849720Y-113500967D01*
X136848613Y-113496524D01*
X136843793Y-113489477D01*
X136828407Y-113487014D01*
X136826383Y-113486996D01*
X136811061Y-113488417D01*
X136804879Y-113493965D01*
X136804152Y-113499699D01*
X136799266Y-113517904D01*
X136784249Y-113530087D01*
X136758565Y-113536542D01*
X136734285Y-113537809D01*
X136709532Y-113536886D01*
X136694175Y-113534297D01*
X136689824Y-113531004D01*
X136685012Y-113520229D01*
X136674453Y-113509996D01*
X136664871Y-113506051D01*
X136658345Y-113501171D01*
X136658066Y-113499246D01*
X136653255Y-113488471D01*
X136642695Y-113478238D01*
X136633113Y-113474293D01*
X136627078Y-113469156D01*
X136626308Y-113464766D01*
X136621776Y-113456333D01*
X136617854Y-113455238D01*
X136608963Y-113450171D01*
X136600901Y-113439359D01*
X136591993Y-113427755D01*
X136583949Y-113423480D01*
X136577487Y-113418012D01*
X136575495Y-113407601D01*
X136572872Y-113395514D01*
X136562542Y-113391790D01*
X136559616Y-113391722D01*
X136547298Y-113388874D01*
X136543740Y-113378632D01*
X136543737Y-113378181D01*
X136539316Y-113365931D01*
X136528131Y-113350540D01*
X136521507Y-113343674D01*
X136508425Y-113330031D01*
X136500435Y-113319179D01*
X136499276Y-113315930D01*
X136493843Y-113310836D01*
X136483397Y-113309152D01*
X136471460Y-113306978D01*
X136467518Y-113302800D01*
X136462373Y-113297165D01*
X136457991Y-113296449D01*
X136449542Y-113292779D01*
X136448463Y-113289643D01*
X136442726Y-113277060D01*
X136427800Y-113268045D01*
X136407632Y-113264691D01*
X136391011Y-113262709D01*
X136385023Y-113256343D01*
X136384947Y-113255163D01*
X136381518Y-113246711D01*
X136378596Y-113245636D01*
X136374398Y-113240052D01*
X136372299Y-113226323D01*
X136372244Y-113223405D01*
X136373839Y-113208712D01*
X136377762Y-113201367D01*
X136378596Y-113201175D01*
X136384231Y-113196030D01*
X136384947Y-113191647D01*
X136386899Y-113187464D01*
X136394071Y-113184678D01*
X136408443Y-113183032D01*
X136431990Y-113182269D01*
X136457991Y-113182120D01*
X136531034Y-113182120D01*
X136531034Y-113166241D01*
X136528188Y-113153926D01*
X136517947Y-113150365D01*
X136517471Y-113150362D01*
X136503927Y-113145896D01*
X136489764Y-113135089D01*
X136489192Y-113134483D01*
X136475356Y-113123487D01*
X136462017Y-113118618D01*
X136461470Y-113118604D01*
X136450985Y-113116000D01*
X136448463Y-113112253D01*
X136443135Y-113107119D01*
X136435561Y-113105901D01*
X136423347Y-113101762D01*
X136419002Y-113096374D01*
X136410335Y-113089252D01*
X136396668Y-113086846D01*
X136375689Y-113080903D01*
X136363273Y-113070967D01*
X136357518Y-113065150D01*
X136351350Y-113060961D01*
X136342725Y-113058134D01*
X136329602Y-113056401D01*
X136309939Y-113055493D01*
X136281692Y-113055145D01*
X136242820Y-113055088D01*
X136242037Y-113055088D01*
X136202962Y-113055143D01*
X136174547Y-113055483D01*
X136154752Y-113056378D01*
X136141532Y-113058095D01*
X136132847Y-113060901D01*
X136126653Y-113065064D01*
X136120908Y-113070850D01*
X136120800Y-113070967D01*
X136106964Y-113081964D01*
X136093625Y-113086833D01*
X136093078Y-113086846D01*
X136082596Y-113089634D01*
X136080071Y-113093652D01*
X136075260Y-113104426D01*
X136064700Y-113114660D01*
X136055118Y-113118604D01*
X136048592Y-113123484D01*
X136048313Y-113125409D01*
X136043502Y-113136184D01*
X136032942Y-113146418D01*
X136023361Y-113150362D01*
X136016834Y-113155242D01*
X136016555Y-113157167D01*
X136011744Y-113167942D01*
X136001184Y-113178175D01*
X135991603Y-113182120D01*
X135986065Y-113187432D01*
X135984797Y-113194751D01*
X135980164Y-113210556D01*
X135969002Y-113224751D01*
X135955416Y-113232545D01*
X135952070Y-113232933D01*
X135942435Y-113238473D01*
X135939190Y-113247159D01*
X135932985Y-113259312D01*
X135925437Y-113263621D01*
X135908700Y-113270936D01*
X135895255Y-113283620D01*
X135889530Y-113297449D01*
X135889524Y-113297860D01*
X135884891Y-113306954D01*
X135873645Y-113309152D01*
X135861710Y-113311480D01*
X135857766Y-113315957D01*
X135852954Y-113326732D01*
X135842395Y-113336965D01*
X135832813Y-113340910D01*
X135826287Y-113345790D01*
X135826008Y-113347715D01*
X135821196Y-113358490D01*
X135810637Y-113368723D01*
X135801055Y-113372668D01*
X135795020Y-113377805D01*
X135794250Y-113382195D01*
X135788819Y-113389925D01*
X135779959Y-113391785D01*
X135766174Y-113396966D01*
X135749209Y-113410942D01*
X135743437Y-113417129D01*
X135728822Y-113431506D01*
X135715695Y-113440694D01*
X135710091Y-113442473D01*
X135700663Y-113445523D01*
X135698976Y-113448887D01*
X135693831Y-113454522D01*
X135689448Y-113455238D01*
X135681000Y-113458908D01*
X135679921Y-113462044D01*
X135675975Y-113473804D01*
X135663294Y-113481580D01*
X135640614Y-113485824D01*
X135610054Y-113486996D01*
X135577125Y-113485587D01*
X135555352Y-113481058D01*
X135543469Y-113472958D01*
X135540186Y-113462044D01*
X135535306Y-113455517D01*
X135533381Y-113455238D01*
X135522606Y-113450427D01*
X135512373Y-113439867D01*
X135508428Y-113430286D01*
X135503291Y-113424251D01*
X135498901Y-113423480D01*
X135490480Y-113418396D01*
X135489373Y-113413953D01*
X135486178Y-113405497D01*
X135483464Y-113404426D01*
X135478078Y-113399025D01*
X135475524Y-113390135D01*
X135471466Y-113380142D01*
X135460621Y-113375271D01*
X135449676Y-113373872D01*
X135434114Y-113373268D01*
X135427438Y-113377220D01*
X135425886Y-113389093D01*
X135425858Y-113395189D01*
X135122483Y-113395189D01*
X135120981Y-113387867D01*
X135118188Y-113376248D01*
X135107448Y-113372711D01*
X135105102Y-113372668D01*
X135097227Y-113373209D01*
X135092512Y-113376562D01*
X135090146Y-113385317D01*
X135089320Y-113402066D01*
X135089223Y-113423480D01*
X135088966Y-113448782D01*
X135087759Y-113463944D01*
X135084953Y-113471527D01*
X135079898Y-113474092D01*
X135076321Y-113474293D01*
X135064107Y-113470154D01*
X135059762Y-113464766D01*
X135051124Y-113456831D01*
X135043629Y-113455238D01*
X135027006Y-113449799D01*
X135015505Y-113436434D01*
X135012942Y-113425522D01*
X135008389Y-113414970D01*
X134996809Y-113400617D01*
X134987598Y-113391722D01*
X134971196Y-113374405D01*
X134962859Y-113359216D01*
X134962254Y-113355201D01*
X134959643Y-113344048D01*
X134955386Y-113340910D01*
X134944612Y-113336099D01*
X134934378Y-113325539D01*
X134930434Y-113315957D01*
X134925296Y-113309922D01*
X134920906Y-113309152D01*
X134912651Y-113304014D01*
X134911379Y-113298924D01*
X134916096Y-113287959D01*
X134928085Y-113272945D01*
X134944100Y-113256961D01*
X134960897Y-113243083D01*
X134975232Y-113234389D01*
X134980946Y-113232933D01*
X134991527Y-113229031D01*
X134993950Y-113223405D01*
X134997619Y-113214957D01*
X135000755Y-113213878D01*
X135010511Y-113209797D01*
X135016634Y-113204804D01*
X135024200Y-113194177D01*
X135025708Y-113188925D01*
X135030587Y-113182399D01*
X135032513Y-113182120D01*
X135042269Y-113178039D01*
X135048392Y-113173046D01*
X135055958Y-113162419D01*
X135057465Y-113157167D01*
X135062603Y-113151133D01*
X135066993Y-113150362D01*
X135075448Y-113147093D01*
X135076520Y-113144313D01*
X135080719Y-113137118D01*
X135091757Y-113123916D01*
X135107302Y-113107485D01*
X135108278Y-113106506D01*
X135124102Y-113089366D01*
X135135480Y-113074532D01*
X135140030Y-113065122D01*
X135140036Y-113064918D01*
X135143374Y-113056273D01*
X135146388Y-113055088D01*
X135152023Y-113049944D01*
X135152739Y-113045561D01*
X135156200Y-113037109D01*
X135159149Y-113036034D01*
X135169101Y-113031379D01*
X135182178Y-113020087D01*
X135194571Y-113006166D01*
X135202473Y-112993624D01*
X135203552Y-112989297D01*
X135206721Y-112980282D01*
X135209904Y-112978869D01*
X135215539Y-112973725D01*
X135216255Y-112969342D01*
X135221339Y-112960921D01*
X135225783Y-112959815D01*
X135233527Y-112954460D01*
X135235310Y-112946481D01*
X135239802Y-112935030D01*
X135251786Y-112918545D01*
X135267068Y-112902052D01*
X135282969Y-112885127D01*
X135294361Y-112870417D01*
X135298824Y-112861056D01*
X135298826Y-112860943D01*
X135303415Y-112847970D01*
X135313861Y-112836747D01*
X135323778Y-112832783D01*
X135329813Y-112827645D01*
X135330584Y-112823255D01*
X135335668Y-112814835D01*
X135340111Y-112813728D01*
X135347820Y-112808289D01*
X135349639Y-112799251D01*
X135354528Y-112784333D01*
X135362342Y-112775618D01*
X135372285Y-112763822D01*
X135375045Y-112754261D01*
X135379420Y-112742931D01*
X135390073Y-112728542D01*
X135403296Y-112715143D01*
X135415381Y-112706787D01*
X135419448Y-112705751D01*
X135424558Y-112700401D01*
X135425858Y-112692313D01*
X135430509Y-112680513D01*
X135443053Y-112663796D01*
X135457616Y-112648587D01*
X135475021Y-112630018D01*
X135486253Y-112613998D01*
X135489373Y-112604860D01*
X135493176Y-112593942D01*
X135498901Y-112591422D01*
X135507350Y-112587753D01*
X135508428Y-112584617D01*
X135512509Y-112574861D01*
X135517502Y-112568738D01*
X135528129Y-112561172D01*
X135533381Y-112559664D01*
X135539907Y-112554785D01*
X135540186Y-112552859D01*
X135544267Y-112543103D01*
X135549260Y-112536980D01*
X135559887Y-112529414D01*
X135565139Y-112527907D01*
X135571665Y-112523027D01*
X135571944Y-112521101D01*
X135576025Y-112511345D01*
X135581018Y-112505222D01*
X135591645Y-112497656D01*
X135596897Y-112496149D01*
X135603423Y-112491269D01*
X135603702Y-112489343D01*
X135608513Y-112478568D01*
X135619073Y-112468335D01*
X135628655Y-112464391D01*
X135634881Y-112459338D01*
X135635460Y-112455937D01*
X135640528Y-112447046D01*
X135651339Y-112438984D01*
X135662943Y-112430076D01*
X135667218Y-112422032D01*
X135672535Y-112415249D01*
X135680348Y-112413578D01*
X135692338Y-112409165D01*
X135707566Y-112397999D01*
X135714443Y-112391347D01*
X135729648Y-112378082D01*
X135743959Y-112370131D01*
X135748951Y-112369117D01*
X135759715Y-112366428D01*
X135762492Y-112362312D01*
X135767303Y-112351537D01*
X135777863Y-112341303D01*
X135787444Y-112337359D01*
X135793479Y-112332222D01*
X135794250Y-112327832D01*
X135799623Y-112320094D01*
X135807812Y-112318304D01*
X135821357Y-112313838D01*
X135835520Y-112303031D01*
X135836091Y-112302425D01*
X135849043Y-112291508D01*
X135860496Y-112286571D01*
X135861092Y-112286546D01*
X135874245Y-112281979D01*
X135885547Y-112271550D01*
X135889524Y-112261594D01*
X135894934Y-112256398D01*
X135904723Y-112254788D01*
X135917895Y-112251241D01*
X135923578Y-112245261D01*
X135931819Y-112239094D01*
X135947163Y-112235997D01*
X135964349Y-112236146D01*
X135978110Y-112239717D01*
X135982371Y-112243298D01*
X135982435Y-112251414D01*
X135979570Y-112253355D01*
X135973810Y-112260869D01*
X135972094Y-112271197D01*
X135968685Y-112283570D01*
X135962567Y-112286546D01*
X135954116Y-112290060D01*
X135953039Y-112293056D01*
X135948772Y-112300215D01*
X135937410Y-112313597D01*
X135921111Y-112330721D01*
X135914930Y-112336856D01*
X135895322Y-112357672D01*
X135882058Y-112375138D01*
X135876840Y-112386995D01*
X135876820Y-112387511D01*
X135878104Y-112398227D01*
X135883074Y-112399240D01*
X135893413Y-112390355D01*
X135898495Y-112384996D01*
X135910483Y-112374167D01*
X135919880Y-112369158D01*
X135920438Y-112369117D01*
X135927865Y-112364888D01*
X135941717Y-112353557D01*
X135959594Y-112337158D01*
X135969154Y-112327832D01*
X135992970Y-112305501D01*
X136010765Y-112292201D01*
X136024137Y-112286798D01*
X136027278Y-112286546D01*
X136044012Y-112281228D01*
X136063857Y-112264812D01*
X136068086Y-112260362D01*
X136085790Y-112243843D01*
X136098704Y-112237548D01*
X136102045Y-112237932D01*
X136110424Y-112237178D01*
X136111829Y-112232358D01*
X136116918Y-112224112D01*
X136121356Y-112223030D01*
X136129777Y-112217946D01*
X136130884Y-112213503D01*
X136136405Y-112205840D01*
X136146763Y-112203976D01*
X136158699Y-112201801D01*
X136162642Y-112197624D01*
X136168277Y-112193647D01*
X136182353Y-112191434D01*
X136188048Y-112191272D01*
X136203956Y-112189763D01*
X136212806Y-112185994D01*
X136213454Y-112184467D01*
X136219263Y-112171620D01*
X136235224Y-112162919D01*
X136259143Y-112159524D01*
X136260638Y-112159514D01*
X136277840Y-112158271D01*
X136288253Y-112155121D01*
X136289674Y-112153163D01*
X136295261Y-112148980D01*
X136309014Y-112146872D01*
X136312103Y-112146811D01*
X136330115Y-112144083D01*
X136338189Y-112137284D01*
X136347207Y-112130098D01*
X136362867Y-112127756D01*
X136377877Y-112125773D01*
X136386107Y-112120946D01*
X136386330Y-112120432D01*
X136394243Y-112116337D01*
X136414563Y-112114423D01*
X136440892Y-112114485D01*
X136467690Y-112114741D01*
X136484326Y-112113524D01*
X136493296Y-112110454D01*
X136496824Y-112105931D01*
X136506179Y-112098246D01*
X136521507Y-112095999D01*
X136538337Y-112093149D01*
X136546034Y-112086471D01*
X136552313Y-112080678D01*
X136566996Y-112077678D01*
X136587999Y-112076944D01*
X136608379Y-112075984D01*
X136622206Y-112073474D01*
X136626308Y-112070592D01*
X136632495Y-112068088D01*
X136650417Y-112066162D01*
X136679119Y-112064872D01*
X136717644Y-112064276D01*
X136731109Y-112064241D01*
X136770454Y-112064089D01*
X136798790Y-112063534D01*
X136817809Y-112062419D01*
X136829204Y-112060592D01*
X136834667Y-112057898D01*
X136835910Y-112054713D01*
X136838009Y-112050270D01*
X136845699Y-112047418D01*
X136861068Y-112045843D01*
X136886208Y-112045231D01*
X136899426Y-112045186D01*
X136928932Y-112044582D01*
X136950265Y-112042892D01*
X136961594Y-112040300D01*
X136962942Y-112038834D01*
X136969157Y-112036455D01*
X136987275Y-112034594D01*
X137016505Y-112033293D01*
X137056056Y-112032595D01*
X137083622Y-112032483D01*
X137128836Y-112032810D01*
D14*
X119965000Y-120920000D02*
X121365000Y-120920000D01*
X122065000Y-121620000D02*
X122065000Y-122220000D01*
X121365000Y-122920000D02*
X119965000Y-122920000D01*
X119265000Y-122220000D02*
X119265000Y-121620000D01*
X119265000Y-121620000D02*
G75*
G02X119965000Y-120920000I700000J0D01*
G01*
X119965000Y-122920000D02*
G75*
G02X119265000Y-122220000I0J700000D01*
G01*
X122065000Y-122220000D02*
G75*
G02X121365000Y-122920000I-700000J0D01*
G01*
X121365000Y-120920000D02*
G75*
G02X122065000Y-121620000I0J-700000D01*
G01*
X114250000Y-120920000D02*
X115650000Y-120920000D01*
X116350000Y-121620000D02*
X116350000Y-122220000D01*
X115650000Y-122920000D02*
X114250000Y-122920000D01*
X113550000Y-122220000D02*
X113550000Y-121620000D01*
X113550000Y-121620000D02*
G75*
G02X114250000Y-120920000I700000J0D01*
G01*
X114250000Y-122920000D02*
G75*
G02X113550000Y-122220000I0J700000D01*
G01*
X116350000Y-122220000D02*
G75*
G02X115650000Y-122920000I-700000J0D01*
G01*
X115650000Y-120920000D02*
G75*
G02X116350000Y-121620000I0J-700000D01*
G01*
D10*
X115495605Y-116332000D02*
G75*
G03X115495605Y-116332000I-179605J0D01*
G01*
X112268000Y-97409000D02*
X114935000Y-97409000D01*
X112268000Y-115951000D02*
X112268000Y-97409000D01*
X114935000Y-115951000D02*
X112268000Y-115951000D01*
D14*
X132858252Y-93270000D02*
X132335748Y-93270000D01*
X132858252Y-94690000D02*
X132335748Y-94690000D01*
X123402000Y-124470000D02*
X139377000Y-124470000D01*
X123402000Y-119370000D02*
X123402000Y-124470000D01*
X139377000Y-119370000D02*
X123402000Y-119370000D01*
X131428000Y-95190000D02*
X129778000Y-95190000D01*
X131428000Y-118170000D02*
X131428000Y-95190000D01*
X126128000Y-118170000D02*
X131428000Y-118170000D01*
X126128000Y-95190000D02*
X126128000Y-118170000D01*
X127778000Y-95190000D02*
X126128000Y-95190000D01*
X129778000Y-95190000D02*
G75*
G02X127778000Y-95190000I-1000000J0D01*
G01*
D15*
X142443200Y-107137200D02*
G75*
G02X142443200Y-107746800I0J-304800D01*
G01*
D16*
X142443200Y-107746800D02*
X142443200Y-108737400D01*
X142443200Y-107137200D02*
X142443200Y-107746800D01*
X142443200Y-106146600D02*
X142443200Y-107137200D01*
X151180800Y-108737400D02*
X151180800Y-106146600D01*
D14*
X151944000Y-108695748D02*
X151944000Y-109218252D01*
X153364000Y-108695748D02*
X153364000Y-109218252D01*
X152661252Y-112066000D02*
X152138748Y-112066000D01*
X152661252Y-113486000D02*
X152138748Y-113486000D01*
X137430252Y-98604000D02*
X136907748Y-98604000D01*
X137430252Y-100024000D02*
X136907748Y-100024000D01*
X137158252Y-105970000D02*
X136635748Y-105970000D01*
X137158252Y-107390000D02*
X136635748Y-107390000D01*
X137167252Y-102541000D02*
X136644748Y-102541000D01*
X137167252Y-103961000D02*
X136644748Y-103961000D01*
X138378000Y-96010252D02*
X138378000Y-95487748D01*
X136958000Y-96010252D02*
X136958000Y-95487748D01*
X136390748Y-93166000D02*
X136913252Y-93166000D01*
X136390748Y-91746000D02*
X136913252Y-91746000D01*
D10*
X151011000Y-120331000D02*
X151011000Y-120081000D01*
X150261000Y-121081000D02*
X150011000Y-121081000D01*
X151011000Y-121831000D02*
X151011000Y-122081000D01*
X151761000Y-121081000D02*
X152011000Y-121081000D01*
X157761000Y-121081000D02*
X158011000Y-121081000D01*
X157011000Y-120331000D02*
X157011000Y-120081000D01*
X156261000Y-121081000D02*
X156011000Y-121081000D01*
X157011000Y-121831000D02*
X157011000Y-122081000D01*
X159011000Y-124081000D02*
X159011000Y-123081000D01*
X162011000Y-123081000D02*
X159011000Y-123081000D01*
X159011000Y-119081000D02*
X162011000Y-119081000D01*
X159011000Y-118081000D02*
X159011000Y-119081000D01*
X157761000Y-118081000D02*
X159011000Y-118081000D01*
X149261000Y-124081000D02*
X148011000Y-124081000D01*
X150761000Y-118081000D02*
X156261000Y-118081000D01*
X148011000Y-118081000D02*
X149261000Y-118081000D01*
X148011000Y-120831000D02*
X148011000Y-118081000D01*
X148011000Y-124081000D02*
X148011000Y-121331000D01*
X154261000Y-124081000D02*
X150761000Y-124081000D01*
X159011000Y-124081000D02*
X155761000Y-124081000D01*
D14*
X151376748Y-127964000D02*
X151899252Y-127964000D01*
X151376748Y-126544000D02*
X151899252Y-126544000D01*
X144763748Y-117296000D02*
X145286252Y-117296000D01*
X144763748Y-115876000D02*
X145286252Y-115876000D01*
X153364000Y-104646252D02*
X153364000Y-104123748D01*
X151944000Y-104646252D02*
X151944000Y-104123748D01*
X140433000Y-94197000D02*
X140433000Y-95447000D01*
X139808000Y-94822000D02*
X141058000Y-94822000D01*
X141298000Y-101477563D02*
X142362437Y-102542000D01*
X141298000Y-93086437D02*
X142362437Y-92022000D01*
X141298000Y-93086437D02*
X141298000Y-96072000D01*
X141298000Y-101477563D02*
X141298000Y-98492000D01*
X142362437Y-102542000D02*
X151818000Y-102542000D01*
X142362437Y-92022000D02*
X151818000Y-92022000D01*
X151818000Y-92022000D02*
X151818000Y-96072000D01*
X151818000Y-102542000D02*
X151818000Y-98492000D01*
X129668748Y-126313000D02*
X130191252Y-126313000D01*
X129668748Y-124893000D02*
X130191252Y-124893000D01*
X137303252Y-124893000D02*
X136780748Y-124893000D01*
X137303252Y-126313000D02*
X136780748Y-126313000D01*
D10*
X132421333Y-92813142D02*
X132373714Y-92860761D01*
X132230857Y-92908380D01*
X132135619Y-92908380D01*
X131992761Y-92860761D01*
X131897523Y-92765523D01*
X131849904Y-92670285D01*
X131802285Y-92479809D01*
X131802285Y-92336952D01*
X131849904Y-92146476D01*
X131897523Y-92051238D01*
X131992761Y-91956000D01*
X132135619Y-91908380D01*
X132230857Y-91908380D01*
X132373714Y-91956000D01*
X132421333Y-92003619D01*
X132754666Y-91908380D02*
X133421333Y-91908380D01*
X132992761Y-92908380D01*
X133000809Y-125706190D02*
X133000809Y-126182380D01*
X132667476Y-125182380D02*
X133000809Y-125706190D01*
X133334142Y-125182380D01*
X134191285Y-126182380D02*
X133619857Y-126182380D01*
X133905571Y-126182380D02*
X133905571Y-125182380D01*
X133810333Y-125325238D01*
X133715095Y-125420476D01*
X133619857Y-125468095D01*
X126238095Y-93813380D02*
X126238095Y-94622904D01*
X126285714Y-94718142D01*
X126333333Y-94765761D01*
X126428571Y-94813380D01*
X126619047Y-94813380D01*
X126714285Y-94765761D01*
X126761904Y-94718142D01*
X126809523Y-94622904D01*
X126809523Y-93813380D01*
X127238095Y-93908619D02*
X127285714Y-93861000D01*
X127380952Y-93813380D01*
X127619047Y-93813380D01*
X127714285Y-93861000D01*
X127761904Y-93908619D01*
X127809523Y-94003857D01*
X127809523Y-94099095D01*
X127761904Y-94241952D01*
X127190476Y-94813380D01*
X127809523Y-94813380D01*
X141057380Y-110616904D02*
X141866904Y-110616904D01*
X141962142Y-110569285D01*
X142009761Y-110521666D01*
X142057380Y-110426428D01*
X142057380Y-110235952D01*
X142009761Y-110140714D01*
X141962142Y-110093095D01*
X141866904Y-110045476D01*
X141057380Y-110045476D01*
X142057380Y-109045476D02*
X142057380Y-109616904D01*
X142057380Y-109331190D02*
X141057380Y-109331190D01*
X141200238Y-109426428D01*
X141295476Y-109521666D01*
X141343095Y-109616904D01*
X154756380Y-109123666D02*
X154280190Y-109457000D01*
X154756380Y-109695095D02*
X153756380Y-109695095D01*
X153756380Y-109314142D01*
X153804000Y-109218904D01*
X153851619Y-109171285D01*
X153946857Y-109123666D01*
X154089714Y-109123666D01*
X154184952Y-109171285D01*
X154232571Y-109218904D01*
X154280190Y-109314142D01*
X154280190Y-109695095D01*
X153756380Y-108266523D02*
X153756380Y-108457000D01*
X153804000Y-108552238D01*
X153851619Y-108599857D01*
X153994476Y-108695095D01*
X154184952Y-108742714D01*
X154565904Y-108742714D01*
X154661142Y-108695095D01*
X154708761Y-108647476D01*
X154756380Y-108552238D01*
X154756380Y-108361761D01*
X154708761Y-108266523D01*
X154661142Y-108218904D01*
X154565904Y-108171285D01*
X154327809Y-108171285D01*
X154232571Y-108218904D01*
X154184952Y-108266523D01*
X154137333Y-108361761D01*
X154137333Y-108552238D01*
X154184952Y-108647476D01*
X154232571Y-108695095D01*
X154327809Y-108742714D01*
X152233333Y-114878380D02*
X151900000Y-114402190D01*
X151661904Y-114878380D02*
X151661904Y-113878380D01*
X152042857Y-113878380D01*
X152138095Y-113926000D01*
X152185714Y-113973619D01*
X152233333Y-114068857D01*
X152233333Y-114211714D01*
X152185714Y-114306952D01*
X152138095Y-114354571D01*
X152042857Y-114402190D01*
X151661904Y-114402190D01*
X153138095Y-113878380D02*
X152661904Y-113878380D01*
X152614285Y-114354571D01*
X152661904Y-114306952D01*
X152757142Y-114259333D01*
X152995238Y-114259333D01*
X153090476Y-114306952D01*
X153138095Y-114354571D01*
X153185714Y-114449809D01*
X153185714Y-114687904D01*
X153138095Y-114783142D01*
X153090476Y-114830761D01*
X152995238Y-114878380D01*
X152757142Y-114878380D01*
X152661904Y-114830761D01*
X152614285Y-114783142D01*
X137002333Y-101416380D02*
X136669000Y-100940190D01*
X136430904Y-101416380D02*
X136430904Y-100416380D01*
X136811857Y-100416380D01*
X136907095Y-100464000D01*
X136954714Y-100511619D01*
X137002333Y-100606857D01*
X137002333Y-100749714D01*
X136954714Y-100844952D01*
X136907095Y-100892571D01*
X136811857Y-100940190D01*
X136430904Y-100940190D01*
X137859476Y-100749714D02*
X137859476Y-101416380D01*
X137621380Y-100368761D02*
X137383285Y-101083047D01*
X138002333Y-101083047D01*
X136730333Y-108782380D02*
X136397000Y-108306190D01*
X136158904Y-108782380D02*
X136158904Y-107782380D01*
X136539857Y-107782380D01*
X136635095Y-107830000D01*
X136682714Y-107877619D01*
X136730333Y-107972857D01*
X136730333Y-108115714D01*
X136682714Y-108210952D01*
X136635095Y-108258571D01*
X136539857Y-108306190D01*
X136158904Y-108306190D01*
X137063666Y-107782380D02*
X137682714Y-107782380D01*
X137349380Y-108163333D01*
X137492238Y-108163333D01*
X137587476Y-108210952D01*
X137635095Y-108258571D01*
X137682714Y-108353809D01*
X137682714Y-108591904D01*
X137635095Y-108687142D01*
X137587476Y-108734761D01*
X137492238Y-108782380D01*
X137206523Y-108782380D01*
X137111285Y-108734761D01*
X137063666Y-108687142D01*
X136739333Y-105353380D02*
X136406000Y-104877190D01*
X136167904Y-105353380D02*
X136167904Y-104353380D01*
X136548857Y-104353380D01*
X136644095Y-104401000D01*
X136691714Y-104448619D01*
X136739333Y-104543857D01*
X136739333Y-104686714D01*
X136691714Y-104781952D01*
X136644095Y-104829571D01*
X136548857Y-104877190D01*
X136167904Y-104877190D01*
X137120285Y-104448619D02*
X137167904Y-104401000D01*
X137263142Y-104353380D01*
X137501238Y-104353380D01*
X137596476Y-104401000D01*
X137644095Y-104448619D01*
X137691714Y-104543857D01*
X137691714Y-104639095D01*
X137644095Y-104781952D01*
X137072666Y-105353380D01*
X137691714Y-105353380D01*
X136470380Y-95915666D02*
X135994190Y-96249000D01*
X136470380Y-96487095D02*
X135470380Y-96487095D01*
X135470380Y-96106142D01*
X135518000Y-96010904D01*
X135565619Y-95963285D01*
X135660857Y-95915666D01*
X135803714Y-95915666D01*
X135898952Y-95963285D01*
X135946571Y-96010904D01*
X135994190Y-96106142D01*
X135994190Y-96487095D01*
X136470380Y-94963285D02*
X136470380Y-95534714D01*
X136470380Y-95249000D02*
X135470380Y-95249000D01*
X135613238Y-95344238D01*
X135708476Y-95439476D01*
X135756095Y-95534714D01*
X136485333Y-91384380D02*
X136009142Y-91384380D01*
X136009142Y-90384380D01*
X137342476Y-91384380D02*
X136771047Y-91384380D01*
X137056761Y-91384380D02*
X137056761Y-90384380D01*
X136961523Y-90527238D01*
X136866285Y-90622476D01*
X136771047Y-90670095D01*
X157146666Y-124547380D02*
X157146666Y-125261666D01*
X157099047Y-125404523D01*
X157003809Y-125499761D01*
X156860952Y-125547380D01*
X156765714Y-125547380D01*
X157575238Y-124642619D02*
X157622857Y-124595000D01*
X157718095Y-124547380D01*
X157956190Y-124547380D01*
X158051428Y-124595000D01*
X158099047Y-124642619D01*
X158146666Y-124737857D01*
X158146666Y-124833095D01*
X158099047Y-124975952D01*
X157527619Y-125547380D01*
X158146666Y-125547380D01*
X151471333Y-125961142D02*
X151423714Y-126008761D01*
X151280857Y-126056380D01*
X151185619Y-126056380D01*
X151042761Y-126008761D01*
X150947523Y-125913523D01*
X150899904Y-125818285D01*
X150852285Y-125627809D01*
X150852285Y-125484952D01*
X150899904Y-125294476D01*
X150947523Y-125199238D01*
X151042761Y-125104000D01*
X151185619Y-125056380D01*
X151280857Y-125056380D01*
X151423714Y-125104000D01*
X151471333Y-125151619D01*
X152328476Y-125056380D02*
X152138000Y-125056380D01*
X152042761Y-125104000D01*
X151995142Y-125151619D01*
X151899904Y-125294476D01*
X151852285Y-125484952D01*
X151852285Y-125865904D01*
X151899904Y-125961142D01*
X151947523Y-126008761D01*
X152042761Y-126056380D01*
X152233238Y-126056380D01*
X152328476Y-126008761D01*
X152376095Y-125961142D01*
X152423714Y-125865904D01*
X152423714Y-125627809D01*
X152376095Y-125532571D01*
X152328476Y-125484952D01*
X152233238Y-125437333D01*
X152042761Y-125437333D01*
X151947523Y-125484952D01*
X151899904Y-125532571D01*
X151852285Y-125627809D01*
X144858333Y-115293142D02*
X144810714Y-115340761D01*
X144667857Y-115388380D01*
X144572619Y-115388380D01*
X144429761Y-115340761D01*
X144334523Y-115245523D01*
X144286904Y-115150285D01*
X144239285Y-114959809D01*
X144239285Y-114816952D01*
X144286904Y-114626476D01*
X144334523Y-114531238D01*
X144429761Y-114436000D01*
X144572619Y-114388380D01*
X144667857Y-114388380D01*
X144810714Y-114436000D01*
X144858333Y-114483619D01*
X145763095Y-114388380D02*
X145286904Y-114388380D01*
X145239285Y-114864571D01*
X145286904Y-114816952D01*
X145382142Y-114769333D01*
X145620238Y-114769333D01*
X145715476Y-114816952D01*
X145763095Y-114864571D01*
X145810714Y-114959809D01*
X145810714Y-115197904D01*
X145763095Y-115293142D01*
X145715476Y-115340761D01*
X145620238Y-115388380D01*
X145382142Y-115388380D01*
X145286904Y-115340761D01*
X145239285Y-115293142D01*
X154662142Y-104433666D02*
X154709761Y-104481285D01*
X154757380Y-104624142D01*
X154757380Y-104719380D01*
X154709761Y-104862238D01*
X154614523Y-104957476D01*
X154519285Y-105005095D01*
X154328809Y-105052714D01*
X154185952Y-105052714D01*
X153995476Y-105005095D01*
X153900238Y-104957476D01*
X153805000Y-104862238D01*
X153757380Y-104719380D01*
X153757380Y-104624142D01*
X153805000Y-104481285D01*
X153852619Y-104433666D01*
X154090714Y-103576523D02*
X154757380Y-103576523D01*
X153709761Y-103814619D02*
X154424047Y-104052714D01*
X154424047Y-103433666D01*
X146391333Y-91439142D02*
X146343714Y-91486761D01*
X146200857Y-91534380D01*
X146105619Y-91534380D01*
X145962761Y-91486761D01*
X145867523Y-91391523D01*
X145819904Y-91296285D01*
X145772285Y-91105809D01*
X145772285Y-90962952D01*
X145819904Y-90772476D01*
X145867523Y-90677238D01*
X145962761Y-90582000D01*
X146105619Y-90534380D01*
X146200857Y-90534380D01*
X146343714Y-90582000D01*
X146391333Y-90629619D01*
X146724666Y-90534380D02*
X147343714Y-90534380D01*
X147010380Y-90915333D01*
X147153238Y-90915333D01*
X147248476Y-90962952D01*
X147296095Y-91010571D01*
X147343714Y-91105809D01*
X147343714Y-91343904D01*
X147296095Y-91439142D01*
X147248476Y-91486761D01*
X147153238Y-91534380D01*
X146867523Y-91534380D01*
X146772285Y-91486761D01*
X146724666Y-91439142D01*
X129754333Y-127611142D02*
X129706714Y-127658761D01*
X129563857Y-127706380D01*
X129468619Y-127706380D01*
X129325761Y-127658761D01*
X129230523Y-127563523D01*
X129182904Y-127468285D01*
X129135285Y-127277809D01*
X129135285Y-127134952D01*
X129182904Y-126944476D01*
X129230523Y-126849238D01*
X129325761Y-126754000D01*
X129468619Y-126706380D01*
X129563857Y-126706380D01*
X129706714Y-126754000D01*
X129754333Y-126801619D01*
X130135285Y-126801619D02*
X130182904Y-126754000D01*
X130278142Y-126706380D01*
X130516238Y-126706380D01*
X130611476Y-126754000D01*
X130659095Y-126801619D01*
X130706714Y-126896857D01*
X130706714Y-126992095D01*
X130659095Y-127134952D01*
X130087666Y-127706380D01*
X130706714Y-127706380D01*
X136875333Y-127610142D02*
X136827714Y-127657761D01*
X136684857Y-127705380D01*
X136589619Y-127705380D01*
X136446761Y-127657761D01*
X136351523Y-127562523D01*
X136303904Y-127467285D01*
X136256285Y-127276809D01*
X136256285Y-127133952D01*
X136303904Y-126943476D01*
X136351523Y-126848238D01*
X136446761Y-126753000D01*
X136589619Y-126705380D01*
X136684857Y-126705380D01*
X136827714Y-126753000D01*
X136875333Y-126800619D01*
X137827714Y-127705380D02*
X137256285Y-127705380D01*
X137542000Y-127705380D02*
X137542000Y-126705380D01*
X137446761Y-126848238D01*
X137351523Y-126943476D01*
X137256285Y-126991095D01*
M02*
