M48
; DRILL file {KiCad (5.1.5)-3} date 25-Jan-20 15:57:15
; FORMAT={-:-/ absolute / metric / decimal}
; #@! TF.CreationDate,2020-01-25T15:57:15+03:00
; #@! TF.GenerationSoftware,Kicad,Pcbnew,(5.1.5)-3
; #@! TF.FileFunction,Plated,1,2,PTH
FMAT,2
METRIC
T1C0.300
T2C0.800
%
G90
G05
T1
X114.3Y-120.04
X115.521Y-102.092
X115.735Y-103.48
X115.736Y-107.163
X116.51Y-100.305
X116.862Y-104.339
X116.867Y-103.52
X119.332Y-102.075
X121.209Y-103.394
X121.315Y-120.719
X121.607Y-106.245
X122.072Y-103.53
X122.149Y-101.498
X122.479Y-105.915
X123.342Y-97.79
X134.242Y-95.15
X138.927Y-100.372
X140.487Y-108.687
X142.501Y-106.663
X142.97Y-113.75
X145.515Y-108.447
X150.042Y-106.467
X150.042Y-126.056
T2
X124.968Y-96.52
X124.968Y-99.06
X124.968Y-101.6
X124.968Y-104.14
X124.968Y-106.68
X124.968Y-109.22
X124.968Y-111.76
X124.968Y-114.3
X124.968Y-116.84
X132.588Y-96.52
X132.588Y-99.06
X132.588Y-101.6
X132.588Y-104.14
X132.588Y-106.68
X132.588Y-109.22
X132.588Y-111.76
X132.588Y-114.3
X132.588Y-116.84
T0
M30
